<?xml version="1.0" encoding="UTF-8"?>
<svg width="57px" height="54px" viewBox="0 0 57 54" version="1.1" xmlns="http://www.w3.org/2000/svg" xmlns:xlink="http://www.w3.org/1999/xlink">
    <!-- Generator: Sketch 3.8.1 (29687) - http://www.bohemiancoding.com/sketch -->
    <title>Asesoria corporativa</title>
    <desc>Created with Sketch.</desc>
    <defs></defs>
    <g id="Servicios" stroke="none" stroke-width="1" fill="none" fill-rule="evenodd">
        <g id="Mobile-Sublimacion-Copy" transform="translate(-47.000000, -84.000000)" fill="#4A4A4A">
            <g id="Asesoria-corporativa" transform="translate(47.000000, 84.900000)">
                <g id="Coporativa-" transform="translate(0.617729, 0.000000)">
                    <polygon id="Fill-1" points="2.02394758 48.2525814 2.02394758 52.2597192 3.56635542 52.2597192 3.56635542 49.7806366 54.2730134 49.7806366 54.2730134 52.4505353 55.8154212 52.4505353 55.8154212 48.2525814"></polygon>
                    <path d="M6.79584897,48.2516654 L16.8215,48.2516654 L16.8215,26.8802635 L6.79584897,26.8802635 L6.79584897,48.2516654 Z M5.25344112,49.7781942 L18.3639078,49.7781942 L18.3639078,25.3537348 L5.25344112,25.3537348 L5.25344112,49.7781942 Z" id="Fill-2"></path>
                    <path d="M18.3639078,48.2516654 L35.7159961,48.2516654 L35.7159961,12.1874247 L18.3639078,12.1874247 L18.3639078,48.2516654 Z M16.8215,49.7781942 L37.2584039,49.7781942 L37.2584039,10.660896 L16.8215,10.660896 L16.8215,49.7781942 Z" id="Fill-3"></path>
                    <path d="M37.1581474,48.3508898 L51.6274754,48.3508898 L51.6274754,15.7121795 L37.1581474,15.7121795 L37.1581474,48.3508898 Z M35.817795,49.6789698 L52.9678278,49.6789698 L52.9678278,14.3871525 L35.817795,14.3871525 L35.817795,49.6789698 Z" id="Fill-4"></path>
                    <path d="M41.2470706,14.1795446 L47.802304,14.1795446 L47.802304,12.2713838 L41.2470706,12.2713838 L41.2470706,14.1795446 Z M39.7046628,15.7060734 L49.3447118,15.7060734 L49.3447118,10.744855 L39.7046628,10.744855 L39.7046628,15.7060734 Z" id="Fill-5"></path>
                    <path d="M20.9674923,10.0884477 L33.2095833,10.0884477 L33.2095833,8.18028681 L20.9674923,8.18028681 L20.9674923,10.0884477 Z M19.423542,11.6149764 L34.7519912,11.6149764 L34.7519912,6.6537581 L19.423542,6.6537581 L19.423542,11.6149764 Z" id="Fill-6"></path>
                    <path d="M23.8147771,5.74242046 L30.4579277,5.74242046 L30.4579277,4.12887961 L23.8147771,4.12887961 L23.8147771,5.74242046 Z M22.3602865,7.18346356 L31.9124183,7.18346356 L31.9124183,2.69088957 L22.3602865,2.69088957 L22.3602865,7.18346356 Z" id="Fill-7"></path>
                    <polygon id="Fill-8" points="4.00100595 8.3711029 10.3634383 8.3711029 10.3634383 6.84304766 4.00100595 6.84304766"></polygon>
                    <polygon id="Fill-9" points="35.7653531 2.55808157 40.7288216 2.55808157 40.7288216 1.21015672 35.7653531 1.21015672"></polygon>
                    <polygon id="Fill-10" points="12.627693 8.3711029 15.2297351 8.3711029 15.2297351 6.84304766 12.627693 6.84304766"></polygon>
                    <polygon id="Fill-11" points="0 15.6831754 5.06064014 15.6831754 5.06064014 14.3199853 0 14.3199853"></polygon>
                    <polygon id="Fill-12" points="39.8481067 44.8169759 41.2239345 44.8169759 41.2239345 19.1529752 39.8481067 19.1529752"></polygon>
                    <polygon id="Fill-13" points="43.7041263 44.8169759 45.0814965 44.8169759 45.0814965 19.1529752 43.7041263 19.1529752"></polygon>
                    <polygon id="Fill-14" points="47.3673449 44.8169759 48.7447152 44.8169759 48.7447152 19.1529752 47.3673449 19.1529752"></polygon>
                    <polygon id="Fill-15" points="8.82103047 30.9515156 10.6518686 30.9515156 10.6518686 29.2341708 8.82103047 29.2341708"></polygon>
                    <polygon id="Fill-16" points="12.5166397 30.9515156 14.3474778 30.9515156 14.3474778 29.2341708 12.5166397 29.2341708"></polygon>
                    <polygon id="Fill-17" points="8.82103047 34.6731926 10.6518686 34.6731926 10.6518686 32.9558478 8.82103047 32.9558478"></polygon>
                    <polygon id="Fill-18" points="12.5166397 34.6731926 14.3474778 34.6731926 14.3474778 32.9558478 12.5166397 32.9558478"></polygon>
                    <polygon id="Fill-19" points="8.82103047 38.393343 10.6518686 38.393343 10.6518686 36.6759982 8.82103047 36.6759982"></polygon>
                    <polygon id="Fill-20" points="12.5166397 38.393343 14.3474778 38.393343 14.3474778 36.6759982 12.5166397 36.6759982"></polygon>
                    <polygon id="Fill-21" points="8.82103047 42.11502 10.6518686 42.11502 10.6518686 40.3976752 8.82103047 40.3976752"></polygon>
                    <polygon id="Fill-22" points="12.5166397 42.11502 14.3474778 42.11502 14.3474778 40.3976752 12.5166397 40.3976752"></polygon>
                    <polygon id="Fill-23" points="8.82103047 45.9313418 10.6518686 45.9313418 10.6518686 44.213997 8.82103047 44.213997"></polygon>
                    <polygon id="Fill-24" points="12.5166397 45.9313418 14.3474778 45.9313418 14.3474778 44.213997 12.5166397 44.213997"></polygon>
                    <polygon id="Fill-25" points="20.5510421 30.9515156 22.3818803 30.9515156 22.3818803 29.2341708 20.5510421 29.2341708"></polygon>
                    <polygon id="Fill-26" points="24.2451089 30.9515156 26.075947 30.9515156 26.075947 29.2341708 24.2451089 29.2341708"></polygon>
                    <polygon id="Fill-27" points="20.5510421 34.6731926 22.3818803 34.6731926 22.3818803 32.9558478 20.5510421 32.9558478"></polygon>
                    <polygon id="Fill-28" points="24.2451089 34.6731926 26.075947 34.6731926 26.075947 32.9558478 24.2451089 32.9558478"></polygon>
                    <polygon id="Fill-29" points="20.5510421 38.393343 22.3818803 38.393343 22.3818803 36.6759982 20.5510421 36.6759982"></polygon>
                    <polygon id="Fill-30" points="24.2451089 38.393343 26.075947 38.393343 26.075947 36.6759982 24.2451089 36.6759982"></polygon>
                    <polygon id="Fill-31" points="20.5510421 42.11502 22.3818803 42.11502 22.3818803 40.3976752 20.5510421 40.3976752"></polygon>
                    <polygon id="Fill-32" points="24.2451089 42.11502 26.075947 42.11502 26.075947 40.3976752 24.2451089 40.3976752"></polygon>
                    <polygon id="Fill-33" points="20.5510421 45.9313418 22.3818803 45.9313418 22.3818803 44.213997 20.5510421 44.213997"></polygon>
                    <polygon id="Fill-34" points="24.2451089 45.9313418 26.075947 45.9313418 26.075947 44.213997 24.2451089 44.213997"></polygon>
                    <polygon id="Fill-35" points="28.0054993 30.9515156 29.8363374 30.9515156 29.8363374 29.2341708 28.0054993 29.2341708"></polygon>
                    <polygon id="Fill-36" points="31.699566 30.9515156 33.5304042 30.9515156 33.5304042 29.2341708 31.699566 29.2341708"></polygon>
                    <polygon id="Fill-37" points="20.5510421 27.2313651 22.3818803 27.2313651 22.3818803 25.5140203 20.5510421 25.5140203"></polygon>
                    <polygon id="Fill-38" points="24.2451089 27.2313651 26.075947 27.2313651 26.075947 25.5140203 24.2451089 25.5140203"></polygon>
                    <polygon id="Fill-39" points="28.0054993 27.2313651 29.8363374 27.2313651 29.8363374 25.5140203 28.0054993 25.5140203"></polygon>
                    <polygon id="Fill-40" points="31.699566 27.2313651 33.5304042 27.2313651 33.5304042 25.5140203 31.699566 25.5140203"></polygon>
                    <polygon id="Fill-41" points="28.0054993 34.6731926 29.8363374 34.6731926 29.8363374 32.9558478 28.0054993 32.9558478"></polygon>
                    <polygon id="Fill-42" points="31.699566 34.6731926 33.5304042 34.6731926 33.5304042 32.9558478 31.699566 32.9558478"></polygon>
                    <polygon id="Fill-43" points="20.5510421 19.7895377 22.3818803 19.7895377 22.3818803 18.0721929 20.5510421 18.0721929"></polygon>
                    <polygon id="Fill-44" points="24.2451089 19.7895377 26.075947 19.7895377 26.075947 18.0721929 24.2451089 18.0721929"></polygon>
                    <polygon id="Fill-45" points="20.5510421 23.5096881 22.3818803 23.5096881 22.3818803 21.7923433 20.5510421 21.7923433"></polygon>
                    <polygon id="Fill-46" points="24.2451089 23.5096881 26.075947 23.5096881 26.075947 21.7923433 24.2451089 21.7923433"></polygon>
                    <polygon id="Fill-47" points="28.0054993 19.7895377 29.8363374 19.7895377 29.8363374 18.0721929 28.0054993 18.0721929"></polygon>
                    <polygon id="Fill-48" points="31.699566 19.7895377 33.5304042 19.7895377 33.5304042 18.0721929 31.699566 18.0721929"></polygon>
                    <polygon id="Fill-49" points="20.5510421 16.0678607 22.3818803 16.0678607 22.3818803 14.3505159 20.5510421 14.3505159"></polygon>
                    <polygon id="Fill-50" points="24.2451089 16.0678607 26.075947 16.0678607 26.075947 14.3505159 24.2451089 14.3505159"></polygon>
                    <polygon id="Fill-51" points="28.0054993 16.0678607 29.8363374 16.0678607 29.8363374 14.3505159 28.0054993 14.3505159"></polygon>
                    <polygon id="Fill-52" points="31.699566 16.0678607 33.5304042 16.0678607 33.5304042 14.3505159 31.699566 14.3505159"></polygon>
                    <polygon id="Fill-53" points="28.0054993 23.5096881 29.8363374 23.5096881 29.8363374 21.7923433 28.0054993 21.7923433"></polygon>
                    <polygon id="Fill-54" points="31.699566 23.5096881 33.5304042 23.5096881 33.5304042 21.7923433 31.699566 21.7923433"></polygon>
                    <polygon id="Fill-55" points="28.0054993 38.393343 29.8363374 38.393343 29.8363374 36.6759982 28.0054993 36.6759982"></polygon>
                    <polygon id="Fill-56" points="31.699566 38.393343 33.5304042 38.393343 33.5304042 36.6759982 31.699566 36.6759982"></polygon>
                    <polygon id="Fill-57" points="28.0054993 42.11502 29.8363374 42.11502 29.8363374 40.3976752 28.0054993 40.3976752"></polygon>
                    <polygon id="Fill-58" points="31.699566 42.11502 33.5304042 42.11502 33.5304042 40.3976752 31.699566 40.3976752"></polygon>
                    <polygon id="Fill-59" points="28.0054993 45.9313418 29.8363374 45.9313418 29.8363374 44.213997 28.0054993 44.213997"></polygon>
                    <polygon id="Fill-60" points="31.699566 45.9313418 33.5304042 45.9313418 33.5304042 44.213997 31.699566 44.213997"></polygon>
                    <polygon id="Fill-61" points="26.2209334 3.45720698 27.7633412 3.45720698 27.7633412 0.0225173852 26.2209334 0.0225173852"></polygon>
                </g>
            </g>
        </g>
    </g>
</svg>