<?xml version="1.0" encoding="UTF-8"?>
<svg width="51px" height="46px" viewBox="0 0 51 46" version="1.1" xmlns="http://www.w3.org/2000/svg" xmlns:xlink="http://www.w3.org/1999/xlink">
    <!-- Generator: Sketch 3.8.1 (29687) - http://www.bohemiancoding.com/sketch -->
    <title>Bill</title>
    <desc>Created with Sketch.</desc>
    <defs></defs>
    <g id="Servicios" stroke="none" stroke-width="1" fill="none" fill-rule="evenodd">
        <g id="Mobile-Sublimacion-Copy" transform="translate(-312.000000, -82.000000)" fill="#4A4A4A">
            <g id="Bill" transform="translate(312.000000, 81.900000)">
                <g id="Group-3" transform="translate(0.000000, 0.012621)">
                    <path d="M28.0412478,36.4237566 L2.71736076,36.4237566 C2.71736076,37.4994164 2.71775151,38.5249874 2.7172305,39.5506898 C2.71592797,41.601043 3.96401067,42.8859976 5.98175738,42.8870493 C13.4260978,42.8908619 20.8704383,42.8888899 28.314909,42.886392 C28.4921831,42.886392 28.6694572,42.8554974 28.9280091,42.831439 C27.6369429,40.7984394 28.2659339,38.5849361 28.0412478,36.4237566 L28.0412478,36.4237566 Z M38.2235029,23.1792848 C43.7730553,23.1828344 48.3079381,18.6310661 48.3130179,13.0521493 C48.3180978,7.39645587 43.8116101,2.87781715 38.1566831,2.86835156 C32.6983077,2.85914889 28.14545,7.42432679 28.1294289,12.9227861 C28.1127566,18.6034582 32.6127316,23.1757352 38.2235029,23.1792848 L38.2235029,23.1792848 Z M29.4963022,22.4687078 C29.0237449,21.9353478 28.6151418,21.5630344 28.3193376,21.1147333 C28.0359074,20.6852319 27.6950357,20.6068778 27.2292516,20.6088498 C23.5833444,20.6237055 19.9374372,20.6184468 16.29153,20.6160804 C15.2844151,20.6154231 14.6455249,20.0836407 14.6345837,19.2511941 C14.6239029,18.4241377 15.2725621,17.8852561 16.2752484,17.885782 C18.5538915,17.8869652 20.8325347,17.8873596 23.1113081,17.8878854 C24.1718267,17.8881484 25.2323453,17.8878854 26.3045867,17.8878854 C26.0068287,16.698507 25.7227472,15.5632929 25.436712,14.4201908 L11.5119021,14.4201908 L11.5119021,33.6566475 L12.1333384,33.6566475 C17.6890127,33.6553328 23.2448173,33.6561216 28.8003613,33.6515203 C30.415236,33.6500741 30.7528513,33.9834735 30.7626203,35.5927562 C30.7719985,37.1469544 30.7099982,38.7082518 30.8380367,40.2531159 C30.976756,41.9286578 32.4209994,42.9949834 34.1458075,42.8752174 C35.6286058,42.7724105 36.8359194,41.4399964 36.8623607,39.8712054 C36.8700456,39.4113352 36.863533,38.9513336 36.863533,38.4913319 C36.8637935,34.4826522 36.8682221,30.4742353 36.8536338,26.4658185 C36.8528522,26.2466637 36.7356247,25.8676455 36.6051113,25.8347788 C35.580282,25.5757896 34.5472468,25.2859057 33.5006652,25.1951938 C32.2727717,25.0887058 31.0288571,25.1740277 29.7917156,25.1744221 C25.299686,25.1757367 20.8076564,25.1803381 16.3154965,25.1744221 C15.2726923,25.1731074 14.6554241,24.6626226 14.6421383,23.8385899 C14.6282013,22.9820849 15.2431249,22.472126 16.3278705,22.4685764 C18.2808816,22.462003 20.2341532,22.4683134 22.1872945,22.4685764 C24.5687071,22.4689708 26.9498592,22.4687078 29.4963022,22.4687078 L29.4963022,22.4687078 Z M25.4664097,11.673459 C26.2436283,4.88412903 32.0777832,-0.212699822 38.9979862,0.135686684 C44.895444,0.43253828 49.9871577,5.09763079 50.8694904,11.2129314 C51.3875059,14.804862 50.495274,18.088372 48.2744631,20.952372 C46.0734506,23.790736 43.1411988,25.3845057 39.574876,25.8585743 C39.574876,28.2295745 39.5750063,30.5490398 39.5747458,32.8686366 C39.5747458,35.1691708 39.5816492,37.4697049 39.5721407,39.7702391 C39.5588549,43.0442834 37.0310381,45.6103801 33.7942551,45.6130094 C24.4816982,45.6210289 15.1691413,45.6203716 5.8565844,45.6139297 C2.61849885,45.6116948 0.107224136,43.1522175 0.0233413086,39.8873758 C-0.0170370712,38.3108283 0.00406388854,36.7324402 0.0198244819,35.1551038 C0.0297236976,34.181988 0.565062861,33.6605915 1.52216071,33.6586195 C3.90865321,33.6534923 6.29514571,33.6569104 8.78831528,33.6569104 L8.78831528,32.9337126 C8.79052958,26.4705513 8.79235312,20.00739 8.79508843,13.5442288 C8.79586994,12.0626001 9.17698975,11.6776659 10.6407711,11.67714 C15.4163612,11.675431 20.1919512,11.6746422 24.9675413,11.673459 L25.4664097,11.673459 Z" id="Fill-1"></path>
                </g>
                <path d="M21.2633981,29.7345385 C19.5716742,29.7345385 17.8796898,29.738614 16.187966,29.7328294 C15.2489733,29.7296742 14.6643985,29.2272089 14.6417345,28.4248682 C14.6186798,27.6114843 15.2334732,27.0326368 16.1882265,27.0297445 C19.5719347,27.0193587 22.9555127,27.0196216 26.3390906,27.0304019 C27.169192,27.0330312 27.6887706,27.4422867 27.8313974,28.128148 C27.951751,28.706864 27.6528208,29.348684 27.0923428,29.5908455 C26.8446019,29.6979908 26.5482767,29.726519 26.2737037,29.7286225 C24.6036018,29.7405859 22.9333697,29.7345385 21.2633981,29.7345385" id="Fill-4"></path>
                <path d="M36.855835,19.0947883 C35.7417825,18.4479726 34.7527727,17.9565504 33.858066,17.328403 C33.1106752,16.8035883 33.0610489,15.9409044 33.5940435,15.3255092 C34.1076304,14.7325949 34.8722146,14.7036722 35.5642479,15.253597 C36.4430638,15.9520791 37.4229559,16.3731666 38.5588909,16.3158472 C38.8322916,16.3020432 39.137995,16.2470902 39.3605971,16.1032657 C39.5710857,15.9673292 39.8087971,15.6947989 39.8179148,15.4731462 C39.8269023,15.2625367 39.6014346,14.9299262 39.3985007,14.8431583 C38.7852703,14.5811453 38.1269725,14.4299587 37.4975908,14.2031788 C36.7892758,13.9478707 36.0309438,13.757507 35.4061209,13.3600835 C34.2957155,12.6541078 33.7645444,11.5382193 33.905999,10.2177687 C34.0585251,8.79332799 34.8525464,7.78695112 36.2235878,7.3378612 C36.6790819,7.1886466 36.8880075,7.01826588 36.8718561,6.49358266 C36.8472383,5.69400276 37.4026364,5.14907368 38.1413003,5.12383209 C38.9090105,5.0978017 39.5551948,5.63024145 39.5335729,6.44099601 C39.5169005,7.07111546 39.7727171,7.28869269 40.2924259,7.49535819 C40.8492568,7.71674796 41.3796463,8.03910408 41.869397,8.39130311 C42.5390269,8.87260236 42.6625065,9.68204225 42.2312394,10.2946766 C41.7753545,10.9422811 40.9825054,11.0654653 40.2890393,10.5631314 C39.388341,9.91079414 38.4238187,9.49785753 37.3156275,9.8578131 C37.0285503,9.95102293 36.6295859,10.316763 36.6366195,10.5464352 C36.6448254,10.8137068 36.9945543,11.1843112 37.2811105,11.3052604 C37.8744122,11.5557043 38.5289327,11.6541728 39.1486757,11.8469029 C39.6224053,11.9942769 40.0952231,12.1603192 40.5444651,12.3705343 C41.8386573,12.9759381 42.6015482,13.9717976 42.5556992,15.4548724 C42.509199,16.954249 41.7687116,18.0485771 40.4002753,18.6062584 C39.8056711,18.8485514 39.5153375,19.0773032 39.5119509,19.7832789 C39.5084341,20.520938 38.841279,20.9822544 38.1170733,20.9439976 C37.4040692,20.9065296 36.8943899,20.3726437 36.8577888,19.6148702 C36.8460661,19.3767842 36.855835,19.1377779 36.855835,19.0947883" id="Fill-6"></path>
            </g>
        </g>
    </g>
</svg>