<?xml version="1.0" encoding="UTF-8"?>
<svg width="78px" height="85px" viewBox="0 0 78 85" version="1.1" xmlns="http://www.w3.org/2000/svg" xmlns:xlink="http://www.w3.org/1999/xlink">
    <!-- Generator: Sketch 3.8.1 (29687) - http://www.bohemiancoding.com/sketch -->
    <title>Billing-icon</title>
    <desc>Created with Sketch.</desc>
    <defs></defs>
    <g id="Home" stroke="none" stroke-width="1" fill="none" fill-rule="evenodd" opacity="0.452898551">
        <g id="Cotizador-móvil" transform="translate(-164.000000, -776.000000)" fill="#FFFFFF">
            <g id="Form-Copy" transform="translate(17.000000, 757.000000)">
                <g id="Form-title">
                    <g id="Billing-icon" transform="translate(147.000000, 19.000000)">
                        <g id="Group-3" transform="translate(0.000000, 0.032683)">
                            <path d="M42.7500576,67.7281128 L4.14267157,67.7281128 C4.14267157,69.7347946 4.1432673,71.648034 4.14247299,73.5615187 C4.14048723,77.3865259 6.04324451,79.7836547 9.11938863,79.7856167 C20.468615,79.7927291 31.8178413,79.7890503 43.1672662,79.7843904 C43.4375285,79.7843904 43.7077907,79.7267554 44.1019645,79.6818736 C42.133677,75.8892401 43.0926016,71.7598706 42.7500576,67.7281128 L42.7500576,67.7281128 Z M58.273356,43.0200769 C66.7338941,43.0266988 73.6475236,34.5352122 73.655268,24.1275431 C73.6630125,13.5766447 66.7926727,5.14696249 58.1714864,5.12930408 C49.8499515,5.11213618 42.9089186,13.6286389 42.8844937,23.8862115 C42.8590759,34.4837085 49.719487,43.013455 58.273356,43.0200769 L58.273356,43.0200769 Z M44.9683525,41.6944701 C44.247918,40.6994679 43.6249844,40.0049038 43.1740178,39.168582 C42.741916,38.3673318 42.222242,38.2211594 41.5121335,38.2248383 C35.9537867,38.2525522 30.3954399,38.2427419 24.8370931,38.2383273 C23.3017018,38.237101 22.3276855,37.2450419 22.3110051,35.6920831 C22.2947218,34.1491798 23.2836314,33.1438768 24.8122711,33.1448578 C28.2861634,33.1470651 31.7600556,33.1478009 35.2341465,33.1487819 C36.850954,33.1492724 38.4677616,33.1487819 40.1024409,33.1487819 C39.6484957,30.929954 39.215401,28.8121714 38.7793276,26.6796734 L17.5503389,26.6796734 L17.5503389,62.5659718 L18.4977461,62.5659718 C26.9676173,62.5635192 35.4376871,62.5649907 43.9073598,62.5564068 C46.3693077,62.553709 46.8840172,63.1756773 46.8989104,66.1778518 C46.9132079,69.0772642 46.8186856,71.9899204 47.0138861,74.8719196 C47.2253697,77.997703 49.4271828,79.9869716 52.056729,79.7635437 C54.3173206,79.5717538 56.1579236,77.0860877 56.1982345,74.1594519 C56.2099505,73.3015477 56.2000217,72.4433981 56.2000217,71.5852486 C56.2004189,64.1069131 56.2071705,56.6290681 56.1849299,49.1512231 C56.1837385,48.7423819 56.0050199,48.0353098 55.8060465,47.9739959 C54.2436489,47.4908423 52.6687409,46.9500535 51.073181,46.7808271 C49.2012031,46.5821701 47.3048002,46.741341 45.4187233,46.7420767 C38.5704255,46.7445293 31.7221276,46.7531132 24.8736311,46.7420767 C23.28383,46.7396242 22.3427773,45.7872965 22.3225225,44.250034 C22.3012748,42.6521934 23.2387532,41.7008467 24.8924959,41.6942248 C27.8699476,41.681962 30.8477965,41.6937343 33.8254468,41.6942248 C37.4560157,41.6949606 41.0861875,41.6944701 44.9683525,41.6944701 L44.9683525,41.6944701 Z M38.824603,21.555547 C40.0095073,8.88980908 48.9039345,-0.618507509 59.4540901,0.0314199831 C68.4450253,0.585207258 76.2075681,9.28810426 77.5527234,20.6964164 C78.342461,27.3972915 76.9822139,33.5227968 73.5964895,38.8656913 C70.2409486,44.1607609 65.7706009,47.1339953 60.3335842,48.0183872 C60.3335842,52.441573 60.3337827,56.7686185 60.3333856,61.0959093 C60.3333856,65.3876381 60.3439101,69.6793669 60.3294141,73.9710956 C60.3091593,80.0789425 56.4553907,84.8660877 51.5207718,84.8709928 C37.3233668,84.8859534 23.1259619,84.8847271 8.92855689,84.8727096 C3.99195222,84.8685402 0.163402822,80.2802974 0.03551974,74.1896184 C-0.0260388863,71.2485125 0.00613046035,68.3039731 0.0301581822,65.3613957 C0.0452499744,63.5460134 0.861398213,62.5733294 2.32053623,62.5696506 C5.95884962,62.5600856 9.597163,62.5664623 13.3981103,62.5664623 L13.3981103,61.2173109 C13.4014861,49.1600523 13.4042662,37.1027936 13.4084363,25.045535 C13.4096277,22.2815037 13.9906617,21.5633952 16.2222612,21.5624142 C23.5028595,21.5592258 30.7834578,21.5577543 38.0640561,21.555547 L38.824603,21.555547 Z" id="Fill-1"></path>
                        </g>
                        <path d="M32.2794607,55.4565585 C29.7003529,55.4565585 27.1208478,55.4641614 24.54174,55.4533701 C23.1102041,55.447484 22.218994,54.5101169 22.1844417,53.0133216 C22.1492938,51.4959248 23.0865735,50.4160642 24.5421371,50.4106686 C29.70075,50.3912934 34.8591643,50.3917839 40.0175786,50.4118948 C41.2831048,50.4168 42.0752253,51.1802808 42.2926663,52.4597796 C42.4761507,53.539395 42.0204183,54.7367331 41.1659449,55.188494 C40.7882529,55.3883774 40.336492,55.4415979 39.9178934,55.445522 C37.3717491,55.4678402 34.8254064,55.4565585 32.2794607,55.4565585" id="Fill-4"></path>
                        <path d="M56.3218516,35.790657 C54.6234293,34.5839992 53.1156401,33.6672335 51.7516201,32.495402 C50.6121898,31.5163414 50.5365322,29.9069738 51.3491061,28.7589321 C52.1320921,27.652829 53.2977345,27.5988728 54.3527699,28.6247772 C55.6925636,29.9278205 57.1864525,30.7133744 58.9182356,30.6064429 C59.3350471,30.5806911 59.8011055,30.4781742 60.1404722,30.2098645 C60.4613714,29.9562702 60.823773,29.4478552 60.8376733,29.0343542 C60.8513751,28.6414546 60.5076396,28.0209578 60.1982579,27.8590891 C59.2633611,27.3702945 58.2597569,27.0882505 57.3002366,26.6651845 C56.2203792,26.188898 55.0642685,25.8337678 54.1116984,25.09236 C52.4188361,23.7753371 51.6090423,21.6936071 51.8246961,19.2302593 C52.0572289,16.5729142 53.2677495,14.6954821 55.3579627,13.8576888 C56.0523837,13.5793237 56.3709,13.2614723 56.3462765,12.282657 C56.3087456,10.7910121 57.1554746,9.77442738 58.2816003,9.7273383 C59.4520085,9.67877768 60.4371451,10.6720631 60.4041814,12.1845547 C60.3787637,13.3600651 60.7687674,13.7659632 61.5610865,14.1515051 C62.4099998,14.5645156 63.2186021,15.1658825 63.9652487,15.8229224 C64.986129,16.7208034 65.1743792,18.2308425 64.5168934,19.3737338 C63.8218766,20.5818632 62.6131432,20.8116677 61.5559235,19.8745459 C60.182769,18.6575873 58.7123121,17.8872393 57.0228257,18.5587493 C56.5851637,18.7326355 55.9769247,19.4149368 55.9876479,19.8433984 C56.0001582,20.3420032 56.5333353,21.0333789 56.970203,21.2590141 C57.8747176,21.7262261 58.8725631,21.9099226 59.8173887,22.2694674 C60.5396104,22.544399 61.2604421,22.8541569 61.9453314,23.2463206 C63.9183847,24.375723 65.0814456,26.2335346 65.0115467,29.0002636 C64.940655,31.7974044 63.8117493,33.8389125 61.7255076,34.879287 C60.8190071,35.3312932 60.3763808,35.758038 60.3712178,37.0750609 C60.3658562,38.4511904 59.3487489,39.3117925 58.2446651,39.2404231 C57.1576589,39.1705252 56.3806302,38.174542 56.3248303,36.7608884 C56.3069584,36.3167304 56.3218516,35.8708556 56.3218516,35.790657" id="Fill-6"></path>
                    </g>
                </g>
            </g>
        </g>
    </g>
</svg>