<?xml version="1.0" encoding="UTF-8"?>
<svg width="63px" height="74px" viewBox="0 0 63 74" version="1.1" xmlns="http://www.w3.org/2000/svg" xmlns:xlink="http://www.w3.org/1999/xlink">
    <!-- Generator: Sketch 3.8.1 (29687) - http://www.bohemiancoding.com/sketch -->
    <title>calidad</title>
    <desc>Created with Sketch.</desc>
    <defs></defs>
    <g id="Home" stroke="none" stroke-width="1" fill="none" fill-rule="evenodd">
        <g id="Home_white" transform="translate(-749.000000, -2330.000000)" fill="#FB54AE">
            <g id="Features" transform="translate(202.000000, 2330.000000)">
                <g id="Calidad" transform="translate(547.000000, 0.000000)">
                    <g id="calidad">
                        <g id="Group-3" transform="translate(0.000000, 0.374796)">
                            <path d="M9.42050232,23.5350395 C9.42050232,11.9148197 19.1633865,2.46071617 31.138552,2.46071617 C43.1137175,2.46071617 52.8566016,11.9148197 52.8566016,23.5350395 C52.8566016,35.1557726 43.1137175,44.6093628 31.138552,44.6093628 C19.1633865,44.6093628 9.42050232,35.1557726 9.42050232,23.5350395 M62.1862571,64.9130437 L52.2581873,41.6556614 C52.0047474,41.0636889 51.3052746,40.7818217 50.6946909,41.0272361 C50.0841072,41.273164 49.7941593,41.9519043 50.04707,42.5443902 L59.0216981,63.5699387 L50.835432,61.2677664 C50.2983935,61.1168211 49.7243178,61.3473464 49.4544758,61.8232861 L45.3428242,69.0681463 L35.7126387,46.507474 C46.8274844,44.4276123 55.24973,34.9185729 55.24973,23.5350395 C55.24973,10.6343519 44.4332978,0.138520536 31.138552,0.138520536 C17.843277,0.138520536 7.02737399,10.6343519 7.02737399,23.5350395 C7.02737399,28.7606214 8.80198209,33.5913839 11.7972285,37.4902903 L0.0908468128,64.9130437 C-0.0848150501,65.3253194 -0.00174603659,65.7992054 0.304604019,66.1319012 C0.61201228,66.4640835 1.08767497,66.5970591 1.52947514,66.4728116 L11.187703,63.7573367 L16.0385101,72.3042284 C16.2496218,72.6764574 16.6517393,72.9054424 17.086132,72.9054424 C17.1083543,72.9054424 17.1305766,72.904929 17.1527989,72.9033887 C17.6120594,72.8787446 18.0157643,72.6009847 18.1919552,72.188709 L27.4676423,50.4582358 C27.7205531,49.8662633 27.4311343,49.1870095 26.8200215,48.9415951 C26.2094378,48.6961807 25.5094358,48.9775344 25.2570542,49.5700204 L16.9337507,69.0681463 L12.8226282,61.8232861 C12.552257,61.3473464 11.9781814,61.1168211 11.4411428,61.2677664 L3.25487675,63.5699387 L13.5295084,39.4998136 C17.9326952,44.0697591 24.1972629,46.9315584 31.138552,46.9315584 C31.8549561,46.9315584 32.5634237,46.8997264 33.2639547,46.8401698 L44.0851487,72.188709 C44.2613397,72.6009847 44.6650445,72.8787446 45.1243051,72.9033887 C45.1465273,72.904929 45.1687496,72.9054424 45.1904428,72.9054424 C45.6248355,72.9054424 46.0280113,72.6764574 46.2385939,72.3042284 L51.089401,63.7573367 L60.7476288,66.4728116 C61.1899581,66.5970591 61.6650917,66.4640835 61.9719708,66.1319012 C62.27885,65.7992054 62.361919,65.3253194 62.1862571,64.9130437" id="Fill-1"></path>
                        </g>
                        <path d="M36.8356048,25.1618086 C36.5731702,25.4221122 36.4504186,25.78664 36.5059743,26.1465469 L37.458887,32.3507061 L31.6715693,29.5546244 C31.503844,29.4729908 31.3213038,29.4324306 31.1382345,29.4324306 C30.9556943,29.4324306 30.7731541,29.4729908 30.6048997,29.5546244 L24.8186403,32.3507061 L25.7710239,26.1465469 C25.8260505,25.78664 25.704357,25.4215988 25.4413933,25.1618086 L20.9122802,20.6853055 L27.2879593,19.647685 C27.6578016,19.5876149 27.9773792,19.3617104 28.1509246,19.0387697 L31.1382345,13.4763846 L34.1260735,19.0387697 C34.2996189,19.3622239 34.6191966,19.5876149 34.9890388,19.647685 L41.365247,20.6858189 L36.8356048,25.1618086 Z M44.965257,19.5501353 C44.8271614,19.1393999 44.4652556,18.835969 44.0250427,18.7640903 L35.9726395,17.4528174 L32.1996131,10.4271872 C31.9937924,10.043663 31.5847966,9.80286932 31.1382345,9.80286932 C30.6927306,9.80286932 30.2832057,10.043663 30.077385,10.4271872 L26.3038296,17.4528174 L18.2519554,18.7640903 C17.8117425,18.835969 17.4498368,19.1388864 17.3117411,19.5501353 C17.1736455,19.9618976 17.2831696,20.4142201 17.5958689,20.7227851 L23.3159906,26.3760453 L22.1128127,34.2123646 C22.047204,34.6405563 22.2323897,35.0682346 22.5932373,35.3228906 C22.9535557,35.5770332 23.4308057,35.6155396 23.8297486,35.4230074 L31.1382345,31.8906824 L38.4467204,35.4230074 C38.616033,35.5046411 38.7980441,35.5452012 38.9800552,35.5452012 C39.2287331,35.5452012 39.4752947,35.4697285 39.6837609,35.3228906 C40.0440793,35.068748 40.2297941,34.6405563 40.1641855,34.2123646 L38.9615366,26.3760453 L44.6811292,20.7227851 C44.9932994,20.4142201 45.1028235,19.9618976 44.965257,19.5501353 L44.965257,19.5501353 Z" id="Fill-4"></path>
                        <path d="M49.2653747,25.0810991 C48.6103465,24.9963849 48.0087575,25.4440866 47.9219848,26.0796997 C46.8119288,34.2091814 39.597094,40.3399216 31.1383403,40.3399216 C21.8023356,40.3399216 14.2070764,32.9692737 14.2070764,23.9099896 C14.2070764,14.8501921 21.8023356,7.480571 31.1383403,7.480571 C39.597094,7.480571 46.8119288,13.6107978 47.9219848,21.7402795 C48.0087575,22.3758926 48.6114047,22.8241077 49.2653747,22.7388801 C49.920403,22.6541659 50.3812509,22.0709216 50.2944781,21.434795 C49.0278079,12.1557674 40.7923354,5.15786195 31.1383403,5.15786195 C20.4827552,5.15786195 11.813419,13.5697243 11.813419,23.9099896 C11.813419,34.2497415 20.4827552,42.6616039 31.1383403,42.6616039 C40.7923354,42.6616039 49.0278079,35.6642118 50.2944781,26.3846708 C50.3812509,25.7490577 49.920403,25.1652999 49.2653747,25.0810991" id="Fill-6"></path>
                    </g>
                </g>
            </g>
        </g>
    </g>
</svg>