<?xml version="1.0" encoding="UTF-8"?>
<svg width="35px" height="49px" viewBox="0 0 35 49" version="1.1" xmlns="http://www.w3.org/2000/svg" xmlns:xlink="http://www.w3.org/1999/xlink">
    <!-- Generator: Sketch 3.8.1 (29687) - http://www.bohemiancoding.com/sketch -->
    <title>consultant</title>
    <desc>Created with Sketch.</desc>
    <defs></defs>
    <g id="Servicios" stroke="none" stroke-width="1" fill="none" fill-rule="evenodd">
        <g id="Mobile-Sublimacion-Copy" transform="translate(-190.000000, -84.000000)" fill="#4A4A4A">
            <g id="consultant" transform="translate(190.000000, 84.900000)">
                <g id="Capa_1" transform="translate(0.000000, 0.000000)">
                    <path d="M11.8885451,17.1121847 C13.8623332,17.1121847 15.7157749,16.3028006 17.1075716,14.8331946 C18.3078696,13.5655856 19.7082172,11.2221627 19.5624291,7.25664275 C19.3949996,2.7139118 15.916458,0.381120329 12.5418999,0.0213702298 C12.3358329,-0.000644328536 11.5314116,-0.00665806154 11.3706329,0.00794671862 C7.95416465,0.319050014 4.38399073,2.65313014 4.21476666,7.25675014 C4.06897849,11.2221627 5.46932614,13.5655856 6.66962412,14.8331946 C8.06131526,16.3028006 9.91475692,17.1121847 11.8885451,17.1121847 L11.8885451,17.1121847 Z M15.5868775,13.3431849 C14.5967636,14.3887153 13.2834032,14.9645303 11.8885451,14.9645303 C10.4936869,14.9645303 9.18032657,14.3887153 8.1902127,13.3431849 C7.19038665,12.2872378 6.57894198,10.8313775 6.38448737,9.07601176 C10.2021106,8.86875275 14.1558098,7.93179167 17.3604048,6.47850866 C17.409388,6.75148918 17.4414804,7.03703411 17.4524593,7.33707643 C17.5459918,9.87873773 16.9008712,11.9556234 15.5868775,13.3431849 L15.5868775,13.3431849 Z M11.8885451,2.12531768 C13.6836081,2.19887852 15.5079133,2.96240783 16.5585171,4.49161423 C13.598521,5.84685192 9.92130208,6.72474955 6.35440074,6.92728348 C6.67616928,3.7552541 9.31291886,2.23088017 11.8885451,2.12531768 L11.8885451,2.12531768 Z M24.8986351,28.085744 C19.7372482,28.085744 15.5383166,32.35732 15.5383166,37.6078458 C15.5383166,42.8582643 19.7372482,47.129733 24.8986351,47.129733 C30.0602331,47.129733 34.2594814,42.8582643 34.2594814,37.6078458 C34.2594814,32.35732 30.0602331,28.085744 24.8986351,28.085744 L24.8986351,28.085744 Z M24.8986351,44.9819712 C20.9015478,44.9819712 17.6496587,41.6739885 17.6496587,37.6078458 C17.6496587,33.5415958 20.9015478,30.2335057 24.8986351,30.2335057 C28.8960391,30.2335057 32.1481393,33.5415958 32.1481393,37.6078458 C32.1481393,41.6739885 28.8961446,44.9819712 24.8986351,44.9819712 L24.8986351,44.9819712 Z M25.9543061,37.5559774 L25.9546228,41.434513 C25.9546228,42.0276174 25.4819989,42.5083939 24.8990574,42.5085013 C24.3160102,42.5085013 23.8432807,42.0277248 23.8432807,41.4347278 L23.842964,37.5561922 C23.842964,36.9630878 24.315588,36.4823113 24.8985295,36.4822039 C25.4816822,36.4820965 25.9543061,36.962873 25.9543061,37.5559774 L25.9543061,37.5559774 Z M25.9546228,33.7816082 C25.9546228,34.3747126 25.4818933,34.855167 24.8989518,34.855167 C24.3160102,34.855167 23.842964,34.3746053 23.842964,33.7815008 C23.842964,33.1883964 24.3154824,32.7080495 24.898424,32.7080495 L24.8989518,32.7080495 C25.4819989,32.7080495 25.9546228,33.1885038 25.9546228,33.7816082 L25.9546228,33.7816082 Z M12.110975,40.1178277 C12.110975,40.7109321 11.638351,41.1917086 11.0553039,41.1917086 L1.0920917,41.1917086 C0.778346264,41.1917086 0.48096373,41.0600508 0.280491798,40.814669 C0.0799142984,40.5693946 -0.00306144604,40.2562509 0.0541559248,39.9424629 L2.5445895,26.2790467 C3.41762945,21.4838464 7.87118891,19.3371585 11.8976239,19.3371585 C16.2018059,19.3371585 19.7522387,21.5948857 20.9428245,25.0894015 C21.1337954,25.6497525 20.8420079,26.2608982 20.2910532,26.4550558 C19.7402041,26.6493209 19.1387883,26.3511042 18.947923,25.7907531 C17.8644878,22.6109918 14.4728278,21.4800878 11.8976239,21.4800878 C8.7453901,21.4800878 5.27265462,23.0782374 4.62056661,26.6602745 L2.36143057,39.0439468 L11.0553039,39.0439468 C11.6382455,39.0439468 12.110975,39.5248306 12.110975,40.1178277 L12.110975,40.1178277 Z" id="Shape"></path>
                </g>
            </g>
        </g>
    </g>
</svg>