<?xml version="1.0" encoding="UTF-8"?>
<svg width="55px" height="69px" viewBox="0 0 55 69" version="1.1" xmlns="http://www.w3.org/2000/svg" xmlns:xlink="http://www.w3.org/1999/xlink">
    <!-- Generator: Sketch 3.8.1 (29687) - http://www.bohemiancoding.com/sketch -->
    <title>Eficacia</title>
    <desc>Created with Sketch.</desc>
    <defs></defs>
    <g id="Home" stroke="none" stroke-width="1" fill="none" fill-rule="evenodd">
        <g id="Home_white" transform="translate(-208.000000, -2625.000000)" fill="#7ED321">
            <g id="Features" transform="translate(202.000000, 2330.000000)">
                <g id="Rapidez" transform="translate(3.000000, 295.000000)">
                    <path d="M30.2364091,36.6303326 C40.8714555,36.6303326 49.6152414,44.6648286 50.8558265,54.9454989 L9.61699173,54.9454989 C10.8575769,44.6648286 19.6019005,36.6303326 30.2364091,36.6303326 L30.2364091,36.6303326 Z M9.61699173,13.4705927 L50.7966742,13.4705927 C49.6152414,23.7507252 40.8123032,31.7852212 30.1772568,31.7852212 C19.5427482,31.7852212 10.8575769,23.7507252 9.61699173,13.4705927 L9.61699173,13.4705927 Z M7.90372593,8.6254813 L52.5104778,8.6254813 L52.5104778,4.84457363 L7.90372593,4.84457363 L7.90372593,8.6254813 Z M52.50994,63.571518 L7.84457363,63.571518 L7.84457363,59.7900725 L52.4507877,59.7900725 L52.4507877,63.571518 L52.50994,63.571518 Z M4.7132658,55.0632658 C3.70875214,55.3590273 3,56.3043886 3,57.3675169 L3,65.9935359 C3,67.3524256 4.06366596,68.4155538 5.42201794,68.4155538 L54.9324957,68.4155538 C56.2913854,68.4155538 57.3545136,67.3524256 57.3545136,65.9935359 L57.3545136,57.3675169 C57.3545136,56.3043886 56.6457615,55.3590273 55.6417856,55.0632658 C54.8141911,45.7876469 49.0242561,37.9886846 40.9892223,34.2077769 C49.0242561,30.4268693 54.8141911,22.627907 55.6417856,13.3522881 C56.6457615,13.0565266 57.3545136,12.1111652 57.3545136,11.048037 L57.3545136,2.42201794 C57.3545136,1.06312821 56.2913854,0 54.9324957,0 L5.42201794,0 C4.06366596,0 3,1.06312821 3,2.42201794 L3,11.048037 C3,12.1111652 3.70875214,13.0565266 4.7132658,13.3522881 C5.54032255,22.627907 11.3302575,30.4268693 19.3652913,34.2077769 C11.2711052,37.9886846 5.54032255,45.7876469 4.7132658,55.0632658 L4.7132658,55.0632658 Z" id="Eficacia"></path>
                </g>
            </g>
        </g>
    </g>
</svg>