<?xml version="1.0" encoding="UTF-8"?>
<svg width="85px" height="81px" viewBox="0 0 85 81" version="1.1" xmlns="http://www.w3.org/2000/svg" xmlns:xlink="http://www.w3.org/1999/xlink">
    <!-- Generator: Sketch 3.8.1 (29687) - http://www.bohemiancoding.com/sketch -->
    <title>email</title>
    <desc>Created with Sketch.</desc>
    <defs>
        <polygon id="path-1" points="84.9999668 0 0 0 0 80.4053426 84.9999668 80.4053426"></polygon>
    </defs>
    <g id="Home" stroke="none" stroke-width="1" fill="none" fill-rule="evenodd" opacity="0.393625453">
        <g id="Contacto" transform="translate(-1084.000000, -612.000000)">
            <g id="Form" transform="translate(231.000000, 574.000000)">
                <g id="form-title">
                    <g id="email" transform="translate(853.000000, 38.540541)">
                        <g id="Group-3">
                            <mask id="mask-2" fill="white">
                                <use xlink:href="#path-1"></use>
                            </mask>
                            <g id="Clip-2"></g>
                            <path d="M60.1512461,53.207272 C67.3093418,58.5011513 74.3530527,63.7105421 81.4590195,68.9657892 L81.4590195,37.26957 C74.3462461,42.5896754 67.2925742,47.8656519 60.1512461,53.207272 L60.1512461,53.207272 Z M24.8485215,53.2063297 C17.6962363,47.8574857 10.6321055,42.5742853 3.53360937,37.265801 L3.53360937,68.9734842 C10.6684629,63.6956232 17.7017148,58.4929851 24.8485215,53.2063297 L24.8485215,53.2063297 Z M67.9031797,30.6764838 L17.0969199,30.6764838 C17.0969199,34.733973 17.0926035,38.7353983 17.1108652,42.7368235 C17.1116953,42.9158512 17.2763828,43.140421 17.4342637,43.2647981 C18.2495664,43.9070991 19.0884434,44.522703 19.9175254,45.1492998 C22.4049375,47.0290902 24.8865391,48.9161046 27.3920469,50.7742232 C27.5381406,50.882425 27.9427207,50.8478758 28.1127207,50.7310367 C29.2987363,49.9159898 30.4590195,49.0671788 31.6181406,48.2174256 C32.2508262,47.7535241 32.864752,47.2666945 33.6852012,46.6385272 L32.6251914,46.6385272 C30.2458555,46.6385272 27.8663535,46.648892 25.4871836,46.6344442 C24.1504258,46.626278 23.4463535,45.6194829 23.9048887,44.417799 C24.184293,43.6858272 24.7973887,43.346931 25.8600547,43.346931 C36.9543809,43.3461457 48.048873,43.3464598 59.1433652,43.3464598 C59.3093809,43.3466169 59.4773887,43.3329542 59.6409141,43.3521133 C60.4844395,43.4508926 61.1563047,44.0811014 61.2534238,44.853433 C61.3467246,45.5952985 60.8689316,46.3169056 60.0748789,46.5637753 C59.8228672,46.6421392 59.5349961,46.6350723 59.2633945,46.6357005 C56.7026035,46.6405688 54.1416465,46.6385272 51.4183262,46.6385272 C51.6341465,46.8632541 51.7227988,46.9876312 51.841998,47.0747894 C53.2376914,48.0968175 54.636041,49.1158618 56.038541,50.1297237 C56.4374766,50.4180524 56.8750938,50.9336207 57.2534434,50.9018982 C57.7149668,50.8632659 58.1414609,50.3679561 58.5679551,50.0516739 C61.3923789,47.9573643 64.219625,45.8661956 67.0257871,43.7502143 C67.3787363,43.4840285 67.8603477,43.0810592 67.8653281,42.7358813 C67.9244297,38.7352412 67.9031797,34.7335019 67.9031797,30.6764838 L67.9031797,30.6764838 Z M81.4802695,32.9030226 C79.816959,31.5262371 78.1508262,30.1533776 76.4921641,28.772509 C74.5819883,27.1823036 72.6787852,25.5847173 70.7719297,23.9909 C67.9219395,21.6088899 65.0726133,19.2262516 62.2211289,16.8458119 C60.3753672,15.3050747 58.5209727,13.7732889 56.6798594,12.2275264 C54.1202305,10.0785663 51.5855039,7.9029091 49.0071152,5.77452148 C47.9271836,4.88315219 46.7936289,4.05836861 45.3504551,3.69136191 C42.501793,2.96692805 39.7836191,3.11454735 37.3523203,4.80698691 C35.9279063,5.79854888 34.6070859,6.92689427 33.2714902,8.0283855 C30.4673203,10.3409832 27.6844004,12.676666 24.8921836,15.002141 C22.5930332,16.9171088 20.2885703,18.8264231 17.9944004,20.7467304 C15.0222227,23.2345867 12.0560215,25.7287247 9.09098242,28.224276 C7.23575781,29.7857427 5.38733984,31.3545904 3.5380918,32.9182556 C6.79531836,35.3519325 10.0601816,37.79142 13.4503867,40.3245043 L13.4503867,39.2793911 C13.4503867,36.0350644 13.4493906,32.7905807 13.4507188,29.546254 C13.4513828,27.9470972 14.0927012,27.3281955 15.7425645,27.3281955 L59.8041074,27.3281955 C63.1232578,27.3281955 66.4424082,27.337775 69.7615586,27.3215997 C70.6074082,27.3175166 71.1091074,27.7352478 71.3531504,28.419636 C71.5058848,28.8482031 71.5395859,29.3303215 71.5417441,29.7887265 C71.5568516,32.9807583 71.5497129,36.1727901 71.5497129,39.3648218 L71.5497129,40.3281163 C74.9643223,37.7749306 78.2192246,35.3410967 81.4802695,32.9030226 L81.4802695,32.9030226 Z M81.5161289,77.0790401 C81.5161289,75.9161455 81.5408652,74.8204648 81.4968711,73.7272968 C81.4872422,73.4854524 81.2923398,73.1845603 81.0846543,73.025791 C79.243707,71.6197957 77.3884824,70.2304468 75.5224668,68.8542895 C72.3296543,66.4991335 69.1258848,64.157169 65.9270957,61.809394 C63.7157676,60.1863669 61.5026133,58.5658525 59.2951035,56.9385853 C57.2363437,55.4207762 55.1920273,53.8853785 53.1262949,52.3763638 C51.0414707,50.8535293 49.0461289,49.188258 46.815709,47.8851251 C44.0131992,46.2478072 40.9782676,46.2964902 38.1335898,47.9060117 C36.6276621,48.7581205 35.2781211,49.8624385 33.8799375,50.8797553 C31.4891465,52.6194645 29.1103086,54.3744067 26.7359531,56.1343742 C24.3166074,57.9277916 21.9160215,59.7438231 19.4936875,61.5336286 C17.1175059,63.289199 14.7207383,65.0197997 12.3395762,66.7692454 C9.84983984,68.5983113 7.35877539,70.4259639 4.89028906,72.2804706 C4.37298437,72.6691491 3.64384375,73.1209584 3.54904883,73.6326006 C3.3436875,74.7410016 3.48579687,75.9070371 3.48579687,77.0790401 L81.5161289,77.0790401 Z M84.9999668,31.5653405 L84.9999668,80.4053426 L-3.3203125e-05,80.4053426 L-3.3203125e-05,31.4082987 C1.19378516,30.3597305 2.37083594,29.2934166 3.58507422,28.2663632 C5.94847266,26.2673781 8.33494727,24.2927344 10.7074766,22.3034858 C11.7928867,21.3934285 12.858375,20.4623276 13.9499277,19.5591802 C16.024957,17.8422421 18.1209043,16.147761 20.1916172,14.4262687 C21.81525,13.0764944 23.4051816,11.6904434 25.0258262,10.3375282 C27.7089707,8.09779798 30.3798301,5.84393396 33.1074668,3.65335779 C34.2177793,2.76151737 35.3926719,1.89700222 36.6673398,1.24606393 C37.7994004,0.668150074 39.1099277,0.403220545 40.3417637,-6.28167229e-05 L44.6581699,-6.28167229e-05 C44.7137852,0.0489342272 44.7659141,0.13609243 44.8256797,0.141117768 C46.6047031,0.290935652 48.1979551,0.947213366 49.6193809,1.90642473 C50.7270371,2.65394373 51.7052012,3.57389464 52.7353281,4.42333377 C54.9200938,6.22507443 57.1043613,8.0276003 59.2826523,9.83625079 C60.3325352,10.7079899 61.361666,11.6018718 62.4118809,12.4731398 C64.570416,14.2637305 66.7412363,16.0408156 68.8977793,17.8334478 C70.0094199,18.7573247 71.094332,19.7099404 72.2036484,20.6361729 C74.4596348,22.5195753 76.7217637,24.396382 78.9857188,26.2711471 C80.1987949,27.2755865 81.4449082,28.2456337 82.6309238,29.2777125 C83.4601719,29.9994766 84.2130527,30.8000757 84.9999668,31.5653405 L84.9999668,31.5653405 Z" id="Fill-1" fill="#DFDFDF" mask="url(#mask-2)"></path>
                        </g>
                        <path d="M42.470084,38.6293637 C36.8849863,38.6293637 31.2998887,38.6298348 25.714791,38.6290496 C24.5759238,38.6288925 23.7541465,37.9456036 23.7441855,36.9958148 C23.7342246,36.0622012 24.5654648,35.340123 25.6943711,35.3396519 C36.9475742,35.3357258 48.2007773,35.336354 59.4539805,35.3390237 C60.436627,35.3391807 61.2484434,36.0873279 61.2559141,36.9738289 C61.2635508,37.8859277 60.4346348,38.6279503 59.3913926,38.6284214 C53.7510117,38.6304629 48.1106309,38.6293637 42.470084,38.6293637" id="Fill-4" fill="#DFDFDF"></path>
                    </g>
                </g>
            </g>
        </g>
    </g>
</svg>