<?xml version="1.0" encoding="UTF-8"?>
<svg width="70px" height="70px" viewBox="0 0 70 70" version="1.1" xmlns="http://www.w3.org/2000/svg" xmlns:xlink="http://www.w3.org/1999/xlink">
    <!-- Generator: Sketch 3.8.1 (29687) - http://www.bohemiancoding.com/sketch -->
    <title>Enviar</title>
    <desc>Created with Sketch.</desc>
    <defs></defs>
    <g id="Home" stroke="none" stroke-width="1" fill="none" fill-rule="evenodd">
        <g id="Cotizador-" transform="translate(-701.000000, -1337.000000)">
            <g id="Form" transform="translate(228.000000, 697.000000)">
                <g id="boton-enviar" transform="translate(473.000000, 640.000000)">
                    <g id="Enviar">
                        <circle id="Oval-65-Copy" fill="#D8127D" cx="35" cy="35" r="35"></circle>
                        <g id="Page-1" transform="translate(11.000000, 15.000000)" fill="#FFFFFF">
                            <path d="M35.1837772,7.02246407 C34.7964952,7.30115898 34.3969477,7.56397932 34.0238346,7.86075559 C28.9408116,11.9045014 23.8617362,15.9532302 18.7811805,19.9999658 C16.5958641,21.7405454 14.4217559,23.4957895 12.218887,25.2133759 C10.8372477,26.2905692 9.23384115,26.5862776 7.52490836,26.392081 C6.40888213,26.265298 5.43419197,25.7089047 4.40303787,25.3277725 C3.41241656,24.9617319 2.42842148,24.5724844 1.46317721,24.1435861 C1.04332803,23.9570776 0.625946066,23.6995963 0.300132951,23.3784031 C-0.132334262,22.9522098 -0.0881359016,22.3703319 0.37281,21.9284776 C0.67458541,21.6391759 1.02951164,21.3873895 1.39846574,21.1912708 C6.54641164,18.4536539 11.7011248,15.7290641 16.8537936,13.0004166 C22.2764461,10.1286132 27.6987461,7.25595559 33.1212575,4.38358271 C35.6559313,3.04093525 38.1851067,1.68732508 40.7309887,0.366603051 C41.1254608,0.16201322 41.5913411,0.0330945763 42.0332543,0.00255559322 C42.6033215,-0.0368816949 42.9873608,0.386962373 42.9880657,0.997528475 C42.9885592,1.40620983 42.9280772,1.82663695 42.8221985,2.22193525 C41.3157182,7.84523695 39.7980297,13.4654064 38.2808346,19.0857183 C36.7266313,24.8427793 35.1701018,30.5991997 33.6137838,36.35562 C33.5617608,36.5477522 33.5007854,36.7373217 33.4341707,36.9613454 C32.5788231,36.6067658 31.750333,36.2580234 30.9178952,35.9191759 C26.6556084,34.1843624 22.3890215,32.4597997 18.1336428,30.7079014 C17.667128,30.5158403 17.1930707,30.2401353 16.8435723,29.8824946 C16.1638198,29.1870031 16.1608592,28.1167149 16.811428,27.3173624 C17.4444444,26.5395793 18.1351936,25.8089929 18.8162149,25.0722132 C24.010192,19.4526844 29.208892,13.8374268 34.402587,8.21754203 C34.7182493,7.87598949 35.0033887,7.50582 35.3027674,7.14896237 C35.263151,7.10682 35.2233936,7.06460644 35.1837772,7.02246407" id="Fill-1"></path>
                            <path d="M15.1471659,41.9909593 C14.0527102,39.2347627 12.9652331,36.5185729 11.8991856,33.7938407 C11.6731184,33.2159492 11.4550167,32.6182678 11.3590774,32.0094814 C11.2426954,31.2711356 11.6838331,30.8495695 12.4213889,30.936061 C12.8329905,30.9843966 13.245861,31.1149525 13.632297,31.2729864 C14.9668479,31.8187729 16.3093643,32.3515322 17.6122643,32.9682915 C18.8996561,33.5777898 19.4237626,35.2445492 18.7098216,36.4877492 C18.0049036,37.7152169 17.202143,38.8858068 16.4323725,40.0747627 C16.0102675,40.7268305 15.56772,41.3653729 15.1471659,41.9909593" id="Fill-3"></path>
                        </g>
                    </g>
                </g>
            </g>
        </g>
    </g>
</svg>