<?xml version="1.0" encoding="UTF-8"?>
<svg width="37px" height="36px" viewBox="0 0 37 36" version="1.1" xmlns="http://www.w3.org/2000/svg" xmlns:xlink="http://www.w3.org/1999/xlink">
    <!-- Generator: Sketch 3.8.1 (29687) - http://www.bohemiancoding.com/sketch -->
    <title>Page 1</title>
    <desc>Created with Sketch.</desc>
    <defs></defs>
    <g id="Symbols" stroke="none" stroke-width="1" fill="none" fill-rule="evenodd">
        <g id="Footer" transform="translate(-99.000000, -151.000000)" fill="#FFFFFF">
            <g id="Page-1">
                <g transform="translate(99.000000, 151.000000)">
                    <path d="M0,19.5322178 L0,16.7706567 C0.125509854,16.0247223 0.219036057,15.2720108 0.38137907,14.5338701 C2.33861692,5.63348591 10.3713631,-0.296489081 19.6759501,0.279339729 C27.5136768,0.764355207 34.3437452,6.38755283 36.1496092,13.8638394 C36.3808845,14.8215586 36.517248,15.8011905 36.6978344,16.7706567 L36.6978344,19.5322178 C36.6585765,19.7206215 36.6046546,19.907444 36.5827163,20.0978809 C36.3513256,22.1015347 35.8155705,24.0222819 34.9217603,25.8401298 C33.164045,29.4157353 30.4846925,32.1397964 26.9158019,34.0142333 C25.528612,34.742999 24.0632527,35.2890085 22.4935135,35.6076458 L22.4935135,20.7339131 L26.812923,20.7339131 L26.812923,15.7420037 L22.3302468,15.7420037 C22.4095709,14.8693372 22.4095709,14.0670399 22.5674108,13.2955784 C22.9148433,11.596217 24.0413144,10.7497554 25.8088442,10.8056666 C26.4702246,10.8265627 27.1284874,10.9359001 27.8130761,11.0075116 C27.8286638,10.9545372 27.8608784,10.8909453 27.8645732,10.8256591 C27.9493241,9.28827069 28.0233368,7.7499787 28.1191723,6.21326804 C28.139725,5.88423914 27.9472458,5.84549664 27.7026921,5.78902068 C26.1898769,5.43977339 24.6547771,5.33156547 23.12037,5.53318462 C20.3048849,5.90321506 18.0670685,7.16658211 16.7096684,9.70483731 C15.8162045,11.3756219 15.4856298,13.1683945 15.4905948,15.0351506 C15.4911721,15.2592472 15.4908257,15.4833438 15.4908257,15.7652718 L12.6083713,15.7652718 L12.6083713,20.7514206 L15.4515678,20.7514206 L15.4515678,35.8333237 C15.3415302,35.8238357 15.2721361,35.8221415 15.204243,35.811411 C13.3680119,35.5194304 11.6255379,34.9507175 9.98178601,34.0991731 C5.16922785,31.6057598 2.02443816,27.7929553 0.600876984,22.6508199 C0.319028268,21.6328973 0.196174096,20.5728437 0,19.5322178" id="Fill-1"></path>
                </g>
            </g>
        </g>
    </g>
</svg>