<?xml version="1.0" encoding="UTF-8"?>
<svg width="58px" height="58px" viewBox="0 0 58 58" version="1.1" xmlns="http://www.w3.org/2000/svg" xmlns:xlink="http://www.w3.org/1999/xlink">
    <!-- Generator: Sketch 3.8.1 (29687) - http://www.bohemiancoding.com/sketch -->
    <title>icon-vinil</title>
    <desc>Created with Sketch.</desc>
    <defs></defs>
    <g id="Symbols" stroke="none" stroke-width="1" fill="none" fill-rule="evenodd">
        <g id="header_full-destok" transform="translate(-766.000000, -188.000000)">
            <g id="Header">
                <g id="Nav" transform="translate(111.000000, 137.000000)">
                    <g id="Vinil" transform="translate(654.135076, 51.000000)">
                        <g id="icon-vinil">
                            <path d="M29.7058824,57.8699106 C45.5911594,57.8699106 58.4687208,44.9152899 58.4687208,28.9349553 C58.4687208,12.9546208 45.5911594,0 29.7058824,0 C13.8206053,0 0.943043884,12.9546208 0.943043884,28.9349553 C0.943043884,44.9152899 13.8206053,57.8699106 29.7058824,57.8699106 Z" id="Oval-1" fill="#00A3DA"></path>
                            <path d="M41.417437,40.3895762 C39.8812092,41.925804 38.0909301,43.1141082 36.0980061,43.9224531 C34.1691536,44.7039774 32.1345085,45.0995821 30.044732,45.0995821 C27.9557006,45.0995821 25.9188205,44.7039774 23.992203,43.9224531 C21.997789,43.1141082 20.2082549,41.925804 18.6727721,40.3895762 C17.1372893,38.8533484 15.947495,37.0645593 15.1398951,35.0701452 C14.3576259,33.1427828 13.9612761,31.1066477 13.9612761,29.0176162 C13.9612761,26.9278398 14.3576259,24.8917047 15.1398951,22.9643422 C15.947495,20.9706731 17.1372893,19.1811391 18.6727721,17.6456563 C20.0972472,16.2204362 21.7459728,15.0917334 23.5727577,14.2893487 C25.1432564,13.6002067 26.7994322,13.1703311 28.5099943,13.0079171 L29.0769532,13.5756211 C29.272148,16.7188535 30.3107036,19.8196198 32.1903849,22.510626 L27.8528881,30.1008729 L25.331746,25.8982244 L19.0653968,36.3411465 L24.2872303,36.3411465 L31.5973503,36.3411465 L40.9972467,36.3411465 L34.7688933,25.4437633 C37.8227235,28.2301318 41.620827,29.7440091 45.4867272,29.98465 L46.0551762,30.553099 C45.8927622,32.2621711 45.4628866,33.9190919 44.7737446,35.4888455 C43.9713599,37.3163755 42.8411671,38.9651011 41.417437,40.3895762 L41.417437,40.3895762 Z M25.1231409,34.8794205 L21.6491204,34.8794205 L25.331746,28.7397244 L27.0221926,31.5566387 L25.1231409,34.8794205 Z M32.642611,24.6674541 L38.4783397,34.8794205 L26.8061373,34.8794205 L32.642611,24.6674541 Z M43.8231012,28.3225141 C42.7003586,28.1280643 41.5999665,27.8136666 40.5331002,27.3808109 C38.5401762,26.572466 36.7491521,25.3834168 35.2144143,23.848679 C33.5664337,22.2014434 32.3229981,20.2696109 31.5161433,18.1068226 C31.1674747,17.1688445 30.9089533,16.211496 30.7390891,15.237757 L43.8231012,28.3225141 Z M29.068013,11.5 C24.9100656,11.7302107 20.8161899,13.4340676 17.6379416,16.6115708 C10.787498,23.4635045 10.787498,34.571728 17.6379416,41.4236616 C21.065026,44.8485109 25.5545065,46.5620531 30.044732,46.5620531 C34.5349576,46.5620531 39.0259281,44.8485109 42.4507774,41.4236616 C45.6275356,38.2461584 47.3321376,34.1530276 47.5623483,29.9935903 L29.068013,11.5 Z" id="vinil" fill="#FFFFFF"></path>
                        </g>
                    </g>
                </g>
            </g>
        </g>
    </g>
</svg>