<?xml version="1.0" encoding="UTF-8"?>
<svg width="87px" height="69px" viewBox="0 0 87 69" version="1.1" xmlns="http://www.w3.org/2000/svg" xmlns:xlink="http://www.w3.org/1999/xlink">
    <!-- Generator: Sketch 3.8.1 (29687) - http://www.bohemiancoding.com/sketch -->
    <title>icon-1</title>
    <desc>Created with Sketch.</desc>
    <defs>
        <polygon id="path-1" points="43.5661937 68.8008468 86.922104 68.8008468 86.922104 0.0566066368 0.210283416 0.0566066368 0.210283416 68.8008468 43.5661937 68.8008468"></polygon>
    </defs>
    <g id="Home" stroke="none" stroke-width="1" fill="none" fill-rule="evenodd">
        <g id="Home_white" transform="translate(-210.000000, -2330.000000)">
            <g id="Features" transform="translate(202.000000, 2330.000000)">
                <g id="A-domicilio">
                    <g id="icon-1" transform="translate(8.000000, 0.000000)">
                        <g id="Group-3" transform="translate(0.000000, 0.063443)">
                            <mask id="mask-2" fill="white">
                                <use xlink:href="#path-1"></use>
                            </mask>
                            <g id="Clip-2"></g>
                            <path d="M83.3088719,43.0216294 L70.6651901,43.0216294 L70.6651901,30.9914056 L76.0839983,30.9914056 C80.0681101,30.9914056 83.3088719,34.0750635 83.3088719,37.8653203 L83.3088719,43.0216294 Z M63.4390929,43.0216294 L67.0518356,43.0216294 L67.0518356,30.9914056 L63.4390929,30.9914056 L63.4390929,43.0216294 Z M83.3088719,58.4888106 L77.7089677,58.4888106 C76.8695633,54.5716687 73.220112,51.6148959 68.8585129,51.6148959 L68.8438294,51.6148959 L54.4050948,51.6148959 L54.4050948,24.1174908 L72.4706438,24.1174908 C73.4672836,24.1174908 74.277321,24.8886964 74.277321,25.8362606 L74.277321,27.5544482 L61.6318039,27.5544482 C60.6345523,27.5544482 59.8257384,28.3239076 59.8257384,29.2732179 L59.8257384,44.7403991 C59.8257384,45.6897094 60.6345523,46.4585868 61.6318039,46.4585868 L83.3088719,46.4585868 L83.3088719,58.4888106 Z M74.277321,60.2128187 C74.2736502,63.0537652 71.8447613,65.3633074 68.8585129,65.3633074 C65.8698172,65.3633074 63.4378693,63.0502729 63.4378693,60.2075803 C63.4378693,57.36838 65.8618636,55.0594198 68.8438294,55.0518533 L68.8579011,55.0518533 L68.8627956,55.0518533 C71.8472086,55.0541814 74.2736502,57.3631416 74.277321,60.202342 L74.277321,60.2075803 L74.277321,60.2128187 Z M60.0074462,58.4888106 L54.4057066,58.4888106 L54.4057066,55.0518533 L61.6373102,55.0518533 C60.8462388,56.0518012 60.2790902,57.2199593 60.0074462,58.4888106 L60.0074462,58.4888106 Z M50.7923521,22.3987211 L50.7923521,51.6148959 L38.5065797,51.6148959 C37.5087163,51.6148959 36.6999024,52.3843553 36.6999024,53.3336656 C36.6999024,54.2829759 37.5087163,55.0518533 38.5065797,55.0518533 L50.7923521,55.0518533 L50.7923521,58.4888106 L27.1256754,58.4888106 C26.286271,54.5716687 22.6374315,51.6148959 18.2752206,51.6148959 C13.9136214,51.6148959 10.2635583,54.5716687 9.42415388,58.4888106 L3.82363793,58.4888106 L3.82363793,30.9914056 L11.0491233,30.9914056 C12.0463749,30.9914056 12.8558006,30.2225282 12.8558006,29.2732179 C12.8558006,28.3239076 12.0463749,27.5544482 11.0491233,27.5544482 L3.82363793,27.5544482 L3.82363793,24.1174908 L25.500706,24.1174908 C26.4985694,24.1174908 27.3073832,23.3480315 27.3073832,22.3981391 C27.3073832,21.4494108 26.4985694,20.6799514 25.500706,20.6799514 L3.82363793,20.6799514 L3.82363793,13.8048726 L5.62847976,13.8048726 L5.63153881,13.8048726 L50.7923521,13.8048726 L50.7923521,22.3987211 Z M18.2752206,65.3633074 C15.2865249,65.3633074 12.8558006,63.0502729 12.8558006,60.2075803 C12.8558006,57.3648877 15.2865249,55.0512712 18.2752206,55.0512712 C21.2633044,55.0512712 23.6946405,57.3648877 23.6946405,60.2075803 C23.6940287,63.0502729 21.2633044,65.3633074 18.2752206,65.3633074 L18.2752206,65.3633074 Z M16.4691551,4.20583777 L18.8044369,6.42690962 C18.8050487,6.42749166 18.8062723,6.42865575 18.8068841,6.42923779 L22.9470077,10.3679153 L9.99130248,10.3679153 L16.4691551,4.20583777 Z M43.5662549,6.93153994 L43.5662549,10.3679153 L28.0568514,10.3679153 L24.4447205,6.93153994 L43.5662549,6.93153994 Z M77.8906756,27.7005407 L77.8906756,25.8362606 C77.8906756,22.9929859 75.4593395,20.6799514 72.4706438,20.6799514 L54.4057066,20.6799514 L54.4057066,12.086685 C54.4057066,11.1373746 53.5968928,10.3673332 52.5990294,10.3673332 L47.1789976,10.3673332 L47.1789976,5.21277024 C47.1789976,4.26345991 46.3701838,3.49458258 45.3723204,3.49458258 L20.831366,3.49458258 L17.746616,0.559927362 C17.04181,-0.111166938 15.8977238,-0.111166938 15.192306,0.559927362 L4.88207059,10.3673332 L2.01696067,10.3673332 C1.01909728,10.3679153 0.210283416,11.1373746 0.210283416,12.086685 L0.210283416,60.2075803 C0.210283416,61.1563086 1.01909728,61.925768 2.01696067,61.925768 L9.42415388,61.925768 C9.69640968,63.1952014 10.2635583,64.3639415 11.0540178,65.3633074 L7.43638063,65.3633074 C6.43851724,65.3633074 5.62970338,66.1327668 5.62970338,67.0820771 C5.62970338,68.0313874 6.43851724,68.8008468 7.43638063,68.8008468 L18.2746087,68.8008468 C18.2795032,68.8008468 18.2837859,68.8002648 18.2880686,68.8002648 C22.6441614,68.7938623 26.2868828,65.8394177 27.1256754,61.92635 L52.5990294,61.92635 L60.0074462,61.92635 C60.279702,63.1957834 60.8468506,64.3639415 61.6373102,65.3638894 L58.0190612,65.3638894 C57.0218096,65.3638894 56.2129957,66.1327668 56.2129957,67.0820771 C56.2129957,68.0313874 57.0211978,68.8008468 58.0190612,68.8008468 L68.8579011,68.8008468 C68.8621838,68.8008468 68.8670782,68.8002648 68.8713609,68.8002648 C73.2268419,68.7938623 76.870787,65.8399997 77.7089677,61.92635 L85.1155491,61.92635 C86.1134125,61.92635 86.9222264,61.1568907 86.9222264,60.2075803 L86.9222264,44.7403991 L86.9222264,37.8659024 C86.9222264,32.7654693 83.0090846,28.5212198 77.8906756,27.7005407 L77.8906756,27.7005407 Z" id="Fill-1" fill="#00A3DA" mask="url(#mask-2)"></path>
                        </g>
                        <path d="M31.4396756,55.1152376 L32.5672429,55.1152376 C33.5651063,55.1152376 34.3739202,54.3457782 34.3739202,53.3964679 C34.3739202,52.4477396 33.5651063,51.6782803 32.5672429,51.6782803 L31.4396756,51.6782803 C30.4418122,51.6782803 29.6329984,52.4477396 29.6329984,53.3964679 C29.6329984,54.3457782 30.4424241,55.1152376 31.4396756,55.1152376" id="Fill-4" fill="#00A3DA"></path>
                        <path d="M31.4396756,24.1806424 L32.5672429,24.1806424 C33.5651063,24.1806424 34.3739202,23.4117651 34.3739202,22.4624547 C34.3739202,21.5131444 33.5651063,20.743685 32.5672429,20.743685 L31.4396756,20.743685 C30.4418122,20.743685 29.6329984,21.5131444 29.6329984,22.4624547 C29.6329984,23.4117651 30.4424241,24.1806424 31.4396756,24.1806424" id="Fill-6" fill="#00A3DA"></path>
                    </g>
                </g>
            </g>
        </g>
    </g>
</svg>