<?xml version="1.0" encoding="UTF-8"?>
<svg width="58px" height="58px" viewBox="0 0 58 58" version="1.1" xmlns="http://www.w3.org/2000/svg" xmlns:xlink="http://www.w3.org/1999/xlink">
    <!-- Generator: Sketch 3.8.1 (29687) - http://www.bohemiancoding.com/sketch -->
    <title>icon-lonas</title>
    <desc>Created with Sketch.</desc>
    <defs>
        <polygon id="path-1" points="31.4661241 26.4096518 31.4661241 0.0945199974 0.000138999996 0.0945199974 0.000138999996 26.4096518"></polygon>
    </defs>
    <g id="Symbols" stroke="none" stroke-width="1" fill="none" fill-rule="evenodd">
        <g id="header_full-destok" transform="translate(-676.000000, -188.000000)">
            <g id="Header">
                <g id="Nav" transform="translate(111.000000, 137.000000)">
                    <g id="Lonas" transform="translate(565.135076, 51.000000)">
                        <g id="icon-lonas">
                            <g id="Group-2" fill="#00A3DA">
                                <g>
                                    <ellipse id="Oval-1" cx="28.7628385" cy="28.9349553" rx="28.7628385" ry="28.9349553"></ellipse>
                                </g>
                            </g>
                            <g id="lona" transform="translate(14.000000, 15.000000)">
                                <path d="M4.48087338,16.609457 L20.5186929,16.609457 C20.9127579,16.609457 21.2310679,16.2904521 21.2310679,15.8977771 C21.2310679,15.5037121 20.9127579,15.1854021 20.5186929,15.1854021 L4.48087338,15.1854021 C4.08819839,15.1854021 3.7691934,15.5037121 3.7691934,15.8977771 C3.7691934,16.2904521 4.08819839,16.609457 4.48087338,16.609457" id="Fill-1" fill="#FFFFFF"></path>
                                <path d="M17.476122,18.7188515 L7.52372229,18.7188515 C7.1303523,18.7188515 6.81134731,19.0378565 6.81134731,19.4312265 C6.81134731,19.8245965 7.1303523,20.1429064 7.52372229,20.1429064 L17.476122,20.1429064 C17.868797,20.1429064 18.187802,19.8245965 18.187802,19.4312265 C18.187802,19.0378565 17.868797,18.7188515 17.476122,18.7188515" id="Fill-3" fill="#FFFFFF"></path>
                                <g id="Group-7" transform="translate(0.000000, 0.600688)">
                                    <mask id="mask-2" fill="white">
                                        <use xlink:href="#path-1"></use>
                                    </mask>
                                    <g id="Clip-6"></g>
                                    <path d="M20.4956884,7.71693229 L4.50373888,7.71693229 L4.50373888,5.24898736 L20.4963834,5.24898736 L20.4963834,7.71693229 L20.4956884,7.71693229 Z M1.42419396,24.9862918 L23.5766234,24.9862918 L23.5766234,9.14098725 L1.42419396,9.14098725 L1.42419396,24.9862918 Z M24.9992883,24.9862918 L26.2197083,24.9862918 L26.2197083,9.14098725 L24.9992883,9.14098725 L24.9992883,24.9862918 Z M30.7545832,0.0941724974 C30.3612132,0.0941724974 30.0422082,0.413177489 30.0422082,0.806547478 L30.0422082,3.8249324 L21.9204384,3.8249324 L21.9204384,3.8165924 C21.9204384,3.42252741 21.6014334,3.10421741 21.2073684,3.10421741 C20.8146934,3.10421741 20.4956884,3.42252741 20.4956884,3.8165924 L20.4956884,3.8249324 L4.50373888,3.8249324 L4.50373888,3.8165924 C4.50373888,3.42252741 4.18473389,3.10421741 3.7920589,3.10421741 C3.39799391,3.10421741 3.07968392,3.42252741 3.07968392,3.8165924 L3.07968392,3.8249324 L0.71181898,3.8249324 C0.319143991,3.8249324 0.000138999996,4.14393739 0.000138999996,4.53730738 C0.000138999996,4.93067736 0.319143991,5.24898736 0.71181898,5.24898736 L3.07968392,5.24898736 L3.07968392,7.71693229 L0.71181898,7.71693229 C0.319143991,7.71693229 0.000138999996,8.03593728 0.000138999996,8.42861227 L0.000138999996,25.6979718 C0.000138999996,26.0906468 0.319143991,26.4096518 0.71181898,26.4096518 L24.2876083,26.4096518 L26.9320833,26.4096518 C27.3247583,26.4096518 27.6437632,26.0906468 27.6437632,25.6979718 L27.6437632,8.42861227 C27.6437632,8.03593728 27.3247583,7.71693229 26.9320833,7.71693229 L24.2876083,7.71693229 L21.9204384,7.71693229 L21.9204384,5.24898736 L30.0422082,5.24898736 L30.0422082,8.26876227 C30.0422082,8.66143726 30.3612132,8.97974725 30.7545832,8.97974725 C31.1472581,8.97974725 31.4662631,8.66143726 31.4662631,8.26876227 L31.4662631,0.806547478 C31.4662631,0.413177489 31.1472581,0.0941724974 30.7545832,0.0941724974 L30.7545832,0.0941724974 Z" id="Fill-5" fill="#FFFFFF" mask="url(#mask-2)"></path>
                                </g>
                            </g>
                        </g>
                    </g>
                </g>
            </g>
        </g>
    </g>
</svg>