<?xml version="1.0" encoding="UTF-8"?>
<svg width="58px" height="58px" viewBox="0 0 58 58" version="1.1" xmlns="http://www.w3.org/2000/svg" xmlns:xlink="http://www.w3.org/1999/xlink">
    <!-- Generator: Sketch 41.2 (35397) - http://www.bohemiancoding.com/sketch -->
    <title>icon-rigidos</title>
    <desc>Created with Sketch.</desc>
    <defs></defs>
    <g id="Symbols" stroke="none" stroke-width="1" fill="none" fill-rule="evenodd">
        <g id="header_full-destok" transform="translate(-590.000000, -189.000000)">
            <g id="Header">
                <g id="Nav" transform="translate(111.000000, 137.000000)">
                    <g id="Rigidos" transform="translate(479.135076, 52.000000)">
                        <g id="icon-rigidos">
                            <path d="M28.6616078,57.8699106 C44.4909766,57.8699106 57.3232155,44.9152899 57.3232155,28.9349553 C57.3232155,12.9546208 44.4909766,0 28.6616078,0 C12.8322389,0 0,12.9546208 0,28.9349553 C0,44.9152899 12.8322389,57.8699106 28.6616078,57.8699106 Z" id="Oval-1" fill="#00A3DA"></path>
                            <path d="M14.9497177,20.8947368 L14.9323886,20.9143233 L13.2572443,22.1874463 L13.2379897,22.2266193 L13.2379897,38.8163908 L13.2938279,38.8947368 L43.8526962,38.8947368 L43.8912053,38.8751503 L45.5644241,37.6000687 L45.5836787,37.5628544 L45.5836787,20.9534964 L45.5259151,20.8947368 L14.9497177,20.8947368 Z M14.7571723,21.3843995 L14.7571723,22.3637249 L13.4863732,22.3637249 L14.7571723,21.3843995 Z M13.4863732,22.677109 L14.7571723,22.677109 L14.7571723,37.1907107 L13.5056277,38.3071416 L13.4863732,22.677109 Z M43.737169,37.6216139 L44.9502046,37.6216139 L43.737169,38.5421797 L43.737169,37.6216139 Z M14.9901522,37.6216139 L43.4290965,37.6216139 L43.4290965,38.5421797 L13.7963712,38.5421797 L14.9901522,37.6216139 Z" id="Page-1" fill="#FEFEFE"></path>
                        </g>
                    </g>
                </g>
            </g>
        </g>
    </g>
</svg>