<?xml version="1.0" encoding="UTF-8"?>
<svg width="59px" height="58px" viewBox="0 0 59 58" version="1.1" xmlns="http://www.w3.org/2000/svg" xmlns:xlink="http://www.w3.org/1999/xlink">
    <!-- Generator: Sketch 3.8.1 (29687) - http://www.bohemiancoding.com/sketch -->
    <title>icon-rotu</title>
    <desc>Created with Sketch.</desc>
    <defs></defs>
    <g id="Symbols" stroke="none" stroke-width="1" fill="none" fill-rule="evenodd">
        <g id="header_full-destok" transform="translate(-409.000000, -191.000000)">
            <g id="Header">
                <g id="Nav" transform="translate(111.000000, 137.000000)">
                    <g id="Rotulación" transform="translate(295.533769, 54.000000)">
                        <g id="Group-Copy-3">
                            <g id="icon-rotu" transform="translate(3.000000, 0.000000)">
                                <path d="M28.9281421,57.8699106 C44.9047139,57.8699106 57.8562843,44.9152899 57.8562843,28.9349553 C57.8562843,12.9546208 44.9047139,0 28.9281421,0 C12.9515704,0 0,12.9546208 0,28.9349553 C0,44.9152899 12.9515704,57.8699106 28.9281421,57.8699106 Z" id="Oval-1" fill="#00A3DA"></path>
                                <g id="Group-9" transform="translate(6.000000, 22.000000)" fill="#FFFFFF">
                                    <path d="M8.95610613,11.3462674 L8.83401469,11.0666429 L9.5055176,10.407528 C9.70900333,10.6871525 9.85144335,11.0067233 9.89214049,11.3462674 L8.95610613,11.3462674 Z M9.48516903,12.8442558 L8.83401469,12.1851409 L8.95610613,11.9055164 L9.89214049,11.9055164 C9.83109477,12.2450604 9.68865476,12.5846045 9.48516903,12.8442558 L9.48516903,12.8442558 Z M8.12181463,13.6032366 L8.14216321,12.6844704 L8.42704323,12.5646313 L9.07819757,13.2237462 C8.81366612,13.423478 8.48808895,13.5433171 8.12181463,13.6032366 L8.12181463,13.6032366 Z M8.16251178,9.62857399 C8.5287861,9.66852035 8.85436327,9.8083326 9.11889472,10.0280376 L8.4473918,10.6671793 L8.16251178,10.5473402 L8.16251178,9.62857399 Z M7.59275173,10.5473402 L7.30787171,10.6472061 L6.65671737,9.98809121 C6.92124882,9.78835942 7.24682599,9.66852035 7.61310031,9.60860081 L7.59275173,10.5473402 Z M7.57240316,13.5832634 C7.20612885,13.5433171 6.90090025,13.4035048 6.61602023,13.203773 L7.28752314,12.5446581 L7.57240316,12.6644972 L7.57240316,13.5832634 Z M5.84277445,11.86557 L6.77880881,11.8855432 L6.90090025,12.1651677 L6.22939734,12.8043094 C6.02591161,12.5446581 5.8834716,12.2250873 5.84277445,11.86557 L5.84277445,11.86557 Z M6.24974591,10.3875548 L6.90090025,11.0466697 L6.77880881,11.3262942 L5.84277445,11.306321 C5.90382017,10.966777 6.04626018,10.6472061 6.24974591,10.3875548 L6.24974591,10.3875548 Z M7.89798033,8.41021008 C6.1073059,8.3902369 4.62186006,9.8083326 4.60151149,11.5659723 L4.62186006,11.9854091 C4.8253458,13.5632902 6.16835162,14.7816542 7.83693461,14.8016273 C9.54621475,14.8216005 10.9502663,13.5433171 11.1130549,11.9055164 L11.1334035,11.6458651 C11.153752,9.86825214 9.70900333,8.43018326 7.89798033,8.41021008 L7.89798033,8.41021008 Z" id="Fill-6"></path>
                                    <path d="M37.4441084,11.3462674 L37.322017,11.0666429 L37.9935199,10.4275011 C38.1970056,10.6871525 38.3394457,11.0067233 38.3801428,11.3662406 L37.4441084,11.3462674 Z M37.9731713,12.8442558 L37.322017,12.1851409 L37.4441084,11.9055164 L38.3801428,11.9254896 C38.3190971,12.2650336 38.1766571,12.5846045 37.9731713,12.8442558 L37.9731713,12.8442558 Z M36.6098169,13.6032366 L36.6301655,12.6844704 L36.9150455,12.5646313 L37.5661999,13.2237462 C37.2813199,13.423478 36.9760913,13.5632902 36.6098169,13.6032366 L36.6098169,13.6032366 Z M36.6505141,9.62857399 C37.0167884,9.68849352 37.3423656,9.82830577 37.606897,10.0280376 L36.9353941,10.6671793 L36.6505141,10.5473402 L36.6505141,9.62857399 Z M36.080754,10.5473402 L35.795874,10.6671793 L35.1243711,10.0080644 C35.4092511,9.8083326 35.7348283,9.66852034 36.080754,9.62857399 L36.080754,10.5473402 Z M36.0400569,13.6032366 C35.6941312,13.5433171 35.368554,13.4035048 35.1040225,13.203773 L35.7755254,12.5646313 L36.0604055,12.6844704 L36.0400569,13.6032366 Z M34.3307768,11.8855432 L35.2668111,11.8855432 L35.3889026,12.1651677 L34.7173996,12.8043094 C34.5139139,12.5446581 34.3714739,12.2250872 34.3307768,11.8855432 L34.3307768,11.8855432 Z M34.7377482,10.3875548 L35.3889026,11.0466697 L35.2668111,11.3262942 L34.3307768,11.3262942 C34.3918225,10.966777 34.5139139,10.6671793 34.7377482,10.3875548 L34.7377482,10.3875548 Z M36.3859826,8.41021007 C34.5749596,8.39023689 33.1098624,9.8083326 33.0895138,11.5859455 L33.1098624,11.9854091 C33.2929995,13.5632902 34.6563539,14.8016273 36.3249369,14.8216005 C38.0342171,14.8415737 39.4382686,13.5632902 39.6010572,11.9254896 L39.6214058,11.6458651 C39.6417543,9.88822531 38.1766571,8.43018325 36.3859826,8.41021007 L36.3859826,8.41021007 Z" id="Fill-7"></path>
                                    <path d="M33.7844309,4.95579982 L31.9734079,2.43917927 C33.3571109,2.99842828 34.4559338,3.53770412 35.1070882,3.87724816 C35.5140596,4.09695313 35.7175454,4.53636306 35.6361511,4.975773 L33.7844309,4.95579982 Z M31.9123622,4.95579982 L25.2787274,5.09561207 L25.9298817,1.46049351 C29.348442,1.46049351 31.2815564,2.21947431 31.2815564,2.21947431 L32.2582879,3.77738226 L31.9123622,4.95579982 Z M23.7525844,5.19547797 L16.4881438,5.33529022 C16.6305838,4.27671174 15.9997781,4.03703359 15.9997781,4.03703359 C18.909624,1.48046669 24.7293159,1.46049351 24.7293159,1.46049351 L23.7525844,5.19547797 Z M43.0226831,7.6322058 L43.0430317,5.2553975 C43.0430317,4.8759071 42.7581517,4.55633624 42.3918773,4.4964167 C41.455843,4.33663127 39.8279571,4.05700677 39.1157571,3.8373018 C38.0576313,3.49775776 34.0082652,1.78006437 32.6042137,1.44052033 C31.2001621,1.12094946 24.8921045,-0.636690281 18.7875326,1.36062761 C17.7701039,1.70017165 13.1102807,3.8373018 10.3835719,4.93582664 C9.58997754,4.93582664 1.65403404,6.47376142 1.20636543,7.59225944 C0.819742539,8.59091839 0.656953955,9.13019422 0.575559662,9.4297919 C0.575559662,9.46973826 0.555211089,9.48971144 0.555211089,9.50968462 C0.514513943,9.66947005 0.514513943,10.2287191 0.656953955,10.8478876 L0.656953955,10.8678608 C0.75869682,11.2673244 0.901136832,11.7067343 1.12497114,12.0862247 C1.71507975,12.4257687 2.87494842,12.6654469 4.19760567,12.8252323 L4.15690852,12.5855542 L4.13655995,12.1061979 C4.15690852,9.98904091 5.92723438,8.27134752 8.08418313,8.31129388 C10.2614804,8.33126706 11.9911092,10.0689336 11.9707606,12.1860906 L11.950412,12.5056615 C11.9300634,12.7453396 11.8893663,12.9850178 11.807972,13.2047227 L11.8283206,13.2047227 L31.2815564,13.0049909 L31.2408593,12.8651787 L31.2205107,12.3858224 C31.2408593,10.2486922 33.0111852,8.55097203 35.1681339,8.57094521 C37.3250826,8.59091839 39.0750599,10.328585 39.0547114,12.4457419 L39.0547114,12.4856883 L39.1361056,12.4657151 L42.4732716,11.8864929 C42.4732716,11.8864929 43.7348832,11.2473512 43.7552317,9.40981872 C43.7755803,8.19145481 43.0226831,7.6322058 43.0226831,7.6322058 L43.0226831,7.6322058 Z M33.7844309,4.95579982 L31.9734079,2.43917927 C33.3571109,2.99842828 34.4559338,3.53770412 35.1070882,3.87724816 C35.5140596,4.09695313 35.7175454,4.53636306 35.6361511,4.975773 L33.7844309,4.95579982 Z M31.9123622,4.95579982 L25.2787274,5.09561207 L25.9298817,1.46049351 C29.348442,1.46049351 31.2815564,2.21947431 31.2815564,2.21947431 L32.2582879,3.77738226 L31.9123622,4.95579982 Z M23.7525844,5.19547797 L16.4881438,5.33529022 C16.6305838,4.27671174 15.9997781,4.03703359 15.9997781,4.03703359 C18.909624,1.48046669 24.7293159,1.46049351 24.7293159,1.46049351 L23.7525844,5.19547797 Z M43.0226831,7.6322058 L43.0430317,5.2553975 C43.0430317,4.8759071 42.7581517,4.55633624 42.3918773,4.4964167 C41.455843,4.33663127 39.8279571,4.05700677 39.1157571,3.8373018 C38.0576313,3.49775776 34.0082652,1.78006437 32.6042137,1.44052033 C31.2001621,1.12094946 24.8921045,-0.636690281 18.7875326,1.36062761 C17.7701039,1.70017165 13.1102807,3.8373018 10.3835719,4.93582664 C9.58997754,4.93582664 1.65403404,6.47376142 1.20636543,7.59225944 C0.819742539,8.59091839 0.656953955,9.13019422 0.575559662,9.4297919 C0.575559662,9.46973826 0.555211089,9.48971144 0.555211089,9.50968462 C0.514513943,9.66947005 0.514513943,10.2287191 0.656953955,10.8478876 L0.656953955,10.8678608 C0.75869682,11.2673244 0.901136832,11.7067343 1.12497114,12.0862247 C1.71507975,12.4257687 2.87494842,12.6654469 4.19760567,12.8252323 L4.15690852,12.5855542 L4.13655995,12.1061979 C4.15690852,9.98904091 5.92723438,8.27134752 8.08418313,8.31129388 C10.2614804,8.33126706 11.9911092,10.0689336 11.9707606,12.1860906 L11.950412,12.5056615 C11.9300634,12.7453396 11.8893663,12.9850178 11.807972,13.2047227 L11.8283206,13.2047227 L31.2815564,13.0049909 L31.2408593,12.8651787 L31.2205107,12.3858224 C31.2408593,10.2486922 33.0111852,8.55097203 35.1681339,8.57094521 C37.3250826,8.59091839 39.0750599,10.328585 39.0547114,12.4457419 L39.0547114,12.4856883 L39.1361056,12.4657151 L42.4732716,11.8864929 C42.4732716,11.8864929 43.7348832,11.2473512 43.7552317,9.40981872 C43.7755803,8.19145481 43.0226831,7.6322058 43.0226831,7.6322058 L43.0226831,7.6322058 Z M33.7844309,4.95579982 L31.9734079,2.43917927 C33.3571109,2.99842828 34.4559338,3.53770412 35.1070882,3.87724816 C35.5140596,4.09695313 35.7175454,4.53636306 35.6361511,4.975773 L33.7844309,4.95579982 Z M31.9123622,4.95579982 L25.2787274,5.09561207 L25.9298817,1.46049351 C29.348442,1.46049351 31.2815564,2.21947431 31.2815564,2.21947431 L32.2582879,3.77738226 L31.9123622,4.95579982 Z M23.7525844,5.19547797 L16.4881438,5.33529022 C16.6305838,4.27671174 15.9997781,4.03703359 15.9997781,4.03703359 C18.909624,1.48046669 24.7293159,1.46049351 24.7293159,1.46049351 L23.7525844,5.19547797 Z M43.0226831,7.6322058 L43.0430317,5.2553975 C43.0430317,4.8759071 42.7581517,4.55633624 42.3918773,4.4964167 C41.455843,4.33663127 39.8279571,4.05700677 39.1157571,3.8373018 C38.0576313,3.49775776 34.0082652,1.78006437 32.6042137,1.44052033 C31.2001621,1.12094946 24.8921045,-0.636690281 18.7875326,1.36062761 C17.7701039,1.70017165 13.1102807,3.8373018 10.3835719,4.93582664 C9.58997754,4.93582664 1.65403404,6.47376142 1.20636543,7.59225944 C0.819742539,8.59091839 0.656953955,9.13019422 0.575559662,9.4297919 C0.575559662,9.46973826 0.555211089,9.48971144 0.555211089,9.50968462 C0.514513943,9.66947005 0.514513943,10.2287191 0.656953955,10.8478876 L0.656953955,10.8678608 C0.75869682,11.2673244 0.901136832,11.7067343 1.12497114,12.0862247 C1.71507975,12.4257687 2.87494842,12.6654469 4.19760567,12.8252323 L4.15690852,12.5855542 L4.13655995,12.1061979 C4.15690852,9.98904091 5.92723438,8.27134752 8.08418313,8.31129388 C10.2614804,8.33126706 11.9911092,10.0689336 11.9707606,12.1860906 L11.950412,12.5056615 C11.9300634,12.7453396 11.8893663,12.9850178 11.807972,13.2047227 L11.8283206,13.2047227 L31.2815564,13.0049909 L31.2408593,12.8651787 L31.2205107,12.3858224 C31.2408593,10.2486922 33.0111852,8.55097203 35.1681339,8.57094521 C37.3250826,8.59091839 39.0750599,10.328585 39.0547114,12.4457419 L39.0547114,12.4856883 L39.1361056,12.4657151 L42.4732716,11.8864929 C42.4732716,11.8864929 43.7348832,11.2473512 43.7552317,9.40981872 C43.7755803,8.19145481 43.0226831,7.6322058 43.0226831,7.6322058 L43.0226831,7.6322058 Z M33.7844309,4.95579982 L31.9734079,2.43917927 C33.3571109,2.99842828 34.4559338,3.53770412 35.1070882,3.87724816 C35.5140596,4.09695313 35.7175454,4.53636306 35.6361511,4.975773 L33.7844309,4.95579982 Z M31.9123622,4.95579982 L25.2787274,5.09561207 L25.9298817,1.46049351 C29.348442,1.46049351 31.2815564,2.21947431 31.2815564,2.21947431 L32.2582879,3.77738226 L31.9123622,4.95579982 Z M23.7525844,5.19547797 L16.4881438,5.33529022 C16.6305838,4.27671174 15.9997781,4.03703359 15.9997781,4.03703359 C18.909624,1.48046669 24.7293159,1.46049351 24.7293159,1.46049351 L23.7525844,5.19547797 Z M43.0226831,7.6322058 L43.0430317,5.2553975 C43.0430317,4.8759071 42.7581517,4.55633624 42.3918773,4.4964167 C41.455843,4.33663127 39.8279571,4.05700677 39.1157571,3.8373018 C38.0576313,3.49775776 34.0082652,1.78006437 32.6042137,1.44052033 C31.2001621,1.12094946 24.8921045,-0.636690281 18.7875326,1.36062761 C17.7701039,1.70017165 13.1102807,3.8373018 10.3835719,4.93582664 C9.58997754,4.93582664 1.65403404,6.47376142 1.20636543,7.59225944 C0.819742539,8.59091839 0.656953955,9.13019422 0.575559662,9.4297919 C0.575559662,9.46973826 0.555211089,9.48971144 0.555211089,9.50968462 C0.514513943,9.66947005 0.514513943,10.2287191 0.656953955,10.8478876 L0.656953955,10.8678608 C0.75869682,11.2673244 0.901136832,11.7067343 1.12497114,12.0862247 C1.71507975,12.4257687 2.87494842,12.6654469 4.19760567,12.8252323 L4.15690852,12.5855542 L4.13655995,12.1061979 C4.15690852,9.98904091 5.92723438,8.27134752 8.08418313,8.31129388 C10.2614804,8.33126706 11.9911092,10.0689336 11.9707606,12.1860906 L11.950412,12.5056615 C11.9300634,12.7453396 11.8893663,12.9850178 11.807972,13.2047227 L11.8283206,13.2047227 L31.2815564,13.0049909 L31.2408593,12.8651787 L31.2205107,12.3858224 C31.2408593,10.2486922 33.0111852,8.55097203 35.1681339,8.57094521 C37.3250826,8.59091839 39.0750599,10.328585 39.0547114,12.4457419 L39.0547114,12.4856883 L39.1361056,12.4657151 L42.4732716,11.8864929 C42.4732716,11.8864929 43.7348832,11.2473512 43.7552317,9.40981872 C43.7755803,8.19145481 43.0226831,7.6322058 43.0226831,7.6322058 L43.0226831,7.6322058 Z M33.7844309,4.95579982 L31.9734079,2.43917927 C33.3571109,2.99842828 34.4559338,3.53770412 35.1070882,3.87724816 C35.5140596,4.09695313 35.7175454,4.53636306 35.6361511,4.975773 L33.7844309,4.95579982 Z M31.9123622,4.95579982 L25.2787274,5.09561207 L25.9298817,1.46049351 C29.348442,1.46049351 31.2815564,2.21947431 31.2815564,2.21947431 L32.2582879,3.77738226 L31.9123622,4.95579982 Z M23.7525844,5.19547797 L16.4881438,5.33529022 C16.6305838,4.27671174 15.9997781,4.03703359 15.9997781,4.03703359 C18.909624,1.48046669 24.7293159,1.46049351 24.7293159,1.46049351 L23.7525844,5.19547797 Z M43.0226831,7.6322058 L43.0430317,5.2553975 C43.0430317,4.8759071 42.7581517,4.55633624 42.3918773,4.4964167 C41.455843,4.33663127 39.8279571,4.05700677 39.1157571,3.8373018 C38.0576313,3.49775776 34.0082652,1.78006437 32.6042137,1.44052033 C31.2001621,1.12094946 24.8921045,-0.636690281 18.7875326,1.36062761 C17.7701039,1.70017165 13.1102807,3.8373018 10.3835719,4.93582664 C9.58997754,4.93582664 1.65403404,6.47376142 1.20636543,7.59225944 C0.819742539,8.59091839 0.656953955,9.13019422 0.575559662,9.4297919 C0.575559662,9.46973826 0.555211089,9.48971144 0.555211089,9.50968462 C0.514513943,9.66947005 0.514513943,10.2287191 0.656953955,10.8478876 L0.656953955,10.8678608 C0.75869682,11.2673244 0.901136832,11.7067343 1.12497114,12.0862247 C1.71507975,12.4257687 2.87494842,12.6654469 4.19760567,12.8252323 L4.15690852,12.5855542 L4.13655995,12.1061979 C4.15690852,9.98904091 5.92723438,8.27134752 8.08418313,8.31129388 C10.2614804,8.33126706 11.9911092,10.0689336 11.9707606,12.1860906 L11.950412,12.5056615 C11.9300634,12.7453396 11.8893663,12.9850178 11.807972,13.2047227 L11.8283206,13.2047227 L31.2815564,13.0049909 L31.2408593,12.8651787 L31.2205107,12.3858224 C31.2408593,10.2486922 33.0111852,8.55097203 35.1681339,8.57094521 C37.3250826,8.59091839 39.0750599,10.328585 39.0547114,12.4457419 L39.0547114,12.4856883 L39.1361056,12.4657151 L42.4732716,11.8864929 C42.4732716,11.8864929 43.7348832,11.2473512 43.7552317,9.40981872 C43.7755803,8.19145481 43.0226831,7.6322058 43.0226831,7.6322058 L43.0226831,7.6322058 Z M33.7844309,4.95579982 L31.9734079,2.43917927 C33.3571109,2.99842828 34.4559338,3.53770412 35.1070882,3.87724816 C35.5140596,4.09695313 35.7175454,4.53636306 35.6361511,4.975773 L33.7844309,4.95579982 Z M31.9123622,4.95579982 L25.2787274,5.09561207 L25.9298817,1.46049351 C29.348442,1.46049351 31.2815564,2.21947431 31.2815564,2.21947431 L32.2582879,3.77738226 L31.9123622,4.95579982 Z M23.7525844,5.19547797 L16.4881438,5.33529022 C16.6305838,4.27671174 15.9997781,4.03703359 15.9997781,4.03703359 C18.909624,1.48046669 24.7293159,1.46049351 24.7293159,1.46049351 L23.7525844,5.19547797 Z M43.0226831,7.6322058 L43.0430317,5.2553975 C43.0430317,4.8759071 42.7581517,4.55633624 42.3918773,4.4964167 C41.455843,4.33663127 39.8279571,4.05700677 39.1157571,3.8373018 C38.0576313,3.49775776 34.0082652,1.78006437 32.6042137,1.44052033 C31.2001621,1.12094946 24.8921045,-0.636690281 18.7875326,1.36062761 C17.7701039,1.70017165 13.1102807,3.8373018 10.3835719,4.93582664 C9.58997754,4.93582664 1.65403404,6.47376142 1.20636543,7.59225944 C0.819742539,8.59091839 0.656953955,9.13019422 0.575559662,9.4297919 C0.575559662,9.46973826 0.555211089,9.48971144 0.555211089,9.50968462 C0.514513943,9.66947005 0.514513943,10.2287191 0.656953955,10.8478876 L0.656953955,10.8678608 C0.75869682,11.2673244 0.901136832,11.7067343 1.12497114,12.0862247 C1.71507975,12.4257687 2.87494842,12.6654469 4.19760567,12.8252323 L4.15690852,12.5855542 L4.13655995,12.1061979 C4.15690852,9.98904091 5.92723438,8.27134752 8.08418313,8.31129388 C10.2614804,8.33126706 11.9911092,10.0689336 11.9707606,12.1860906 L11.950412,12.5056615 C11.9300634,12.7453396 11.8893663,12.9850178 11.807972,13.2047227 L11.8283206,13.2047227 L31.2815564,13.0049909 L31.2408593,12.8651787 L31.2205107,12.3858224 C31.2408593,10.2486922 33.0111852,8.55097203 35.1681339,8.57094521 C37.3250826,8.59091839 39.0750599,10.328585 39.0547114,12.4457419 L39.0547114,12.4856883 L39.1361056,12.4657151 L42.4732716,11.8864929 C42.4732716,11.8864929 43.7348832,11.2473512 43.7552317,9.40981872 C43.7755803,8.19145481 43.0226831,7.6322058 43.0226831,7.6322058 L43.0226831,7.6322058 Z M33.7844309,4.95579982 L31.9734079,2.43917927 C33.3571109,2.99842828 34.4559338,3.53770412 35.1070882,3.87724816 C35.5140596,4.09695313 35.7175454,4.53636306 35.6361511,4.975773 L33.7844309,4.95579982 Z M31.9123622,4.95579982 L25.2787274,5.09561207 L25.9298817,1.46049351 C29.348442,1.46049351 31.2815564,2.21947431 31.2815564,2.21947431 L32.2582879,3.77738226 L31.9123622,4.95579982 Z M23.7525844,5.19547797 L16.4881438,5.33529022 C16.6305838,4.27671174 15.9997781,4.03703359 15.9997781,4.03703359 C18.909624,1.48046669 24.7293159,1.46049351 24.7293159,1.46049351 L23.7525844,5.19547797 Z M43.0226831,7.6322058 L43.0430317,5.2553975 C43.0430317,4.8759071 42.7581517,4.55633624 42.3918773,4.4964167 C41.455843,4.33663127 39.8279571,4.05700677 39.1157571,3.8373018 C38.0576313,3.49775776 34.0082652,1.78006437 32.6042137,1.44052033 C31.2001621,1.12094946 24.8921045,-0.636690281 18.7875326,1.36062761 C17.7701039,1.70017165 13.1102807,3.8373018 10.3835719,4.93582664 C9.58997754,4.93582664 1.65403404,6.47376142 1.20636543,7.59225944 C0.819742539,8.59091839 0.656953955,9.13019422 0.575559662,9.4297919 C0.575559662,9.46973826 0.555211089,9.48971144 0.555211089,9.50968462 C0.514513943,9.66947005 0.514513943,10.2287191 0.656953955,10.8478876 L0.656953955,10.8678608 C0.75869682,11.2673244 0.901136832,11.7067343 1.12497114,12.0862247 C1.71507975,12.4257687 2.87494842,12.6654469 4.19760567,12.8252323 L4.15690852,12.5855542 L4.13655995,12.1061979 C4.15690852,9.98904091 5.92723438,8.27134752 8.08418313,8.31129388 C10.2614804,8.33126706 11.9911092,10.0689336 11.9707606,12.1860906 L11.950412,12.5056615 C11.9300634,12.7453396 11.8893663,12.9850178 11.807972,13.2047227 L11.8283206,13.2047227 L31.2815564,13.0049909 L31.2408593,12.8651787 L31.2205107,12.3858224 C31.2408593,10.2486922 33.0111852,8.55097203 35.1681339,8.57094521 C37.3250826,8.59091839 39.0750599,10.328585 39.0547114,12.4457419 L39.0547114,12.4856883 L39.1361056,12.4657151 L42.4732716,11.8864929 C42.4732716,11.8864929 43.7348832,11.2473512 43.7552317,9.40981872 C43.7755803,8.19145481 43.0226831,7.6322058 43.0226831,7.6322058 L43.0226831,7.6322058 Z M33.7844309,4.95579982 L31.9734079,2.43917927 C33.3571109,2.99842828 34.4559338,3.53770412 35.1070882,3.87724816 C35.5140596,4.09695313 35.7175454,4.53636306 35.6361511,4.975773 L33.7844309,4.95579982 Z M31.9123622,4.95579982 L25.2787274,5.09561207 L25.9298817,1.46049351 C29.348442,1.46049351 31.2815564,2.21947431 31.2815564,2.21947431 L32.2582879,3.77738226 L31.9123622,4.95579982 Z M23.7525844,5.19547797 L16.4881438,5.33529022 C16.6305838,4.27671174 15.9997781,4.03703359 15.9997781,4.03703359 C18.909624,1.48046669 24.7293159,1.46049351 24.7293159,1.46049351 L23.7525844,5.19547797 Z M43.0226831,7.6322058 L43.0430317,5.2553975 C43.0430317,4.8759071 42.7581517,4.55633624 42.3918773,4.4964167 C41.455843,4.33663127 39.8279571,4.05700677 39.1157571,3.8373018 C38.0576313,3.49775776 34.0082652,1.78006437 32.6042137,1.44052033 C31.2001621,1.12094946 24.8921045,-0.636690281 18.7875326,1.36062761 C17.7701039,1.70017165 13.1102807,3.8373018 10.3835719,4.93582664 C9.58997754,4.93582664 1.65403404,6.47376142 1.20636543,7.59225944 C0.819742539,8.59091839 0.656953955,9.13019422 0.575559662,9.4297919 C0.575559662,9.46973826 0.555211089,9.48971144 0.555211089,9.50968462 C0.514513943,9.66947005 0.514513943,10.2287191 0.656953955,10.8478876 L0.656953955,10.8678608 C0.75869682,11.2673244 0.901136832,11.7067343 1.12497114,12.0862247 C1.71507975,12.4257687 2.87494842,12.6654469 4.19760567,12.8252323 L4.15690852,12.5855542 L4.13655995,12.1061979 C4.15690852,9.98904091 5.92723438,8.27134752 8.08418313,8.31129388 C10.2614804,8.33126706 11.9911092,10.0689336 11.9707606,12.1860906 L11.950412,12.5056615 C11.9300634,12.7453396 11.8893663,12.9850178 11.807972,13.2047227 L11.8283206,13.2047227 L31.2815564,13.0049909 L31.2408593,12.8651787 L31.2205107,12.3858224 C31.2408593,10.2486922 33.0111852,8.55097203 35.1681339,8.57094521 C37.3250826,8.59091839 39.0750599,10.328585 39.0547114,12.4457419 L39.0547114,12.4856883 L39.1361056,12.4657151 L42.4732716,11.8864929 C42.4732716,11.8864929 43.7348832,11.2473512 43.7552317,9.40981872 C43.7755803,8.19145481 43.0226831,7.6322058 43.0226831,7.6322058 L43.0226831,7.6322058 Z M33.7844309,4.95579982 L31.9734079,2.43917927 C33.3571109,2.99842828 34.4559338,3.53770412 35.1070882,3.87724816 C35.5140596,4.09695313 35.7175454,4.53636306 35.6361511,4.975773 L33.7844309,4.95579982 Z M31.9123622,4.95579982 L25.2787274,5.09561207 L25.9298817,1.46049351 C29.348442,1.46049351 31.2815564,2.21947431 31.2815564,2.21947431 L32.2582879,3.77738226 L31.9123622,4.95579982 Z M23.7525844,5.19547797 L16.4881438,5.33529022 C16.6305838,4.27671174 15.9997781,4.03703359 15.9997781,4.03703359 C18.909624,1.48046669 24.7293159,1.46049351 24.7293159,1.46049351 L23.7525844,5.19547797 Z M43.0226831,7.6322058 L43.0430317,5.2553975 C43.0430317,4.8759071 42.7581517,4.55633624 42.3918773,4.4964167 C41.455843,4.33663127 39.8279571,4.05700677 39.1157571,3.8373018 C38.0576313,3.49775776 34.0082652,1.78006437 32.6042137,1.44052033 C31.2001621,1.12094946 24.8921045,-0.636690281 18.7875326,1.36062761 C17.7701039,1.70017165 13.1102807,3.8373018 10.3835719,4.93582664 C9.58997754,4.93582664 1.65403404,6.47376142 1.20636543,7.59225944 C0.819742539,8.59091839 0.656953955,9.13019422 0.575559662,9.4297919 C0.575559662,9.46973826 0.555211089,9.48971144 0.555211089,9.50968462 C0.514513943,9.66947005 0.514513943,10.2287191 0.656953955,10.8478876 L0.656953955,10.8678608 C0.75869682,11.2673244 0.901136832,11.7067343 1.12497114,12.0862247 C1.71507975,12.4257687 2.87494842,12.6654469 4.19760567,12.8252323 L4.15690852,12.5855542 L4.13655995,12.1061979 C4.15690852,9.98904091 5.92723438,8.27134752 8.08418313,8.31129388 C10.2614804,8.33126706 11.9911092,10.0689336 11.9707606,12.1860906 L11.950412,12.5056615 C11.9300634,12.7453396 11.8893663,12.9850178 11.807972,13.2047227 L11.8283206,13.2047227 L31.2815564,13.0049909 L31.2408593,12.8651787 L31.2205107,12.3858224 C31.2408593,10.2486922 33.0111852,8.55097203 35.1681339,8.57094521 C37.3250826,8.59091839 39.0750599,10.328585 39.0547114,12.4457419 L39.0547114,12.4856883 L39.1361056,12.4657151 L42.4732716,11.8864929 C42.4732716,11.8864929 43.7348832,11.2473512 43.7552317,9.40981872 C43.7755803,8.19145481 43.0226831,7.6322058 43.0226831,7.6322058 L43.0226831,7.6322058 Z M33.7844309,4.95579982 L31.9734079,2.43917927 C33.3571109,2.99842828 34.4559338,3.53770412 35.1070882,3.87724816 C35.5140596,4.09695313 35.7175454,4.53636306 35.6361511,4.975773 L33.7844309,4.95579982 Z M31.9123622,4.95579982 L25.2787274,5.09561207 L25.9298817,1.46049351 C29.348442,1.46049351 31.2815564,2.21947431 31.2815564,2.21947431 L32.2582879,3.77738226 L31.9123622,4.95579982 Z M23.7525844,5.19547797 L16.4881438,5.33529022 C16.6305838,4.27671174 15.9997781,4.03703359 15.9997781,4.03703359 C18.909624,1.48046669 24.7293159,1.46049351 24.7293159,1.46049351 L23.7525844,5.19547797 Z M43.0226831,7.6322058 L43.0430317,5.2553975 C43.0430317,4.8759071 42.7581517,4.55633624 42.3918773,4.4964167 C41.455843,4.33663127 39.8279571,4.05700677 39.1157571,3.8373018 C38.0576313,3.49775776 34.0082652,1.78006437 32.6042137,1.44052033 C31.2001621,1.12094946 24.8921045,-0.636690281 18.7875326,1.36062761 C17.7701039,1.70017165 13.1102807,3.8373018 10.3835719,4.93582664 C9.58997754,4.93582664 1.65403404,6.47376142 1.20636543,7.59225944 C0.819742539,8.59091839 0.656953955,9.13019422 0.575559662,9.4297919 C0.575559662,9.46973826 0.555211089,9.48971144 0.555211089,9.50968462 C0.514513943,9.66947005 0.514513943,10.2287191 0.656953955,10.8478876 L0.656953955,10.8678608 C0.75869682,11.2673244 0.901136832,11.7067343 1.12497114,12.0862247 C1.71507975,12.4257687 2.87494842,12.6654469 4.19760567,12.8252323 L4.15690852,12.5855542 L4.13655995,12.1061979 C4.15690852,9.98904091 5.92723438,8.27134752 8.08418313,8.31129388 C10.2614804,8.33126706 11.9911092,10.0689336 11.9707606,12.1860906 L11.950412,12.5056615 C11.9300634,12.7453396 11.8893663,12.9850178 11.807972,13.2047227 L11.8283206,13.2047227 L31.2815564,13.0049909 L31.2408593,12.8651787 L31.2205107,12.3858224 C31.2408593,10.2486922 33.0111852,8.55097203 35.1681339,8.57094521 C37.3250826,8.59091839 39.0750599,10.328585 39.0547114,12.4457419 L39.0547114,12.4856883 L39.1361056,12.4657151 L42.4732716,11.8864929 C42.4732716,11.8864929 43.7348832,11.2473512 43.7552317,9.40981872 C43.7755803,8.19145481 43.0226831,7.6322058 43.0226831,7.6322058 L43.0226831,7.6322058 Z M33.7844309,4.95579982 L31.9734079,2.43917927 C33.3571109,2.99842828 34.4559338,3.53770412 35.1070882,3.87724816 C35.5140596,4.09695313 35.7175454,4.53636306 35.6361511,4.975773 L33.7844309,4.95579982 Z M31.9123622,4.95579982 L25.2787274,5.09561207 L25.9298817,1.46049351 C29.348442,1.46049351 31.2815564,2.21947431 31.2815564,2.21947431 L32.2582879,3.77738226 L31.9123622,4.95579982 Z M23.7525844,5.19547797 L16.4881438,5.33529022 C16.6305838,4.27671174 15.9997781,4.03703359 15.9997781,4.03703359 C18.909624,1.48046669 24.7293159,1.46049351 24.7293159,1.46049351 L23.7525844,5.19547797 Z M43.0226831,7.6322058 L43.0430317,5.2553975 C43.0430317,4.8759071 42.7581517,4.55633624 42.3918773,4.4964167 C41.455843,4.33663127 39.8279571,4.05700677 39.1157571,3.8373018 C38.0576313,3.49775776 34.0082652,1.78006437 32.6042137,1.44052033 C31.2001621,1.12094946 24.8921045,-0.636690281 18.7875326,1.36062761 C17.7701039,1.70017165 13.1102807,3.8373018 10.3835719,4.93582664 C9.58997754,4.93582664 1.65403404,6.47376142 1.20636543,7.59225944 C0.819742539,8.59091839 0.656953955,9.13019422 0.575559662,9.4297919 C0.575559662,9.46973826 0.555211089,9.48971144 0.555211089,9.50968462 C0.514513943,9.66947005 0.514513943,10.2287191 0.656953955,10.8478876 L0.656953955,10.8678608 C0.75869682,11.2673244 0.901136832,11.7067343 1.12497114,12.0862247 C1.71507975,12.4257687 2.87494842,12.6654469 4.19760567,12.8252323 L4.15690852,12.5855542 L4.13655995,12.1061979 C4.15690852,9.98904091 5.92723438,8.27134752 8.08418313,8.31129388 C10.2614804,8.33126706 11.9911092,10.0689336 11.9707606,12.1860906 L11.950412,12.5056615 C11.9300634,12.7453396 11.8893663,12.9850178 11.807972,13.2047227 L11.8283206,13.2047227 L31.2815564,13.0049909 L31.2408593,12.8651787 L31.2205107,12.3858224 C31.2408593,10.2486922 33.0111852,8.55097203 35.1681339,8.57094521 C37.3250826,8.59091839 39.0750599,10.328585 39.0547114,12.4457419 L39.0547114,12.4856883 L39.1361056,12.4657151 L42.4732716,11.8864929 C42.4732716,11.8864929 43.7348832,11.2473512 43.7552317,9.40981872 C43.7755803,8.19145481 43.0226831,7.6322058 43.0226831,7.6322058 L43.0226831,7.6322058 Z M33.7844309,4.95579982 L31.9734079,2.43917927 C33.3571109,2.99842828 34.4559338,3.53770412 35.1070882,3.87724816 C35.5140596,4.09695313 35.7175454,4.53636306 35.6361511,4.975773 L33.7844309,4.95579982 Z M31.9123622,4.95579982 L25.2787274,5.09561207 L25.9298817,1.46049351 C29.348442,1.46049351 31.2815564,2.21947431 31.2815564,2.21947431 L32.2582879,3.77738226 L31.9123622,4.95579982 Z M23.7525844,5.19547797 L16.4881438,5.33529022 C16.6305838,4.27671174 15.9997781,4.03703359 15.9997781,4.03703359 C18.909624,1.48046669 24.7293159,1.46049351 24.7293159,1.46049351 L23.7525844,5.19547797 Z M43.0226831,7.6322058 L43.0430317,5.2553975 C43.0430317,4.8759071 42.7581517,4.55633624 42.3918773,4.4964167 C41.455843,4.33663127 39.8279571,4.05700677 39.1157571,3.8373018 C38.0576313,3.49775776 34.0082652,1.78006437 32.6042137,1.44052033 C31.2001621,1.12094946 24.8921045,-0.636690281 18.7875326,1.36062761 C17.7701039,1.70017165 13.1102807,3.8373018 10.3835719,4.93582664 C9.58997754,4.93582664 1.65403404,6.47376142 1.20636543,7.59225944 C0.819742539,8.59091839 0.656953955,9.13019422 0.575559662,9.4297919 C0.575559662,9.46973826 0.555211089,9.48971144 0.555211089,9.50968462 C0.514513943,9.66947005 0.514513943,10.2287191 0.656953955,10.8478876 L0.656953955,10.8678608 C0.75869682,11.2673244 0.901136832,11.7067343 1.12497114,12.0862247 C1.71507975,12.4257687 2.87494842,12.6654469 4.19760567,12.8252323 L4.15690852,12.5855542 L4.13655995,12.1061979 C4.15690852,9.98904091 5.92723438,8.27134752 8.08418313,8.31129388 C10.2614804,8.33126706 11.9911092,10.0689336 11.9707606,12.1860906 L11.950412,12.5056615 C11.9300634,12.7453396 11.8893663,12.9850178 11.807972,13.2047227 L11.8283206,13.2047227 L31.2815564,13.0049909 L31.2408593,12.8651787 L31.2205107,12.3858224 C31.2408593,10.2486922 33.0111852,8.55097203 35.1681339,8.57094521 C37.3250826,8.59091839 39.0750599,10.328585 39.0547114,12.4457419 L39.0547114,12.4856883 L39.1361056,12.4657151 L42.4732716,11.8864929 C42.4732716,11.8864929 43.7348832,11.2473512 43.7552317,9.40981872 C43.7755803,8.19145481 43.0226831,7.6322058 43.0226831,7.6322058 L43.0226831,7.6322058 Z M33.7844309,4.95579982 L31.9734079,2.43917927 C33.3571109,2.99842828 34.4559338,3.53770412 35.1070882,3.87724816 C35.5140596,4.09695313 35.7175454,4.53636306 35.6361511,4.975773 L33.7844309,4.95579982 Z M31.9123622,4.95579982 L25.2787274,5.09561207 L25.9298817,1.46049351 C29.348442,1.46049351 31.2815564,2.21947431 31.2815564,2.21947431 L32.2582879,3.77738226 L31.9123622,4.95579982 Z M23.7525844,5.19547797 L16.4881438,5.33529022 C16.6305838,4.27671174 15.9997781,4.03703359 15.9997781,4.03703359 C18.909624,1.48046669 24.7293159,1.46049351 24.7293159,1.46049351 L23.7525844,5.19547797 Z M43.0226831,7.6322058 L43.0430317,5.2553975 C43.0430317,4.8759071 42.7581517,4.55633624 42.3918773,4.4964167 C41.455843,4.33663127 39.8279571,4.05700677 39.1157571,3.8373018 C38.0576313,3.49775776 34.0082652,1.78006437 32.6042137,1.44052033 C31.2001621,1.12094946 24.8921045,-0.636690281 18.7875326,1.36062761 C17.7701039,1.70017165 13.1102807,3.8373018 10.3835719,4.93582664 C9.58997754,4.93582664 1.65403404,6.47376142 1.20636543,7.59225944 C0.819742539,8.59091839 0.656953955,9.13019422 0.575559662,9.4297919 C0.575559662,9.46973826 0.555211089,9.48971144 0.555211089,9.50968462 C0.514513943,9.66947005 0.514513943,10.2287191 0.656953955,10.8478876 L0.656953955,10.8678608 C0.75869682,11.2673244 0.901136832,11.7067343 1.12497114,12.0862247 C1.71507975,12.4257687 2.87494842,12.6654469 4.19760567,12.8252323 L4.15690852,12.5855542 L4.13655995,12.1061979 C4.15690852,9.98904091 5.92723438,8.27134752 8.08418313,8.31129388 C10.2614804,8.33126706 11.9911092,10.0689336 11.9707606,12.1860906 L11.950412,12.5056615 C11.9300634,12.7453396 11.8893663,12.9850178 11.807972,13.2047227 L11.8283206,13.2047227 L31.2815564,13.0049909 L31.2408593,12.8651787 L31.2205107,12.3858224 C31.2408593,10.2486922 33.0111852,8.55097203 35.1681339,8.57094521 C37.3250826,8.59091839 39.0750599,10.328585 39.0547114,12.4457419 L39.0547114,12.4856883 L39.1361056,12.4657151 L42.4732716,11.8864929 C42.4732716,11.8864929 43.7348832,11.2473512 43.7552317,9.40981872 C43.7755803,8.19145481 43.0226831,7.6322058 43.0226831,7.6322058 L43.0226831,7.6322058 Z M33.7844309,4.95579982 L31.9734079,2.43917927 C33.3571109,2.99842828 34.4559338,3.53770412 35.1070882,3.87724816 C35.5140596,4.09695313 35.7175454,4.53636306 35.6361511,4.975773 L33.7844309,4.95579982 Z M31.9123622,4.95579982 L25.2787274,5.09561207 L25.9298817,1.46049351 C29.348442,1.46049351 31.2815564,2.21947431 31.2815564,2.21947431 L32.2582879,3.77738226 L31.9123622,4.95579982 Z M23.7525844,5.19547797 L16.4881438,5.33529022 C16.6305838,4.27671174 15.9997781,4.03703359 15.9997781,4.03703359 C18.909624,1.48046669 24.7293159,1.46049351 24.7293159,1.46049351 L23.7525844,5.19547797 Z M43.0226831,7.6322058 L43.0430317,5.2553975 C43.0430317,4.8759071 42.7581517,4.55633624 42.3918773,4.4964167 C41.455843,4.33663127 39.8279571,4.05700677 39.1157571,3.8373018 C38.0576313,3.49775776 34.0082652,1.78006437 32.6042137,1.44052033 C31.2001621,1.12094946 24.8921045,-0.636690281 18.7875326,1.36062761 C17.7701039,1.70017165 13.1102807,3.8373018 10.3835719,4.93582664 C9.58997754,4.93582664 1.65403404,6.47376142 1.20636543,7.59225944 C0.819742539,8.59091839 0.656953955,9.13019422 0.575559662,9.4297919 C0.575559662,9.46973826 0.555211089,9.48971144 0.555211089,9.50968462 C0.514513943,9.66947005 0.514513943,10.2287191 0.656953955,10.8478876 L0.656953955,10.8678608 C0.75869682,11.2673244 0.901136832,11.7067343 1.12497114,12.0862247 C1.71507975,12.4257687 2.87494842,12.6654469 4.19760567,12.8252323 L4.15690852,12.5855542 L4.13655995,12.1061979 C4.15690852,9.98904091 5.92723438,8.27134752 8.08418313,8.31129388 C10.2614804,8.33126706 11.9911092,10.0689336 11.9707606,12.1860906 L11.950412,12.5056615 C11.9300634,12.7453396 11.8893663,12.9850178 11.807972,13.2047227 L11.8283206,13.2047227 L31.2815564,13.0049909 L31.2408593,12.8651787 L31.2205107,12.3858224 C31.2408593,10.2486922 33.0111852,8.55097203 35.1681339,8.57094521 C37.3250826,8.59091839 39.0750599,10.328585 39.0547114,12.4457419 L39.0547114,12.4856883 L39.1361056,12.4657151 L42.4732716,11.8864929 C42.4732716,11.8864929 43.7348832,11.2473512 43.7552317,9.40981872 C43.7755803,8.19145481 43.0226831,7.6322058 43.0226831,7.6322058 L43.0226831,7.6322058 Z M33.7844309,4.95579982 L31.9734079,2.43917927 C33.3571109,2.99842828 34.4559338,3.53770412 35.1070882,3.87724816 C35.5140596,4.09695313 35.7175454,4.53636306 35.6361511,4.975773 L33.7844309,4.95579982 Z M31.9123622,4.95579982 L25.2787274,5.09561207 L25.9298817,1.46049351 C29.348442,1.46049351 31.2815564,2.21947431 31.2815564,2.21947431 L32.2582879,3.77738226 L31.9123622,4.95579982 Z M23.7525844,5.19547797 L16.4881438,5.33529022 C16.6305838,4.27671174 15.9997781,4.03703359 15.9997781,4.03703359 C18.909624,1.48046669 24.7293159,1.46049351 24.7293159,1.46049351 L23.7525844,5.19547797 Z M43.0226831,7.6322058 L43.0430317,5.2553975 C43.0430317,4.8759071 42.7581517,4.55633624 42.3918773,4.4964167 C41.455843,4.33663127 39.8279571,4.05700677 39.1157571,3.8373018 C38.0576313,3.49775776 34.0082652,1.78006437 32.6042137,1.44052033 C31.2001621,1.12094946 24.8921045,-0.636690281 18.7875326,1.36062761 C17.7701039,1.70017165 13.1102807,3.8373018 10.3835719,4.93582664 C9.58997754,4.93582664 1.65403404,6.47376142 1.20636543,7.59225944 C0.819742539,8.59091839 0.656953955,9.13019422 0.575559662,9.4297919 C0.575559662,9.46973826 0.555211089,9.48971144 0.555211089,9.50968462 C0.514513943,9.66947005 0.514513943,10.2287191 0.656953955,10.8478876 L0.656953955,10.8678608 C0.75869682,11.2673244 0.901136832,11.7067343 1.12497114,12.0862247 C1.71507975,12.4257687 2.87494842,12.6654469 4.19760567,12.8252323 L4.15690852,12.5855542 L4.13655995,12.1061979 C4.15690852,9.98904091 5.92723438,8.27134752 8.08418313,8.31129388 C10.2614804,8.33126706 11.9911092,10.0689336 11.9707606,12.1860906 L11.950412,12.5056615 C11.9300634,12.7453396 11.8893663,12.9850178 11.807972,13.2047227 L11.8283206,13.2047227 L31.2815564,13.0049909 L31.2408593,12.8651787 L31.2205107,12.3858224 C31.2408593,10.2486922 33.0111852,8.55097203 35.1681339,8.57094521 C37.3250826,8.59091839 39.0750599,10.328585 39.0547114,12.4457419 L39.0547114,12.4856883 L39.1361056,12.4657151 L42.4732716,11.8864929 C42.4732716,11.8864929 43.7348832,11.2473512 43.7552317,9.40981872 C43.7755803,8.19145481 43.0226831,7.6322058 43.0226831,7.6322058 L43.0226831,7.6322058 Z M33.7844309,4.95579982 L31.9734079,2.43917927 C33.3571109,2.99842828 34.4559338,3.53770412 35.1070882,3.87724816 C35.5140596,4.09695313 35.7175454,4.53636306 35.6361511,4.975773 L33.7844309,4.95579982 Z M31.9123622,4.95579982 L25.2787274,5.09561207 L25.9298817,1.46049351 C29.348442,1.46049351 31.2815564,2.21947431 31.2815564,2.21947431 L32.2582879,3.77738226 L31.9123622,4.95579982 Z M23.7525844,5.19547797 L16.4881438,5.33529022 C16.6305838,4.27671174 15.9997781,4.03703359 15.9997781,4.03703359 C18.909624,1.48046669 24.7293159,1.46049351 24.7293159,1.46049351 L23.7525844,5.19547797 Z M43.0226831,7.6322058 L43.0430317,5.2553975 C43.0430317,4.8759071 42.7581517,4.55633624 42.3918773,4.4964167 C41.455843,4.33663127 39.8279571,4.05700677 39.1157571,3.8373018 C38.0576313,3.49775776 34.0082652,1.78006437 32.6042137,1.44052033 C31.2001621,1.12094946 24.8921045,-0.636690281 18.7875326,1.36062761 C17.7701039,1.70017165 13.1102807,3.8373018 10.3835719,4.93582664 C9.58997754,4.93582664 1.65403404,6.47376142 1.20636543,7.59225944 C0.819742539,8.59091839 0.656953955,9.13019422 0.575559662,9.4297919 C0.575559662,9.46973826 0.555211089,9.48971144 0.555211089,9.50968462 C0.514513943,9.66947005 0.514513943,10.2287191 0.656953955,10.8478876 L0.656953955,10.8678608 C0.75869682,11.2673244 0.901136832,11.7067343 1.12497114,12.0862247 C1.71507975,12.4257687 2.87494842,12.6654469 4.19760567,12.8252323 L4.15690852,12.5855542 L4.13655995,12.1061979 C4.15690852,9.98904091 5.92723438,8.27134752 8.08418313,8.31129388 C10.2614804,8.33126706 11.9911092,10.0689336 11.9707606,12.1860906 L11.950412,12.5056615 C11.9300634,12.7453396 11.8893663,12.9850178 11.807972,13.2047227 L11.8283206,13.2047227 L31.2815564,13.0049909 L31.2408593,12.8651787 L31.2205107,12.3858224 C31.2408593,10.2486922 33.0111852,8.55097203 35.1681339,8.57094521 C37.3250826,8.59091839 39.0750599,10.328585 39.0547114,12.4457419 L39.0547114,12.4856883 L39.1361056,12.4657151 L42.4732716,11.8864929 C42.4732716,11.8864929 43.7348832,11.2473512 43.7552317,9.40981872 C43.7755803,8.19145481 43.0226831,7.6322058 43.0226831,7.6322058 L43.0226831,7.6322058 Z M33.7844309,4.95579982 L31.9734079,2.43917927 C33.3571109,2.99842828 34.4559338,3.53770412 35.1070882,3.87724816 C35.5140596,4.09695313 35.7175454,4.53636306 35.6361511,4.975773 L33.7844309,4.95579982 Z M31.9123622,4.95579982 L25.2787274,5.09561207 L25.9298817,1.46049351 C29.348442,1.46049351 31.2815564,2.21947431 31.2815564,2.21947431 L32.2582879,3.77738226 L31.9123622,4.95579982 Z M23.7525844,5.19547797 L16.4881438,5.33529022 C16.6305838,4.27671174 15.9997781,4.03703359 15.9997781,4.03703359 C18.909624,1.48046669 24.7293159,1.46049351 24.7293159,1.46049351 L23.7525844,5.19547797 Z M43.0226831,7.6322058 L43.0430317,5.2553975 C43.0430317,4.8759071 42.7581517,4.55633624 42.3918773,4.4964167 C41.455843,4.33663127 39.8279571,4.05700677 39.1157571,3.8373018 C38.0576313,3.49775776 34.0082652,1.78006437 32.6042137,1.44052033 C31.2001621,1.12094946 24.8921045,-0.636690281 18.7875326,1.36062761 C17.7701039,1.70017165 13.1102807,3.8373018 10.3835719,4.93582664 C9.58997754,4.93582664 1.65403404,6.47376142 1.20636543,7.59225944 C0.819742539,8.59091839 0.656953955,9.13019422 0.575559662,9.4297919 C0.575559662,9.46973826 0.555211089,9.48971144 0.555211089,9.50968462 C0.514513943,9.66947005 0.514513943,10.2287191 0.656953955,10.8478876 L0.656953955,10.8678608 C0.75869682,11.2673244 0.901136832,11.7067343 1.12497114,12.0862247 C1.71507975,12.4257687 2.87494842,12.6654469 4.19760567,12.8252323 L4.15690852,12.5855542 L4.13655995,12.1061979 C4.15690852,9.98904091 5.92723438,8.27134752 8.08418313,8.31129388 C10.2614804,8.33126706 11.9911092,10.0689336 11.9707606,12.1860906 L11.950412,12.5056615 C11.9300634,12.7453396 11.8893663,12.9850178 11.807972,13.2047227 L11.8283206,13.2047227 L31.2815564,13.0049909 L31.2408593,12.8651787 L31.2205107,12.3858224 C31.2408593,10.2486922 33.0111852,8.55097203 35.1681339,8.57094521 C37.3250826,8.59091839 39.0750599,10.328585 39.0547114,12.4457419 L39.0547114,12.4856883 L39.1361056,12.4657151 L42.4732716,11.8864929 C42.4732716,11.8864929 43.7348832,11.2473512 43.7552317,9.40981872 C43.7755803,8.19145481 43.0226831,7.6322058 43.0226831,7.6322058 L43.0226831,7.6322058 Z M33.7844309,4.95579982 L31.9734079,2.43917927 C33.3571109,2.99842828 34.4559338,3.53770412 35.1070882,3.87724816 C35.5140596,4.09695313 35.7175454,4.53636306 35.6361511,4.975773 L33.7844309,4.95579982 Z M31.9123622,4.95579982 L25.2787274,5.09561207 L25.9298817,1.46049351 C29.348442,1.46049351 31.2815564,2.21947431 31.2815564,2.21947431 L32.2582879,3.77738226 L31.9123622,4.95579982 Z M23.7525844,5.19547797 L16.4881438,5.33529022 C16.6305838,4.27671174 15.9997781,4.03703359 15.9997781,4.03703359 C18.909624,1.48046669 24.7293159,1.46049351 24.7293159,1.46049351 L23.7525844,5.19547797 Z M43.0226831,7.6322058 L43.0430317,5.2553975 C43.0430317,4.8759071 42.7581517,4.55633624 42.3918773,4.4964167 C41.455843,4.33663127 39.8279571,4.05700677 39.1157571,3.8373018 C38.0576313,3.49775776 34.0082652,1.78006437 32.6042137,1.44052033 C31.2001621,1.12094946 24.8921045,-0.636690281 18.7875326,1.36062761 C17.7701039,1.70017165 13.1102807,3.8373018 10.3835719,4.93582664 C9.58997754,4.93582664 1.65403404,6.47376142 1.20636543,7.59225944 C0.819742539,8.59091839 0.656953955,9.13019422 0.575559662,9.4297919 C0.575559662,9.46973826 0.555211089,9.48971144 0.555211089,9.50968462 C0.514513943,9.66947005 0.514513943,10.2287191 0.656953955,10.8478876 L0.656953955,10.8678608 C0.75869682,11.2673244 0.901136832,11.7067343 1.12497114,12.0862247 C1.71507975,12.4257687 2.87494842,12.6654469 4.19760567,12.8252323 L4.15690852,12.5855542 L4.13655995,12.1061979 C4.15690852,9.98904091 5.92723438,8.27134752 8.08418313,8.31129388 C10.2614804,8.33126706 11.9911092,10.0689336 11.9707606,12.1860906 L11.950412,12.5056615 C11.9300634,12.7453396 11.8893663,12.9850178 11.807972,13.2047227 L11.8283206,13.2047227 L31.2815564,13.0049909 L31.2408593,12.8651787 L31.2205107,12.3858224 C31.2408593,10.2486922 33.0111852,8.55097203 35.1681339,8.57094521 C37.3250826,8.59091839 39.0750599,10.328585 39.0547114,12.4457419 L39.0547114,12.4856883 L39.1361056,12.4657151 L42.4732716,11.8864929 C42.4732716,11.8864929 43.7348832,11.2473512 43.7552317,9.40981872 C43.7755803,8.19145481 43.0226831,7.6322058 43.0226831,7.6322058 L43.0226831,7.6322058 Z M33.7844309,4.95579982 L31.9734079,2.43917927 C33.3571109,2.99842828 34.4559338,3.53770412 35.1070882,3.87724816 C35.5140596,4.09695313 35.7175454,4.53636306 35.6361511,4.975773 L33.7844309,4.95579982 Z M31.9123622,4.95579982 L25.2787274,5.09561207 L25.9298817,1.46049351 C29.348442,1.46049351 31.2815564,2.21947431 31.2815564,2.21947431 L32.2582879,3.77738226 L31.9123622,4.95579982 Z M23.7525844,5.19547797 L16.4881438,5.33529022 C16.6305838,4.27671174 15.9997781,4.03703359 15.9997781,4.03703359 C18.909624,1.48046669 24.7293159,1.46049351 24.7293159,1.46049351 L23.7525844,5.19547797 Z M43.0226831,7.6322058 L43.0430317,5.2553975 C43.0430317,4.8759071 42.7581517,4.55633624 42.3918773,4.4964167 C41.455843,4.33663127 39.8279571,4.05700677 39.1157571,3.8373018 C38.0576313,3.49775776 34.0082652,1.78006437 32.6042137,1.44052033 C31.2001621,1.12094946 24.8921045,-0.636690281 18.7875326,1.36062761 C17.7701039,1.70017165 13.1102807,3.8373018 10.3835719,4.93582664 C9.58997754,4.93582664 1.65403404,6.47376142 1.20636543,7.59225944 C0.819742539,8.59091839 0.656953955,9.13019422 0.575559662,9.4297919 C0.575559662,9.46973826 0.555211089,9.48971144 0.555211089,9.50968462 C0.514513943,9.66947005 0.514513943,10.2287191 0.656953955,10.8478876 L0.656953955,10.8678608 C0.75869682,11.2673244 0.901136832,11.7067343 1.12497114,12.0862247 C1.71507975,12.4257687 2.87494842,12.6654469 4.19760567,12.8252323 L4.15690852,12.5855542 L4.13655995,12.1061979 C4.15690852,9.98904091 5.92723438,8.27134752 8.08418313,8.31129388 C10.2614804,8.33126706 11.9911092,10.0689336 11.9707606,12.1860906 L11.950412,12.5056615 C11.9300634,12.7453396 11.8893663,12.9850178 11.807972,13.2047227 L11.8283206,13.2047227 L31.2815564,13.0049909 L31.2408593,12.8651787 L31.2205107,12.3858224 C31.2408593,10.2486922 33.0111852,8.55097203 35.1681339,8.57094521 C37.3250826,8.59091839 39.0750599,10.328585 39.0547114,12.4457419 L39.0547114,12.4856883 L39.1361056,12.4657151 L42.4732716,11.8864929 C42.4732716,11.8864929 43.7348832,11.2473512 43.7552317,9.40981872 C43.7755803,8.19145481 43.0226831,7.6322058 43.0226831,7.6322058 L43.0226831,7.6322058 Z M33.7844309,4.95579982 L31.9734079,2.43917927 C33.3571109,2.99842828 34.4559338,3.53770412 35.1070882,3.87724816 C35.5140596,4.09695313 35.7175454,4.53636306 35.6361511,4.975773 L33.7844309,4.95579982 Z M31.9123622,4.95579982 L25.2787274,5.09561207 L25.9298817,1.46049351 C29.348442,1.46049351 31.2815564,2.21947431 31.2815564,2.21947431 L32.2582879,3.77738226 L31.9123622,4.95579982 Z M23.7525844,5.19547797 L16.4881438,5.33529022 C16.6305838,4.27671174 15.9997781,4.03703359 15.9997781,4.03703359 C18.909624,1.48046669 24.7293159,1.46049351 24.7293159,1.46049351 L23.7525844,5.19547797 Z M43.0226831,7.6322058 L43.0430317,5.2553975 C43.0430317,4.8759071 42.7581517,4.55633624 42.3918773,4.4964167 C41.455843,4.33663127 39.8279571,4.05700677 39.1157571,3.8373018 C38.0576313,3.49775776 34.0082652,1.78006437 32.6042137,1.44052033 C31.2001621,1.12094946 24.8921045,-0.636690281 18.7875326,1.36062761 C17.7701039,1.70017165 13.1102807,3.8373018 10.3835719,4.93582664 C9.58997754,4.93582664 1.65403404,6.47376142 1.20636543,7.59225944 C0.819742539,8.59091839 0.656953955,9.13019422 0.575559662,9.4297919 C0.575559662,9.46973826 0.555211089,9.48971144 0.555211089,9.50968462 C0.514513943,9.66947005 0.514513943,10.2287191 0.656953955,10.8478876 L0.656953955,10.8678608 C0.75869682,11.2673244 0.901136832,11.7067343 1.12497114,12.0862247 C1.71507975,12.4257687 2.87494842,12.6654469 4.19760567,12.8252323 L4.15690852,12.5855542 L4.13655995,12.1061979 C4.15690852,9.98904091 5.92723438,8.27134752 8.08418313,8.31129388 C10.2614804,8.33126706 11.9911092,10.0689336 11.9707606,12.1860906 L11.950412,12.5056615 C11.9300634,12.7453396 11.8893663,12.9850178 11.807972,13.2047227 L11.8283206,13.2047227 L31.2815564,13.0049909 L31.2408593,12.8651787 L31.2205107,12.3858224 C31.2408593,10.2486922 33.0111852,8.55097203 35.1681339,8.57094521 C37.3250826,8.59091839 39.0750599,10.328585 39.0547114,12.4457419 L39.0547114,12.4856883 L39.1361056,12.4657151 L42.4732716,11.8864929 C42.4732716,11.8864929 43.7348832,11.2473512 43.7552317,9.40981872 C43.7755803,8.19145481 43.0226831,7.6322058 43.0226831,7.6322058 L43.0226831,7.6322058 Z M33.7844309,4.95579982 L31.9734079,2.43917927 C33.3571109,2.99842828 34.4559338,3.53770412 35.1070882,3.87724816 C35.5140596,4.09695313 35.7175454,4.53636306 35.6361511,4.975773 L33.7844309,4.95579982 Z M31.9123622,4.95579982 L25.2787274,5.09561207 L25.9298817,1.46049351 C29.348442,1.46049351 31.2815564,2.21947431 31.2815564,2.21947431 L32.2582879,3.77738226 L31.9123622,4.95579982 Z M23.7525844,5.19547797 L16.4881438,5.33529022 C16.6305838,4.27671174 15.9997781,4.03703359 15.9997781,4.03703359 C18.909624,1.48046669 24.7293159,1.46049351 24.7293159,1.46049351 L23.7525844,5.19547797 Z M43.0226831,7.6322058 L43.0430317,5.2553975 C43.0430317,4.8759071 42.7581517,4.55633624 42.3918773,4.4964167 C41.455843,4.33663127 39.8279571,4.05700677 39.1157571,3.8373018 C38.0576313,3.49775776 34.0082652,1.78006437 32.6042137,1.44052033 C31.2001621,1.12094946 24.8921045,-0.636690281 18.7875326,1.36062761 C17.7701039,1.70017165 13.1102807,3.8373018 10.3835719,4.93582664 C9.58997754,4.93582664 1.65403404,6.47376142 1.20636543,7.59225944 C0.819742539,8.59091839 0.656953955,9.13019422 0.575559662,9.4297919 C0.575559662,9.46973826 0.555211089,9.48971144 0.555211089,9.50968462 C0.514513943,9.66947005 0.514513943,10.2287191 0.656953955,10.8478876 L0.656953955,10.8678608 C0.75869682,11.2673244 0.901136832,11.7067343 1.12497114,12.0862247 C1.71507975,12.4257687 2.87494842,12.6654469 4.19760567,12.8252323 L4.15690852,12.5855542 L4.13655995,12.1061979 C4.15690852,9.98904091 5.92723438,8.27134752 8.08418313,8.31129388 C10.2614804,8.33126706 11.9911092,10.0689336 11.9707606,12.1860906 L11.950412,12.5056615 C11.9300634,12.7453396 11.8893663,12.9850178 11.807972,13.2047227 L11.8283206,13.2047227 L31.2815564,13.0049909 L31.2408593,12.8651787 L31.2205107,12.3858224 C31.2408593,10.2486922 33.0111852,8.55097203 35.1681339,8.57094521 C37.3250826,8.59091839 39.0750599,10.328585 39.0547114,12.4457419 L39.0547114,12.4856883 L39.1361056,12.4657151 L42.4732716,11.8864929 C42.4732716,11.8864929 43.7348832,11.2473512 43.7552317,9.40981872 C43.7755803,8.19145481 43.0226831,7.6322058 43.0226831,7.6322058 L43.0226831,7.6322058 Z M33.7844309,4.95579982 L31.9734079,2.43917927 C33.3571109,2.99842828 34.4559338,3.53770412 35.1070882,3.87724816 C35.5140596,4.09695313 35.7175454,4.53636306 35.6361511,4.975773 L33.7844309,4.95579982 Z M31.9123622,4.95579982 L25.2787274,5.09561207 L25.9298817,1.46049351 C29.348442,1.46049351 31.2815564,2.21947431 31.2815564,2.21947431 L32.2582879,3.77738226 L31.9123622,4.95579982 Z M23.7525844,5.19547797 L16.4881438,5.33529022 C16.6305838,4.27671174 15.9997781,4.03703359 15.9997781,4.03703359 C18.909624,1.48046669 24.7293159,1.46049351 24.7293159,1.46049351 L23.7525844,5.19547797 Z M43.0226831,7.6322058 L43.0430317,5.2553975 C43.0430317,4.8759071 42.7581517,4.55633624 42.3918773,4.4964167 C41.455843,4.33663127 39.8279571,4.05700677 39.1157571,3.8373018 C38.0576313,3.49775776 34.0082652,1.78006437 32.6042137,1.44052033 C31.2001621,1.12094946 24.8921045,-0.636690281 18.7875326,1.36062761 C17.7701039,1.70017165 13.1102807,3.8373018 10.3835719,4.93582664 C9.58997754,4.93582664 1.65403404,6.47376142 1.20636543,7.59225944 C0.819742539,8.59091839 0.656953955,9.13019422 0.575559662,9.4297919 C0.575559662,9.46973826 0.555211089,9.48971144 0.555211089,9.50968462 C0.514513943,9.66947005 0.514513943,10.2287191 0.656953955,10.8478876 L0.656953955,10.8678608 C0.75869682,11.2673244 0.901136832,11.7067343 1.12497114,12.0862247 C1.71507975,12.4257687 2.87494842,12.6654469 4.19760567,12.8252323 L4.15690852,12.5855542 L4.13655995,12.1061979 C4.15690852,9.98904091 5.92723438,8.27134752 8.08418313,8.31129388 C10.2614804,8.33126706 11.9911092,10.0689336 11.9707606,12.1860906 L11.950412,12.5056615 C11.9300634,12.7453396 11.8893663,12.9850178 11.807972,13.2047227 L11.8283206,13.2047227 L31.2815564,13.0049909 L31.2408593,12.8651787 L31.2205107,12.3858224 C31.2408593,10.2486922 33.0111852,8.55097203 35.1681339,8.57094521 C37.3250826,8.59091839 39.0750599,10.328585 39.0547114,12.4457419 L39.0547114,12.4856883 L39.1361056,12.4657151 L42.4732716,11.8864929 C42.4732716,11.8864929 43.7348832,11.2473512 43.7552317,9.40981872 C43.7755803,8.19145481 43.0226831,7.6322058 43.0226831,7.6322058 L43.0226831,7.6322058 Z M33.7844309,4.95579982 L31.9734079,2.43917927 C33.3571109,2.99842828 34.4559338,3.53770412 35.1070882,3.87724816 C35.5140596,4.09695313 35.7175454,4.53636306 35.6361511,4.975773 L33.7844309,4.95579982 Z M31.9123622,4.95579982 L25.2787274,5.09561207 L25.9298817,1.46049351 C29.348442,1.46049351 31.2815564,2.21947431 31.2815564,2.21947431 L32.2582879,3.77738226 L31.9123622,4.95579982 Z M23.7525844,5.19547797 L16.4881438,5.33529022 C16.6305838,4.27671174 15.9997781,4.03703359 15.9997781,4.03703359 C18.909624,1.48046669 24.7293159,1.46049351 24.7293159,1.46049351 L23.7525844,5.19547797 Z M43.0226831,7.6322058 L43.0430317,5.2553975 C43.0430317,4.8759071 42.7581517,4.55633624 42.3918773,4.4964167 C41.455843,4.33663127 39.8279571,4.05700677 39.1157571,3.8373018 C38.0576313,3.49775776 34.0082652,1.78006437 32.6042137,1.44052033 C31.2001621,1.12094946 24.8921045,-0.636690281 18.7875326,1.36062761 C17.7701039,1.70017165 13.1102807,3.8373018 10.3835719,4.93582664 C9.58997754,4.93582664 1.65403404,6.47376142 1.20636543,7.59225944 C0.819742539,8.59091839 0.656953955,9.13019422 0.575559662,9.4297919 C0.575559662,9.46973826 0.555211089,9.48971144 0.555211089,9.50968462 C0.514513943,9.66947005 0.514513943,10.2287191 0.656953955,10.8478876 L0.656953955,10.8678608 C0.75869682,11.2673244 0.901136832,11.7067343 1.12497114,12.0862247 C1.71507975,12.4257687 2.87494842,12.6654469 4.19760567,12.8252323 L4.15690852,12.5855542 L4.13655995,12.1061979 C4.15690852,9.98904091 5.92723438,8.27134752 8.08418313,8.31129388 C10.2614804,8.33126706 11.9911092,10.0689336 11.9707606,12.1860906 L11.950412,12.5056615 C11.9300634,12.7453396 11.8893663,12.9850178 11.807972,13.2047227 L11.8283206,13.2047227 L31.2815564,13.0049909 L31.2408593,12.8651787 L31.2205107,12.3858224 C31.2408593,10.2486922 33.0111852,8.55097203 35.1681339,8.57094521 C37.3250826,8.59091839 39.0750599,10.328585 39.0547114,12.4457419 L39.0547114,12.4856883 L39.1361056,12.4657151 L42.4732716,11.8864929 C42.4732716,11.8864929 43.7348832,11.2473512 43.7552317,9.40981872 C43.7755803,8.19145481 43.0226831,7.6322058 43.0226831,7.6322058 L43.0226831,7.6322058 Z M33.7844309,4.95579982 L31.9734079,2.43917927 C33.3571109,2.99842828 34.4559338,3.53770412 35.1070882,3.87724816 C35.5140596,4.09695313 35.7175454,4.53636306 35.6361511,4.975773 L33.7844309,4.95579982 Z M31.9123622,4.95579982 L25.2787274,5.09561207 L25.9298817,1.46049351 C29.348442,1.46049351 31.2815564,2.21947431 31.2815564,2.21947431 L32.2582879,3.77738226 L31.9123622,4.95579982 Z M23.7525844,5.19547797 L16.4881438,5.33529022 C16.6305838,4.27671174 15.9997781,4.03703359 15.9997781,4.03703359 C18.909624,1.48046669 24.7293159,1.46049351 24.7293159,1.46049351 L23.7525844,5.19547797 Z M43.0226831,7.6322058 L43.0430317,5.2553975 C43.0430317,4.8759071 42.7581517,4.55633624 42.3918773,4.4964167 C41.455843,4.33663127 39.8279571,4.05700677 39.1157571,3.8373018 C38.0576313,3.49775776 34.0082652,1.78006437 32.6042137,1.44052033 C31.2001621,1.12094946 24.8921045,-0.636690281 18.7875326,1.36062761 C17.7701039,1.70017165 13.1102807,3.8373018 10.3835719,4.93582664 C9.58997754,4.93582664 1.65403404,6.47376142 1.20636543,7.59225944 C0.819742539,8.59091839 0.656953955,9.13019422 0.575559662,9.4297919 C0.575559662,9.46973826 0.555211089,9.48971144 0.555211089,9.50968462 C0.514513943,9.66947005 0.514513943,10.2287191 0.656953955,10.8478876 L0.656953955,10.8678608 C0.75869682,11.2673244 0.901136832,11.7067343 1.12497114,12.0862247 C1.71507975,12.4257687 2.87494842,12.6654469 4.19760567,12.8252323 L4.15690852,12.5855542 L4.13655995,12.1061979 C4.15690852,9.98904091 5.92723438,8.27134752 8.08418313,8.31129388 C10.2614804,8.33126706 11.9911092,10.0689336 11.9707606,12.1860906 L11.950412,12.5056615 C11.9300634,12.7453396 11.8893663,12.9850178 11.807972,13.2047227 L11.8283206,13.2047227 L31.2815564,13.0049909 L31.2408593,12.8651787 L31.2205107,12.3858224 C31.2408593,10.2486922 33.0111852,8.55097203 35.1681339,8.57094521 C37.3250826,8.59091839 39.0750599,10.328585 39.0547114,12.4457419 L39.0547114,12.4856883 L39.1361056,12.4657151 L42.4732716,11.8864929 C42.4732716,11.8864929 43.7348832,11.2473512 43.7552317,9.40981872 C43.7755803,8.19145481 43.0226831,7.6322058 43.0226831,7.6322058 L43.0226831,7.6322058 Z M33.7844309,4.95579982 L31.9734079,2.43917927 C33.3571109,2.99842828 34.4559338,3.53770412 35.1070882,3.87724816 C35.5140596,4.09695313 35.7175454,4.53636306 35.6361511,4.975773 L33.7844309,4.95579982 Z M31.9123622,4.95579982 L25.2787274,5.09561207 L25.9298817,1.46049351 C29.348442,1.46049351 31.2815564,2.21947431 31.2815564,2.21947431 L32.2582879,3.77738226 L31.9123622,4.95579982 Z M23.7525844,5.19547797 L16.4881438,5.33529022 C16.6305838,4.27671174 15.9997781,4.03703359 15.9997781,4.03703359 C18.909624,1.48046669 24.7293159,1.46049351 24.7293159,1.46049351 L23.7525844,5.19547797 Z M43.0226831,7.6322058 L43.0430317,5.2553975 C43.0430317,4.8759071 42.7581517,4.55633624 42.3918773,4.4964167 C41.455843,4.33663127 39.8279571,4.05700677 39.1157571,3.8373018 C38.0576313,3.49775776 34.0082652,1.78006437 32.6042137,1.44052033 C31.2001621,1.12094946 24.8921045,-0.636690281 18.7875326,1.36062761 C17.7701039,1.70017165 13.1102807,3.8373018 10.3835719,4.93582664 C9.58997754,4.93582664 1.65403404,6.47376142 1.20636543,7.59225944 C0.819742539,8.59091839 0.656953955,9.13019422 0.575559662,9.4297919 C0.575559662,9.46973826 0.555211089,9.48971144 0.555211089,9.50968462 C0.514513943,9.66947005 0.514513943,10.2287191 0.656953955,10.8478876 L0.656953955,10.8678608 C0.75869682,11.2673244 0.901136832,11.7067343 1.12497114,12.0862247 C1.71507975,12.4257687 2.87494842,12.6654469 4.19760567,12.8252323 L4.15690852,12.5855542 L4.13655995,12.1061979 C4.15690852,9.98904091 5.92723438,8.27134752 8.08418313,8.31129388 C10.2614804,8.33126706 11.9911092,10.0689336 11.9707606,12.1860906 L11.950412,12.5056615 C11.9300634,12.7453396 11.8893663,12.9850178 11.807972,13.2047227 L11.8283206,13.2047227 L31.2815564,13.0049909 L31.2408593,12.8651787 L31.2205107,12.3858224 C31.2408593,10.2486922 33.0111852,8.55097203 35.1681339,8.57094521 C37.3250826,8.59091839 39.0750599,10.328585 39.0547114,12.4457419 L39.0547114,12.4856883 L39.1361056,12.4657151 L42.4732716,11.8864929 C42.4732716,11.8864929 43.7348832,11.2473512 43.7552317,9.40981872 C43.7755803,8.19145481 43.0226831,7.6322058 43.0226831,7.6322058 L43.0226831,7.6322058 Z M33.7844309,4.95579982 L31.9734079,2.43917927 C33.3571109,2.99842828 34.4559338,3.53770412 35.1070882,3.87724816 C35.5140596,4.09695313 35.7175454,4.53636306 35.6361511,4.975773 L33.7844309,4.95579982 Z M31.9123622,4.95579982 L25.2787274,5.09561207 L25.9298817,1.46049351 C29.348442,1.46049351 31.2815564,2.21947431 31.2815564,2.21947431 L32.2582879,3.77738226 L31.9123622,4.95579982 Z M23.7525844,5.19547797 L16.4881438,5.33529022 C16.6305838,4.27671174 15.9997781,4.03703359 15.9997781,4.03703359 C18.909624,1.48046669 24.7293159,1.46049351 24.7293159,1.46049351 L23.7525844,5.19547797 Z M43.0226831,7.6322058 L43.0430317,5.2553975 C43.0430317,4.8759071 42.7581517,4.55633624 42.3918773,4.4964167 C41.455843,4.33663127 39.8279571,4.05700677 39.1157571,3.8373018 C38.0576313,3.49775776 34.0082652,1.78006437 32.6042137,1.44052033 C31.2001621,1.12094946 24.8921045,-0.636690281 18.7875326,1.36062761 C17.7701039,1.70017165 13.1102807,3.8373018 10.3835719,4.93582664 C9.58997754,4.93582664 1.65403404,6.47376142 1.20636543,7.59225944 C0.819742539,8.59091839 0.656953955,9.13019422 0.575559662,9.4297919 C0.575559662,9.46973826 0.555211089,9.48971144 0.555211089,9.50968462 C0.514513943,9.66947005 0.514513943,10.2287191 0.656953955,10.8478876 L0.656953955,10.8678608 C0.75869682,11.2673244 0.901136832,11.7067343 1.12497114,12.0862247 C1.71507975,12.4257687 2.87494842,12.6654469 4.19760567,12.8252323 L4.15690852,12.5855542 L4.13655995,12.1061979 C4.15690852,9.98904091 5.92723438,8.27134752 8.08418313,8.31129388 C10.2614804,8.33126706 11.9911092,10.0689336 11.9707606,12.1860906 L11.950412,12.5056615 C11.9300634,12.7453396 11.8893663,12.9850178 11.807972,13.2047227 L11.8283206,13.2047227 L31.2815564,13.0049909 L31.2408593,12.8651787 L31.2205107,12.3858224 C31.2408593,10.2486922 33.0111852,8.55097203 35.1681339,8.57094521 C37.3250826,8.59091839 39.0750599,10.328585 39.0547114,12.4457419 L39.0547114,12.4856883 L39.1361056,12.4657151 L42.4732716,11.8864929 C42.4732716,11.8864929 43.7348832,11.2473512 43.7552317,9.40981872 C43.7755803,8.19145481 43.0226831,7.6322058 43.0226831,7.6322058 L43.0226831,7.6322058 Z M33.7844309,4.95579982 L31.9734079,2.43917927 C33.3571109,2.99842828 34.4559338,3.53770412 35.1070882,3.87724816 C35.5140596,4.09695313 35.7175454,4.53636306 35.6361511,4.975773 L33.7844309,4.95579982 Z M31.9123622,4.95579982 L25.2787274,5.09561207 L25.9298817,1.46049351 C29.348442,1.46049351 31.2815564,2.21947431 31.2815564,2.21947431 L32.2582879,3.77738226 L31.9123622,4.95579982 Z M23.7525844,5.19547797 L16.4881438,5.33529022 C16.6305838,4.27671174 15.9997781,4.03703359 15.9997781,4.03703359 C18.909624,1.48046669 24.7293159,1.46049351 24.7293159,1.46049351 L23.7525844,5.19547797 Z M43.0226831,7.6322058 L43.0430317,5.2553975 C43.0430317,4.8759071 42.7581517,4.55633624 42.3918773,4.4964167 C41.455843,4.33663127 39.8279571,4.05700677 39.1157571,3.8373018 C38.0576313,3.49775776 34.0082652,1.78006437 32.6042137,1.44052033 C31.2001621,1.12094946 24.8921045,-0.636690281 18.7875326,1.36062761 C17.7701039,1.70017165 13.1102807,3.8373018 10.3835719,4.93582664 C9.58997754,4.93582664 1.65403404,6.47376142 1.20636543,7.59225944 C0.819742539,8.59091839 0.656953955,9.13019422 0.575559662,9.4297919 C0.575559662,9.46973826 0.555211089,9.48971144 0.555211089,9.50968462 C0.514513943,9.66947005 0.514513943,10.2287191 0.656953955,10.8478876 L0.656953955,10.8678608 C0.75869682,11.2673244 0.901136832,11.7067343 1.12497114,12.0862247 C1.71507975,12.4257687 2.87494842,12.6654469 4.19760567,12.8252323 L4.15690852,12.5855542 L4.13655995,12.1061979 C4.15690852,9.98904091 5.92723438,8.27134752 8.08418313,8.31129388 C10.2614804,8.33126706 11.9911092,10.0689336 11.9707606,12.1860906 L11.950412,12.5056615 C11.9300634,12.7453396 11.8893663,12.9850178 11.807972,13.2047227 L11.8283206,13.2047227 L31.2815564,13.0049909 L31.2408593,12.8651787 L31.2205107,12.3858224 C31.2408593,10.2486922 33.0111852,8.55097203 35.1681339,8.57094521 C37.3250826,8.59091839 39.0750599,10.328585 39.0547114,12.4457419 L39.0547114,12.4856883 L39.1361056,12.4657151 L42.4732716,11.8864929 C42.4732716,11.8864929 43.7348832,11.2473512 43.7552317,9.40981872 C43.7755803,8.19145481 43.0226831,7.6322058 43.0226831,7.6322058 L43.0226831,7.6322058 Z M33.7844309,4.95579982 L31.9734079,2.43917927 C33.3571109,2.99842828 34.4559338,3.53770412 35.1070882,3.87724816 C35.5140596,4.09695313 35.7175454,4.53636306 35.6361511,4.975773 L33.7844309,4.95579982 Z M31.9123622,4.95579982 L25.2787274,5.09561207 L25.9298817,1.46049351 C29.348442,1.46049351 31.2815564,2.21947431 31.2815564,2.21947431 L32.2582879,3.77738226 L31.9123622,4.95579982 Z M23.7525844,5.19547797 L16.4881438,5.33529022 C16.6305838,4.27671174 15.9997781,4.03703359 15.9997781,4.03703359 C18.909624,1.48046669 24.7293159,1.46049351 24.7293159,1.46049351 L23.7525844,5.19547797 Z M43.0226831,7.6322058 L43.0430317,5.2553975 C43.0430317,4.8759071 42.7581517,4.55633624 42.3918773,4.4964167 C41.455843,4.33663127 39.8279571,4.05700677 39.1157571,3.8373018 C38.0576313,3.49775776 34.0082652,1.78006437 32.6042137,1.44052033 C31.2001621,1.12094946 24.8921045,-0.636690281 18.7875326,1.36062761 C17.7701039,1.70017165 13.1102807,3.8373018 10.3835719,4.93582664 C9.58997754,4.93582664 1.65403404,6.47376142 1.20636543,7.59225944 C0.819742539,8.59091839 0.656953955,9.13019422 0.575559662,9.4297919 C0.575559662,9.46973826 0.555211089,9.48971144 0.555211089,9.50968462 C0.514513943,9.66947005 0.514513943,10.2287191 0.656953955,10.8478876 L0.656953955,10.8678608 C0.75869682,11.2673244 0.901136832,11.7067343 1.12497114,12.0862247 C1.71507975,12.4257687 2.87494842,12.6654469 4.19760567,12.8252323 L4.15690852,12.5855542 L4.13655995,12.1061979 C4.15690852,9.98904091 5.92723438,8.27134752 8.08418313,8.31129388 C10.2614804,8.33126706 11.9911092,10.0689336 11.9707606,12.1860906 L11.950412,12.5056615 C11.9300634,12.7453396 11.8893663,12.9850178 11.807972,13.2047227 L11.8283206,13.2047227 L31.2815564,13.0049909 L31.2408593,12.8651787 L31.2205107,12.3858224 C31.2408593,10.2486922 33.0111852,8.55097203 35.1681339,8.57094521 C37.3250826,8.59091839 39.0750599,10.328585 39.0547114,12.4457419 L39.0547114,12.4856883 L39.1361056,12.4657151 L42.4732716,11.8864929 C42.4732716,11.8864929 43.7348832,11.2473512 43.7552317,9.40981872 C43.7755803,8.19145481 43.0226831,7.6322058 43.0226831,7.6322058 L43.0226831,7.6322058 Z M33.7844309,4.95579982 L31.9734079,2.43917927 C33.3571109,2.99842828 34.4559338,3.53770412 35.1070882,3.87724816 C35.5140596,4.09695313 35.7175454,4.53636306 35.6361511,4.975773 L33.7844309,4.95579982 Z M31.9123622,4.95579982 L25.2787274,5.09561207 L25.9298817,1.46049351 C29.348442,1.46049351 31.2815564,2.21947431 31.2815564,2.21947431 L32.2582879,3.77738226 L31.9123622,4.95579982 Z M23.7525844,5.19547797 L16.4881438,5.33529022 C16.6305838,4.27671174 15.9997781,4.03703359 15.9997781,4.03703359 C18.909624,1.48046669 24.7293159,1.46049351 24.7293159,1.46049351 L23.7525844,5.19547797 Z M43.0226831,7.6322058 L43.0430317,5.2553975 C43.0430317,4.8759071 42.7581517,4.55633624 42.3918773,4.4964167 C41.455843,4.33663127 39.8279571,4.05700677 39.1157571,3.8373018 C38.0576313,3.49775776 34.0082652,1.78006437 32.6042137,1.44052033 C31.2001621,1.12094946 24.8921045,-0.636690281 18.7875326,1.36062761 C17.7701039,1.70017165 13.1102807,3.8373018 10.3835719,4.93582664 C9.58997754,4.93582664 1.65403404,6.47376142 1.20636543,7.59225944 C0.819742539,8.59091839 0.656953955,9.13019422 0.575559662,9.4297919 C0.575559662,9.46973826 0.555211089,9.48971144 0.555211089,9.50968462 C0.514513943,9.66947005 0.514513943,10.2287191 0.656953955,10.8478876 L0.656953955,10.8678608 C0.75869682,11.2673244 0.901136832,11.7067343 1.12497114,12.0862247 C1.71507975,12.4257687 2.87494842,12.6654469 4.19760567,12.8252323 L4.15690852,12.5855542 L4.13655995,12.1061979 C4.15690852,9.98904091 5.92723438,8.27134752 8.08418313,8.31129388 C10.2614804,8.33126706 11.9911092,10.0689336 11.9707606,12.1860906 L11.950412,12.5056615 C11.9300634,12.7453396 11.8893663,12.9850178 11.807972,13.2047227 L11.8283206,13.2047227 L31.2815564,13.0049909 L31.2408593,12.8651787 L31.2205107,12.3858224 C31.2408593,10.2486922 33.0111852,8.55097203 35.1681339,8.57094521 C37.3250826,8.59091839 39.0750599,10.328585 39.0547114,12.4457419 L39.0547114,12.4856883 L39.1361056,12.4657151 L42.4732716,11.8864929 C42.4732716,11.8864929 43.7348832,11.2473512 43.7552317,9.40981872 C43.7755803,8.19145481 43.0226831,7.6322058 43.0226831,7.6322058 L43.0226831,7.6322058 Z M33.7844309,4.95579982 L31.9734079,2.43917927 C33.3571109,2.99842828 34.4559338,3.53770412 35.1070882,3.87724816 C35.5140596,4.09695313 35.7175454,4.53636306 35.6361511,4.975773 L33.7844309,4.95579982 Z M31.9123622,4.95579982 L25.2787274,5.09561207 L25.9298817,1.46049351 C29.348442,1.46049351 31.2815564,2.21947431 31.2815564,2.21947431 L32.2582879,3.77738226 L31.9123622,4.95579982 Z M23.7525844,5.19547797 L16.4881438,5.33529022 C16.6305838,4.27671174 15.9997781,4.03703359 15.9997781,4.03703359 C18.909624,1.48046669 24.7293159,1.46049351 24.7293159,1.46049351 L23.7525844,5.19547797 Z M43.0226831,7.6322058 L43.0430317,5.2553975 C43.0430317,4.8759071 42.7581517,4.55633624 42.3918773,4.4964167 C41.455843,4.33663127 39.8279571,4.05700677 39.1157571,3.8373018 C38.0576313,3.49775776 34.0082652,1.78006437 32.6042137,1.44052033 C31.2001621,1.12094946 24.8921045,-0.636690281 18.7875326,1.36062761 C17.7701039,1.70017165 13.1102807,3.8373018 10.3835719,4.93582664 C9.58997754,4.93582664 1.65403404,6.47376142 1.20636543,7.59225944 C0.819742539,8.59091839 0.656953955,9.13019422 0.575559662,9.4297919 C0.575559662,9.46973826 0.555211089,9.48971144 0.555211089,9.50968462 C0.514513943,9.66947005 0.514513943,10.2287191 0.656953955,10.8478876 L0.656953955,10.8678608 C0.75869682,11.2673244 0.901136832,11.7067343 1.12497114,12.0862247 C1.71507975,12.4257687 2.87494842,12.6654469 4.19760567,12.8252323 L4.15690852,12.5855542 L4.13655995,12.1061979 C4.15690852,9.98904091 5.92723438,8.27134752 8.08418313,8.31129388 C10.2614804,8.33126706 11.9911092,10.0689336 11.9707606,12.1860906 L11.950412,12.5056615 C11.9300634,12.7453396 11.8893663,12.9850178 11.807972,13.2047227 L11.8283206,13.2047227 L31.2815564,13.0049909 L31.2408593,12.8651787 L31.2205107,12.3858224 C31.2408593,10.2486922 33.0111852,8.55097203 35.1681339,8.57094521 C37.3250826,8.59091839 39.0750599,10.328585 39.0547114,12.4457419 L39.0547114,12.4856883 L39.1361056,12.4657151 L42.4732716,11.8864929 C42.4732716,11.8864929 43.7348832,11.2473512 43.7552317,9.40981872 C43.7755803,8.19145481 43.0226831,7.6322058 43.0226831,7.6322058 L43.0226831,7.6322058 Z M33.7844309,4.95579982 L31.9734079,2.43917927 C33.3571109,2.99842828 34.4559338,3.53770412 35.1070882,3.87724816 C35.5140596,4.09695313 35.7175454,4.53636306 35.6361511,4.975773 L33.7844309,4.95579982 Z M31.9123622,4.95579982 L25.2787274,5.09561207 L25.9298817,1.46049351 C29.348442,1.46049351 31.2815564,2.21947431 31.2815564,2.21947431 L32.2582879,3.77738226 L31.9123622,4.95579982 Z M23.7525844,5.19547797 L16.4881438,5.33529022 C16.6305838,4.27671174 15.9997781,4.03703359 15.9997781,4.03703359 C18.909624,1.48046669 24.7293159,1.46049351 24.7293159,1.46049351 L23.7525844,5.19547797 Z M43.0226831,7.6322058 L43.0430317,5.2553975 C43.0430317,4.8759071 42.7581517,4.55633624 42.3918773,4.4964167 C41.455843,4.33663127 39.8279571,4.05700677 39.1157571,3.8373018 C38.0576313,3.49775776 34.0082652,1.78006437 32.6042137,1.44052033 C31.2001621,1.12094946 24.8921045,-0.636690281 18.7875326,1.36062761 C17.7701039,1.70017165 13.1102807,3.8373018 10.3835719,4.93582664 C9.58997754,4.93582664 1.65403404,6.47376142 1.20636543,7.59225944 C0.819742539,8.59091839 0.656953955,9.13019422 0.575559662,9.4297919 C0.575559662,9.46973826 0.555211089,9.48971144 0.555211089,9.50968462 C0.514513943,9.66947005 0.514513943,10.2287191 0.656953955,10.8478876 L0.656953955,10.8678608 C0.75869682,11.2673244 0.901136832,11.7067343 1.12497114,12.0862247 C1.71507975,12.4257687 2.87494842,12.6654469 4.19760567,12.8252323 L4.15690852,12.5855542 L4.13655995,12.1061979 C4.15690852,9.98904091 5.92723438,8.27134752 8.08418313,8.31129388 C10.2614804,8.33126706 11.9911092,10.0689336 11.9707606,12.1860906 L11.950412,12.5056615 C11.9300634,12.7453396 11.8893663,12.9850178 11.807972,13.2047227 L11.8283206,13.2047227 L31.2815564,13.0049909 L31.2408593,12.8651787 L31.2205107,12.3858224 C31.2408593,10.2486922 33.0111852,8.55097203 35.1681339,8.57094521 C37.3250826,8.59091839 39.0750599,10.328585 39.0547114,12.4457419 L39.0547114,12.4856883 L39.1361056,12.4657151 L42.4732716,11.8864929 C42.4732716,11.8864929 43.7348832,11.2473512 43.7552317,9.40981872 C43.7755803,8.19145481 43.0226831,7.6322058 43.0226831,7.6322058 L43.0226831,7.6322058 Z M33.7844309,4.95579982 L31.9734079,2.43917927 C33.3571109,2.99842828 34.4559338,3.53770412 35.1070882,3.87724816 C35.5140596,4.09695313 35.7175454,4.53636306 35.6361511,4.975773 L33.7844309,4.95579982 Z M31.9123622,4.95579982 L25.2787274,5.09561207 L25.9298817,1.46049351 C29.348442,1.46049351 31.2815564,2.21947431 31.2815564,2.21947431 L32.2582879,3.77738226 L31.9123622,4.95579982 Z M23.7525844,5.19547797 L16.4881438,5.33529022 C16.6305838,4.27671174 15.9997781,4.03703359 15.9997781,4.03703359 C18.909624,1.48046669 24.7293159,1.46049351 24.7293159,1.46049351 L23.7525844,5.19547797 Z M43.0226831,7.6322058 L43.0430317,5.2553975 C43.0430317,4.8759071 42.7581517,4.55633624 42.3918773,4.4964167 C41.455843,4.33663127 39.8279571,4.05700677 39.1157571,3.8373018 C38.0576313,3.49775776 34.0082652,1.78006437 32.6042137,1.44052033 C31.2001621,1.12094946 24.8921045,-0.636690281 18.7875326,1.36062761 C17.7701039,1.70017165 13.1102807,3.8373018 10.3835719,4.93582664 C9.58997754,4.93582664 1.65403404,6.47376142 1.20636543,7.59225944 C0.819742539,8.59091839 0.656953955,9.13019422 0.575559662,9.4297919 C0.575559662,9.46973826 0.555211089,9.48971144 0.555211089,9.50968462 C0.514513943,9.66947005 0.514513943,10.2287191 0.656953955,10.8478876 L0.656953955,10.8678608 C0.75869682,11.2673244 0.901136832,11.7067343 1.12497114,12.0862247 C1.71507975,12.4257687 2.87494842,12.6654469 4.19760567,12.8252323 L4.15690852,12.5855542 L4.13655995,12.1061979 C4.15690852,9.98904091 5.92723438,8.27134752 8.08418313,8.31129388 C10.2614804,8.33126706 11.9911092,10.0689336 11.9707606,12.1860906 L11.950412,12.5056615 C11.9300634,12.7453396 11.8893663,12.9850178 11.807972,13.2047227 L11.8283206,13.2047227 L31.2815564,13.0049909 L31.2408593,12.8651787 L31.2205107,12.3858224 C31.2408593,10.2486922 33.0111852,8.55097203 35.1681339,8.57094521 C37.3250826,8.59091839 39.0750599,10.328585 39.0547114,12.4457419 L39.0547114,12.4856883 L39.1361056,12.4657151 L42.4732716,11.8864929 C42.4732716,11.8864929 43.7348832,11.2473512 43.7552317,9.40981872 C43.7755803,8.19145481 43.0226831,7.6322058 43.0226831,7.6322058 L43.0226831,7.6322058 Z M33.7844309,4.95579982 L31.9734079,2.43917927 C33.3571109,2.99842828 34.4559338,3.53770412 35.1070882,3.87724816 C35.5140596,4.09695313 35.7175454,4.53636306 35.6361511,4.975773 L33.7844309,4.95579982 Z M31.9123622,4.95579982 L25.2787274,5.09561207 L25.9298817,1.46049351 C29.348442,1.46049351 31.2815564,2.21947431 31.2815564,2.21947431 L32.2582879,3.77738226 L31.9123622,4.95579982 Z M23.7525844,5.19547797 L16.4881438,5.33529022 C16.6305838,4.27671174 15.9997781,4.03703359 15.9997781,4.03703359 C18.909624,1.48046669 24.7293159,1.46049351 24.7293159,1.46049351 L23.7525844,5.19547797 Z M43.0226831,7.6322058 L43.0430317,5.2553975 C43.0430317,4.8759071 42.7581517,4.55633624 42.3918773,4.4964167 C41.455843,4.33663127 39.8279571,4.05700677 39.1157571,3.8373018 C38.0576313,3.49775776 34.0082652,1.78006437 32.6042137,1.44052033 C31.2001621,1.12094946 24.8921045,-0.636690281 18.7875326,1.36062761 C17.7701039,1.70017165 13.1102807,3.8373018 10.3835719,4.93582664 C9.58997754,4.93582664 1.65403404,6.47376142 1.20636543,7.59225944 C0.819742539,8.59091839 0.656953955,9.13019422 0.575559662,9.4297919 C0.575559662,9.46973826 0.555211089,9.48971144 0.555211089,9.50968462 C0.514513943,9.66947005 0.514513943,10.2287191 0.656953955,10.8478876 L0.656953955,10.8678608 C0.75869682,11.2673244 0.901136832,11.7067343 1.12497114,12.0862247 C1.71507975,12.4257687 2.87494842,12.6654469 4.19760567,12.8252323 L4.15690852,12.5855542 L4.13655995,12.1061979 C4.15690852,9.98904091 5.92723438,8.27134752 8.08418313,8.31129388 C10.2614804,8.33126706 11.9911092,10.0689336 11.9707606,12.1860906 L11.950412,12.5056615 C11.9300634,12.7453396 11.8893663,12.9850178 11.807972,13.2047227 L11.8283206,13.2047227 L31.2815564,13.0049909 L31.2408593,12.8651787 L31.2205107,12.3858224 C31.2408593,10.2486922 33.0111852,8.55097203 35.1681339,8.57094521 C37.3250826,8.59091839 39.0750599,10.328585 39.0547114,12.4457419 L39.0547114,12.4856883 L39.1361056,12.4657151 L42.4732716,11.8864929 C42.4732716,11.8864929 43.7348832,11.2473512 43.7552317,9.40981872 C43.7755803,8.19145481 43.0226831,7.6322058 43.0226831,7.6322058 L43.0226831,7.6322058 Z M33.7844309,4.95579982 L31.9734079,2.43917927 C33.3571109,2.99842828 34.4559338,3.53770412 35.1070882,3.87724816 C35.5140596,4.09695313 35.7175454,4.53636306 35.6361511,4.975773 L33.7844309,4.95579982 Z M31.9123622,4.95579982 L25.2787274,5.09561207 L25.9298817,1.46049351 C29.348442,1.46049351 31.2815564,2.21947431 31.2815564,2.21947431 L32.2582879,3.77738226 L31.9123622,4.95579982 Z M23.7525844,5.19547797 L16.4881438,5.33529022 C16.6305838,4.27671174 15.9997781,4.03703359 15.9997781,4.03703359 C18.909624,1.48046669 24.7293159,1.46049351 24.7293159,1.46049351 L23.7525844,5.19547797 Z M43.0226831,7.6322058 L43.0430317,5.2553975 C43.0430317,4.8759071 42.7581517,4.55633624 42.3918773,4.4964167 C41.455843,4.33663127 39.8279571,4.05700677 39.1157571,3.8373018 C38.0576313,3.49775776 34.0082652,1.78006437 32.6042137,1.44052033 C31.2001621,1.12094946 24.8921045,-0.636690281 18.7875326,1.36062761 C17.7701039,1.70017165 13.1102807,3.8373018 10.3835719,4.93582664 C9.58997754,4.93582664 1.65403404,6.47376142 1.20636543,7.59225944 C0.819742539,8.59091839 0.656953955,9.13019422 0.575559662,9.4297919 C0.575559662,9.46973826 0.555211089,9.48971144 0.555211089,9.50968462 C0.514513943,9.66947005 0.514513943,10.2287191 0.656953955,10.8478876 L0.656953955,10.8678608 C0.75869682,11.2673244 0.901136832,11.7067343 1.12497114,12.0862247 C1.71507975,12.4257687 2.87494842,12.6654469 4.19760567,12.8252323 L4.15690852,12.5855542 L4.13655995,12.1061979 C4.15690852,9.98904091 5.92723438,8.27134752 8.08418313,8.31129388 C10.2614804,8.33126706 11.9911092,10.0689336 11.9707606,12.1860906 L11.950412,12.5056615 C11.9300634,12.7453396 11.8893663,12.9850178 11.807972,13.2047227 L11.8283206,13.2047227 L31.2815564,13.0049909 L31.2408593,12.8651787 L31.2205107,12.3858224 C31.2408593,10.2486922 33.0111852,8.55097203 35.1681339,8.57094521 C37.3250826,8.59091839 39.0750599,10.328585 39.0547114,12.4457419 L39.0547114,12.4856883 L39.1361056,12.4657151 L42.4732716,11.8864929 C42.4732716,11.8864929 43.7348832,11.2473512 43.7552317,9.40981872 C43.7755803,8.19145481 43.0226831,7.6322058 43.0226831,7.6322058 L43.0226831,7.6322058 Z M33.7844309,4.95579982 L31.9734079,2.43917927 C33.3571109,2.99842828 34.4559338,3.53770412 35.1070882,3.87724816 C35.5140596,4.09695313 35.7175454,4.53636306 35.6361511,4.975773 L33.7844309,4.95579982 Z M31.9123622,4.95579982 L25.2787274,5.09561207 L25.9298817,1.46049351 C29.348442,1.46049351 31.2815564,2.21947431 31.2815564,2.21947431 L32.2582879,3.77738226 L31.9123622,4.95579982 Z M23.7525844,5.19547797 L16.4881438,5.33529022 C16.6305838,4.27671174 15.9997781,4.03703359 15.9997781,4.03703359 C18.909624,1.48046669 24.7293159,1.46049351 24.7293159,1.46049351 L23.7525844,5.19547797 Z M43.0226831,7.6322058 L43.0430317,5.2553975 C43.0430317,4.8759071 42.7581517,4.55633624 42.3918773,4.4964167 C41.455843,4.33663127 39.8279571,4.05700677 39.1157571,3.8373018 C38.0576313,3.49775776 34.0082652,1.78006437 32.6042137,1.44052033 C31.2001621,1.12094946 24.8921045,-0.636690281 18.7875326,1.36062761 C17.7701039,1.70017165 13.1102807,3.8373018 10.3835719,4.93582664 C9.58997754,4.93582664 1.65403404,6.47376142 1.20636543,7.59225944 C0.819742539,8.59091839 0.656953955,9.13019422 0.575559662,9.4297919 C0.575559662,9.46973826 0.555211089,9.48971144 0.555211089,9.50968462 C0.514513943,9.66947005 0.514513943,10.2287191 0.656953955,10.8478876 L0.656953955,10.8678608 C0.75869682,11.2673244 0.901136832,11.7067343 1.12497114,12.0862247 C1.71507975,12.4257687 2.87494842,12.6654469 4.19760567,12.8252323 L4.15690852,12.5855542 L4.13655995,12.1061979 C4.15690852,9.98904091 5.92723438,8.27134752 8.08418313,8.31129388 C10.2614804,8.33126706 11.9911092,10.0689336 11.9707606,12.1860906 L11.950412,12.5056615 C11.9300634,12.7453396 11.8893663,12.9850178 11.807972,13.2047227 L11.8283206,13.2047227 L31.2815564,13.0049909 L31.2408593,12.8651787 L31.2205107,12.3858224 C31.2408593,10.2486922 33.0111852,8.55097203 35.1681339,8.57094521 C37.3250826,8.59091839 39.0750599,10.328585 39.0547114,12.4457419 L39.0547114,12.4856883 L39.1361056,12.4657151 L42.4732716,11.8864929 C42.4732716,11.8864929 43.7348832,11.2473512 43.7552317,9.40981872 C43.7755803,8.19145481 43.0226831,7.6322058 43.0226831,7.6322058 L43.0226831,7.6322058 Z M33.7844309,4.95579982 L31.9734079,2.43917927 C33.3571109,2.99842828 34.4559338,3.53770412 35.1070882,3.87724816 C35.5140596,4.09695313 35.7175454,4.53636306 35.6361511,4.975773 L33.7844309,4.95579982 Z M31.9123622,4.95579982 L25.2787274,5.09561207 L25.9298817,1.46049351 C29.348442,1.46049351 31.2815564,2.21947431 31.2815564,2.21947431 L32.2582879,3.77738226 L31.9123622,4.95579982 Z M23.7525844,5.19547797 L16.4881438,5.33529022 C16.6305838,4.27671174 15.9997781,4.03703359 15.9997781,4.03703359 C18.909624,1.48046669 24.7293159,1.46049351 24.7293159,1.46049351 L23.7525844,5.19547797 Z M43.0226831,7.6322058 L43.0430317,5.2553975 C43.0430317,4.8759071 42.7581517,4.55633624 42.3918773,4.4964167 C41.455843,4.33663127 39.8279571,4.05700677 39.1157571,3.8373018 C38.0576313,3.49775776 34.0082652,1.78006437 32.6042137,1.44052033 C31.2001621,1.12094946 24.8921045,-0.636690281 18.7875326,1.36062761 C17.7701039,1.70017165 13.1102807,3.8373018 10.3835719,4.93582664 C9.58997754,4.93582664 1.65403404,6.47376142 1.20636543,7.59225944 C0.819742539,8.59091839 0.656953955,9.13019422 0.575559662,9.4297919 C0.575559662,9.46973826 0.555211089,9.48971144 0.555211089,9.50968462 C0.514513943,9.66947005 0.514513943,10.2287191 0.656953955,10.8478876 L0.656953955,10.8678608 C0.75869682,11.2673244 0.901136832,11.7067343 1.12497114,12.0862247 C1.71507975,12.4257687 2.87494842,12.6654469 4.19760567,12.8252323 L4.15690852,12.5855542 L4.13655995,12.1061979 C4.15690852,9.98904091 5.92723438,8.27134752 8.08418313,8.31129388 C10.2614804,8.33126706 11.9911092,10.0689336 11.9707606,12.1860906 L11.950412,12.5056615 C11.9300634,12.7453396 11.8893663,12.9850178 11.807972,13.2047227 L11.8283206,13.2047227 L31.2815564,13.0049909 L31.2408593,12.8651787 L31.2205107,12.3858224 C31.2408593,10.2486922 33.0111852,8.55097203 35.1681339,8.57094521 C37.3250826,8.59091839 39.0750599,10.328585 39.0547114,12.4457419 L39.0547114,12.4856883 L39.1361056,12.4657151 L42.4732716,11.8864929 C42.4732716,11.8864929 43.7348832,11.2473512 43.7552317,9.40981872 C43.7755803,8.19145481 43.0226831,7.6322058 43.0226831,7.6322058 L43.0226831,7.6322058 Z M33.7844309,4.95579982 L31.9734079,2.43917927 C33.3571109,2.99842828 34.4559338,3.53770412 35.1070882,3.87724816 C35.5140596,4.09695313 35.7175454,4.53636306 35.6361511,4.975773 L33.7844309,4.95579982 Z M31.9123622,4.95579982 L25.2787274,5.09561207 L25.9298817,1.46049351 C29.348442,1.46049351 31.2815564,2.21947431 31.2815564,2.21947431 L32.2582879,3.77738226 L31.9123622,4.95579982 Z M23.7525844,5.19547797 L16.4881438,5.33529022 C16.6305838,4.27671174 15.9997781,4.03703359 15.9997781,4.03703359 C18.909624,1.48046669 24.7293159,1.46049351 24.7293159,1.46049351 L23.7525844,5.19547797 Z M43.0226831,7.6322058 L43.0430317,5.2553975 C43.0430317,4.8759071 42.7581517,4.55633624 42.3918773,4.4964167 C41.455843,4.33663127 39.8279571,4.05700677 39.1157571,3.8373018 C38.0576313,3.49775776 34.0082652,1.78006437 32.6042137,1.44052033 C31.2001621,1.12094946 24.8921045,-0.636690281 18.7875326,1.36062761 C17.7701039,1.70017165 13.1102807,3.8373018 10.3835719,4.93582664 C9.58997754,4.93582664 1.65403404,6.47376142 1.20636543,7.59225944 C0.819742539,8.59091839 0.656953955,9.13019422 0.575559662,9.4297919 C0.575559662,9.46973826 0.555211089,9.48971144 0.555211089,9.50968462 C0.514513943,9.66947005 0.514513943,10.2287191 0.656953955,10.8478876 L0.656953955,10.8678608 C0.75869682,11.2673244 0.901136832,11.7067343 1.12497114,12.0862247 C1.71507975,12.4257687 2.87494842,12.6654469 4.19760567,12.8252323 L4.15690852,12.5855542 L4.13655995,12.1061979 C4.15690852,9.98904091 5.92723438,8.27134752 8.08418313,8.31129388 C10.2614804,8.33126706 11.9911092,10.0689336 11.9707606,12.1860906 L11.950412,12.5056615 C11.9300634,12.7453396 11.8893663,12.9850178 11.807972,13.2047227 L11.8283206,13.2047227 L31.2815564,13.0049909 L31.2408593,12.8651787 L31.2205107,12.3858224 C31.2408593,10.2486922 33.0111852,8.55097203 35.1681339,8.57094521 C37.3250826,8.59091839 39.0750599,10.328585 39.0547114,12.4457419 L39.0547114,12.4856883 L39.1361056,12.4657151 L42.4732716,11.8864929 C42.4732716,11.8864929 43.7348832,11.2473512 43.7552317,9.40981872 C43.7755803,8.19145481 43.0226831,7.6322058 43.0226831,7.6322058 L43.0226831,7.6322058 Z" id="Fill-8"></path>
                                    <path d="M8.95610613,11.3462674 L8.83401469,11.0666429 L9.5055176,10.407528 C9.70900333,10.6871525 9.85144335,11.0067233 9.89214049,11.3462674 L8.95610613,11.3462674 Z M9.48516903,12.8442558 L8.83401469,12.1851409 L8.95610613,11.9055164 L9.89214049,11.9055164 C9.83109477,12.2450604 9.68865476,12.5846045 9.48516903,12.8442558 L9.48516903,12.8442558 Z M8.12181463,13.6032366 L8.14216321,12.6844704 L8.42704323,12.5646313 L9.07819757,13.2237462 C8.81366612,13.423478 8.48808895,13.5433171 8.12181463,13.6032366 L8.12181463,13.6032366 Z M8.16251178,9.62857399 C8.5287861,9.66852035 8.85436327,9.8083326 9.11889472,10.0280376 L8.4473918,10.6671793 L8.16251178,10.5473402 L8.16251178,9.62857399 Z M7.59275173,10.5473402 L7.30787171,10.6472061 L6.65671737,9.98809121 C6.92124882,9.78835942 7.24682599,9.66852035 7.61310031,9.60860081 L7.59275173,10.5473402 Z M7.57240316,13.5832634 C7.20612885,13.5433171 6.90090025,13.4035048 6.61602023,13.203773 L7.28752314,12.5446581 L7.57240316,12.6644972 L7.57240316,13.5832634 Z M5.84277445,11.86557 L6.77880881,11.8855432 L6.90090025,12.1651677 L6.22939734,12.8043094 C6.02591161,12.5446581 5.8834716,12.2250873 5.84277445,11.86557 L5.84277445,11.86557 Z M6.24974591,10.3875548 L6.90090025,11.0466697 L6.77880881,11.3262942 L5.84277445,11.306321 C5.90382017,10.966777 6.04626018,10.6472061 6.24974591,10.3875548 L6.24974591,10.3875548 Z M7.89798033,8.41021008 C6.1073059,8.3902369 4.62186006,9.8083326 4.60151149,11.5659723 L4.62186006,11.9854091 C4.8253458,13.5632902 6.16835162,14.7816542 7.83693461,14.8016273 C9.54621475,14.8216005 10.9502663,13.5433171 11.1130549,11.9055164 L11.1334035,11.6458651 C11.153752,9.86825214 9.70900333,8.43018326 7.89798033,8.41021008 L7.89798033,8.41021008 Z" id="Fill-9"></path>
                                    <path d="M37.4441084,11.3462674 L37.322017,11.0666429 L37.9935199,10.4275011 C38.1970056,10.6871525 38.3394457,11.0067233 38.3801428,11.3662406 L37.4441084,11.3462674 Z M37.9731713,12.8442558 L37.322017,12.1851409 L37.4441084,11.9055164 L38.3801428,11.9254896 C38.3190971,12.2650336 38.1766571,12.5846045 37.9731713,12.8442558 L37.9731713,12.8442558 Z M36.6098169,13.6032366 L36.6301655,12.6844704 L36.9150455,12.5646313 L37.5661999,13.2237462 C37.2813199,13.423478 36.9760913,13.5632902 36.6098169,13.6032366 L36.6098169,13.6032366 Z M36.6505141,9.62857399 C37.0167884,9.68849352 37.3423656,9.82830577 37.606897,10.0280376 L36.9353941,10.6671793 L36.6505141,10.5473402 L36.6505141,9.62857399 Z M36.080754,10.5473402 L35.795874,10.6671793 L35.1243711,10.0080644 C35.4092511,9.8083326 35.7348283,9.66852034 36.080754,9.62857399 L36.080754,10.5473402 Z M36.0400569,13.6032366 C35.6941312,13.5433171 35.368554,13.4035048 35.1040225,13.203773 L35.7755254,12.5646313 L36.0604055,12.6844704 L36.0400569,13.6032366 Z M34.3307768,11.8855432 L35.2668111,11.8855432 L35.3889026,12.1651677 L34.7173996,12.8043094 C34.5139139,12.5446581 34.3714739,12.2250872 34.3307768,11.8855432 L34.3307768,11.8855432 Z M34.7377482,10.3875548 L35.3889026,11.0466697 L35.2668111,11.3262942 L34.3307768,11.3262942 C34.3918225,10.966777 34.5139139,10.6671793 34.7377482,10.3875548 L34.7377482,10.3875548 Z M36.3859826,8.41021007 C34.5749596,8.39023689 33.1098624,9.8083326 33.0895138,11.5859455 L33.1098624,11.9854091 C33.2929995,13.5632902 34.6563539,14.8016273 36.3249369,14.8216005 C38.0342171,14.8415737 39.4382686,13.5632902 39.6010572,11.9254896 L39.6214058,11.6458651 C39.6417543,9.88822531 38.1766571,8.43018325 36.3859826,8.41021007 L36.3859826,8.41021007 Z" id="Fill-10"></path>
                                    <path d="M33.7406681,4.95579982 L31.9296451,2.43917927 C33.3133481,2.99842828 34.4121711,3.53770412 35.0633254,3.87724816 C35.4702969,4.09695313 35.6737826,4.53636306 35.5923883,4.975773 L33.7406681,4.95579982 Z M31.8685994,4.95579982 L25.2349646,5.09561207 L25.8861189,1.46049351 C29.3046792,1.46049351 31.2377937,2.21947431 31.2377937,2.21947431 L32.2145252,3.77738226 L31.8685994,4.95579982 Z M23.7088216,5.19547797 L16.444381,5.33529022 C16.586821,4.27671174 15.9560153,4.03703359 15.9560153,4.03703359 C18.8658612,1.48046669 24.6855531,1.46049351 24.6855531,1.46049351 L23.7088216,5.19547797 Z M42.9789203,7.6322058 L42.9992689,5.2553975 C42.9992689,4.8759071 42.7143889,4.55633624 42.3481146,4.4964167 C41.4120802,4.33663127 39.7841943,4.05700677 39.0719943,3.8373018 C38.0138685,3.49775776 33.9645024,1.78006437 32.5604509,1.44052033 C31.1563994,1.12094946 24.8483417,-0.636690281 18.7437698,1.36062761 C17.7263411,1.70017165 13.0665179,3.8373018 10.3398091,4.93582664 C9.54621475,4.93582664 1.61027125,6.47376142 1.16260264,7.59225944 C0.775979753,8.59091839 0.613191168,9.13019422 0.531796876,9.4297919 C0.531796876,9.90914819 0.552145449,10.3885045 0.613191168,10.8478876 L0.613191168,10.8678608 C0.714934034,11.2673244 0.857374045,11.7067343 1.08120835,12.0862247 C1.67131697,12.4257687 2.83118563,12.6654469 4.15384288,12.8252323 L4.11314574,12.5855542 L4.09279716,12.1061979 C4.11314574,9.98904091 5.8834716,8.27134752 8.04042034,8.31129388 C10.2177177,8.33126706 11.9473464,10.0689336 11.9269978,12.1860906 L11.9066492,12.5056615 C11.8863007,12.7453396 11.8456035,12.9850178 11.7642092,13.2047227 L11.7845578,13.2047227 L31.2377937,13.0049909 L31.1970965,12.8651787 L31.1767479,12.3858224 C31.1970965,10.2486922 32.9674224,8.55097203 35.1243711,8.57094521 C37.2813199,8.59091839 39.0312971,10.328585 39.0109486,12.4457419 L39.0109486,12.4856883 L39.0923429,12.4657151 L42.4295088,11.8864929 C42.4295088,11.8864929 43.6911204,11.2473512 43.7114689,9.40981872 C43.7318175,8.19145481 42.9789203,7.6322058 42.9789203,7.6322058 L42.9789203,7.6322058 Z" id="Fill-11"></path>
                                </g>
                            </g>
                        </g>
                    </g>
                </g>
            </g>
        </g>
    </g>
</svg>