<?xml version="1.0" encoding="UTF-8"?>
<svg width="59px" height="58px" viewBox="0 0 59 58" version="1.1" xmlns="http://www.w3.org/2000/svg" xmlns:xlink="http://www.w3.org/1999/xlink">
    <!-- Generator: Sketch 3.8.1 (29687) - http://www.bohemiancoding.com/sketch -->
    <title>icon-rigidos</title>
    <desc>Created with Sketch.</desc>
    <defs></defs>
    <g id="Symbols" stroke="none" stroke-width="1" fill="none" fill-rule="evenodd">
        <g id="header_full-destok" transform="translate(-590.000000, -189.000000)">
            <g id="Header">
                <g id="Nav" transform="translate(111.000000, 137.000000)">
                    <g id="Rigidos" transform="translate(479.135076, 52.000000)">
                        <g id="icon-rigidos">
                            <path d="M29.1557734,57.8699106 C45.2580624,57.8699106 58.3115468,44.9152899 58.3115468,28.9349553 C58.3115468,12.9546208 45.2580624,0 29.1557734,0 C13.0534844,0 0,12.9546208 0,28.9349553 C0,44.9152899 13.0534844,57.8699106 29.1557734,57.8699106 Z" id="Oval-1" fill="#00A3DA"></path>
                            <path d="M15.2074714,20.8947368 L15.1898436,20.9143233 L13.4858174,22.1874463 L13.4662309,22.2266193 L13.4662309,38.8163908 L13.5230318,38.8947368 L44.6087772,38.8947368 L44.6479502,38.8751503 L46.3500177,37.6000687 L46.3696042,37.5628544 L46.3696042,20.9534964 L46.3108446,20.8947368 L15.2074714,20.8947368 Z M15.0116063,21.3843995 L15.0116063,22.3637249 L13.7188969,22.3637249 L15.0116063,21.3843995 Z M13.7188969,22.677109 L15.0116063,22.677109 L15.0116063,37.1907107 L13.7384834,38.3071416 L13.7188969,22.677109 Z M44.4912581,37.6216139 L45.7252081,37.6216139 L44.4912581,38.5421797 L44.4912581,37.6216139 Z M15.2486031,37.6216139 L44.177874,37.6216139 L44.177874,38.5421797 L14.0342396,38.5421797 L15.2486031,37.6216139 Z" id="Page-1" fill="#FEFEFE"></path>
                        </g>
                    </g>
                </g>
            </g>
        </g>
    </g>
</svg>