<?xml version="1.0" encoding="UTF-8"?>
<svg width="59px" height="58px" viewBox="0 0 59 58" version="1.1" xmlns="http://www.w3.org/2000/svg" xmlns:xlink="http://www.w3.org/1999/xlink">
    <!-- Generator: Sketch 3.8.1 (29687) - http://www.bohemiancoding.com/sketch -->
    <title>icon-letras</title>
    <desc>Created with Sketch.</desc>
    <defs></defs>
    <g id="Symbols" stroke="none" stroke-width="1" fill="none" fill-rule="evenodd">
        <g id="header_full-destok" transform="translate(-221.000000, -189.000000)">
            <g id="Header">
                <g id="Nav" transform="translate(111.000000, 137.000000)">
                    <g id="Letras-Block" transform="translate(109.000000, 52.000000)">
                        <g id="icon-letras" transform="translate(1.000000, 0.000000)">
                            <path d="M29.033527,57.8699106 C45.0683012,57.8699106 58.067054,44.9152899 58.067054,28.9349553 C58.067054,12.9546208 45.0683012,0 29.033527,0 C12.9987528,0 0,12.9546208 0,28.9349553 C0,44.9152899 12.9987528,57.8699106 29.033527,57.8699106 Z" id="Oval-1" fill="#00A3DA"></path>
                            <path d="M39.967925,41.1176412 L38.805425,38.8464647 L43.35855,38.5941118 L39.967925,41.1176412 Z M34.387925,41.6223471 L37.914175,39.0211706 L38.3598,39.0017588 L39.580425,41.3311706 L34.387925,41.6223471 Z M33.12855,39.6811706 C32.799175,39.0599941 32.489175,38.4388176 32.1598,37.8176412 L35.7248,35.1776412 C36.015425,35.7599941 36.325425,36.3617588 36.635425,36.9635235 C36.945425,37.5847 37.2748,38.2058765 37.5848,38.8076412 L34.0198,41.4282294 C33.729175,40.8458765 33.419175,40.2635235 33.12855,39.6811706 L33.12855,39.6811706 Z M25.4948,37.7982294 C25.824175,36.9441118 26.15355,36.2841118 26.46355,35.4299941 L35.279175,34.9058765 L31.81105,37.4294059 L25.4948,37.7982294 Z M19.081675,39.1764647 L15.710425,41.7582294 L25.8823,14.9699941 L27.16105,17.4741118 L19.081675,39.1764647 Z M21.639175,41.5835235 L21.8523,41.0205824 C22.04605,40.5741118 22.220425,40.1276412 22.3948,39.6811706 L24.44855,39.5647 L21.639175,41.5835235 Z M21.019175,42.1464647 L15.4973,42.4570529 L19.159175,39.7199941 L22.0073,39.5647 C21.794175,40.1082294 21.58105,40.6323471 21.3873,41.1758765 L21.019175,42.1464647 Z M29.56355,12.0194059 L27.6648,17.0664647 L26.30855,14.4458765 L29.56355,12.0194059 Z M30.5323,24.7147 L33.12855,29.9558765 L28.55605,30.2082294 L30.5323,24.7147 Z M29.79605,11.1652882 L29.71855,11.1070529 L29.660425,11.1264647 L25.68855,14.0770529 L25.6498,14.1352882 L14.780425,42.8647 L14.780425,42.9617588 L14.857925,43.0005824 L14.8773,43.0005824 L20.80605,42.6705824 L20.8448,42.6511706 L24.816675,39.7005824 L24.855425,39.6423471 L25.2623,38.6329353 L25.4173,38.2058765 L31.791675,37.8564647 C32.12105,38.5164647 32.4698,39.1958765 32.81855,39.8752882 C33.1673,40.5352882 33.496675,41.1952882 33.845425,41.8552882 L33.922925,41.9135235 L39.87105,41.5641118 L39.929175,41.5447 L43.90105,38.5941118 L43.920425,38.5747 L43.9398,38.4776412 L29.79605,11.1652882 Z" id="Fill-16" fill="#FFFFFF"></path>
                        </g>
                    </g>
                </g>
            </g>
        </g>
    </g>
</svg>