<?xml version="1.0" encoding="UTF-8"?>
<svg width="58px" height="58px" viewBox="0 0 58 58" version="1.1" xmlns="http://www.w3.org/2000/svg" xmlns:xlink="http://www.w3.org/1999/xlink">
    <!-- Generator: Sketch 3.8.1 (29687) - http://www.bohemiancoding.com/sketch -->
    <title>icon-Display</title>
    <desc>Created with Sketch.</desc>
    <defs>
        <polygon id="path-1" points="9.90402597 37.9274789 19.8080519 37.9274789 19.8080519 0 0 0 0 18.9637394 0 37.9274789"></polygon>
    </defs>
    <g id="Symbols" stroke="none" stroke-width="1" fill="none" fill-rule="evenodd">
        <g id="header_full-destok" transform="translate(-500.000000, -189.000000)">
            <g id="Header">
                <g id="Nav" transform="translate(111.000000, 137.000000)">
                    <g id="Display" transform="translate(374.135076, 52.000000)">
                        <g id="icon-Display" transform="translate(15.000000, 0.000000)">
                            <ellipse id="Oval-1" fill="#00A3DA" cx="28.7628385" cy="28.9349553" rx="28.7628385" ry="28.9349553"></ellipse>
                            <g id="Rigidos" transform="translate(19.000000, 10.000000)">
                                <mask id="mask-2" fill="white">
                                    <use xlink:href="#path-1"></use>
                                </mask>
                                <g id="Clip-2"></g>
                                <path d="M1.46649351,26.7003521 L18.3415584,26.7003521 L18.3415584,1.51090141 L1.46649351,1.51090141 L1.46649351,26.7003521 Z M7.74155844,33.6621127 L12.0667532,33.6621127 L12.0667532,28.2115211 L7.74155844,28.2115211 L7.74155844,33.6621127 Z M5.66207792,36.4165775 L14.1462338,36.4165775 L14.1462338,35.1732817 L5.66207792,35.1732817 L5.66207792,36.4165775 Z M19.0748052,0 L0.733246753,0 C0.328311688,0 0,0.338253521 0,0.755450704 L0,27.4558028 C0,27.8732676 0.328311688,28.2112535 0.733246753,28.2112535 L6.27480519,28.2112535 L6.27480519,33.6623803 L4.92883117,33.6623803 C4.5238961,33.6623803 4.19558442,34.0006338 4.19558442,34.417831 L4.19558442,37.1720282 C4.19558442,37.5892254 4.5238961,37.9274789 4.92883117,37.9274789 L14.8792208,37.9274789 C15.2841558,37.9274789 15.6124675,37.5892254 15.6124675,37.1720282 L15.6124675,34.417831 C15.6124675,34.0006338 15.2841558,33.6623803 14.8792208,33.6623803 L13.5335065,33.6623803 L13.5335065,28.2115211 L19.0748052,28.2115211 C19.4797403,28.2115211 19.8080519,27.8732676 19.8080519,27.4560704 L19.8080519,0.755450704 C19.8083117,0.338253521 19.48,0 19.0748052,0 L19.0748052,0 Z" id="Fill-1" fill="#FFFFFF" mask="url(#mask-2)"></path>
                                <path d="M4.02857143,24.0992254 L15.7797403,24.0992254 L15.7797403,4.11229577 L4.02857143,4.11229577 L4.02857143,24.0992254 Z M16.512987,2.60112676 L3.29532468,2.60112676 C2.89012987,2.60112676 2.56181818,2.93938028 2.56181818,3.35657746 L2.56181818,24.8546761 C2.56181818,25.2718732 2.89012987,25.6103944 3.29532468,25.6103944 L16.512987,25.6103944 C16.9181818,25.6103944 17.2462338,25.2718732 17.2462338,24.8546761 L17.2462338,3.35657746 C17.2462338,2.93938028 16.9181818,2.60112676 16.512987,2.60112676 L16.512987,2.60112676 Z" id="Fill-3" fill="#FFFFFF" mask="url(#mask-2)"></path>
                                <path d="M5.52290909,14.0005648 C5.11797403,14.0005648 4.78966234,14.3388183 4.78966234,14.7560155 L4.78966234,22.4828606 C4.78966234,22.9003254 5.11797403,23.2385789 5.52290909,23.2385789 C5.9281039,23.2385789 6.25615584,22.9003254 6.25615584,22.4828606 L6.25615584,14.7560155 C6.25641558,14.3388183 5.9281039,14.0005648 5.52290909,14.0005648" id="Fill-4" fill="#FFFFFF" mask="url(#mask-2)"></path>
                                <path d="M5.52290909,11.3992507 C5.11797403,11.3992507 4.78966234,11.7377718 4.78966234,12.1547014 L4.78966234,12.5373775 C4.78966234,12.9545746 5.11797403,13.2928282 5.52290909,13.2928282 C5.9281039,13.2928282 6.25615584,12.9545746 6.25615584,12.5373775 L6.25615584,12.1547014 C6.25641558,11.7375042 5.9281039,11.3992507 5.52290909,11.3992507" id="Fill-5" fill="#FFFFFF" mask="url(#mask-2)"></path>
                            </g>
                        </g>
                    </g>
                </g>
            </g>
        </g>
    </g>
</svg>