<?xml version="1.0" encoding="UTF-8"?>
<svg width="59px" height="58px" viewBox="0 0 59 58" version="1.1" xmlns="http://www.w3.org/2000/svg" xmlns:xlink="http://www.w3.org/1999/xlink">
    <!-- Generator: Sketch 3.8.1 (29687) - http://www.bohemiancoding.com/sketch -->
    <title>icon-luminosos</title>
    <desc>Created with Sketch.</desc>
    <defs></defs>
    <g id="Symbols" stroke="none" stroke-width="1" fill="none" fill-rule="evenodd">
        <g id="header_full-destok" transform="translate(-315.000000, -190.000000)">
            <g id="Header">
                <g id="Nav" transform="translate(111.000000, 137.000000)">
                    <g id="Luminosos" transform="translate(196.932462, 53.000000)">
                        <g id="icon-luminosos" transform="translate(8.000000, 0.000000)">
                            <path d="M28.8074796,57.8699106 C44.7174113,57.8699106 57.6149592,44.9152899 57.6149592,28.9349553 C57.6149592,12.9546208 44.7174113,0 28.8074796,0 C12.8975479,0 0,12.9546208 0,28.9349553 C0,44.9152899 12.8975479,57.8699106 28.8074796,57.8699106 Z" id="Oval-1" fill="#00A3DA"></path>
                            <g id="Page-1" transform="translate(14.000000, 14.000000)" fill="#FEFEFE">
                                <path d="M27.8556446,12.9741857 C27.8556446,14.4678699 26.6928347,15.666291 25.2523388,15.666291 L5.98787603,15.666291 C4.54738017,15.666291 3.38457025,14.4678699 3.38457025,12.9741857 L3.38457025,4.25523835 C3.38457025,2.75907293 4.54738017,1.56065188 5.98787603,1.56065188 L25.2523388,1.56065188 C26.6928347,1.56065188 27.8556446,2.75907293 27.8556446,4.25523835 L27.8556446,12.9741857 Z M25.304405,18.8794489 L17.095314,18.8248624 L17.1126694,17.7827571 L26.519281,17.8373436 L25.304405,18.8794489 Z M14.0754793,18.7901256 L4.92919835,18.6710278 C4.51514876,18.6710278 4.08622314,18.5668173 3.68952893,18.4154639 L5.09531405,17.524712 C5.37052066,17.5941857 5.64324793,17.646291 5.93580992,17.646291 L14.0928347,17.7505015 L14.0754793,18.7901256 Z M0.642421488,15.177494 L1.89200826,14.3438098 C2.29118182,15.5943361 3.24572727,16.7431331 4.46060331,17.2964414 C4.46308264,17.2964414 4.46308264,17.2989226 4.46556198,17.2989226 L3.06721488,18.1276444 L3.06473554,18.1276444 C1.90440496,17.4825316 0.93746281,16.3213286 0.642421488,15.177494 L0.642421488,15.177494 Z M0.503578512,14.1180203 L0.607710744,5.52313308 L1.78787603,4.66959925 L1.66638843,12.9890729 C1.66638843,13.2843361 1.70109917,13.564712 1.75316529,13.8426068 L0.538289256,14.6415541 C0.520933884,14.4678699 0.503578512,14.2917045 0.503578512,14.1180203 L0.503578512,14.1180203 Z M2.03085124,2.5680203 L2.2391157,2.44892256 C1.9961405,2.91786992 1.85729752,3.43644135 1.82258678,3.99223083 L0.677132231,4.82591504 C0.798619835,4.06170451 1.54490083,3.12380977 2.03085124,2.5680203 L2.03085124,2.5680203 Z M25.495314,0.258020301 L6.16142975,-2.48120301e-05 C5.13746281,-2.48120301e-05 4.20027273,0.362230827 3.43663636,0.952757143 C2.77713223,1.21576466 2.18704959,1.64997519 1.70109917,2.17102782 L1.6837438,2.18591504 L1.6837438,2.20576466 C0.989528926,2.98734361 0.121760331,4.25523835 0.104404959,5.39907293 L0.000272727273,14.1180203 C-0.0344380165,16.6389226 2.41266942,19.1399752 4.92919835,19.174712 L14.0754793,19.2938098 L14.1101901,32.7741857 C14.5961405,32.8238098 15.0647355,32.8436594 15.550686,32.8436594 C16.0887025,32.8436594 16.6093636,32.8238098 17.1300248,32.7890729 L17.095314,19.3285466 L24.280438,19.4178699 C25.9812645,19.4327571 27.4738264,18.0953887 28.2721736,16.7232835 C29.1052314,15.9441857 29.6432479,14.5720805 29.6432479,13.3389226 L29.7647355,4.61997519 C29.7994463,2.25538872 27.873,0.277869925 25.495314,0.258020301 L25.495314,0.258020301 Z" id="Fill-1"></path>
                            </g>
                        </g>
                    </g>
                </g>
            </g>
        </g>
    </g>
</svg>