<?xml version="1.0" encoding="UTF-8"?>
<svg width="58px" height="58px" viewBox="0 0 58 58" version="1.1" xmlns="http://www.w3.org/2000/svg" xmlns:xlink="http://www.w3.org/1999/xlink">
    <!-- Generator: Sketch 3.8.1 (29687) - http://www.bohemiancoding.com/sketch -->
    <title>icon-herre</title>
    <desc>Created with Sketch.</desc>
    <defs></defs>
    <g id="Symbols" stroke="none" stroke-width="1" fill="none" fill-rule="evenodd">
        <g id="header_full-destok" transform="translate(-853.000000, -188.000000)">
            <g id="Header">
                <g id="Nav" transform="translate(111.000000, 137.000000)">
                    <g id="Herreria" transform="translate(741.135076, 51.000000)">
                        <g id="icon-herre">
                            <ellipse id="Oval-1" fill="#00A3DA" cx="29.7058824" cy="28.9349553" rx="28.7628385" ry="28.9349553"></ellipse>
                            <g id="Group-5" transform="translate(13.000000, 15.000000)" fill="#FFFFFF">
                                <path d="M11.0818934,13.4683894 L9.40931147,13.4517798 L9.4043286,14.0248094 L0,13.9301349 L0.486659887,14.448353 C4.74036627,18.9678122 8.37453635,19.0276066 9.52723929,18.9063569 L9.52391738,19.3033252 L12.0900932,19.3282395 C13.2361524,19.789985 13.0800226,21.239999 13.0418206,21.5057518 C11.4904884,24.5868238 9.17511678,24.7030907 9.07712042,24.7064126 L8.78645325,24.7147173 L8.76652179,26.5533948 L12.5933627,26.5915968 L12.6730885,26.5351243 C16.1395021,24.0802324 19.9729868,26.5915968 20.0111888,26.6165111 L20.0859318,26.6663398 L23.8529783,26.7045417 L23.8712488,24.839289 L23.5805816,24.8260013 C21.0193886,24.7047516 20.0527127,22.1369148 20.0161717,22.0355965 C19.6208643,20.8496745 19.7205216,19.8381527 20.3101607,19.0276066 C22.1720916,16.4697355 28.2379001,16.4979717 28.2976945,16.4979717 L28.6016493,16.5012937 L28.6348684,13.1760613 L11.0868763,13 L11.0818934,13.4683894 L11.0818934,13.4683894 Z" id="Fill-1"></path>
                                <polygon id="Fill-3" points="30.8847463 12.5618045 31.564077 10.6998737 31.2086326 9.71326628 15.0558428 3.82684089 15.9643853 1.33374706 12.30364 0 11.0163997 1.06965518 9 6.60395806 9.40693404 8.2798619 12.9132106 9.55713648 13.9081228 6.82320415 29.9479676 12.6681057"></polygon>
                            </g>
                        </g>
                    </g>
                </g>
            </g>
        </g>
    </g>
</svg>