<?xml version="1.0" encoding="UTF-8"?>
<svg width="35px" height="35px" viewBox="0 0 35 35" version="1.1" xmlns="http://www.w3.org/2000/svg" xmlns:xlink="http://www.w3.org/1999/xlink">
    <!-- Generator: Sketch 3.8.1 (29687) - http://www.bohemiancoding.com/sketch -->
    <title>Page 1</title>
    <desc>Created with Sketch.</desc>
    <defs>
        <polygon id="path-1" points="35 34.999965 35 0 7.00000001e-05 0 7.00000001e-05 34.999965"></polygon>
    </defs>
    <g id="Symbols" stroke="none" stroke-width="1" fill="none" fill-rule="evenodd">
        <g id="Footer" transform="translate(-156.000000, -152.000000)">
            <g id="Page-1">
                <g transform="translate(156.000000, 152.000000)">
                    <g id="Group-3">
                        <mask id="mask-2" fill="white">
                            <use xlink:href="#path-1"></use>
                        </mask>
                        <g id="Clip-2"></g>
                        <path d="M3.04507,17.39234 C3.134845,17.39409 3.22462,17.396015 3.314395,17.39759 C3.314395,19.96099 3.26032,22.52544 3.32682,25.08709 C3.42902,29.02669 5.95882,31.60024 9.90367,31.661665 C14.97132,31.74059 20.04212,31.742865 25.10977,31.660265 C29.01997,31.59674 31.58792,29.052415 31.657045,25.150615 C31.747695,20.054265 31.744545,14.95389 31.65862,9.857365 C31.592645,5.954515 29.02592,3.396715 25.12797,3.33529 C20.03197,3.25479 14.93282,3.257765 9.836645,3.33599 C6.265245,3.390765 3.93337,5.38664 3.48747,8.93844 C3.13677,11.730915 3.177895,14.572565 3.04507,17.39234 M35.00007,10.324965 L35.00007,24.674965 C34.94022,25.070815 34.84817,25.464915 34.82542,25.86269 C34.580595,30.09804 31.792495,33.484465 27.665295,34.483715 C26.68442,34.72119 25.672745,34.831265 24.67507,34.999965 L10.32507,34.999965 C9.92607,34.93994 9.528995,34.84859 9.127895,34.82514 C5.11777,34.59099 1.83932,32.08149 0.673995,28.24409 C0.340445,27.14579 0.21882,25.983265 7.00000001e-05,24.849965 L7.00000001e-05,10.149965 C0.05852,9.78299 0.143045,9.417765 0.17157,9.04834 C0.488845,4.927615 3.083045,1.66054 6.987995,0.57589 C8.015945,0.29029 9.094645,0.18704 10.15007,-3.49999996e-05 L24.85007,-3.49999996e-05 C25.19097,0.05719 25.529945,0.142765 25.87312,0.16709 C30.21347,0.475615 33.472845,3.192665 34.507445,7.426615 C34.739495,8.376165 34.83942,9.35809 35.00007,10.324965" id="Fill-1" fill="#FFFFFF" mask="url(#mask-2)"></path>
                    </g>
                    <path d="M17.51897,23.2861125 C20.71517,23.2820875 23.282945,20.7127375 23.286095,17.5151375 C23.28942,14.2625875 20.72672,11.7035625 17.47137,11.7084625 C14.26782,11.7133625 11.712645,14.2701125 11.708445,17.4752375 C11.704245,20.7286625 14.26572,23.2901375 17.51897,23.2861125 M26.49787,17.4733125 C26.52622,22.4440125 22.513995,26.4761875 17.51862,26.4978875 C12.545645,26.5192375 8.49807,22.4970375 8.482495,17.5186375 C8.46692,12.5524875 12.49437,8.5049125 17.473295,8.4825125 C22.433845,8.4601125 26.469345,12.4803875 26.49787,17.4733125" id="Fill-4" fill="#FFFFFF"></path>
                    <path d="M26.87531,6.041 C28.044135,6.0648 28.967435,7.01785 28.95046,8.182825 C28.93366,9.343075 27.97256,10.300675 26.828585,10.29665 C25.66956,10.29245 24.65316,9.24245 24.695335,8.093225 C24.737685,6.939625 25.71751,6.017375 26.87531,6.041" id="Fill-6" fill="#FFFFFF"></path>
                </g>
            </g>
        </g>
    </g>
</svg>