<?xml version="1.0" encoding="UTF-8"?>
<svg width="70px" height="67px" viewBox="0 0 70 67" version="1.1" xmlns="http://www.w3.org/2000/svg" xmlns:xlink="http://www.w3.org/1999/xlink">
    <!-- Generator: Sketch 3.8.1 (29687) - http://www.bohemiancoding.com/sketch -->
    <title>instalación</title>
    <desc>Created with Sketch.</desc>
    <defs>
        <polygon id="path-1" points="69.4627799 4.73515206e-05 69.4627799 66.5629795 0 66.5629795 0 4.73515206e-05 69.4627799 4.73515206e-05"></polygon>
    </defs>
    <g id="Home" stroke="none" stroke-width="1" fill="none" fill-rule="evenodd">
        <g id="Home_white" transform="translate(-753.000000, -2627.000000)">
            <g id="Features" transform="translate(202.000000, 2330.000000)">
                <g id="Instalaciones" transform="translate(551.000000, 282.000000)">
                    <g id="instalación" transform="translate(0.000000, 15.000000)">
                        <mask id="mask-2" fill="white">
                            <use xlink:href="#path-1"></use>
                        </mask>
                        <g id="Clip-2"></g>
                        <path d="M13.3022718,63.6016627 C14.3104207,63.8294236 15.3411145,63.9449613 16.3821005,63.9449613 C23.920427,63.9449613 30.0541086,58.0217596 30.0541086,50.7367281 C30.0541086,49.0742162 29.7272076,47.4382212 29.0822276,45.8713594 L28.7543464,45.0711187 L46.8299605,27.6092984 L47.6739237,27.9611202 C49.3907664,28.6761282 51.2090612,29.0374203 53.0797973,29.0374203 C60.6181238,29.0374203 66.7522955,23.1113775 66.7522955,15.8282401 C66.7522955,14.7694601 66.6219272,13.7272532 66.3670719,12.711563 L60.3230798,18.549532 C58.9801882,19.8474372 57.1932603,20.5614981 55.294098,20.5614981 C53.3959159,20.5614981 51.6075177,19.8483842 50.2631558,18.549532 C48.9192841,17.2511533 48.1797135,15.5251904 48.1797135,13.6898455 C48.1797135,11.8545005 48.9192841,10.1275906 50.2631558,8.82921188 L56.3056776,2.99076939 C55.2558697,2.745015 54.1771455,2.61905995 53.0797973,2.61905995 C45.5414708,2.61905995 39.406809,8.54510275 39.406809,15.8282401 C39.406809,17.4893315 39.7332198,19.1258 40.3767295,20.6926618 L40.7046107,21.492429 L22.6304669,38.9533022 L21.7865037,38.6024275 C20.0701511,37.8864725 18.2533267,37.5266009 16.3821005,37.5266009 C8.84328382,37.5266009 2.70862202,43.4521702 2.70862202,50.7372016 C2.70862202,51.8471213 2.84928256,52.9385738 3.12864321,53.9940392 L9.13832787,48.1873223 C10.4812194,46.8889436 12.2681473,46.1753561 14.1677997,46.1753561 C16.0674521,46.1753561 17.8543801,46.8889436 19.1982518,48.1873223 C20.5421236,49.4857009 21.2821842,51.2121374 21.2821842,53.0474823 C21.2821842,54.8828273 20.5421236,56.6092637 19.1982518,57.9057483 L13.3022718,63.6016627 Z M16.3830807,66.5630268 C14.2844451,66.5630268 12.2264883,66.1766384 10.2645924,65.4123849 L8.36493998,64.6713336 L17.282916,56.0552509 C18.1146266,55.2531162 18.5723859,54.1834453 18.5723859,53.0489029 C18.5723859,51.9115193 18.1146266,50.8446896 17.282916,50.0392402 C15.6175345,48.4307091 12.7195353,48.4307091 11.0546439,50.0392402 L2.086677,58.705989 L1.30054634,56.9222573 C0.437468972,54.9614308 -0.00019604256,52.8822255 -0.00019604256,50.7367281 C-0.00019604256,42.0084223 7.35041973,34.9085353 16.3830807,34.9085353 C18.3140999,34.9085353 20.1970887,35.2305257 21.9962693,35.8669301 L37.5488156,20.838978 C36.9837229,19.2134003 36.6979909,17.5314743 36.6979909,15.8268196 C36.6979909,7.09993434 44.0481166,4.73515206e-05 53.0807775,4.73515206e-05 C55.2431269,4.73515206e-05 57.3491141,0.404429337 59.3409065,1.20182894 L61.2145833,1.95187703 L52.1799619,10.6787623 C51.3482514,11.4827911 50.890492,12.5519884 50.890492,13.6884249 C50.890492,14.8243879 51.3482514,15.8940587 52.1799619,16.697614 C53.8458336,18.3037776 56.7462833,18.3037776 58.4082341,16.697614 L67.4413851,7.97072881 L68.2177136,9.77955689 C69.0425627,11.7062903 69.463074,13.7405116 69.463074,15.8268196 C69.463074,24.5541783 62.1144187,31.6540653 53.0807775,31.6540653 C51.1507385,31.6540653 49.2672596,31.3325485 47.4666087,30.6961441 L31.912592,45.7236226 C32.4786649,47.3496739 32.7643969,49.0311264 32.7643969,50.7372016 C32.7648871,59.4631398 25.4162317,66.5630268 16.3830807,66.5630268 L16.3830807,66.5630268 Z" id="Fill-1" fill="#F8AF1C" mask="url(#mask-2)"></path>
                    </g>
                </g>
            </g>
        </g>
    </g>
</svg>