<?xml version="1.0" encoding="UTF-8"?>
<svg width="132px" height="68px" viewBox="0 0 132 68" version="1.1" xmlns="http://www.w3.org/2000/svg" xmlns:xlink="http://www.w3.org/1999/xlink">
    <!-- Generator: Sketch 3.8.1 (29687) - http://www.bohemiancoding.com/sketch -->
    <title>logo</title>
    <desc>Created with Sketch.</desc>
    <defs></defs>
    <g id="Symbols" stroke="none" stroke-width="1" fill="none" fill-rule="evenodd">
        <g id="header_full-destok" transform="translate(-109.000000, -28.000000)">
            <g id="Header">
                <g id="logo" transform="translate(109.000000, 28.000000)">
                    <path d="M128.70328,0.288385542 C129.096,0.288385542 129.475602,0.359662651 129.825689,0.509590361 C130.179056,0.643951807 130.485689,0.856963855 130.760348,1.13387952 C131.025168,1.39850602 131.229317,1.7106506 131.373615,2.06212048 C131.513814,2.41359036 131.586783,2.78144578 131.586783,3.16814458 C131.586783,3.56385542 131.517913,3.94236145 131.377714,4.28236145 C131.243255,4.62645783 131.029267,4.93040964 130.760348,5.19913253 C130.47995,5.47522892 130.159379,5.68906024 129.801913,5.83898795 C129.450186,5.98481928 129.084522,6.06428916 128.70328,6.06428916 C128.317118,6.06428916 127.949814,5.98891566 127.598087,5.84308434 C127.252099,5.69725301 126.945466,5.48342169 126.669168,5.2073253 C126.393689,4.93450602 126.182161,4.62236145 126.036224,4.27416867 C125.893565,3.9226988 125.818957,3.55566265 125.818957,3.16814458 C125.818957,2.80110843 125.893565,2.42587952 126.046062,2.07768675 C126.19446,1.71474699 126.405988,1.39850602 126.686385,1.12159036 C126.949565,0.849590361 127.256199,0.639855422 127.598087,0.50139759 C127.941615,0.355566265 128.309739,0.288385542 128.70328,0.288385542 L128.70328,0.288385542 Z M131.278509,3.18453012 C131.278509,2.83633735 131.20964,2.50043373 131.085019,2.18828916 C130.957938,1.87614458 130.780025,1.60414458 130.543081,1.36655422 C130.293839,1.12159036 130.013441,0.936433735 129.701068,0.802072289 C129.387056,0.675084337 129.055006,0.607903614 128.70328,0.607903614 C128.360571,0.607903614 128.03672,0.675084337 127.732547,0.797975904 C127.427553,0.924144578 127.151255,1.11012048 126.907752,1.35098795 C126.65687,1.60414458 126.469118,1.88433735 126.333019,2.19238554 C126.200199,2.50862651 126.141168,2.84043373 126.141168,3.17633735 C126.141168,3.51224096 126.200199,3.83995181 126.330559,4.15209639 C126.465019,4.46014458 126.648671,4.73706024 126.893814,4.9820241 C127.138957,5.22289157 127.420174,5.41214458 127.728447,5.54240964 C128.03672,5.66939759 128.364671,5.74395181 128.70328,5.74395181 C129.045168,5.74395181 129.373118,5.66939759 129.69123,5.53831325 C130.001963,5.41214458 130.28646,5.22289157 130.543081,4.97792771 C130.780025,4.74033735 130.962037,4.47243373 131.089118,4.16766265 C131.21128,3.87190361 131.278509,3.54009639 131.278509,3.18453012 L131.278509,3.18453012 Z M128.791826,1.46568675 C129.254236,1.46568675 129.602683,1.54106024 129.825689,1.69098795 C130.051155,1.84091566 130.163478,2.07031325 130.163478,2.38573494 C130.163478,2.61103614 130.090509,2.8166747 129.95441,2.96660241 C129.806012,3.12881928 129.619901,3.22385542 129.380497,3.25171084 L130.118385,4.78785542 L129.551031,4.78785542 L128.846758,3.32626506 L128.071975,3.32626506 L128.071975,4.78785542 L127.574311,4.78785542 L127.574311,1.46568675 L128.791826,1.46568675 L128.791826,1.46568675 Z M128.69672,1.80159036 L128.071975,1.80159036 L128.071975,2.99445783 L128.69672,2.99445783 C129.046807,2.99445783 129.29359,2.95513253 129.432149,2.86419277 C129.574807,2.77325301 129.649416,2.6306988 129.649416,2.41768675 C129.649416,2.19238554 129.569068,2.04245783 129.42395,1.94742169 C129.269814,1.85320482 129.03123,1.80159036 128.69672,1.80159036 L128.69672,1.80159036 Z" id="Fill-81" fill="#000000"></path>
                    <path d="M13.9862609,3.09359036 C27.667528,5.99301205 35.1972671,13.910506 34.9324472,26.505253 C34.8988323,26.6863133 35.0070559,26.6633735 35.151354,26.5208193 C35.2956522,26.3667952 36.7386335,23.5337349 37.5019379,21.3651084 C38.2709814,19.1923855 38.6800994,16.9918072 38.6800994,14.3840482 C38.6800994,11.7771084 37.7683975,7.62828916 34.445441,4.68954217 C31.119205,1.75816867 26.4106584,0.971662651 22.3063602,1.19286747 C18.6808696,1.39031325 14.810236,2.69050602 13.952646,2.99036145 C13.8673789,3.01821687 13.8854161,3.08539759 13.9862609,3.09359036" id="Fill-82" fill="#D8117D"></path>
                    <path d="M0.578012422,27.3663133 C6.41142857,14.6650602 15.7908075,9.06284337 28.0331925,12.089253 C28.2053665,12.1564337 28.208646,12.0491084 28.096323,11.8754217 C27.9799006,11.7058313 25.5325714,9.68303614 23.5796273,8.4500241 C21.6266832,7.2260241 19.5704348,6.34448193 17.0247205,5.76771084 C14.4765466,5.19913253 10.2263106,5.18356627 6.63279503,7.77493976 C3.0327205,10.3663133 1.23227329,14.7912289 0.550136646,18.8368193 C-0.054931677,22.4121446 0.362385093,26.4692048 0.468968944,27.374506 C0.477167702,27.4687229 0.541937888,27.4531566 0.578012422,27.3663133" id="Fill-83" fill="#00A3DB"></path>
                    <path d="M29.3933665,42.4811566 C15.4612174,41.2530602 7.03617391,34.3113253 5.77438509,21.7681928 C5.78258385,21.5863133 5.67763975,21.6215422 5.55137888,21.7763855 C5.42675776,21.9418795 4.34370186,24.9289639 3.84111801,27.1844337 C3.34099379,29.4284337 3.1950559,31.664241 3.51152795,34.2564337 C3.82718012,36.8478072 5.23080745,40.8499759 8.89237267,43.3626988 C12.5449193,45.8754217 17.3149565,46.0966265 21.3610435,45.3732048 C24.9332422,44.7415422 28.6161242,42.9874699 29.4343602,42.5843855 C29.5179876,42.5409639 29.4901118,42.4893494 29.3933665,42.4811566" id="Fill-84" fill="#000000"></path>
                    <path d="M40.3960994,14.6568675 C38.8916273,28.5591807 31.7693665,36.8363373 19.1965714,37.8432289 C19.0129193,37.8235663 19.0465342,37.9341687 19.2088696,38.0570602 C19.371205,38.1914217 22.334236,39.3326747 24.5774161,39.8824096 C26.815677,40.4272289 29.0473789,40.6164819 31.6488447,40.347759 C34.2445714,40.0872289 38.2808199,38.76 40.8683478,35.1568193 C43.454236,31.5577349 43.7641491,26.7936386 43.1279255,22.7398554 C42.5687702,19.1530602 40.8839255,15.4392771 40.4985839,14.6175422 C40.4592298,14.5380723 40.3977391,14.5659277 40.3960994,14.6568675" id="Fill-85" fill="#FFF101"></path>
                    <path d="M117.324224,3.32216867 C119.884696,4.75262651 121.914708,6.64925301 123.41918,9.0153253 C123.829938,9.65927711 124.170186,10.3032289 124.435006,10.9586506 C124.695727,11.618988 124.943329,12.3415904 125.170435,13.1321928 C125.247503,13.4009157 125.316373,13.6925783 125.391801,14.0407711 C125.470509,14.3725783 125.447553,14.6920964 125.33441,14.9968675 C125.261441,15.2180723 125.118783,15.3598072 124.919553,15.4155181 C124.705565,15.4704096 124.47272,15.5416867 124.205441,15.6129639 L123.756969,15.6129639 C123.531503,15.6916145 123.276522,15.7153735 122.997764,15.6957108 C122.713267,15.6801446 122.442708,15.6719518 122.181168,15.6719518 C121.83518,15.6719518 121.435901,15.6801446 120.969391,15.6957108 C120.495503,15.7153735 120.038832,15.7153735 119.583801,15.6957108 C119.13287,15.6801446 118.722112,15.6408193 118.34087,15.581012 C117.967006,15.5261205 117.684149,15.4433735 117.500497,15.3286747 C117.196323,15.0714217 116.970857,14.7125783 116.82,14.2619759 C116.668323,13.8113735 116.482211,13.4164819 116.255106,13.0723855 C115.543453,11.8401928 114.602236,10.8521446 113.433913,10.1451084 C110.74964,8.47787952 107.237292,8.09445783 104.297217,9.3553253 C101.743304,10.4457831 99.9362981,12.2506506 98.881118,14.7633735 C98.6950062,15.2180723 98.5269317,15.6916145 98.3752547,16.1782651 C96.7978137,21.3020241 96.8986584,27.6866506 100.237193,32.1582651 C101.063627,33.2683855 102.150783,34.1810602 103.506857,34.8921928 C106.001739,36.0219759 109.644447,36.5004337 112.195081,35.2280964 C113.05841,34.8528675 113.802037,34.354747 114.424323,33.7345542 C115.044969,33.1184578 115.598385,32.4155181 116.087031,31.6249157 C116.316596,31.2496867 116.504348,30.8351325 116.650286,30.3845301 C116.800323,29.9298313 116.970857,29.4833253 117.160248,29.0253494 C117.275031,28.6107952 117.384075,28.2396627 117.500497,27.903759 C117.61528,27.5596627 117.854683,27.2950361 118.231826,27.1098795 C118.455652,27.034506 118.740149,26.9951807 119.073839,26.9951807 L120.038832,26.9951807 L123.478211,26.9951807 L124.521913,26.9951807 C124.876099,26.9951807 125.170435,27.0697349 125.391801,27.223759 C125.654981,27.4171084 125.79928,27.7136867 125.816497,28.1249639 C125.836174,28.5395181 125.786981,28.938506 125.680398,29.3096386 L125.33441,30.8351325 C125.150758,31.392241 124.972845,31.945253 124.800671,32.4704096 C124.634236,32.9922892 124.416969,33.4977831 124.152149,33.9877108 C123.964398,34.2916627 123.81436,34.5841446 123.702037,34.8643373 C123.588894,35.1453494 123.438857,35.4214458 123.252745,35.6860723 C121.183379,38.9140241 118.176894,41.1735904 114.225093,42.4459277 C113.811876,42.5966747 113.392919,42.7105542 112.985441,42.7859277 C108.691752,43.564241 103.904497,43.5404819 99.8969441,41.5414458 C97.6398261,40.5697831 95.7303354,39.2613976 94.1725714,37.6261205 C92.6107081,35.9908434 91.3415404,34.0426024 90.3667081,31.7871325 C90.1379627,31.2259277 89.9477516,30.6614458 89.8018137,30.1043373 C88.479354,25.1460723 88.0538385,18.6156145 90.0822112,13.7523855 C90.2666832,13.2624578 90.4675528,12.7766265 90.6733416,12.2866988 C90.8807702,11.7967711 91.1144348,11.3420723 91.3792547,10.9316145 C91.9785839,9.87638554 92.6025093,8.93995181 93.2411925,8.11821687 C93.4289441,7.84949398 93.6363727,7.61272289 93.8601988,7.38414458 C94.0873043,7.15474699 94.3127702,6.92944578 94.5398758,6.70414458 C95.4769938,5.76361446 96.465764,4.96973494 97.4996273,4.31021687 C98.5334907,3.64660241 99.7116522,3.06163855 101.030012,2.53238554 C101.478484,2.34313253 101.947453,2.18419277 102.43364,2.0580241 C107.224994,0.766024096 112.985441,0.893012048 117.324224,3.32216867 L117.324224,3.32216867 Z M74.1733416,15.7235663 C74.2487702,15.309012 74.2618882,14.8026988 74.2028571,14.2062651 C74.0134658,12.1916627 73.3829814,10.4965783 71.2947578,9.58062651 C70.6585342,9.27995181 69.9231056,9.11363855 69.0966708,9.07431325 C68.2710559,9.03908434 67.4028075,9.0153253 66.4993043,9.0153253 L59.9558758,9.0153253 C59.4737888,9.00303614 58.8670807,9.17344578 58.6039006,9.63142169 C58.4145093,9.93946988 58.3317019,10.3187952 58.3431801,10.7931566 C58.3669565,11.2593253 58.376795,11.7213976 58.376795,12.1760964 L58.376795,17.4186506 L58.376795,18.7696386 C58.376795,19.2235181 58.4719006,19.5758072 58.6555528,19.8437108 C58.8096894,20.0657349 59.0531925,20.219759 59.3893416,20.2943133 C59.7312298,20.3655904 60.1067329,20.4450602 60.5199503,20.4606265 C63.2378385,20.5671325 67.9586832,20.6539759 70.395354,20.1763373 C71.0463354,20.045253 71.5972919,19.749494 72.0859379,19.4488193 C72.573764,19.1448675 72.9853416,18.7499759 73.3272298,18.2600482 C73.5526957,17.9241446 73.7207702,17.5489157 73.8330932,17.1302651 C73.9478758,16.718988 74.058559,16.2528193 74.1733416,15.7235663 L74.1733416,15.7235663 Z M83.4797516,41.1498313 C83.5568199,41.3751325 83.5453416,41.5807711 83.4526957,41.766747 C83.3575901,41.9600964 83.2567453,42.0944578 83.1419627,42.169012 C82.9189565,42.3517108 82.6041242,42.4344578 82.2146832,42.4221687 C81.8195031,42.3984096 81.4103851,42.3869398 80.9988075,42.3869398 L77.8972174,42.3869398 C77.2946087,42.3869398 76.7690683,42.3590843 76.3164969,42.3033735 C75.8655652,42.2484819 75.5269565,42.0354699 75.2998509,41.6561446 C74.9997764,41.1735904 74.8317019,40.5697831 74.7939876,39.8504578 C74.6513292,37.1599518 74.3651925,33.7501205 73.6674783,31.1710361 C73.3649441,30.3091566 73.0066584,29.5431325 72.5918012,28.855759 C72.1826832,28.1839518 71.5972919,27.6743614 70.8421863,27.3384578 C70.6585342,27.2598072 70.4707826,27.2081928 70.2805714,27.1729639 C70.0952795,27.1328193 69.8878509,27.0697349 69.6582857,26.9951807 C68.9843478,26.777253 68.2038261,26.6592771 67.3175404,26.6592771 L60.0690186,26.6592771 C57.8217391,26.9353735 58.376795,28.8950843 58.376795,31.0563373 L58.376795,38.2741687 C58.376795,38.5781205 58.3669565,38.8820723 58.3431801,39.2024096 C58.3317019,39.522747 58.3210435,39.8348916 58.3210435,40.1388434 L58.3210435,40.9523855 C58.3210435,41.1973494 58.2816894,41.4152771 58.2070807,41.6086265 C58.0922981,41.9404337 57.8709317,42.169012 57.5331429,42.2804337 C57.3429317,42.3517108 57.1174658,42.3869398 56.8542857,42.3869398 L56.0081739,42.3869398 L53.466559,42.3869398 C52.8655901,42.3869398 52.2228075,42.3984096 51.5513292,42.4221687 C50.872472,42.4344578 50.3666087,42.3115663 50.0288199,42.0551325 C49.7262857,41.8691566 49.5737888,41.5217831 49.5737888,41.0080964 L49.5737888,39.5145542 L49.5737888,5.24255422 C49.5737888,4.82390361 49.5680497,4.39296386 49.5483727,3.94645783 C49.5270559,3.49257831 49.6098634,3.13701205 49.7992547,2.87566265 C49.9533913,2.64708434 50.2346087,2.45701205 50.6478261,2.31527711 C50.7265342,2.26775904 50.8052422,2.26366265 50.9028075,2.2833253 C50.997913,2.30298795 51.0766211,2.29151807 51.1553292,2.24809639 L70.3346832,2.24809639 C70.9356522,2.24809639 71.5144845,2.26366265 72.0597019,2.2833253 C73.4059379,2.33084337 75.1178385,2.67412048 76.3714286,3.21156627 C77.3142857,3.62284337 78.1784348,4.13243373 78.9671553,4.73296386 C79.7616149,5.33349398 80.4175155,6.02496386 80.9397764,6.81884337 C81.0898137,7.00481928 81.2144348,7.20226506 81.305441,7.41118072 C81.404646,7.61681928 81.5268075,7.81836145 81.675205,8.00761446 C83.4584348,11.1208675 83.2747826,14.9845783 82.0728447,18.2362892 C81.4185839,20.0018313 80.0756273,21.3061205 78.5711553,22.3769157 C78.421118,22.4866988 78.2710807,22.6136867 78.1226832,22.7439518 C77.9742857,22.8783133 77.8578634,23.0364337 77.7832547,23.2256867 C77.7078261,23.4468916 77.7471801,23.6328675 77.8972174,23.7868916 C78.0497143,23.9409157 78.1784348,24.0474217 78.289118,24.1227952 C78.6703602,24.426747 79.0425839,24.7274217 79.4172671,25.0272771 C79.7952298,25.3279518 80.1158012,25.6835181 80.3806211,26.0939759 C80.8307329,26.7379277 81.1890186,27.3941687 81.4521988,28.0733494 C81.7104596,28.749253 81.9580621,29.5152771 82.183528,30.3845301 C82.2605963,30.7204337 82.3056894,31.0800964 82.3237267,31.4553253 C82.4721242,34.4145542 82.612323,37.302506 83.2567453,40.1863614 C83.3338137,40.5337349 83.4026832,40.8458795 83.4797516,41.1498313 L83.4797516,41.1498313 Z" id="Fill-86" fill="#000000"></path>
                    <path d="M3.45167702,50.825494 C3.55662112,50.825494 3.68534161,50.8173012 3.82390062,50.8058313 C3.96409938,50.7976386 4.09609938,50.7976386 4.23301863,50.8058313 C4.36665839,50.8173012 4.488,50.8369639 4.5929441,50.8689157 C4.70280745,50.9000482 4.77987578,50.9401928 4.8298882,51.0032771 C4.92089441,51.1097831 4.97418634,51.2638072 4.98156522,51.461253 C4.98812422,51.6586988 4.99140373,51.8487711 4.99140373,52.0576867 L4.99140373,66.0706024 L4.99140373,66.7153735 C4.99140373,66.9365783 4.95204969,67.1176386 4.87498137,67.2364337 C4.81185093,67.3159036 4.74052174,67.3626024 4.65361491,67.3830843 C4.56670807,67.3904578 4.46176398,67.4142169 4.33714286,67.4502651 L3.89440994,67.4502651 C3.67304348,67.4502651 3.47381366,67.4420723 3.28770186,67.4256867 C3.09995031,67.4060241 2.96713043,67.3273735 2.88842236,67.193012 C2.82529193,67.0938795 2.79331677,66.9718072 2.79331677,66.805494 L2.79331677,66.3040964 L2.79331677,52.1486265 C2.79331677,51.9790361 2.78757764,51.7897831 2.78183851,51.5800482 C2.77609938,51.3662169 2.81381366,51.1966265 2.88842236,51.0778313 C2.95401242,50.9713253 3.07617391,50.8926747 3.26228571,50.8410602 C3.29180124,50.8295904 3.32131677,50.825494 3.35657143,50.8328675 C3.38854658,50.8369639 3.41642236,50.8369639 3.45167702,50.825494" id="Fill-87" fill="#4D4D4C"></path>
                    <path d="M10.2181118,50.7697831 L11.6373168,50.7697831 L12.0866087,50.7697831 C12.2251677,50.7697831 12.3456894,50.7976386 12.4366957,50.8689157 C12.5768944,50.955759 12.6736398,51.0819277 12.7285714,51.2359518 C12.7802236,51.3940723 12.8515528,51.5603855 12.9261615,51.7340723 C13.0507826,52.0224578 13.1680248,52.3223133 13.2664099,52.6188916 C13.3672547,52.9072771 13.4803975,53.2071325 13.6041988,53.5037108 C13.7157019,53.7847229 13.8181863,54.069012 13.9067329,54.3573976 C14.0059379,54.6457831 14.1125217,54.9300723 14.2355031,55.206988 C14.3322484,55.4281928 14.4150559,55.6567711 14.4904845,55.8861687 C14.5732919,56.123759 14.6560994,56.348241 14.751205,56.5661687 C15.0340621,57.2691084 15.2947826,57.9679518 15.5440248,58.6758072 C15.7949068,59.3861205 16.0597267,60.0898795 16.3409441,60.7928193 C16.3704596,60.8722892 16.3975155,60.9468434 16.4237516,61.0263133 C16.4450683,61.1049639 16.4729441,61.1803373 16.5040994,61.258988 C16.6426584,61.5948916 16.7754783,61.9463614 16.9017391,62.3019277 C17.0247205,62.6533976 17.1608199,62.997494 17.3010186,63.3333976 C17.3608696,63.4792289 17.4199006,63.6414458 17.4846708,63.8388916 C17.5486211,64.0363373 17.6494658,64.1469398 17.7896646,64.1788916 C17.852795,64.1944578 17.9003478,64.1944578 17.9315031,64.1666024 C17.9610186,64.1469398 17.991354,64.1158072 18.0249689,64.0838554 C18.0995776,64.0125783 18.1594286,63.9183614 18.1987826,63.8306988 C18.2340373,63.7323855 18.2815901,63.633253 18.3250435,63.526747 C18.4513043,63.1990361 18.5742857,62.8631325 18.7030062,62.5313253 C18.8276273,62.1995181 18.9514286,61.8636145 19.0760497,61.54 C19.1063851,61.4646265 19.1375404,61.3851566 19.1654161,61.2950361 C19.2006708,61.2073735 19.2285466,61.117253 19.2605217,61.0263133 C19.3851429,60.7256386 19.4991056,60.4298795 19.5999503,60.1292048 C19.700795,59.8211566 19.8155776,59.5131084 19.938559,59.2009639 C20.3140621,58.2964819 20.6633292,57.3879036 20.9781615,56.4670361 C21.3003727,55.5543614 21.648,54.6416867 22.017764,53.7413012 C22.1440248,53.4291566 22.2629068,53.1088193 22.3817888,52.777012 C22.4998509,52.4533976 22.6203727,52.1371566 22.7449938,51.8209157 C22.8064845,51.7021205 22.8638758,51.5448193 22.9196273,51.354747 C22.9688199,51.1687711 23.0573665,51.0311325 23.1647702,50.955759 C23.2549565,50.9000482 23.3779379,50.8533494 23.5279752,50.825494 C23.673913,50.7861687 23.8444472,50.7697831 24.0280994,50.7583133 C24.2158509,50.7501205 24.4019627,50.7501205 24.591354,50.7583133 C24.7758261,50.7697831 24.9512795,50.7697831 25.1054161,50.7697831 L25.5366708,50.7697831 C25.6826087,50.7697831 25.7990311,50.7976386 25.8760994,50.8689157 C26.0146584,50.9401928 26.0941863,51.0819277 26.1138634,51.2834699 C26.1278012,51.4891084 26.1335404,51.7062169 26.1335404,51.9397108 L26.1335404,66.2369157 C26.1335404,66.4032289 26.1351801,66.5769157 26.1450186,66.7506024 C26.1532174,66.9160964 26.1171429,67.0504578 26.0384348,67.145494 C25.990882,67.2364337 25.9220124,67.2995181 25.8293665,67.3191807 C25.7359006,67.3470361 25.6235776,67.3748916 25.4989565,67.3986506 L25.1291925,67.3986506 C24.9234037,67.3986506 24.7397516,67.3904578 24.5675776,67.3863614 C24.3978634,67.3830843 24.2691429,67.3159036 24.1904348,67.193012 C24.1609193,67.145494 24.1412422,67.0906024 24.1371429,67.0430843 C24.123205,66.9832771 24.1076273,66.9160964 24.0772919,66.8374458 L24.0772919,66.5842892 C24.0617143,66.4900723 24.0576149,66.382747 24.0658137,66.2565783 C24.0740124,66.134506 24.0772919,66.0157108 24.0772919,65.9092048 L24.0772919,57.7115181 L24.0772919,56.5301205 C24.0772919,56.1311325 24.069913,55.7444337 24.050236,55.3724819 C24.050236,55.2184578 24.0461366,55.0488675 24.0280994,54.8587952 C24.0166211,54.6695422 23.9272547,54.574506 23.773118,54.574506 L23.773118,54.6023614 C23.6624348,54.6302169 23.5714286,54.7367229 23.5041988,54.9063133 C23.4353292,55.08 23.3738385,55.2225542 23.3303851,55.3487229 C23.2197019,55.6174458 23.1188571,55.8861687 23.0221118,56.1548916 C22.9327453,56.430988 22.8245217,56.6997108 22.6999006,56.9610602 C22.6662857,57.0356145 22.6441491,57.1068916 22.6269317,57.1781687 C22.6129938,57.2330602 22.5867578,57.300241 22.5556025,57.3797108 C22.4326211,57.664 22.3260373,57.9482892 22.2407702,58.2366747 C22.156323,58.5209639 22.0513789,58.8101687 21.9267578,59.0862651 C21.8177143,59.3230361 21.727528,59.5606265 21.648,59.7973976 C21.5692919,60.0423614 21.4840248,60.2758554 21.3856398,60.5085301 C21.0790062,61.2434217 20.8002484,61.9824096 20.5493665,62.7205783 C20.3001242,63.4595663 20.0230062,64.1862651 19.7286708,64.901494 C19.6081491,65.182506 19.4917267,65.4586024 19.4023602,65.7428916 C19.3097143,66.0198072 19.2088696,66.3040964 19.0981863,66.5842892 C19.0170186,66.7546988 18.9481491,66.9128193 18.8743602,67.0668434 C18.8038509,67.2126747 18.6693913,67.3159036 18.4677019,67.3830843 C18.4357267,67.3904578 18.400472,67.3904578 18.361118,67.3863614 C18.3209441,67.3830843 18.2815901,67.3863614 18.2340373,67.3986506 C18.1848447,67.4142169 18.1331925,67.4224096 18.0700621,67.4101205 C18.0085714,67.402747 17.9438012,67.3986506 17.8823106,67.3986506 L17.4158012,67.3986506 C17.2616646,67.3986506 17.1354037,67.3626024 17.0402981,67.2880482 C16.915677,67.2085783 16.8287702,67.0906024 16.7697391,66.9521446 C16.718087,66.7981205 16.6492174,66.6481928 16.5713292,66.4900723 C16.4491677,66.1820241 16.328646,65.853494 16.2138634,65.5216867 C16.097441,65.1857831 15.9728199,64.8662651 15.8481988,64.5500241 C15.7194783,64.2739277 15.6186335,63.9888193 15.5317267,63.7004337 C15.4489193,63.4046747 15.3398758,63.127759 15.219354,62.8475663 C14.8577888,61.9783133 14.5216398,61.0967711 14.2158261,60.2086747 C13.9009938,59.3230361 13.5673043,58.4382169 13.2073789,57.5648675 C13.081118,57.2453494 12.9638758,56.9094458 12.8474534,56.5735422 C12.7285714,56.2417349 12.6105093,55.9140241 12.4817888,55.6059759 C12.4030807,55.4322892 12.3415901,55.2618795 12.2841988,55.1078554 C12.2284472,54.9382651 12.1497391,54.7998072 12.0374161,54.6695422 C12.025118,54.6416867 12.0070807,54.6179277 11.9915031,54.6105542 C11.9775652,54.6023614 11.959528,54.5941687 11.9464099,54.574506 L11.827528,54.574506 C11.8152298,54.5941687 11.7980124,54.6023614 11.7840745,54.6105542 C11.7684969,54.6179277 11.7504596,54.6302169 11.7381615,54.6539759 C11.7045466,54.7285301 11.6889689,54.8153735 11.6889689,54.9063133 C11.6889689,55.0013494 11.6733913,55.0881928 11.6373168,55.1873253 L11.6373168,55.443759 C11.6143602,55.5387952 11.6037019,55.6412048 11.6176398,55.7444337 C11.6340373,55.8583133 11.6373168,55.9648193 11.6373168,56.0721446 L11.6373168,66.2803373 C11.6373168,66.4499277 11.6373168,66.6244337 11.6299379,66.7940241 C11.6217391,66.9677108 11.5823851,67.0938795 11.5028571,67.193012 C11.4257888,67.3159036 11.2880497,67.3830843 11.094559,67.3863614 C10.8961491,67.3904578 10.6911801,67.3986506 10.4755528,67.3986506 L10.1812174,67.3986506 C10.0975901,67.3986506 10.018882,67.3863614 9.93935404,67.3552289 C9.73602484,67.2954217 9.61960248,67.1577831 9.59582609,66.9636145 C9.57368944,66.7546988 9.56631056,66.5212048 9.56631056,66.2565783 L9.56631056,52.010988 C9.56631056,51.8364819 9.55647205,51.6586988 9.54827329,51.4735422 C9.54007453,51.2834699 9.57778882,51.1417349 9.65321739,51.0229398 C9.71798758,50.9360964 9.83277019,50.8607229 10.0049441,50.7935422 C10.0360994,50.7779759 10.0697143,50.7779759 10.1098882,50.7820723 C10.1492422,50.7861687 10.1844969,50.7861687 10.2181118,50.7697831" id="Fill-88" fill="#414140"></path>
                    <path d="M40.7798012,56.0287229 C40.8363727,55.8075181 40.8470311,55.5625542 40.801118,55.2618795 C40.7535652,54.9816867 40.7043727,54.7522892 40.6568199,54.574506 C40.5026832,54.1361928 40.299354,53.8002892 40.041913,53.539759 C39.7828323,53.282506 39.4507826,53.0653976 39.0441242,52.8958072 C38.7038758,52.753253 38.3086957,52.670506 37.8659627,52.6426506 C37.4248696,52.6106988 36.9624596,52.5910361 36.4738137,52.5910361 L33.4591304,52.5910361 C33.4320745,52.6106988 33.396,52.6188916 33.356646,52.6188916 C33.3148323,52.6188916 33.2738385,52.6270843 33.2279255,52.6426506 C33.0401739,52.6901687 32.9155528,52.7884819 32.854882,52.9466024 C32.7909317,53.1006265 32.7614161,53.3062651 32.7696149,53.5635181 C32.7794534,53.8240482 32.7835528,54.0526265 32.7835528,54.2779277 L32.7835528,57.0716627 C32.7835528,57.3125301 32.7794534,57.5648675 32.7696149,57.8499759 C32.7614161,58.1260723 32.8048696,58.3472771 32.9040745,58.5053976 C32.9786832,58.6241928 33.1000248,58.698747 33.257441,58.7266024 C33.4279752,58.7503614 33.6099876,58.7585542 33.8108571,58.7585542 L36.966559,58.7585542 C37.1994037,58.7585542 37.4404472,58.7544578 37.6913292,58.7503614 C37.9405714,58.7388916 38.1602981,58.7151325 38.3464099,58.6635181 C38.7653665,58.5611084 39.1367702,58.426747 39.454882,58.2800964 C39.7754534,58.1260723 40.041913,57.9048675 40.2575404,57.5927229 C40.3838012,57.4108434 40.4871056,57.2133976 40.5543354,57.0085783 C40.6248447,56.8070361 40.6945342,56.5776386 40.7535652,56.3285783 C40.7691429,56.265494 40.7798012,56.1663614 40.7798012,56.0287229 L40.7798012,56.0287229 Z M42.9754286,55.1873253 C43.0016646,55.3093976 43.0213416,55.478988 43.0213416,55.6846265 C43.0213416,55.9017349 43.0016646,56.0598554 42.9754286,56.1663614 C42.9418137,56.2736867 42.9344348,56.3760964 42.9500124,56.4670361 C42.9655901,56.5661687 42.9614907,56.6603855 42.9245963,56.7750843 C42.8967205,56.8660241 42.8704845,56.9651566 42.8590062,57.0634699 C42.8409689,57.1699759 42.8196522,57.2691084 42.7835776,57.3600482 C42.7524224,57.4821205 42.7204472,57.5968193 42.6810932,57.7115181 C42.6417391,57.8221205 42.5982857,57.9245301 42.5548323,58.0351325 C42.5228571,58.0826506 42.5015404,58.1219759 42.4933416,58.1653976 C42.4892422,58.1973494 42.4654658,58.2407711 42.4359503,58.2727229 C42.2637764,58.5807711 42.0784845,58.8609639 41.8743354,59.1059277 C41.8448199,59.1731084 41.791528,59.2329157 41.7201988,59.296 C41.6529689,59.354988 41.5955776,59.4066024 41.5504845,59.4336386 C41.487354,59.4655904 41.4299627,59.509012 41.3865093,59.5639036 C41.3389565,59.6196145 41.289764,59.6589398 41.2438509,59.6982651 L40.7535652,59.9710843 C40.5822112,60.1013494 40.3797019,60.1922892 40.1427578,60.2520964 C39.9115528,60.3192771 39.6787081,60.3782651 39.4434037,60.437253 C39.3187826,60.4692048 39.1941615,60.4888675 39.0736398,60.4970602 C38.946559,60.5085301 38.8202981,60.5240964 38.6981366,60.5560482 C38.6325466,60.5716145 38.5751553,60.5757108 38.5202236,60.5675181 C38.4669317,60.5601446 38.4169193,60.564241 38.3677267,60.5871807 C38.2890186,60.5994699 38.2176894,60.5994699 38.148,60.5871807 C38.0774907,60.564241 38.0020621,60.564241 37.9249938,60.5871807 L34.3946087,60.5871807 C34.1634037,60.5871807 33.9084224,60.5757108 33.6329441,60.5675181 C33.3648447,60.5601446 33.1574161,60.6150361 33.0147578,60.7215422 C32.8450435,60.8485301 32.7614161,61.0697349 32.7696149,61.4015422 C32.7794534,61.729253 32.7835528,62.0299277 32.7835528,62.3101205 L32.7835528,65.7428916 C32.7835528,65.9444337 32.7876522,66.2016867 32.7974907,66.5056386 C32.8032298,66.805494 32.7655155,67.0152289 32.6868075,67.145494 C32.6253168,67.2364337 32.5539876,67.2995181 32.4670807,67.3191807 C32.3801739,67.3470361 32.2752298,67.3748916 32.1506087,67.3986506 L31.7341118,67.3986506 C31.4979876,67.3986506 31.2848199,67.3904578 31.1011677,67.3830843 C30.9134161,67.3626024 30.7805963,67.2880482 30.7059876,67.145494 C30.6403975,67.0504578 30.6092422,66.9242892 30.6092422,66.7587952 L30.6092422,66.2803373 L30.6092422,52.0978313 C30.6092422,51.9315181 30.6051429,51.7414458 30.5969441,51.5284337 C30.591205,51.3195181 30.6223602,51.1573012 30.7059876,51.0229398 C30.7633789,50.9360964 30.881441,50.8607229 31.0536149,50.7935422 C31.0872298,50.7779759 31.1151056,50.7779759 31.1462609,50.7820723 C31.178236,50.7861687 31.2077516,50.7861687 31.2413665,50.7697831 L36.5467826,50.7697831 C37.137913,50.7697831 37.7175652,50.7779759 38.2849193,50.7820723 C38.8580124,50.7861687 39.3696149,50.8689157 39.8164472,51.0032771 C40.5182609,51.2359518 41.0880745,51.5448193 41.5250683,51.9159518 C41.9612422,52.2911807 42.319528,52.8007711 42.5982857,53.4561928 C42.6769938,53.6266024 42.7384845,53.811759 42.7737391,53.9977349 C42.813913,54.1796145 42.8631056,54.3770602 42.9245963,54.574506 C42.9614907,54.6892048 42.9655901,54.7875181 42.9500124,54.8866506 C42.9344348,54.9775904 42.9418137,55.08 42.9754286,55.1873253 L42.9754286,55.1873253 Z" id="Fill-89" fill="#414140"></path>
                    <path d="M56.7739379,57.1224578 C56.8862609,56.9528675 56.9690683,56.7750843 57.0207205,56.5858313 C57.076472,56.3998554 57.123205,56.1983133 57.1732174,55.9812048 L57.1732174,55.7632771 C57.2207702,55.5543614 57.2265093,55.313494 57.1969938,55.0603373 C57.1650186,54.8039036 57.1174658,54.5867952 57.0526957,54.4163855 C56.8075528,53.6339759 56.3131677,53.1006265 55.5859379,52.8007711 C55.2735652,52.6819759 54.9111801,52.6106988 54.4946832,52.5910361 C54.0831056,52.5795663 53.6584099,52.5672771 53.2214161,52.5672771 L49.3688199,52.5672771 C49.3368447,52.587759 49.2991304,52.5910361 49.2614161,52.5910361 C49.2204224,52.5910361 49.1786087,52.6033253 49.1310559,52.6188916 C48.945764,52.6664096 48.8211429,52.7655422 48.7580124,52.9228434 C48.6965217,53.0613012 48.6670062,53.2554699 48.6743851,53.5037108 C48.6850435,53.7568675 48.688323,53.9780723 48.688323,54.1796145 L48.688323,56.8660241 C48.688323,57.0986988 48.6850435,57.347759 48.6743851,57.6009157 C48.6670062,57.8614458 48.7186584,58.062988 48.826882,58.1973494 C48.9080497,58.3079518 49.024472,58.3710361 49.1786087,58.3988916 C49.3368447,58.4226506 49.506559,58.4308434 49.6926708,58.4308434 L51.1438509,58.4308434 C51.750559,58.4308434 52.3416894,58.4341205 52.9172422,58.4382169 C53.4944348,58.4496867 54.0281739,58.4226506 54.5217391,58.3554699 C55.0103851,58.2800964 55.453118,58.1539277 55.8384596,57.9638554 C56.2295404,57.7746024 56.5402733,57.4976867 56.7739379,57.1224578 L56.7739379,57.1224578 Z M59.6041491,66.8177831 C59.6812174,67.0152289 59.6476025,67.1733494 59.5115031,67.2880482 C59.432795,67.3273735 59.3335901,67.3626024 59.2188075,67.3707952 C59.0999255,67.378988 58.9794037,67.3830843 58.8547826,67.3830843 L58.1078758,67.3830843 C57.8586335,67.3830843 57.6635031,67.3273735 57.5224845,67.2167711 C57.3986832,67.1381205 57.3150559,67.0152289 57.2757019,66.8497349 C57.2379876,66.6875181 57.2068323,66.5212048 57.1732174,66.3516145 C57.1592795,66.2926265 57.1469814,66.2287229 57.1469814,66.1738313 L57.1469814,66.0198072 C57.1174658,65.9444337 57.110087,65.8739759 57.123205,65.8182651 C57.1412422,65.7551807 57.1412422,65.688 57.123205,65.629012 C57.110087,65.5298795 57.1059876,65.4430361 57.1059876,65.348 L57.1059876,65.0637108 L57.030559,64.0166747 C56.9985839,63.9060723 56.9854658,63.7995663 56.9854658,63.6889639 C56.9854658,63.5783614 56.9690683,63.4595663 56.9395528,63.3333976 C56.8624845,63.0605783 56.8034534,62.7721928 56.7616398,62.4952771 C56.7239255,62.2232771 56.6534161,61.9463614 56.5402733,61.7013976 C56.2459379,61.0459759 55.7556522,60.6150361 55.0653168,60.3938313 C54.866087,60.3192771 54.6406211,60.2758554 54.403677,60.2676627 C54.1618137,60.2520964 53.9109317,60.2520964 53.644472,60.2520964 L49.3425839,60.2520964 C49.2319006,60.2873253 49.1376149,60.3151807 49.0498882,60.3348434 C48.9629814,60.3586024 48.892472,60.4053012 48.826882,60.4847711 C48.7186584,60.6428916 48.6670062,60.8952289 48.6743851,61.2475181 C48.6850435,61.5907952 48.688323,61.9111325 48.688323,62.1716627 L48.688323,65.5536386 C48.688323,65.770747 48.6965217,66.0435663 48.708,66.3598072 C48.7284969,66.6834217 48.6965217,66.9160964 48.6178137,67.0709398 C48.5858385,67.1815422 48.5268075,67.252 48.4317019,67.2880482 C48.3685714,67.3159036 48.3087205,67.3273735 48.2554286,67.3273735 C48.2004969,67.3273735 48.1332671,67.3470361 48.0578385,67.3830843 C47.9947081,67.3904578 47.9233789,67.3904578 47.8487702,67.3863614 C47.7692422,67.3830843 47.6905342,67.3830843 47.6110062,67.3830843 C47.4412919,67.3830843 47.2707578,67.378988 47.1092422,67.3707952 C46.9469068,67.3626024 46.8124472,67.3159036 46.701764,67.2364337 C46.5771429,67.1577831 46.5123727,67.0152289 46.5123727,66.805494 L46.5123727,66.1853012 L46.5123727,51.9872289 C46.5123727,51.8127229 46.5123727,51.6349398 46.5000745,51.4456867 C46.4984348,51.2597108 46.5295901,51.1097831 46.6066584,51.0032771 C46.6706087,50.9123373 46.7886708,50.8369639 46.9567453,50.7697831 C46.992,50.7583133 47.0223354,50.7501205 47.0518509,50.7583133 C47.0838261,50.7697831 47.1149814,50.7624096 47.1428571,50.7501205 L53.9248696,50.7501205 C54.0314534,50.7501205 54.152795,50.7460241 54.2765963,50.7386506 C54.3995776,50.7304578 54.5078012,50.7345542 54.6053665,50.7501205 L54.8578882,50.7501205 C54.951354,50.7624096 55.0497391,50.7779759 55.1407453,50.7820723 C55.2317516,50.7861687 55.3325963,50.7976386 55.4432795,50.825494 C55.5638012,50.8533494 55.6982609,50.873012 55.8310807,50.8926747 C55.9630807,50.908241 56.0877019,50.9279036 56.212323,50.955759 C56.5123975,51.0507952 56.7837764,51.1573012 57.030559,51.2597108 C57.2798012,51.378506 57.5167453,51.5005783 57.7323727,51.6586988 C58.1234534,51.9274217 58.4399255,52.2436627 58.6809689,52.6311807 C58.9220124,53.0137831 59.1204224,53.4561928 59.2778385,53.9698795 C59.3098137,54.104241 59.3237516,54.2189398 59.3335901,54.3573976 C59.3417888,54.491759 59.3614658,54.6138313 59.3926211,54.7440964 L59.3926211,54.9775904 C59.4081988,55.056241 59.4122981,55.1398072 59.4024596,55.2422169 C59.3950807,55.3446265 59.3852422,55.4322892 59.3729441,55.5109398 L59.3729441,55.7632771 C59.3417888,55.8976386 59.3180124,56.008241 59.3114534,56.123759 C59.3057143,56.2302651 59.2860373,56.3367711 59.254882,56.4514699 C59.175354,56.6800482 59.0999255,56.901253 59.0294161,57.1068916 C58.9597267,57.3207229 58.8629814,57.5214458 58.7383602,57.7115181 C58.6932671,57.7860723 58.6432547,57.853253 58.5842236,57.9204337 C58.5325714,57.9843373 58.4817391,58.0474217 58.4358261,58.1260723 C58.4186087,58.1457349 58.4063106,58.1580241 58.3882733,58.1653976 C58.3726957,58.169494 58.357118,58.1817831 58.3390807,58.1973494 C58.3095652,58.2293012 58.2775901,58.2727229 58.2349565,58.3235181 C58.198882,58.3595663 58.159528,58.3988916 58.1275528,58.4308434 C58.0053913,58.5291566 57.8906087,58.616 57.7815652,58.698747 C57.6667826,58.7864096 57.5544596,58.8691566 57.4257391,58.9437108 C57.3511304,58.9912289 57.2798012,59.0469398 57.2207702,59.0985542 C57.1592795,59.1534458 57.1174658,59.2288193 57.1059876,59.3230361 C57.0863106,59.4139759 57.123205,59.4934458 57.2101118,59.5524337 C57.2937391,59.6196145 57.3708075,59.6589398 57.4257391,59.6982651 C57.5995528,59.801494 57.7602484,59.9194699 57.9061863,60.0464578 C58.0562236,60.1685301 58.1865839,60.3192771 58.2939876,60.4847711 C58.4620621,60.7059759 58.588323,60.9509398 58.6694907,61.2278554 C58.7424596,61.4998554 58.8236273,61.7849639 58.9023354,62.1003855 C58.9187329,62.2265542 58.9343106,62.341253 58.9498882,62.4641446 C58.9679255,62.5788434 58.9794037,62.6976386 58.9958012,62.8279036 C59.0253168,62.9262169 59.0335155,63.045012 59.017118,63.1515181 C59.0056398,63.2580241 59.0113789,63.3686265 59.043354,63.4792289 L59.043354,63.6889639 C59.0728696,63.7995663 59.0786087,63.9101687 59.0663106,64.0363373 C59.0466335,64.1633253 59.056472,64.289494 59.090087,64.4115663 C59.1040248,64.4713735 59.1081242,64.5303614 59.0999255,64.5893494 C59.0925466,64.6409639 59.096646,64.7081446 59.1122236,64.7826988 C59.1441988,64.9408193 59.1671553,65.0989398 59.1835528,65.2611566 C59.1950311,65.4233735 59.228646,65.5773976 59.2778385,65.7232289 C59.3098137,65.8182651 59.3237516,65.9051084 59.3335901,65.9919518 C59.3417888,66.0746988 59.3614658,66.1656386 59.3926211,66.2565783 L59.6041491,66.8177831 L59.6041491,66.8177831 Z" id="Fill-90" fill="#414140"></path>
                    <path d="M63.9134161,50.7697831 L73.5682733,50.7697831 C73.7379876,50.7697831 73.9126211,50.7697831 74.0823354,50.7583133 C74.2586087,50.7501205 74.3947081,50.7861687 74.5037516,50.8689157 C74.5488447,50.9000482 74.5906584,50.9360964 74.6218137,50.9795181 C74.6513292,51.0229398 74.6833043,51.0778313 74.7152795,51.1220723 C74.7488944,51.2326747 74.7603727,51.4063614 74.7603727,51.6472289 C74.7603727,51.8921928 74.7488944,52.0699759 74.7152795,52.200241 C74.6513292,52.413253 74.5193292,52.5361446 74.316,52.5599036 C74.1159503,52.5836627 73.8691677,52.5910361 73.5920497,52.5910361 L67.3298385,52.5910361 C67.0789565,52.5910361 66.7821615,52.587759 66.4542112,52.5836627 C66.1180621,52.5713735 65.8688199,52.6188916 65.7146832,52.7098313 C65.5605466,52.8007711 65.4777391,52.9662651 65.4736398,53.2038554 C65.4613416,53.433253 65.4572422,53.6741205 65.4572422,53.9231807 L65.4572422,56.3089157 C65.4572422,56.4752289 65.4539627,56.6800482 65.4498634,56.9094458 C65.4400248,57.1462169 65.4539627,57.3362892 65.4810186,57.4739277 C65.5285714,57.664 65.6195776,57.7860723 65.7638758,57.8499759 C65.8237267,57.877012 65.9360497,57.9130602 66.0885466,57.9409157 L66.3213913,57.9409157 C66.3845217,57.9605783 66.4542112,57.9605783 66.521441,57.9564819 C66.5944099,57.9482892 66.6616398,57.9409157 66.7428075,57.9409157 L72.1211925,57.9409157 C72.2613913,57.9409157 72.4138882,57.9409157 72.5877019,57.9327229 C72.758236,57.9245301 72.9336894,57.9245301 73.1099627,57.9327229 C73.2936149,57.9409157 73.4559503,57.9564819 73.6059876,57.980241 C73.7502857,57.9999036 73.8626087,58.0351325 73.9437764,58.0826506 C73.9913292,58.1146024 74.0290435,58.1817831 74.058559,58.2923855 C74.0921739,58.3988916 74.1159503,58.5209639 74.1274286,58.639759 C74.1479255,58.7659277 74.1495652,58.8929157 74.1438261,59.0272771 C74.1339876,59.1616386 74.1159503,59.272241 74.0823354,59.3664578 C74.0487205,59.5049157 73.9831304,59.6081446 73.8691677,59.6712289 C73.8412919,59.7023614 73.7994783,59.7261205 73.742087,59.7302169 C73.688795,59.7384096 73.6396025,59.7498795 73.5920497,59.7621687 L73.4534907,59.7621687 C73.3747826,59.7818313 73.2977143,59.7851084 73.2181863,59.7736386 C73.1394783,59.7654458 73.0607702,59.7621687 72.9812422,59.7621687 L67.1871801,59.7621687 C67.003528,59.7621687 66.8157764,59.7580723 66.6395031,59.7498795 C66.4583106,59.7384096 66.2918758,59.7498795 66.1360994,59.7736386 C65.9811429,59.7973976 65.8434037,59.8408193 65.7245217,59.8998072 C65.6080994,59.9637108 65.5285714,60.0743133 65.4810186,60.2283373 C65.4539627,60.3266506 65.4400248,60.4298795 65.4498634,60.5560482 C65.4539627,60.6863133 65.4572422,60.8051084 65.4572422,60.9353735 L65.4572422,64.4590843 C65.4572422,64.6761928 65.465441,64.8736386 65.4810186,65.0555181 C65.4974161,65.2373976 65.5605466,65.3635663 65.6687702,65.4430361 C65.7778137,65.5216867 65.9040745,65.5618313 66.0409938,65.5692048 C66.1852919,65.5773976 66.3369689,65.5773976 66.5091429,65.5773976 L73.6592795,65.5773976 C73.7855404,65.5773976 73.9126211,65.5773976 74.0372422,65.5692048 C74.1610435,65.5618313 74.270087,65.5692048 74.3610932,65.6085301 C74.5488447,65.664241 74.6775652,65.7551807 74.7390559,65.8575904 C74.7685714,65.9092048 74.7898882,65.9845783 74.8062857,66.086988 C74.8218634,66.2057831 74.8390807,66.3155663 74.8415404,66.4343614 C74.8497391,66.5490602 74.8456398,66.6711325 74.8317019,66.7858313 C74.8136646,66.8964337 74.798087,66.9873735 74.7882484,67.0504578 C74.7226584,67.1733494 74.6513292,67.2601928 74.5726211,67.3077108 C74.4816149,67.3748916 74.3610932,67.3986506 74.2069565,67.3986506 L73.7798012,67.3986506 L64.2897391,67.3986506 C64.0741118,67.3986506 63.8839006,67.3863614 63.7281242,67.3707952 C63.5739876,67.3470361 63.459205,67.2724819 63.3780373,67.145494 C63.3165466,67.0504578 63.2870311,66.9283855 63.2870311,66.7858313 L63.2870311,66.3516145 L63.2870311,51.7733976 L63.2870311,51.354747 C63.2870311,51.2203855 63.3165466,51.1015904 63.3780373,51.0229398 C63.4354286,50.9238072 63.5575901,50.8410602 63.7281242,50.7935422 C63.756,50.7779759 63.7871553,50.7779759 63.8207702,50.7820723 C63.8543851,50.7861687 63.8839006,50.7861687 63.9134161,50.7697831" id="Fill-91" fill="#414140"></path>
                    <path d="M83.6560248,50.4224096 C84.5414907,50.3904578 85.3302112,50.4576386 86.0139876,50.6280482 C86.7018634,50.7976386 87.3085714,51.0622651 87.8349317,51.4022651 C87.931677,51.4653494 88.0226832,51.5210602 88.1054907,51.5644819 C88.1882981,51.6111807 88.2719255,51.6750843 88.3530932,51.7537349 C88.3801491,51.7897831 88.413764,51.8127229 88.4440994,51.8364819 C88.4768944,51.8528675 88.5072298,51.8880964 88.5367453,51.9159518 C88.572,51.9470843 88.6072547,51.9831325 88.6556273,52.0224578 C88.7048199,52.0617831 88.7417143,52.0978313 88.7753292,52.1486265 C88.8335404,52.2313735 88.8999503,52.306747 88.9598012,52.3821205 C89.0229317,52.4648675 89.0860621,52.5361446 89.1475528,52.6188916 C89.2065839,52.6983614 89.258236,52.777012 89.2975901,52.859759 C89.3353043,52.9506988 89.3803975,53.0375422 89.4304099,53.1088193 C89.5681491,53.3218313 89.6771925,53.5708916 89.7542609,53.8478072 C89.8313292,54.1165301 89.9067578,54.3967229 89.9879255,54.6933012 C90.0190807,54.8235663 90.0289193,54.9538313 90.0231801,55.1078554 C90.0149814,55.2504096 89.9879255,55.361012 89.9436522,55.443759 C89.8633043,55.5543614 89.7386832,55.6174458 89.5681491,55.6338313 C89.3943354,55.6453012 89.2147826,55.6567711 89.0303106,55.6567711 L88.8196025,55.6567711 C88.7556522,55.6567711 88.6966211,55.6453012 88.6334907,55.6338313 C88.5564224,55.6174458 88.4875528,55.6059759 88.4318012,55.6059759 C88.3785093,55.6059759 88.321118,55.5936867 88.2596273,55.5625542 C88.2260124,55.5420723 88.1948571,55.5183133 88.1653416,55.502747 C88.1333665,55.478988 88.1038509,55.4552289 88.0677764,55.42 C87.9767702,55.2774458 87.9095404,55.1078554 87.872646,54.9063133 C87.8349317,54.7006747 87.7759006,54.5228916 87.700472,54.3688675 C87.4331925,53.7486747 87.0560497,53.2784096 86.5756025,52.9662651 C86.2181366,52.7180241 85.786882,52.5320482 85.2908571,52.4058795 C85.1957516,52.3739277 85.1063851,52.3583614 85.008,52.3419759 C84.9169938,52.3346024 84.8202484,52.3223133 84.7292422,52.2911807 L84.5414907,52.2911807 C84.4193292,52.2551325 84.2947081,52.2436627 84.1676273,52.2436627 L83.7962236,52.2436627 C82.9837267,52.2436627 82.3056894,52.3698313 81.760472,52.6188916 C81.4521988,52.7417831 81.1693416,52.9072771 80.9176398,53.1211084 C80.6692174,53.3259277 80.4814658,53.5905542 80.3609441,53.9026988 C80.2969938,54.0255904 80.2519006,54.1558554 80.2305839,54.2902169 C80.2059876,54.4204819 80.1789317,54.5663133 80.1469565,54.7203373 C80.1190807,54.8432289 80.1051429,54.9857831 80.1117019,55.1398072 C80.1231801,55.2979277 80.137118,55.4281928 80.1707329,55.5387952 C80.2814161,55.8976386 80.4175155,56.1663614 80.5823106,56.3564337 C80.7462857,56.5424096 80.9733913,56.7201928 81.2742857,56.8938795 C81.6137143,57.1068916 81.9933168,57.2732048 82.4180124,57.3797108 C82.8353292,57.4944096 83.2706832,57.6082892 83.7232547,57.7270843 C83.8675528,57.7631325 84.0061118,57.7860723 84.1463106,57.8024578 C84.2848696,57.8221205 84.4267081,57.8499759 84.5669068,57.9007711 C84.7866335,57.9605783 85.0120994,58.0113735 85.2547826,58.0433253 C85.4958261,58.086747 85.7253913,58.1457349 85.945118,58.2252048 C86.0066087,58.2407711 86.0615404,58.2530602 86.1090932,58.2604337 C86.1525466,58.2645301 86.2099379,58.276 86.2714286,58.2923855 C86.4132671,58.3235181 86.5534658,58.3554699 86.6879255,58.3988916 C86.8322236,58.4341205 86.9691429,58.4816386 87.1150807,58.5291566 C87.423354,58.6315663 87.7299876,58.7503614 88.0267826,58.8765301 C88.321118,59.0035181 88.6015155,59.1493494 88.8646957,59.3230361 C89.2065839,59.5401446 89.5173168,59.7933012 89.7895155,60.0816867 C90.0649938,60.3700723 90.2822609,60.7059759 90.4577143,61.0967711 C90.5151056,61.2393253 90.5626584,61.3777831 90.5962733,61.5195181 C90.6282484,61.6579759 90.657764,61.8005301 90.6897391,61.9586506 C90.7192547,62.0373012 90.7348323,62.1241446 90.7348323,62.2306506 C90.7348323,62.3297831 90.7487702,62.4248193 90.7823851,62.5231325 L90.7823851,62.9893012 C90.7684472,63.0491084 90.7569689,63.1080964 90.7569689,63.1711807 L90.7569689,63.3645301 C90.7249938,63.4833253 90.7069565,63.6135904 90.6987578,63.7520482 C90.6897391,63.8782169 90.6651429,64.0125783 90.6200497,64.1272771 C90.5429814,64.3681446 90.4577143,64.5934458 90.3609689,64.8105542 C90.2666832,65.0243855 90.149441,65.2259277 90.0149814,65.4192771 C89.7485217,65.8223614 89.4123727,66.1656386 89.0089938,66.4425542 C88.6015155,66.7268434 88.1653416,66.9759036 87.700472,67.193012 C87.5381366,67.252 87.3921988,67.3077108 87.2438012,67.3552289 C87.093764,67.3986506 86.9330683,67.4502651 86.763354,67.4928675 C86.5911801,67.5567711 86.4132671,67.6034699 86.2238758,67.6198554 C86.037764,67.650988 85.8483727,67.6829398 85.6639006,67.7304578 C85.5835528,67.7419277 85.5040248,67.7501205 85.417118,67.7501205 C85.3343106,67.7501205 85.2506832,67.7656867 85.1719752,67.781253 C85.0793292,67.781253 84.9866832,67.781253 84.8915776,67.7894458 C84.8005714,67.7935422 84.7054658,67.7976386 84.6087205,67.7976386 C84.5332919,67.8132048 84.4226087,67.8213976 84.2742112,67.8213976 C84.1225342,67.8213976 84.0134907,67.8132048 83.9347826,67.7976386 L83.6732422,67.7976386 C83.523205,67.7738795 83.3649689,67.7501205 83.2108323,67.7501205 C83.0525963,67.7501205 82.9066584,67.7378313 82.764,67.7066988 C82.7049689,67.6911325 82.6418385,67.6788434 82.5803478,67.6673735 C82.5155776,67.6591807 82.4458882,67.650988 82.3671801,67.6313253 C82.1950062,67.6034699 82.0367702,67.5723373 81.8908323,67.5444819 C81.740795,67.5174458 81.5899379,67.4617349 81.4341615,67.3986506 C80.6692174,67.1536867 80.0264348,66.829253 79.5066335,66.4425542 C78.9868323,66.0591325 78.5342609,65.5454458 78.1587578,64.925253 C78.0341366,64.7196145 77.9332919,64.5066024 77.8480248,64.2968675 C77.7594783,64.0756627 77.6783106,63.8470843 77.6012422,63.5898313 C77.5692671,63.502988 77.5495901,63.4046747 77.5438509,63.3137349 C77.5340124,63.2227952 77.5143354,63.1392289 77.4823602,63.0605783 C77.4503851,62.9180241 77.4405466,62.7607229 77.4405466,62.5788434 C77.4405466,62.4010602 77.4741615,62.2707952 77.5512298,62.1954217 C77.6323975,62.0889157 77.7594783,62.0217349 77.9373913,62.0061687 C78.1169441,61.9938795 78.2948571,61.9897831 78.4645714,61.9897831 L78.6662609,61.9897831 C78.7318509,61.9897831 78.7933416,61.9938795 78.8425342,62.0061687 C78.9171429,62.0217349 78.9786335,62.0217349 79.022087,62.0217349 C79.0720994,62.0135422 79.1270311,62.0217349 79.1901615,62.0536867 C79.2967453,62.1126747 79.3680745,62.1798554 79.4000497,62.2388434 C79.4476025,62.3183133 79.4730186,62.4010602 79.4812174,62.4879036 C79.4885963,62.574747 79.5107329,62.657494 79.5402484,62.7566265 C79.569764,62.8590361 79.5992795,62.9696386 79.6214161,63.0843373 C79.6468323,63.186747 79.6829068,63.3014458 79.728,63.4046747 C79.9928199,64.0756627 80.3904596,64.609012 80.9176398,64.9965301 C81.1808199,65.1939759 81.4694161,65.3635663 81.7817888,65.4864578 C82.0958012,65.6126265 82.4319503,65.7273253 82.7877764,65.8379277 C82.9148571,65.8657831 83.041118,65.8928193 83.1640994,65.9092048 C83.2879006,65.9247711 83.4125217,65.9370602 83.5355031,65.9526265 C83.5666584,65.9526265 83.6101118,65.9567229 83.6560248,65.9681928 C83.6994783,65.9763855 83.7486708,65.9845783 83.7962236,65.9845783 C83.8577143,65.9960482 83.9306832,65.9960482 84.0159503,65.9845783 C84.1003975,65.96 84.1856646,65.9722892 84.2627329,66.0001446 C84.3258634,66.0157108 84.4168696,66.0198072 84.5300124,66.0198072 C84.6505342,66.0198072 84.7448199,66.0075181 84.8202484,65.9845783 L84.9866832,65.9845783 C85.0653913,65.96 85.1383602,65.9526265 85.2178882,65.9526265 C85.2965963,65.9526265 85.3761242,65.9444337 85.4507329,65.9247711 C85.4999255,65.9173976 85.5417391,65.9092048 85.5835528,65.9206747 C85.6212671,65.9247711 85.6704596,65.9173976 85.7352298,65.8854458 C85.8598509,65.853494 85.9885714,65.8223614 86.1328696,65.7986024 C86.2714286,65.7748434 86.4034286,65.7428916 86.5280497,65.6961928 C86.9330683,65.5257831 87.2954534,65.3283373 87.615205,65.0989398 C87.9333168,64.8736386 88.1809193,64.561494 88.3530932,64.1788916 C88.3981863,64.0519036 88.4359006,63.9339277 88.4670559,63.8069398 C88.5006708,63.6848675 88.532646,63.5586988 88.5621615,63.4284337 C88.591677,63.3055422 88.6072547,63.1597108 88.6072547,62.9893012 C88.6072547,62.8156145 88.591677,62.6771566 88.5621615,62.5706506 C88.532646,62.4879036 88.5146087,62.4207229 88.5146087,62.365012 C88.5146087,62.3142169 88.5006708,62.2544096 88.4670559,62.1954217 C88.3744099,61.9307952 88.2522484,61.705494 88.0940124,61.5318072 C87.9415155,61.3458313 87.7480248,61.1803373 87.5323975,61.0263133 C87.2044472,60.7928193 86.8387826,60.6035663 86.4329441,60.4651084 C86.0303851,60.3266506 85.6073292,60.2045783 85.1580373,60.1013494 C84.7194037,59.9989398 84.2627329,59.8998072 83.7962236,59.8088675 C83.3256149,59.718747 82.8746832,59.6081446 82.4401491,59.485253 C82.1892671,59.4066024 81.9400248,59.3394217 81.6891429,59.2878072 C81.4399006,59.2329157 81.2070559,59.1575422 80.9914286,59.0666024 C80.9594534,59.0510361 80.9315776,59.0428434 80.9176398,59.0428434 C80.9045217,59.0428434 80.8823851,59.0313735 80.8487702,59.0190843 C80.6946335,58.956 80.5322981,58.8929157 80.3822609,58.829012 C80.2264845,58.7659277 80.078087,58.6831807 79.9378882,58.592241 C79.5755031,58.3751325 79.2532919,58.1424578 78.9532174,57.8852048 C78.6629814,57.6287711 78.4268571,57.2928675 78.2530435,56.8938795 C78.1784348,56.7554217 78.1226832,56.5973012 78.091528,56.4359036 C78.0595528,56.2695904 78.0177391,56.1114699 77.9742857,55.9295904 C77.9742857,55.8746988 77.9710062,55.8148916 77.9611677,55.7632771 C77.9546087,55.7239518 77.9505093,55.677253 77.9505093,55.6338313 C77.9037764,55.443759 77.899677,55.206988 77.9291925,54.9186024 C77.9587081,54.6261205 78.0005217,54.4049157 78.0497143,54.2541687 C78.091528,54.0804819 78.1366211,53.914988 78.1685963,53.7609639 C78.2136894,53.6028434 78.2612422,53.4561928 78.3260124,53.3144578 C78.5416398,52.8523855 78.8244969,52.457494 79.1688447,52.141253 C79.5107329,51.8209157 79.8919752,51.5284337 80.3133913,51.2597108 C80.3470062,51.2326747 80.3822609,51.2121928 80.4298137,51.2007229 C80.4757267,51.1966265 80.5150807,51.1769639 80.546236,51.145012 C80.8864845,50.9795181 81.285764,50.8295904 81.7383354,50.7026024 C81.8588571,50.6755663 81.9777391,50.6436145 82.0884224,50.6239518 C82.1950062,50.5960964 82.3114286,50.5723373 82.4401491,50.533012 C82.5606708,50.509253 82.7008696,50.4895904 82.8451677,50.4895904 C82.9976646,50.4895904 83.1321242,50.4699277 83.2567453,50.4379759 C83.3018385,50.4346988 83.3731677,50.4346988 83.4658137,50.4379759 C83.5633789,50.4576386 83.6224099,50.4502651 83.6560248,50.4224096" id="Fill-92" fill="#414140"></path>
                    <path d="M107.035602,59.5049157 C107.065118,59.4262651 107.083155,59.2919036 107.083155,59.0985542 C107.083155,58.9043855 107.065118,58.7659277 107.035602,58.6831807 L107.035602,58.5053976 C107.035602,58.426747 107.035602,58.3554699 107.025764,58.2923855 C107.017565,58.2293012 107.013466,58.1621205 107.013466,58.0826506 C106.98395,58.004 106.971652,57.9327229 106.978211,57.8614458 C106.98395,57.7901687 106.975752,57.7188916 106.944596,57.6361446 C106.912621,57.4976867 106.887205,57.3600482 106.863429,57.217494 C106.838012,57.0716627 106.811776,56.9446747 106.780621,56.818506 C106.705193,56.6013976 106.637963,56.395759 106.582211,56.2024096 C106.52728,56.0049639 106.462509,55.8148916 106.381342,55.6338313 C106.119801,54.9931566 105.756596,54.4163855 105.295826,53.9026988 C104.836696,53.389012 104.293938,52.9900241 103.672472,52.7098313 C103.328944,52.5517108 102.923925,52.4296386 102.456596,52.3346024 C102.237689,52.2756145 101.994186,52.2395663 101.723627,52.2313735 C101.446509,52.224 101.182509,52.2199036 100.91277,52.2199036 C100.808646,52.2354699 100.699602,52.2436627 100.597118,52.247759 C100.500373,52.2592289 100.38313,52.2756145 100.260969,52.2911807 C100.027304,52.3542651 99.8059379,52.4091566 99.5968696,52.4689639 C99.382882,52.5246747 99.177913,52.587759 98.9778634,52.6664096 C98.1342112,53.0219759 97.4701118,53.5315663 96.9896646,54.2033735 C96.5067578,54.8751807 96.1115776,55.6608675 95.8213416,56.5661687 C95.7598509,56.735759 95.7139379,56.9094458 95.6909814,57.0954217 C95.6647453,57.2691084 95.6327702,57.450988 95.5819379,57.6361446 C95.568,57.7188916 95.5622609,57.7901687 95.5622609,57.8614458 C95.5622609,57.9327229 95.5540621,58.004 95.5401242,58.0826506 C95.5106087,58.1457349 95.4966708,58.2088193 95.5024099,58.2800964 C95.5147081,58.3554699 95.5106087,58.4185542 95.4909317,58.4816386 L95.4909317,58.6831807 C95.4769938,58.7659277 95.468795,58.9084819 95.468795,59.1059277 C95.468795,59.3115663 95.4769938,59.4533012 95.4909317,59.5327711 C95.4909317,59.591759 95.4966708,59.6548434 95.5024099,59.7064578 C95.5147081,59.7580723 95.5163478,59.8170602 95.5163478,59.8801446 C95.548323,60.0030361 95.5639006,60.141494 95.5761988,60.2914217 C95.5802981,60.4331566 95.6057143,60.5716145 95.6327702,60.694506 C95.6467081,60.7616867 95.6508075,60.8165783 95.6434286,60.8755663 C95.6393292,60.9312771 95.6467081,60.9828916 95.680323,61.0459759 C95.726236,61.2196627 95.7639503,61.3933494 95.7951056,61.5596627 C95.8270807,61.7333494 95.8803727,61.9111325 95.9590807,62.0766265 C96.0361491,62.2470361 96.1017391,62.4207229 96.1607702,62.5788434 C96.214882,62.740241 96.2853913,62.9024578 96.3788571,63.0605783 C96.4575652,63.1793735 96.5346335,63.3014458 96.6018634,63.4161446 C96.6748323,63.5390361 96.7478012,63.657012 96.8273292,63.7872771 C97.3094161,64.4672771 97.9358012,65.0047229 98.7146832,65.3955181 C98.9344099,65.5216867 99.1541366,65.6126265 99.382882,65.6724337 C99.6108075,65.7355181 99.8534907,65.8067952 100.12241,65.8854458 C100.228994,65.9173976 100.329839,65.9247711 100.423304,65.9206747 C100.51759,65.9092048 100.618435,65.9247711 100.729118,65.9526265 C100.820124,65.9845783 100.926708,66.0001446 101.04395,65.9919518 C101.162012,65.9845783 101.280894,65.9845783 101.407155,65.9845783 L101.64246,65.9845783 C101.721988,65.96 101.796596,65.9485301 101.873665,65.9403373 C101.954832,65.9329639 102.031901,65.9247711 102.107329,65.9247711 C102.326236,65.8854458 102.530385,65.8461205 102.729615,65.8182651 C102.921466,65.7789398 103.105118,65.7273253 103.277292,65.6519518 C104.071752,65.324241 104.724373,64.8973976 105.226957,64.3681446 C105.73282,63.8347952 106.151776,63.1711807 106.478087,62.385494 C106.552696,62.1798554 106.622385,61.9660241 106.675677,61.7489157 C106.730609,61.5318072 106.79046,61.3146988 106.85359,61.0967711 C106.881466,60.9984578 106.902783,60.9034217 106.906882,60.801012 C106.91672,60.7018795 106.938037,60.5994699 106.968373,60.4847711 L107.035602,59.718747 L107.035602,59.5049157 L107.035602,59.5049157 Z M109.236969,58.7585542 C109.247627,58.8372048 109.257466,58.9478072 109.257466,59.0985542 C109.257466,59.2443855 109.247627,59.354988 109.236969,59.4336386 L109.236969,59.718747 C109.200075,59.8727711 109.186137,60.0300723 109.186137,60.1963855 C109.186137,60.3586024 109.172199,60.5085301 109.142683,60.6502651 C109.110708,60.777253 109.089391,60.8919518 109.071354,60.9984578 C109.055776,61.1131566 109.036099,61.2278554 109.023801,61.3540241 C108.945093,61.6186506 108.875404,61.8718072 108.814733,62.1200482 C108.749143,62.3732048 108.670435,62.6140723 108.576969,62.8475663 C108.11046,63.9855422 107.498012,64.9375422 106.744547,65.6961928 C105.989441,66.4622169 105.00477,67.0471807 103.792994,67.4502651 C103.613441,67.4928675 103.447826,67.5371084 103.277292,67.568241 C103.105118,67.6001928 102.933764,67.6313253 102.75995,67.6829398 C102.684522,67.7026024 102.613193,67.7066988 102.545963,67.7066988 C102.490211,67.7066988 102.425441,67.7107952 102.36641,67.7304578 L101.593267,67.7976386 C101.539975,67.8132048 101.44323,67.8213976 101.276795,67.8132048 C101.11282,67.8017349 101.006236,67.7894458 100.960323,67.781253 C100.885714,67.7656867 100.811925,67.7542169 100.738957,67.7656867 C100.670087,67.7738795 100.600398,67.7738795 100.541366,67.7501205 L100.284745,67.7501205 C100.174062,67.7181687 100.069118,67.7026024 99.9682733,67.6952289 C99.8633292,67.6870361 99.7624845,67.6673735 99.6518012,67.6591807 C99.4935652,67.6116627 99.3476273,67.5805301 99.1975901,67.5485783 C99.0475528,67.5289157 98.900795,67.4928675 98.7450186,67.4502651 C98.5867826,67.3863614 98.4285466,67.3273735 98.2719503,67.2601928 C98.1202733,67.2053012 97.9661366,67.1381205 97.8038012,67.0709398 C96.8568447,66.6555663 96.0722236,66.0746988 95.455677,65.3365301 C94.8407702,64.5975422 94.3308075,63.7323855 93.9290683,62.7566265 C93.8306832,62.5354217 93.7650932,62.3101205 93.7159006,62.0766265 C93.6642484,61.8439518 93.6084969,61.5948916 93.5297888,61.3540241 C93.4961739,61.2909398 93.4846957,61.2393253 93.4945342,61.1918072 C93.5002733,61.1401928 93.4920745,61.0812048 93.4568199,60.9984578 C93.4273043,60.8919518 93.4133665,60.777253 93.4133665,60.6502651 C93.4133665,60.5240964 93.3977888,60.4020241 93.3641739,60.2758554 C93.3338385,60.2160482 93.3207205,60.1529639 93.330559,60.0898795 C93.3379379,60.0300723 93.3338385,59.9710843 93.3207205,59.9276627 L93.3207205,59.4336386 C93.2887453,59.354988 93.2707081,59.2525783 93.2707081,59.1059277 C93.2707081,58.9674699 93.2887453,58.8609639 93.3207205,58.7864096 L93.3207205,58.4816386 L93.3879503,57.6361446 C93.4174658,57.5411084 93.4346832,57.450988 93.4346832,57.3600482 C93.4346832,57.2691084 93.4510807,57.1781687 93.4805963,57.0716627 C93.5437267,56.8266988 93.601118,56.5817349 93.6462112,56.3408675 C93.6921242,56.1073735 93.7650932,55.8746988 93.8560994,55.6567711 C93.9807205,55.3569157 94.0971429,55.0726265 94.2037267,54.7875181 C94.3144099,54.5073253 94.4587081,54.2426988 94.6251429,53.9977349 C95.0637764,53.2988916 95.5778385,52.6901687 96.1689689,52.1682892 C96.7617391,51.6586988 97.4635528,51.2359518 98.2719503,50.9123373 C98.4482236,50.8369639 98.6277764,50.7697831 98.8253665,50.7263614 C99.019677,50.6788434 99.2189068,50.6239518 99.4189565,50.5608675 C99.5132422,50.5289157 99.6108075,50.5133494 99.7116522,50.5133494 C99.8100373,50.5133494 99.910882,50.4977831 100.003528,50.4658313 C100.128149,50.4502651 100.248671,50.4379759 100.365913,50.4379759 C100.482335,50.426506 100.600398,50.4142169 100.729118,50.3986506 C100.759453,50.3830843 100.798807,50.3830843 100.842261,50.3986506 C100.895553,50.4142169 100.930807,50.4142169 100.960323,50.3986506 C102.004025,50.3707952 102.917366,50.4699277 103.694609,50.7107952 C104.47513,50.955759 105.159727,51.2834699 105.752497,51.7062169 C105.983702,51.8643373 106.214907,52.0224578 106.432174,52.200241 C106.647801,52.3698313 106.845391,52.564 107.013466,52.777012 C107.059379,52.859759 107.112671,52.9228434 107.175801,52.9662651 C107.240571,53.0137831 107.290584,53.069494 107.339776,53.152241 C107.432422,53.2784096 107.525068,53.4053976 107.624273,53.539759 C107.71528,53.6700241 107.798087,53.8002892 107.877615,53.9231807 C107.91123,54.0018313 107.940745,54.069012 107.968621,54.1206265 C107.999776,54.1796145 108.04159,54.2426988 108.086683,54.3213494 C108.152273,54.4163855 108.205565,54.5073253 108.253118,54.6023614 C108.37528,54.8866506 108.499901,55.1750361 108.628621,55.4871807 C108.656497,55.585494 108.687652,55.6731566 108.707329,55.7559036 C108.729466,55.842747 108.758981,55.9295904 108.788497,56.0287229 C108.838509,56.1860241 108.875404,56.3408675 108.915578,56.5022651 C108.954932,56.6644819 108.998385,56.8307952 109.047578,57.0085783 C109.077093,57.0872289 109.093491,57.1658795 109.093491,57.2453494 C109.093491,57.3207229 109.10087,57.3952771 109.114807,57.4739277 C109.144323,57.5853494 109.16236,57.6959518 109.16236,57.8024578 C109.16236,57.9130602 109.177938,58.027759 109.207453,58.1539277 L109.207453,58.2923855 C109.225491,58.3669398 109.225491,58.4423133 109.207453,58.5291566 C109.194335,58.6004337 109.200075,58.6790843 109.236969,58.7585542 L109.236969,58.7585542 Z" id="Fill-93" fill="#414140"></path>
                    <path d="M118.077689,50.4224096 C118.971354,50.3904578 119.751876,50.4576386 120.438112,50.6280482 C121.127627,50.7976386 121.732696,51.0622651 122.262335,51.4022651 C122.353342,51.4653494 122.442708,51.5210602 122.531255,51.5644819 C122.618161,51.6111807 122.697689,51.6750843 122.776398,51.7537349 C122.805913,51.7897831 122.841168,51.8127229 122.869043,51.8364819 C122.901019,51.8528675 122.934634,51.8880964 122.962509,51.9159518 C122.989565,51.9470843 123.031379,51.9831325 123.080571,52.0224578 C123.126484,52.0617831 123.164199,52.0978313 123.197814,52.1486265 C123.256845,52.2313735 123.319975,52.306747 123.385565,52.3821205 C123.446236,52.4648675 123.510186,52.5361446 123.570857,52.6188916 C123.632348,52.6983614 123.68154,52.777012 123.723354,52.859759 C123.761068,52.9506988 123.806161,53.0375422 123.849615,53.1088193 C123.992273,53.3218313 124.104596,53.5708916 124.180025,53.8478072 C124.257093,54.1165301 124.335801,54.3967229 124.41123,54.6933012 C124.443205,54.8235663 124.450584,54.9538313 124.446484,55.1078554 C124.439106,55.2504096 124.41123,55.361012 124.363677,55.443759 C124.286609,55.5543614 124.164447,55.6174458 123.992273,55.6338313 C123.81846,55.6453012 123.638087,55.6567711 123.452795,55.6567711 L123.242907,55.6567711 C123.183876,55.6567711 123.119925,55.6453012 123.055155,55.6338313 C122.978087,55.6174458 122.909217,55.6059759 122.859205,55.6059759 C122.804273,55.6059759 122.742783,55.5936867 122.683752,55.5625542 C122.647677,55.5420723 122.620621,55.5183133 122.590286,55.502747 C122.55913,55.478988 122.525516,55.4552289 122.49764,55.42 C122.404994,55.2774458 122.335304,55.1078554 122.29841,54.9063133 C122.256596,54.7006747 122.197565,54.5228916 122.118037,54.3688675 C121.857317,53.7486747 121.481814,53.2784096 121.003006,52.9662651 C120.641441,52.7180241 120.212646,52.5320482 119.712522,52.4058795 C119.619876,52.3739277 119.52477,52.3583614 119.433764,52.3419759 C119.341118,52.3346024 119.250112,52.3223133 119.153366,52.2911807 L118.971354,52.2911807 C118.842634,52.2551325 118.722112,52.2436627 118.595851,52.2436627 L118.217888,52.2436627 C117.41113,52.2436627 116.737193,52.3698313 116.187876,52.6188916 C115.875503,52.7417831 115.598385,52.9072771 115.349963,53.1211084 C115.094981,53.3259277 114.90887,53.5905542 114.782609,53.9026988 C114.722758,54.0255904 114.679304,54.1558554 114.655528,54.2902169 C114.631752,54.4204819 114.606335,54.5663133 114.57272,54.7203373 C114.541565,54.8432289 114.533366,54.9857831 114.537466,55.1398072 C114.547304,55.2979277 114.566981,55.4281928 114.598137,55.5387952 C114.703081,55.8976386 114.84328,56.1663614 115.009714,56.3564337 C115.17205,56.5424096 115.399155,56.7201928 115.69595,56.8938795 C116.037839,57.1068916 116.42154,57.2732048 116.844596,57.3797108 C117.263553,57.4944096 117.699727,57.6082892 118.152298,57.7270843 C118.286758,57.7631325 118.429416,57.7860723 118.573714,57.8024578 C118.708174,57.8221205 118.852472,57.8499759 118.991031,57.9007711 C119.208298,57.9605783 119.437863,58.0113735 119.678907,58.0433253 C119.91995,58.086747 120.153615,58.1457349 120.368422,58.2252048 C120.431553,58.2407711 120.491404,58.2530602 120.529118,58.2604337 C120.57995,58.2645301 120.635702,58.276 120.698832,58.2923855 C120.837391,58.3235181 120.97595,58.3554699 121.117789,58.3988916 C121.257988,58.4341205 121.399006,58.4816386 121.536745,58.5291566 C121.845839,58.6315663 122.151652,58.7503614 122.450087,58.8765301 C122.742783,59.0035181 123.02318,59.1493494 123.292099,59.3230361 C123.632348,59.5401446 123.940621,59.7933012 124.21118,60.0816867 C124.482559,60.3700723 124.705565,60.7059759 124.877739,61.0967711 C124.943329,61.2393253 124.984323,61.3777831 125.020398,61.5195181 C125.051553,61.6579759 125.083528,61.8005301 125.113043,61.9586506 C125.144199,62.0373012 125.164696,62.1241446 125.164696,62.2306506 C125.164696,62.3297831 125.174534,62.4248193 125.205689,62.5231325 L125.205689,62.9893012 C125.194211,63.0491084 125.181913,63.1080964 125.181913,63.1711807 L125.181913,63.3645301 C125.150758,63.4833253 125.131081,63.6135904 125.122882,63.7520482 C125.114683,63.8782169 125.090907,64.0125783 125.040075,64.1272771 C124.967106,64.3681446 124.877739,64.5934458 124.786733,64.8105542 C124.691627,65.0243855 124.575205,65.2259277 124.435006,65.4192771 C124.166087,65.8223614 123.834037,66.1656386 123.430658,66.4425542 C123.02318,66.7268434 122.590286,66.9759036 122.118037,67.193012 C121.96554,67.252 121.815503,67.3077108 121.663826,67.3552289 C121.517068,67.3986506 121.358832,67.4502651 121.185019,67.4928675 C121.019404,67.5567711 120.837391,67.6034699 120.64964,67.6198554 C120.461888,67.650988 120.277416,67.6829398 120.086385,67.7304578 C120.008497,67.7419277 119.928149,67.7501205 119.841242,67.7501205 C119.755975,67.7501205 119.674807,67.7656867 119.597739,67.781253 C119.506733,67.781253 119.411627,67.781253 119.314882,67.7894458 C119.220596,67.7935422 119.13123,67.7976386 119.034484,67.7976386 C118.959056,67.8132048 118.846733,67.8213976 118.700795,67.8213976 C118.552398,67.8213976 118.440894,67.8132048 118.362186,67.7976386 L118.105565,67.7976386 C117.951429,67.7738795 117.794832,67.7501205 117.636596,67.7501205 C117.47836,67.7501205 117.334062,67.7378313 117.192224,67.7066988 C117.129093,67.6911325 117.067602,67.6788434 117.006112,67.6673735 C116.941342,67.6591807 116.870012,67.650988 116.790484,67.6313253 C116.62241,67.6034699 116.464994,67.5723373 116.316596,67.5444819 C116.164099,67.5174458 116.011602,67.4617349 115.864025,67.3986506 C115.094981,67.1536867 114.456298,66.829253 113.928298,66.4425542 C113.406857,66.0591325 112.960025,65.5454458 112.590261,64.925253 C112.46318,64.7196145 112.359056,64.5066024 112.273789,64.2968675 C112.185242,64.0756627 112.107354,63.8470843 112.030286,63.5898313 C111.996671,63.502988 111.976994,63.4046747 111.969615,63.3137349 C111.959776,63.2227952 111.936,63.1392289 111.909764,63.0605783 C111.876149,62.9180241 111.862211,62.7607229 111.862211,62.5788434 C111.862211,62.4010602 111.904025,62.2707952 111.979453,62.1954217 C112.058161,62.0889157 112.185242,62.0217349 112.368894,62.0061687 C112.542708,61.9938795 112.720621,61.9897831 112.888696,61.9897831 L113.092025,61.9897831 C113.159255,61.9897831 113.220745,61.9938795 113.264199,62.0061687 C113.341267,62.0217349 113.404398,62.0217349 113.45441,62.0217349 C113.499503,62.0135422 113.554435,62.0217349 113.615925,62.0536867 C113.722509,62.1126747 113.793839,62.1798554 113.829913,62.2388434 C113.870907,62.3183133 113.902882,62.4010602 113.910261,62.4879036 C113.91846,62.574747 113.932398,62.657494 113.970112,62.7566265 C113.997168,62.8590361 114.025043,62.9696386 114.04882,63.0843373 C114.072596,63.186747 114.106211,63.3014458 114.152124,63.4046747 C114.418584,64.0756627 114.816224,64.609012 115.349963,64.9965301 C115.608224,65.1939759 115.89764,65.3635663 116.211652,65.4864578 C116.521565,65.6126265 116.856075,65.7273253 117.216,65.8379277 C117.342261,65.8657831 117.462783,65.8928193 117.589043,65.9092048 C117.713665,65.9247711 117.836646,65.9370602 117.962907,65.9526265 C117.994882,65.9526265 118.034236,65.9567229 118.077689,65.9681928 C118.126882,65.9763855 118.176894,65.9845783 118.217888,65.9845783 C118.283478,65.9960482 118.358087,65.9960482 118.444994,65.9845783 C118.526161,65.96 118.607329,65.9722892 118.684398,66.0001446 C118.747528,66.0157108 118.840994,66.0198072 118.953317,66.0198072 C119.069739,66.0198072 119.170584,66.0075181 119.250112,65.9845783 L119.411627,65.9845783 C119.485416,65.96 119.566584,65.9526265 119.643652,65.9526265 C119.72072,65.9526265 119.801068,65.9444337 119.878137,65.9247711 C119.92405,65.9173976 119.967503,65.9092048 120.002758,65.9206747 C120.046211,65.9247711 120.096224,65.9173976 120.159354,65.8854458 C120.283975,65.853494 120.414335,65.8223614 120.556174,65.7986024 C120.698832,65.7748434 120.834932,65.7428916 120.952174,65.6961928 C121.358832,65.5257831 121.720398,65.3283373 122.040969,65.0989398 C122.357441,64.8736386 122.604224,64.561494 122.776398,64.1788916 C122.822311,64.0519036 122.859205,63.9339277 122.89282,63.8069398 C122.924795,63.6848675 122.952671,63.5586988 122.987925,63.4284337 C123.017441,63.3055422 123.031379,63.1597108 123.031379,62.9893012 C123.031379,62.8156145 123.017441,62.6771566 122.987925,62.5706506 C122.952671,62.4879036 122.938733,62.4207229 122.938733,62.365012 C122.938733,62.3142169 122.924795,62.2544096 122.89282,62.1954217 C122.804273,61.9307952 122.671453,61.705494 122.517317,61.5318072 C122.36154,61.3458313 122.177068,61.1803373 121.955702,61.0263133 C121.634311,60.7928193 121.266186,60.6035663 120.861168,60.4651084 C120.453689,60.3266506 120.033093,60.2045783 119.586261,60.1013494 C119.136969,59.9989398 118.684398,59.8998072 118.217888,59.8088675 C117.753839,59.718747 117.302907,59.6081446 116.867553,59.485253 C116.615031,59.4066024 116.367429,59.3394217 116.119006,59.2878072 C115.865665,59.2329157 115.632,59.1575422 115.414733,59.0666024 C115.385217,59.0510361 115.361441,59.0428434 115.349963,59.0428434 C115.326186,59.0428434 115.308149,59.0313735 115.278634,59.0190843 C115.120398,58.956 114.966261,58.8929157 114.808025,58.829012 C114.653888,58.7659277 114.505491,58.6831807 114.365292,58.592241 C114.005366,58.3751325 113.674957,58.1424578 113.380621,57.8852048 C113.087925,57.6287711 112.852621,57.2928675 112.681267,56.8938795 C112.601739,56.7554217 112.546807,56.5973012 112.518932,56.4359036 C112.485317,56.2695904 112.447602,56.1114699 112.40005,55.9295904 C112.40005,55.8746988 112.39677,55.8148916 112.386112,55.7632771 C112.380373,55.7239518 112.380373,55.677253 112.380373,55.6338313 C112.33118,55.443759 112.325441,55.206988 112.352497,54.9186024 C112.386112,54.6261205 112.422186,54.4049157 112.46728,54.2541687 C112.518932,54.0804819 112.564025,53.914988 112.601739,53.7609639 C112.641093,53.6028434 112.692745,53.4561928 112.748497,53.3144578 C112.969863,52.8523855 113.248621,52.457494 113.594609,52.141253 C113.932398,51.8209157 114.319379,51.5284337 114.740795,51.2597108 C114.768671,51.2326747 114.808025,51.2121928 114.851478,51.2007229 C114.900671,51.1966265 114.938385,51.1769639 114.97364,51.145012 C115.312248,50.9795181 115.707429,50.8295904 116.16164,50.7026024 C116.29036,50.6755663 116.405143,50.6436145 116.515826,50.6239518 C116.62241,50.5960964 116.741292,50.5723373 116.867553,50.533012 C116.988075,50.509253 117.126634,50.4895904 117.275031,50.4895904 C117.420969,50.4895904 117.557888,50.4699277 117.67841,50.4379759 C117.727602,50.4346988 117.800571,50.4346988 117.894037,50.4379759 C117.986683,50.4576386 118.048174,50.4502651 118.077689,50.4224096" id="Fill-94" fill="#414140"></path>
                </g>
            </g>
        </g>
    </g>
</svg>