<?xml version="1.0" encoding="UTF-8"?>
<svg width="171px" height="88px" viewBox="0 0 171 88" version="1.1" xmlns="http://www.w3.org/2000/svg" xmlns:xlink="http://www.w3.org/1999/xlink">
    <!-- Generator: Sketch 3.8.1 (29687) - http://www.bohemiancoding.com/sketch -->
    <title>logo</title>
    <desc>Created with Sketch.</desc>
    <defs></defs>
    <g id="Symbols" stroke="none" stroke-width="1" fill="none" fill-rule="evenodd">
        <g id="Footer" transform="translate(-94.000000, -42.000000)" fill="#FFFFFF">
            <g id="logo">
                <g transform="translate(94.000000, 42.500000)">
                    <path d="M166.729248,0.368963855 C167.238,0.368963855 167.729758,0.460156627 168.18328,0.651975904 C168.64105,0.823879518 169.03828,1.09640964 169.394087,1.4506988 C169.737149,1.78926506 170.001615,2.18862651 170.188547,2.6383012 C170.370168,3.0879759 170.464696,3.55861446 170.464696,4.05336145 C170.464696,4.55963855 170.375478,5.04390361 170.193857,5.47890361 C170.019671,5.91914458 169.74246,6.3080241 169.394087,6.65183133 C169.030845,7.00507229 168.615559,7.2786506 168.152478,7.47046988 C167.696832,7.65704819 167.22313,7.75872289 166.729248,7.75872289 C166.228994,7.75872289 165.753168,7.66228916 165.297522,7.47571084 C164.849311,7.28913253 164.452081,7.01555422 164.094149,6.66231325 C163.73728,6.31326506 163.463255,5.91390361 163.274199,5.46842169 C163.089391,5.01874699 162.992739,4.54915663 162.992739,4.05336145 C162.992739,3.58377108 163.089391,3.1036988 163.286944,2.65821687 C163.479186,2.19386747 163.753211,1.78926506 164.116453,1.4349759 C164.457391,1.0869759 164.854621,0.818638554 165.297522,0.641493976 C165.742547,0.454915663 166.219435,0.368963855 166.729248,0.368963855 L166.729248,0.368963855 Z M170.065342,4.0743253 C170.065342,3.62884337 169.976124,3.19908434 169.814683,2.79972289 C169.650056,2.40036145 169.419578,2.05236145 169.112627,1.74838554 C168.789745,1.4349759 168.426503,1.19808434 168.021839,1.02618072 C167.61505,0.863710843 167.184894,0.777759036 166.729248,0.777759036 C166.285286,0.777759036 165.865752,0.863710843 165.471708,1.02093976 C165.076602,1.18236145 164.718671,1.4203012 164.403224,1.72846988 C164.078217,2.05236145 163.834994,2.41084337 163.658683,2.80496386 C163.486621,3.20956627 163.410149,3.63408434 163.410149,4.06384337 C163.410149,4.49360241 163.486621,4.91287952 163.655497,5.31224096 C163.829683,5.70636145 164.067596,6.0606506 164.385168,6.37406024 C164.702739,6.68222892 165.067043,6.92436145 165.466398,7.0910241 C165.865752,7.25349398 166.290596,7.34887952 166.729248,7.34887952 C167.172149,7.34887952 167.596994,7.25349398 168.009093,7.08578313 C168.411634,6.92436145 168.780186,6.68222892 169.112627,6.36881928 C169.419578,6.06484337 169.655366,5.72208434 169.819994,5.33215663 C169.978248,4.95375904 170.065342,4.52924096 170.065342,4.0743253 L170.065342,4.0743253 Z M166.843957,1.87521687 C167.442988,1.87521687 167.894385,1.9716506 168.18328,2.16346988 C168.47536,2.35528916 168.62087,2.64878313 168.62087,3.05233735 C168.62087,3.34059036 168.526342,3.60368675 168.350031,3.79550602 C168.157789,4.00304819 167.916689,4.12463855 167.606553,4.16027711 L168.562453,6.12563855 L167.827472,6.12563855 L166.915118,4.25566265 L165.911422,4.25566265 L165.911422,6.12563855 L165.26672,6.12563855 L165.26672,1.87521687 L166.843957,1.87521687 L166.843957,1.87521687 Z M166.720752,2.3049759 L165.911422,2.3049759 L165.911422,3.83114458 L166.720752,3.83114458 C167.174273,3.83114458 167.493969,3.78083133 167.673466,3.66448193 C167.858273,3.54813253 167.954925,3.36574699 167.954925,3.09321687 C167.954925,2.80496386 167.850839,2.61314458 167.662845,2.49155422 C167.463168,2.37101205 167.154093,2.3049759 166.720752,2.3049759 L166.720752,2.3049759 Z" id="Fill-81"></path>
                    <path d="M18.1185652,3.9579759 C35.8420248,7.66753012 45.5964596,17.7972651 45.2533975,33.9111325 C45.2098509,34.1427831 45.3500497,34.1134337 45.5369814,33.9310482 C45.723913,33.733988 47.5932298,30.1093373 48.5820559,27.3347711 C49.5783168,24.5549639 50.1083106,21.7395181 50.1083106,18.4031205 C50.1083106,15.0677711 48.9272422,9.75972289 44.6225031,5.99985542 C40.3135155,2.24942169 34.2138075,1.24315663 28.8968758,1.52616867 C24.2002174,1.77878313 19.1859876,3.44226506 18.0750186,3.82590361 C17.964559,3.86154217 17.9879255,3.94749398 18.1185652,3.9579759" id="Fill-82"></path>
                    <path d="M0.74878882,35.0127831 C8.30571429,18.7626506 20.4562733,11.5951084 36.3157267,15.4671325 C36.5387702,15.5530843 36.5430186,15.4157711 36.3975093,15.1935542 C36.2466894,14.9765783 33.0762857,12.3885904 30.5463354,10.8110602 C28.0163851,9.24506024 25.3526087,8.11720482 22.0547516,7.37927711 C18.7537081,6.65183133 13.2477205,6.63191566 8.59248447,9.9473494 C3.92875155,13.2627831 1.59635404,18.9240723 0.712677019,24.1000482 C-0.0711614907,28.6743614 0.469453416,33.865012 0.60752795,35.0232651 C0.618149068,35.1438072 0.702055901,35.1238916 0.74878882,35.0127831" id="Fill-83"></path>
                    <path d="M38.0777702,54.3508916 C20.0293043,52.7796506 9.11504348,43.8983133 7.48045342,27.8504819 C7.49107453,27.6177831 7.35512422,27.6628554 7.19155901,27.8609639 C7.03011801,28.0726988 5.62706832,31.8944096 4.97599379,34.7800843 C4.32810559,37.6510843 4.13904969,40.5116024 4.54902484,43.8280843 C4.95793789,47.1435181 6.77627329,52.2639398 11.5196646,55.478747 C16.2513727,58.6935542 22.4307391,58.9765663 27.6722609,58.051012 C32.299882,57.2428554 37.0708882,54.9986747 38.1308758,54.4829639 C38.2392112,54.4274096 38.2030994,54.3613735 38.0777702,54.3508916" id="Fill-84"></path>
                    <path d="M52.3313106,18.7521687 C50.3823354,36.5389518 41.1557702,47.1288434 24.8682857,48.4170723 C24.6303727,48.3919157 24.6739193,48.5334217 24.8842174,48.6906506 C25.0945155,48.8625542 28.9329876,50.3226867 31.8389255,51.0260241 C34.7384907,51.7230723 37.629559,51.9652048 40.9996398,51.6213976 C44.3622857,51.2880723 49.5910621,49.59 52.943087,44.9800482 C56.2929876,40.3753373 56.6944658,34.2800964 55.8702671,29.0936386 C55.1459068,24.5046506 52.9632671,19.7531928 52.4640745,18.7018554 C52.4130932,18.6001807 52.3334348,18.6358193 52.3313106,18.7521687" id="Fill-85"></path>
                    <path d="M151.988199,4.25042169 C155.305174,6.08056627 157.934963,8.50713253 159.883938,11.5343133 C160.416056,12.3581928 160.856832,13.1820723 161.199894,14.0206265 C161.537646,14.8654699 161.858404,15.7899759 162.152609,16.8014819 C162.252447,17.1452892 162.341665,17.5184458 162.439379,17.9639277 C162.541342,18.3884458 162.511602,18.797241 162.365031,19.1871687 C162.270503,19.4701807 162.085696,19.6515181 161.827602,19.7227952 C161.550391,19.7930241 161.248752,19.8842169 160.902503,19.9754096 L160.321528,19.9754096 C160.029447,20.0760361 159.69913,20.1064337 159.338012,20.0812771 C158.96946,20.0613614 158.618963,20.0508795 158.280149,20.0508795 C157.831938,20.0508795 157.314689,20.0613614 156.710348,20.0812771 C156.096447,20.1064337 155.504851,20.1064337 154.915379,20.0812771 C154.331217,20.0613614 153.799099,20.0110482 153.305217,19.9345301 C152.820894,19.8643012 152.454466,19.7584337 152.216553,19.6116867 C151.822509,19.2825542 151.530429,18.8234458 151.335,18.2469398 C151.138509,17.6704337 150.89741,17.1652048 150.603205,16.7249639 C149.681292,15.1484819 148.461988,13.8843614 146.948478,12.9797711 C143.471124,10.8466988 138.921037,10.3561446 135.112304,11.9693133 C131.803826,13.3644578 129.462932,15.6736265 128.095994,18.8884337 C127.854894,19.4701807 127.637161,20.0760361 127.440671,20.6986627 C125.397168,27.2540602 125.527807,35.4226265 129.852727,41.1436627 C130.923335,42.5639639 132.331696,43.7316506 134.088429,44.6414819 C137.320435,46.0869398 142.039398,46.6990843 145.343627,45.071241 C146.462031,44.5911687 147.425366,43.9538675 148.231509,43.1603855 C149.035528,42.3721446 149.752453,41.4727952 150.385472,40.4612892 C150.682863,39.9812169 150.926087,39.4508313 151.115143,38.8743253 C151.309509,38.2925783 151.530429,37.7213133 151.775776,37.1353735 C151.924472,36.604988 152.065733,36.1301566 152.216553,35.7003976 C152.365248,35.2601566 152.675385,34.9215904 153.163957,34.6846988 C153.453913,34.5882651 153.822466,34.5379518 154.254745,34.5379518 L155.504851,34.5379518 L159.96041,34.5379518 L161.312478,34.5379518 C161.771311,34.5379518 162.152609,34.6333373 162.439379,34.8303976 C162.780317,35.0777711 162.967248,35.4572169 162.989553,35.9834096 C163.015043,36.5137952 162.951317,37.0242651 162.813242,37.4990964 L162.365031,39.4508313 C162.127118,40.1636024 161.89664,40.8711325 161.673596,41.5430241 C161.457988,42.2107229 161.176528,42.8574578 160.833466,43.4842771 C160.590242,43.8731566 160.395876,44.2473614 160.250366,44.6058434 C160.103795,44.9653735 159.909429,45.3186145 159.668329,45.6571807 C156.987559,49.7870602 153.092795,52.6779759 147.973416,54.3058193 C147.438112,54.4986867 146.895373,54.6443855 146.367503,54.7408193 C140.805224,55.7366024 134.603553,55.7062048 129.41195,53.1486145 C126.487957,51.9054578 124.014298,50.231494 121.996286,48.1393012 C119.972963,46.0471084 118.328814,43.554506 117.065963,40.6688313 C116.769634,39.9508193 116.523224,39.2286145 116.334168,38.5158434 C114.620981,32.1721807 114.069745,23.8170361 116.69741,17.5949639 C116.936385,16.9681446 117.196602,16.3465663 117.463193,15.719747 C117.731907,15.0929277 118.034609,14.5111807 118.377671,13.9860361 C119.154075,12.6359639 119.962342,11.4378795 120.789727,10.3865422 C121.03295,10.0427349 121.301665,9.73980723 121.591621,9.44736145 C121.885826,9.15386747 122.177907,8.86561446 122.472112,8.57736145 C123.686106,7.37403614 124.967012,6.35833735 126.306335,5.51454217 C127.645658,4.66550602 129.171913,3.91709639 130.879789,3.23996386 C131.460764,2.99783133 132.068292,2.79448193 132.698124,2.63306024 C138.905106,0.980060241 146.367503,1.14253012 151.988199,4.25042169 L151.988199,4.25042169 Z M96.0881925,20.1169157 C96.1859068,19.5865301 96.2029006,18.938747 96.1264286,18.1756627 C95.8810807,15.5981566 95.0643168,13.4294458 92.359118,12.2575663 C91.5349193,11.8728795 90.582205,11.6600964 89.5115963,11.6097831 C88.4420497,11.5647108 87.3172733,11.5343133 86.1468261,11.5343133 L77.6701118,11.5343133 C77.0455901,11.5185904 76.2596273,11.7366145 75.9186894,12.3225542 C75.6733416,12.7166747 75.5660683,13.201988 75.5809379,13.8088916 C75.6117391,14.4053133 75.6244845,14.996494 75.6244845,15.578241 L75.6244845,22.2856265 L75.6244845,24.0140964 C75.6244845,24.5947952 75.7476894,25.0455181 75.9856025,25.3882771 C76.1852795,25.6723373 76.5007267,25.8693976 76.9361925,25.9647831 C77.3790932,26.0559759 77.8655404,26.1576506 78.4008447,26.1775663 C81.9217453,26.3138313 88.0373851,26.4249398 91.1939814,25.8138434 C92.0372981,25.6461325 92.7510373,25.2677349 93.3840559,24.8830482 C94.0160124,24.4941687 94.5491925,23.9889398 94.9920932,23.3621205 C95.2841739,22.9323614 95.5019068,22.4522892 95.6474161,21.9166627 C95.7961118,21.3904699 95.9394969,20.7940482 96.0881925,20.1169157 L96.0881925,20.1169157 Z M108.144224,52.6475783 C108.244062,52.9358313 108.229193,53.1989277 108.109174,53.4368675 C107.985969,53.684241 107.855329,53.8561446 107.706634,53.9515301 C107.417739,54.1852771 107.009888,54.2911446 106.505385,54.2754217 C105.993447,54.2450241 105.463453,54.2303494 104.930273,54.2303494 L100.912304,54.2303494 C100.131652,54.2303494 99.4508385,54.1947108 98.8645528,54.1234337 C98.2803913,54.0532048 97.8417391,53.7806747 97.5475342,53.2953614 C97.1588012,52.6779759 96.9410683,51.9054578 96.8922112,50.9851446 C96.7074037,47.5428795 96.3367267,43.1803012 95.4328696,39.8805904 C95.0409503,38.7778916 94.5768075,37.7978313 94.0393789,36.9183976 C93.5093851,36.0588795 92.7510373,35.4069036 91.7728323,34.9771446 C91.5349193,34.8765181 91.2916957,34.8104819 91.0452857,34.7654096 C90.8052484,34.7140482 90.5365342,34.6333373 90.2391429,34.5379518 C89.366087,34.2591325 88.3549565,34.1081928 87.2068137,34.1081928 L77.8166832,34.1081928 C74.9054348,34.4614337 75.6244845,36.9687108 75.6244845,39.7338434 L75.6244845,48.9684217 C75.6244845,49.3573012 75.6117391,49.7461807 75.5809379,50.1560241 C75.5660683,50.5658675 75.5522609,50.9652289 75.5522609,51.3541084 L75.5522609,52.3949639 C75.5522609,52.7083735 75.5012795,52.9871928 75.4046273,53.2345663 C75.2559317,53.6590843 74.9691615,53.9515301 74.5315714,54.0940843 C74.2851615,54.1852771 73.9930807,54.2303494 73.6521429,54.2303494 L72.5560435,54.2303494 L69.2634969,54.2303494 C68.4849689,54.2303494 67.6522733,54.2450241 66.7824037,54.2754217 C65.9029752,54.2911446 65.2476522,54.1339157 64.8100621,53.8058313 C64.4181429,53.5678916 64.2205901,53.1234578 64.2205901,52.466241 L64.2205901,50.5553855 L64.2205901,6.70738554 C64.2205901,6.17175904 64.2131553,5.62040964 64.1876646,5.04914458 C64.1600497,4.46844578 64.267323,4.01353012 64.5126708,3.67915663 C64.7123478,3.38671084 65.0766522,3.14353012 65.6119565,2.96219277 C65.7139193,2.90139759 65.815882,2.89615663 65.9422733,2.92131325 C66.0654783,2.94646988 66.167441,2.93179518 66.2694037,2.87624096 L91.1153851,2.87624096 C91.893913,2.87624096 92.643764,2.89615663 93.3500683,2.92131325 C95.0940559,2.98210843 97.3117453,3.4213012 98.9357143,4.10891566 C100.157143,4.63510843 101.276609,5.28708434 102.29836,6.05540964 C103.327547,6.82373494 104.177236,7.70840964 104.853801,8.72410843 C105.048168,8.96204819 105.209609,9.21466265 105.327503,9.48195181 C105.456019,9.74504819 105.614273,10.0029036 105.806516,10.2450361 C108.116609,14.2281687 107.878696,19.1714458 106.32164,23.3317229 C105.474075,25.5905783 103.734335,27.2593012 101.78536,28.6292892 C101.590994,28.769747 101.396627,28.9322169 101.204385,29.0988795 C101.012143,29.2707831 100.861323,29.4730843 100.764671,29.7152169 C100.666957,29.9982289 100.717938,30.2361687 100.912304,30.4332289 C101.109857,30.6302892 101.276609,30.7665542 101.419994,30.862988 C101.913876,31.2518675 102.396075,31.6365542 102.88146,32.0201928 C103.371093,32.4048795 103.786379,32.8597952 104.129441,33.3849398 C104.71254,34.2088193 105.176683,35.0484217 105.517621,35.9173735 C105.852186,36.7821325 106.172944,37.7621928 106.465025,38.8743253 C106.564863,39.3040843 106.62328,39.764241 106.646646,40.2443133 C106.838888,44.0303855 107.020509,47.7252651 107.855329,51.4149036 C107.955168,51.8593373 108.044385,52.2586988 108.144224,52.6475783 L108.144224,52.6475783 Z" id="Fill-86"></path>
                    <path d="M4.47149068,65.0267349 C4.60744099,65.0267349 4.77419255,65.016253 4.95368944,65.0015783 C5.13531056,64.9910964 5.30631056,64.9910964 5.48368323,65.0015783 C5.65680745,65.016253 5.814,65.0414096 5.94995031,65.0822892 C6.09227329,65.1221205 6.1921118,65.1734819 6.25690062,65.2541928 C6.37479503,65.3904578 6.4438323,65.5875181 6.4533913,65.8401325 C6.4618882,66.092747 6.46613665,66.3359277 6.46613665,66.6032169 L6.46613665,84.531506 L6.46613665,85.3564337 C6.46613665,85.6394458 6.41515528,85.8710964 6.31531677,86.0230843 C6.23353416,86.124759 6.14113043,86.184506 6.02854658,86.2107108 C5.91596273,86.2201446 5.78001242,86.2505422 5.61857143,86.2966627 L5.04503106,86.2966627 C4.75826087,86.2966627 4.5001677,86.2861807 4.25906832,86.2652169 C4.01584472,86.2400602 3.84378261,86.1394337 3.74181988,85.9675301 C3.66003727,85.8406988 3.61861491,85.6845181 3.61861491,85.4717349 L3.61861491,84.830241 L3.61861491,66.7195663 C3.61861491,66.5025904 3.61118012,66.2604578 3.60374534,65.9921205 C3.59631056,65.7185422 3.6451677,65.5015663 3.74181988,65.3495783 C3.82678882,65.2133133 3.98504348,65.1126867 4.22614286,65.0466506 C4.26437888,65.0319759 4.30261491,65.0267349 4.34828571,65.0361687 C4.38970807,65.0414096 4.42581988,65.0414096 4.47149068,65.0267349" id="Fill-87"></path>
                    <path d="M13.2370994,64.9554578 L15.0756149,64.9554578 L15.6576522,64.9554578 C15.8371491,64.9554578 15.9932795,64.9910964 16.1111739,65.0822892 C16.292795,65.1933976 16.4181242,65.3548193 16.4892857,65.5518795 C16.5561988,65.7541807 16.6486025,65.9669639 16.7452547,66.1891807 C16.9066957,66.5581446 17.0585776,66.9417831 17.1860311,67.3212289 C17.3166708,67.6901928 17.4632422,68.0738313 17.6236211,68.4532771 C17.7680683,68.8128072 17.9008323,69.1765301 18.0155404,69.545494 C18.1440559,69.9144578 18.2821304,70.2781807 18.4414472,70.6324699 C18.5667764,70.9154819 18.6740497,71.2079277 18.771764,71.5014217 C18.8790373,71.8053976 18.9863106,72.0926024 19.1095155,72.3714217 C19.4759441,73.2707711 19.8136957,74.1648795 20.1365776,75.0705181 C20.4615839,75.9793012 20.804646,76.8796988 21.1689503,77.7790482 C21.2071863,77.8807229 21.242236,77.9761084 21.2762236,78.0777831 C21.3038385,78.1784096 21.3399503,78.2748434 21.3803106,78.3754699 C21.5598075,78.8052289 21.7318696,79.2549036 21.8954348,79.7098193 C22.0547516,80.159494 22.2310621,80.5997349 22.4126832,81.029494 C22.4902174,81.2160723 22.5666894,81.4236145 22.6505963,81.6762289 C22.733441,81.9288434 22.8640807,82.0703494 23.0457019,82.1112289 C23.1274845,82.1311446 23.189087,82.1311446 23.2294472,82.095506 C23.2676832,82.0703494 23.3069814,82.0305181 23.350528,81.9896386 C23.4471801,81.8984458 23.5247143,81.7779036 23.5756957,81.665747 C23.6213665,81.5399639 23.6829689,81.4131325 23.7392609,81.2768675 C23.9028261,80.8575904 24.0621429,80.4278313 24.2288944,80.0033133 C24.3903354,79.5787952 24.5507143,79.1490361 24.7121553,78.735 C24.7514534,78.6385663 24.7918137,78.5368916 24.8279255,78.4215904 C24.8735963,78.3094337 24.9097081,78.1941325 24.9511304,78.0777831 C25.1125714,77.6930964 25.260205,77.3146988 25.3908447,76.930012 C25.5214845,76.5358916 25.6701801,76.1417711 25.8294969,75.7424096 C26.3159441,74.5852048 26.7684037,73.422759 27.1762547,72.2445904 C27.5936646,71.0769036 28.044,69.9092169 28.5230124,68.757253 C28.6865776,68.3578916 28.8405839,67.9480482 28.9945901,67.5235301 C29.1475342,67.109494 29.3036646,66.7048916 29.4651056,66.3002892 C29.544764,66.1483012 29.6191118,65.9470482 29.6913354,65.7038675 C29.7550621,65.4659277 29.8697702,65.2898313 30.0089068,65.1933976 C30.1257391,65.1221205 30.2850559,65.0623735 30.4794224,65.0267349 C30.6684783,64.9764217 30.8893975,64.9554578 31.1273106,64.9407831 C31.3705342,64.9303012 31.6116335,64.9303012 31.8569814,64.9407831 C32.0959565,64.9554578 32.3232484,64.9554578 32.5229255,64.9554578 L33.0815963,64.9554578 C33.2706522,64.9554578 33.421472,64.9910964 33.5213106,65.0822892 C33.7008075,65.1734819 33.8038323,65.3548193 33.829323,65.6126747 C33.8473789,65.8757711 33.8548137,66.1535422 33.8548137,66.4522771 L33.8548137,84.7442892 C33.8548137,84.9570723 33.8569379,85.1792892 33.8696832,85.401506 C33.8803043,85.613241 33.8335714,85.7851446 33.7316087,85.9067349 C33.6700062,86.0230843 33.5807888,86.1037952 33.4607702,86.1289518 C33.3396894,86.1645904 33.1941801,86.2002289 33.0327391,86.2306265 L32.5537267,86.2306265 C32.2871366,86.2306265 32.0492236,86.2201446 31.8261801,86.2149036 C31.606323,86.2107108 31.4395714,86.124759 31.3376087,85.9675301 C31.2993727,85.9067349 31.273882,85.836506 31.2685714,85.7757108 C31.2505155,85.6991928 31.2303354,85.613241 31.1910373,85.5126145 L31.1910373,85.1887229 C31.1708571,85.0681807 31.1655466,84.9308675 31.1761677,84.7694458 C31.1867888,84.6132651 31.1910373,84.4612771 31.1910373,84.325012 L31.1910373,73.8367952 L31.1910373,72.3253012 C31.1910373,71.8148313 31.1814783,71.3200843 31.1559876,70.8442048 C31.1559876,70.6471446 31.150677,70.4301687 31.1273106,70.186988 C31.112441,69.9448554 30.9966708,69.8232651 30.7969938,69.8232651 L30.7969938,69.8589036 C30.6536087,69.8945422 30.5357143,70.0308072 30.4486211,70.2477831 C30.3594037,70.47 30.2797453,70.6523855 30.2234534,70.8138072 C30.0800683,71.1576145 29.9494286,71.5014217 29.8240994,71.8452289 C29.7083292,72.1984699 29.5681304,72.5422771 29.4066894,72.8766506 C29.3631429,72.9720361 29.3344658,73.0632289 29.3121615,73.1544217 C29.2941056,73.2246506 29.260118,73.3106024 29.2197578,73.4122771 C29.060441,73.776 28.9223665,74.1397229 28.8119068,74.5086867 C28.7025093,74.8724096 28.566559,75.2424217 28.405118,75.5956627 C28.2638571,75.8985904 28.1470248,76.2025663 28.044,76.505494 C27.9420373,76.8189036 27.8315776,77.1176386 27.7041242,77.4153253 C27.3068944,78.3555542 26.9457764,79.3010241 26.6207702,80.2454458 C26.2978882,81.1909157 25.9388944,82.1206627 25.5575963,83.0357349 C25.4014658,83.3952651 25.250646,83.748506 25.1348758,84.1122289 C25.0148571,84.4665181 24.8842174,84.830241 24.7408323,85.1887229 C24.6356832,85.406747 24.5464658,85.6090482 24.4508758,85.8061084 C24.3595342,85.9926867 24.1853478,86.124759 23.9240683,86.2107108 C23.882646,86.2201446 23.8369752,86.2201446 23.7859938,86.2149036 C23.7339503,86.2107108 23.6829689,86.2149036 23.6213665,86.2306265 C23.5576398,86.2505422 23.4907267,86.2610241 23.4089441,86.2453012 C23.3292857,86.2358675 23.2453789,86.2306265 23.1657205,86.2306265 L22.5613789,86.2306265 C22.3617019,86.2306265 22.1981366,86.184506 22.0749317,86.0891205 C21.9134907,85.9874458 21.8009068,85.836506 21.7244348,85.6593614 C21.6575217,85.4623012 21.5683043,85.2704819 21.4674037,85.0681807 C21.3091491,84.6740602 21.1530186,84.2537349 21.004323,83.8292169 C20.8535031,83.3994578 20.6920621,82.9906627 20.5306211,82.5860602 C20.3638696,82.2328193 20.2332298,81.8680482 20.120646,81.4990843 C20.0133727,81.1206867 19.8721118,80.7663976 19.7159814,80.4079157 C19.2475901,79.2957831 18.8121242,78.1679277 18.4159565,77.0316867 C18.0081056,75.8985904 17.5758261,74.7665422 17.109559,73.6491687 C16.9459938,73.2403735 16.7941118,72.8106145 16.6432919,72.3808554 C16.4892857,71.9563373 16.3363416,71.5370602 16.1695901,71.1429398 C16.0676273,70.9207229 15.9879689,70.7026988 15.9136211,70.5056386 C15.8413975,70.2886627 15.7394348,70.1115181 15.5939255,69.9448554 C15.5779938,69.9092169 15.5546273,69.8788193 15.5344472,69.8693855 C15.5163913,69.8589036 15.4930248,69.8484217 15.4760311,69.8232651 L15.3220248,69.8232651 C15.3060932,69.8484217 15.2837888,69.8589036 15.2657329,69.8693855 C15.2455528,69.8788193 15.2221863,69.8945422 15.2062547,69.9249398 C15.1627081,70.0203253 15.142528,70.1314337 15.142528,70.2477831 C15.142528,70.3693735 15.1223478,70.4804819 15.0756149,70.6073133 L15.0756149,70.9353976 C15.0458758,71.056988 15.0320683,71.188012 15.0501242,71.3200843 C15.0713665,71.4657831 15.0756149,71.6020482 15.0756149,71.7393614 L15.0756149,84.7998434 C15.0756149,85.0168193 15.0756149,85.2400843 15.0660559,85.4570602 C15.0554348,85.6792771 15.0044534,85.8406988 14.9014286,85.9675301 C14.8015901,86.124759 14.6231553,86.2107108 14.3724969,86.2149036 C14.1154658,86.2201446 13.8499379,86.2306265 13.5706025,86.2306265 L13.1893043,86.2306265 C13.0809689,86.2306265 12.9790062,86.2149036 12.8759814,86.1750723 C12.6125776,86.0985542 12.4617578,85.9224578 12.4309565,85.6740361 C12.4022795,85.406747 12.3927205,85.108012 12.3927205,84.7694458 L12.3927205,66.5434699 C12.3927205,66.3202048 12.3799752,66.092747 12.369354,65.8558554 C12.3587329,65.6126747 12.4075901,65.4313373 12.5053043,65.2793494 C12.5892112,65.168241 12.7379068,65.0718072 12.9609503,64.9858554 C13.0013106,64.9659398 13.0448571,64.9659398 13.0969006,64.9711807 C13.147882,64.9764217 13.1935528,64.9764217 13.2370994,64.9554578" id="Fill-88"></path>
                    <path d="M52.8283789,71.6838072 C52.9016646,71.4007952 52.915472,71.0873855 52.8559938,70.7026988 C52.7943913,70.3442169 52.7306646,70.0507229 52.6690621,69.8232651 C52.4693851,69.2624819 52.2059814,68.8327229 51.8724783,68.4993976 C51.5368509,68.1702651 51.1066957,67.892494 50.5798882,67.6755181 C50.1391118,67.4931325 49.6271739,67.3872651 49.0536335,67.3516265 C48.4822174,67.310747 47.8831863,67.2855904 47.2501677,67.2855904 L43.3447826,67.2855904 C43.3097329,67.310747 43.263,67.3212289 43.2120186,67.3212289 C43.1578509,67.3212289 43.1047453,67.3317108 43.0452671,67.3516265 C42.8020435,67.4124217 42.6406025,67.5382048 42.5620062,67.740506 C42.4791615,67.9375663 42.4409255,68.2006627 42.4515466,68.5297952 C42.4642919,68.8631205 42.4696025,69.1555663 42.4696025,69.4438193 L42.4696025,73.0181566 C42.4696025,73.3263253 42.4642919,73.6491687 42.4515466,74.0139398 C42.4409255,74.3671807 42.4972174,74.6501928 42.6257329,74.852494 C42.7223851,75.0044819 42.8795776,75.0998675 43.0835031,75.135506 C43.3044224,75.1659036 43.5402112,75.1763855 43.8004286,75.1763855 L47.8884969,75.1763855 C48.1901366,75.1763855 48.5023975,75.1711446 48.8274037,75.1659036 C49.1502857,75.1512289 49.4349317,75.1208313 49.6760311,75.0547952 C50.2187702,74.9237711 50.6999068,74.7518675 51.1120062,74.564241 C51.5272919,74.3671807 51.8724783,74.0841687 52.1518137,73.6848072 C52.3153789,73.4521084 52.449205,73.199494 52.5362981,72.9374458 C52.6276398,72.6795904 52.7179193,72.3860964 52.7943913,72.0674458 C52.8145714,71.9867349 52.8283789,71.8599036 52.8283789,71.6838072 L52.8283789,71.6838072 Z M55.6727143,70.6073133 C55.7067019,70.763494 55.7321925,70.9804699 55.7321925,71.2435663 C55.7321925,71.5213373 55.7067019,71.7236386 55.6727143,71.8599036 C55.6291677,71.9972169 55.6196087,72.128241 55.6397888,72.2445904 C55.6599689,72.3714217 55.6546584,72.4919639 55.6068634,72.6387108 C55.5707516,72.7550602 55.536764,72.8818916 55.5218944,73.0076747 C55.498528,73.1439398 55.470913,73.2707711 55.4241801,73.3871205 C55.3838199,73.5433012 55.3423975,73.6900482 55.2914161,73.8367952 C55.2404348,73.9783012 55.1841429,74.1093253 55.1278509,74.2508313 C55.0864286,74.3116265 55.0588137,74.3619398 55.0481925,74.417494 C55.042882,74.4583735 55.0120807,74.5139277 54.9738447,74.5548072 C54.7508012,74.9489277 54.510764,75.3074096 54.2462981,75.6208193 C54.2080621,75.7067711 54.1390248,75.7832892 54.0466211,75.864 C53.959528,75.9394699 53.8851801,76.005506 53.826764,76.0400964 C53.7449814,76.0809759 53.6706335,76.1365301 53.6143416,76.206759 C53.5527391,76.2780361 53.4890124,76.3283494 53.4295342,76.3786627 L52.7943913,76.7277108 C52.5724099,76.8943735 52.3100683,77.0107229 52.003118,77.087241 C51.7036025,77.1731928 51.4019627,77.2486627 51.0971366,77.3241325 C50.9356957,77.365012 50.7742547,77.3901687 50.6181242,77.4006506 C50.4534969,77.4153253 50.2899317,77.435241 50.131677,77.4761205 C50.0467081,77.4960361 49.9723602,77.5012771 49.9011988,77.4907952 C49.8321615,77.4813614 49.7673727,77.4866024 49.703646,77.5159518 C49.6016832,77.5316747 49.5092795,77.5316747 49.419,77.5159518 C49.3276584,77.4866024 49.2299441,77.4866024 49.1301056,77.5159518 L44.5566522,77.5159518 C44.2571366,77.5159518 43.9268199,77.5012771 43.5699503,77.4907952 C43.2226398,77.4813614 42.9539255,77.5515904 42.769118,77.6878554 C42.5492609,77.8503253 42.4409255,78.1333373 42.4515466,78.5578554 C42.4642919,78.9771325 42.4696025,79.3618193 42.4696025,79.7203012 L42.4696025,84.1122289 C42.4696025,84.3700843 42.474913,84.6992169 42.4876584,85.0880964 C42.4950932,85.4717349 42.446236,85.7400723 42.3442733,85.9067349 C42.2646149,86.0230843 42.1722112,86.1037952 42.0596273,86.1289518 C41.9470435,86.1645904 41.8110932,86.2002289 41.6496522,86.2306265 L41.1100994,86.2306265 C40.8042112,86.2306265 40.5280621,86.2201446 40.2901491,86.2107108 C40.0469255,86.184506 39.8748634,86.0891205 39.7782112,85.9067349 C39.6932422,85.7851446 39.652882,85.6237229 39.652882,85.411988 L39.652882,84.7998434 L39.652882,66.6545783 C39.652882,66.4417952 39.6475714,66.1986145 39.6369503,65.9260843 C39.6295155,65.6587952 39.6698758,65.451253 39.7782112,65.2793494 C39.852559,65.168241 40.0055031,65.0718072 40.2285466,64.9858554 C40.2720932,64.9659398 40.308205,64.9659398 40.3485652,64.9711807 C40.3899876,64.9764217 40.4282236,64.9764217 40.4717702,64.9554578 L47.3446957,64.9554578 C48.1104783,64.9554578 48.8613913,64.9659398 49.5963727,64.9711807 C50.3387888,64.9764217 51.0015466,65.0822892 51.5803975,65.2541928 C52.4895652,65.5518795 53.2277329,65.9470482 53.7938385,66.4218795 C54.358882,66.9019518 54.8230248,67.5539277 55.1841429,68.3924819 C55.2861056,68.610506 55.365764,68.8473976 55.4114348,69.0853373 C55.4634783,69.3180361 55.527205,69.5706506 55.6068634,69.8232651 C55.6546584,69.970012 55.6599689,70.0957952 55.6397888,70.2226265 C55.6196087,70.3389759 55.6291677,70.47 55.6727143,70.6073133 L55.6727143,70.6073133 Z" id="Fill-89"></path>
                    <path d="M73.5480559,73.0831446 C73.6935652,72.8661687 73.8008385,72.6387108 73.8677516,72.3965783 C73.9399752,72.1586386 74.0005155,71.9007831 74.0653043,71.623012 L74.0653043,71.3441928 C74.1269068,71.0769036 74.1343416,70.7687349 74.0961056,70.4448434 C74.0546832,70.116759 73.9930807,69.838988 73.9091739,69.6209639 C73.5916025,68.6199398 72.9511491,67.9375663 72.0090559,67.5539277 C71.6043913,67.4019398 71.1349379,67.310747 70.5953851,67.2855904 C70.062205,67.2709157 69.5120311,67.2551928 68.9459255,67.2551928 L63.9550621,67.2551928 C63.9136398,67.2813976 63.8647826,67.2855904 63.8159255,67.2855904 C63.7628199,67.2855904 63.7086522,67.3013133 63.6470497,67.3212289 C63.4070124,67.3820241 63.2455714,67.5088554 63.1637888,67.7101084 C63.0841304,67.887253 63.0458944,68.1356747 63.0554534,68.4532771 C63.0692609,68.7771687 63.0735093,69.0601807 63.0735093,69.3180361 L63.0735093,72.7550602 C63.0735093,73.052747 63.0692609,73.3713976 63.0554534,73.6952892 C63.0458944,74.0286145 63.1128075,74.2864699 63.2530062,74.4583735 C63.3581553,74.5998795 63.5089752,74.6805904 63.7086522,74.7162289 C63.9136398,74.7466265 64.1334969,74.7571084 64.3745963,74.7571084 L66.2545342,74.7571084 C67.0404969,74.7571084 67.8062795,74.7613012 68.551882,74.7665422 C69.2996087,74.7812169 69.9910435,74.7466265 70.6304348,74.6606747 C71.2634534,74.564241 71.8369938,74.4028193 72.3361863,74.1596386 C72.8428137,73.917506 73.245354,73.5632169 73.5480559,73.0831446 L73.5480559,73.0831446 Z M77.2144658,85.4874578 C77.3143043,85.7400723 77.2707578,85.9423735 77.0944472,86.0891205 C76.9924845,86.1394337 76.8639689,86.184506 76.7152733,86.194988 C76.5612671,86.2054699 76.4051366,86.2107108 76.2436957,86.2107108 L75.2761118,86.2107108 C74.9532298,86.2107108 74.7004472,86.1394337 74.517764,85.9979277 C74.3573851,85.8973012 74.2490497,85.7400723 74.1980683,85.5283373 C74.1492112,85.3207952 74.1088509,85.108012 74.0653043,84.8910361 C74.0472484,84.8155663 74.0313168,84.7338072 74.0313168,84.6635783 L74.0313168,84.4665181 C73.9930807,84.3700843 73.9835217,84.2799398 74.0005155,84.2086627 C74.023882,84.1279518 74.023882,84.042 74.0005155,83.9665301 C73.9835217,83.8396988 73.9782112,83.7285904 73.9782112,83.607 L73.9782112,83.2432771 L73.8804969,81.9036867 C73.8390745,81.7621807 73.8220807,81.6259157 73.8220807,81.4844096 C73.8220807,81.3429036 73.8008385,81.1909157 73.7626025,81.029494 C73.662764,80.6804458 73.5862919,80.3114819 73.5321242,79.9571928 C73.4832671,79.6091928 73.3919255,79.2549036 73.245354,78.941494 C72.8640559,78.1029398 72.228913,77.5515904 71.3346149,77.2685783 C71.0765217,77.1731928 70.784441,77.1176386 70.4774907,77.1071566 C70.1641677,77.087241 69.8391615,77.087241 69.4939752,77.087241 L63.9210745,77.087241 C63.7776894,77.1323133 63.6555466,77.1679518 63.5419006,77.1931084 C63.4293168,77.223506 63.3379752,77.283253 63.2530062,77.3849277 C63.1128075,77.5872289 63.0458944,77.9100723 63.0554534,78.3607952 C63.0692609,78.799988 63.0735093,79.2098313 63.0735093,79.5431566 L63.0735093,83.8700964 C63.0735093,84.1478675 63.0841304,84.4969157 63.099,84.9015181 C63.1255528,85.3155542 63.0841304,85.613241 62.9821677,85.8113494 C62.9407453,85.9528554 62.8642733,86.043 62.7410683,86.0891205 C62.6592857,86.124759 62.5817516,86.1394337 62.5127143,86.1394337 C62.4415528,86.1394337 62.3544596,86.1645904 62.2567453,86.2107108 C62.1749627,86.2201446 62.082559,86.2201446 61.9859068,86.2149036 C61.882882,86.2107108 61.7809193,86.2107108 61.6778944,86.2107108 C61.4580373,86.2107108 61.237118,86.2054699 61.027882,86.194988 C60.8175839,86.184506 60.6433975,86.124759 60.5000124,86.0230843 C60.3385714,85.9224578 60.2546646,85.7400723 60.2546646,85.4717349 L60.2546646,84.678253 L60.2546646,66.5130723 C60.2546646,66.2898072 60.2546646,66.0623494 60.2387329,65.8202169 C60.2366087,65.5822771 60.2769689,65.3904578 60.3768075,65.2541928 C60.4596522,65.1378434 60.6125963,65.0414096 60.8303292,64.9554578 C60.876,64.9407831 60.9152981,64.9303012 60.9535342,64.9407831 C60.9949565,64.9554578 61.0353168,64.9460241 61.0714286,64.9303012 L69.8572174,64.9303012 C69.9952919,64.9303012 70.1524845,64.9250602 70.3128634,64.9156265 C70.4721801,64.9051446 70.6123789,64.9103855 70.7387702,64.9303012 L71.0659006,64.9303012 C71.1869814,64.9460241 71.3144348,64.9659398 71.4323292,64.9711807 C71.5502236,64.9764217 71.6808634,64.9910964 71.8242484,65.0267349 C71.9803789,65.0623735 72.1545652,65.0875301 72.3266273,65.1126867 C72.4976273,65.1326024 72.6590683,65.157759 72.8205093,65.1933976 C73.2092422,65.314988 73.5608012,65.451253 73.8804969,65.5822771 C74.2033789,65.7342651 74.5103292,65.8904458 74.7896646,66.092747 C75.2962919,66.4365542 75.7062671,66.8411566 76.018528,67.3369518 C76.3307888,67.8264578 76.5878199,68.3924819 76.7917453,69.0496988 C76.8331677,69.2216024 76.8512236,69.3683494 76.8639689,69.545494 C76.8745901,69.7173976 76.9000807,69.8735783 76.940441,70.040241 L76.940441,70.3389759 C76.9606211,70.4396024 76.9659317,70.5465181 76.9531863,70.6775422 C76.9436273,70.8085663 76.930882,70.9207229 76.9149503,71.0213494 L76.9149503,71.3441928 C76.8745901,71.5160964 76.8437888,71.6576024 76.8352919,71.8053976 C76.8278571,71.9416627 76.8023665,72.0779277 76.7620062,72.2246747 C76.6589814,72.5171205 76.5612671,72.8001325 76.4699255,73.0632289 C76.379646,73.3368072 76.2543168,73.5936145 76.0928758,73.8367952 C76.0344596,73.9321807 75.9696708,74.0181325 75.8931988,74.1040843 C75.8262857,74.1858434 75.7604348,74.2665542 75.7009565,74.3671807 C75.6786522,74.3923373 75.6627205,74.4080602 75.639354,74.417494 C75.6191739,74.4227349 75.5989938,74.4384578 75.5756273,74.4583735 C75.5373913,74.499253 75.4959689,74.5548072 75.4407391,74.6197952 C75.3940062,74.6659157 75.3430248,74.7162289 75.3016025,74.7571084 C75.1433478,74.8828916 74.9946522,74.994 74.8533913,75.0998675 C74.7046957,75.2120241 74.5591863,75.3178916 74.3924348,75.4132771 C74.2957826,75.4740723 74.2033789,75.5453494 74.1269068,75.6113855 C74.0472484,75.6816145 73.9930807,75.7780482 73.9782112,75.8985904 C73.9527205,76.0149398 74.0005155,76.1166145 74.1130994,76.1920843 C74.2214348,76.2780361 74.3212733,76.3283494 74.3924348,76.3786627 C74.6176025,76.5107349 74.8257764,76.6616747 75.0148323,76.8241446 C75.2091988,76.9803253 75.3780745,77.1731928 75.5172112,77.3849277 C75.7349441,77.6679398 75.8985093,77.9813494 76.0036584,78.3356386 C76.0981863,78.6836386 76.2033354,79.0484096 76.3052981,79.4519639 C76.3265404,79.6133855 76.3467205,79.7601325 76.3669006,79.9173614 C76.3902671,80.0641084 76.4051366,80.2160964 76.4263789,80.382759 C76.4646149,80.5085422 76.475236,80.6605301 76.4539938,80.7967952 C76.4391242,80.9330602 76.446559,81.0745663 76.4879814,81.2160723 L76.4879814,81.4844096 C76.5262174,81.6259157 76.5336522,81.7674217 76.5177205,81.9288434 C76.4922298,82.0913133 76.5049752,82.2527349 76.5485217,82.4089157 C76.5665776,82.4854337 76.5718882,82.5609036 76.5612671,82.6363735 C76.5517081,82.7024096 76.5570186,82.7883614 76.5771988,82.883747 C76.6186211,83.0860482 76.6483602,83.2883494 76.6696025,83.4958916 C76.684472,83.7034337 76.7280186,83.900494 76.7917453,84.0870723 C76.8331677,84.2086627 76.8512236,84.3197711 76.8639689,84.4308795 C76.8745901,84.536747 76.9000807,84.6530964 76.940441,84.7694458 L77.2144658,85.4874578 L77.2144658,85.4874578 Z" id="Fill-90"></path>
                    <path d="M82.7969255,64.9554578 L95.304354,64.9554578 C95.5242112,64.9554578 95.750441,64.9554578 95.9702981,64.9407831 C96.1986522,64.9303012 96.3749627,64.9764217 96.5162236,65.0822892 C96.5746398,65.1221205 96.6288075,65.168241 96.6691677,65.2237952 C96.7074037,65.2793494 96.7488261,65.3495783 96.7902484,65.4061807 C96.833795,65.5476867 96.8486646,65.7699036 96.8486646,66.0780723 C96.8486646,66.3914819 96.833795,66.6189398 96.7902484,66.7856024 C96.7074037,67.0581325 96.5364037,67.2153614 96.273,67.245759 C96.0138447,67.2761566 95.6941491,67.2855904 95.3351553,67.2855904 L87.2227453,67.2855904 C86.8977391,67.2855904 86.5132547,67.2813976 86.0884099,67.2761566 C85.6529441,67.2604337 85.3300621,67.3212289 85.1303851,67.4375783 C84.9307081,67.5539277 84.8234348,67.7656627 84.8181242,68.0696386 C84.8021925,68.3631325 84.796882,68.6713012 84.796882,68.9899518 L84.796882,72.0422892 C84.796882,72.2550723 84.7926335,72.5171205 84.787323,72.8106145 C84.7745776,73.1135422 84.7926335,73.3567229 84.8276832,73.5328193 C84.8892857,73.776 85.0071801,73.9321807 85.1941118,74.0139398 C85.271646,74.0485301 85.4171553,74.0946506 85.6147081,74.1302892 L85.9163478,74.1302892 C85.9981304,74.1554458 86.0884099,74.1554458 86.1755031,74.1502048 C86.2700311,74.1397229 86.3571242,74.1302892 86.4622733,74.1302892 L93.4297267,74.1302892 C93.6113478,74.1302892 93.8089006,74.1302892 94.0340683,74.1198072 C94.2549876,74.1093253 94.4822795,74.1093253 94.7106335,74.1198072 C94.9485466,74.1302892 95.1588447,74.1502048 95.3532112,74.1806024 C95.5401429,74.205759 95.6856522,74.2508313 95.7908012,74.3116265 C95.8524037,74.352506 95.9012609,74.4384578 95.9394969,74.5799639 C95.9830435,74.7162289 96.0138447,74.8724096 96.0287143,75.0243976 C96.0552671,75.1858193 96.0573913,75.3482892 96.0499565,75.5201928 C96.0372112,75.6920964 96.0138447,75.8336024 95.9702981,75.9541446 C95.9267516,76.1312892 95.8417826,76.2633614 95.6941491,76.3440723 C95.6580373,76.3839036 95.6038696,76.4143012 95.5295217,76.4195422 C95.4604845,76.4300241 95.3967578,76.4446988 95.3351553,76.4604217 L95.1556584,76.4604217 C95.0536957,76.4855783 94.9538571,76.4897711 94.8508323,76.4750964 C94.7488696,76.4646145 94.6469068,76.4604217 94.543882,76.4604217 L87.0379379,76.4604217 C86.8000248,76.4604217 86.5568012,76.4551807 86.3284472,76.4446988 C86.0937205,76.4300241 85.8781118,76.4446988 85.6763106,76.4750964 C85.4755714,76.505494 85.2971366,76.5610482 85.1431304,76.6365181 C84.9923106,76.7182771 84.8892857,76.8597831 84.8276832,77.0568434 C84.7926335,77.1826265 84.7745776,77.3146988 84.787323,77.4761205 C84.7926335,77.6427831 84.796882,77.7947711 84.796882,77.9614337 L84.796882,82.4697108 C84.796882,82.7474819 84.8075031,83.0000964 84.8276832,83.2327952 C84.8489255,83.465494 84.9307081,83.6269157 85.0709068,83.7285904 C85.2121677,83.8292169 85.3757329,83.8805783 85.5531056,83.890012 C85.7400373,83.900494 85.936528,83.900494 86.1595714,83.900494 L95.4222484,83.900494 C95.5858137,83.900494 95.750441,83.900494 95.911882,83.890012 C96.0722609,83.8805783 96.2135217,83.890012 96.3314161,83.9403253 C96.5746398,84.0116024 96.7413913,84.1279518 96.8210497,84.2589759 C96.8592857,84.325012 96.8869006,84.4214458 96.9081429,84.5524699 C96.928323,84.7044578 96.9506273,84.8449157 96.9538137,84.9969036 C96.9644348,85.1436506 96.9591242,85.2998313 96.9410683,85.4465783 C96.9177019,85.5880843 96.8975217,85.7044337 96.8847764,85.7851446 C96.7998075,85.9423735 96.7074037,86.0534819 96.605441,86.1142771 C96.4875466,86.2002289 96.3314161,86.2306265 96.1317391,86.2306265 L95.5783789,86.2306265 L83.2844348,86.2306265 C83.0050994,86.2306265 82.7586894,86.2149036 82.5568882,86.194988 C82.3572112,86.1645904 82.2085155,86.0692048 82.1033665,85.9067349 C82.0237081,85.7851446 81.985472,85.6289639 81.985472,85.4465783 L81.985472,84.8910361 L81.985472,66.239494 L81.985472,65.7038675 C81.985472,65.5319639 82.0237081,65.3799759 82.1033665,65.2793494 C82.1777143,65.1525181 82.3359689,65.0466506 82.5568882,64.9858554 C82.593,64.9659398 82.6333602,64.9659398 82.6769068,64.9711807 C82.7204534,64.9764217 82.7586894,64.9764217 82.7969255,64.9554578" id="Fill-91"></path>
                    <path d="M108.372578,64.5110241 C109.519658,64.4701446 110.54141,64.5560964 111.427211,64.7741205 C112.318323,64.9910964 113.104286,65.3296627 113.786161,65.7646627 C113.911491,65.8453735 114.029385,65.9166506 114.136658,65.9722048 C114.243932,66.0319518 114.352267,66.1137108 114.457416,66.2143373 C114.492466,66.2604578 114.536012,66.2898072 114.575311,66.3202048 C114.617795,66.3411687 114.657093,66.386241 114.695329,66.4218795 C114.741,66.4617108 114.786671,66.5078313 114.849335,66.5581446 C114.913062,66.6084578 114.960857,66.6545783 115.004404,66.7195663 C115.079814,66.8254337 115.165845,66.9218675 115.243379,67.0183012 C115.325161,67.1241687 115.406944,67.2153614 115.486602,67.3212289 C115.563075,67.4229036 115.629988,67.5235301 115.680969,67.6293976 C115.729826,67.745747 115.788242,67.8568554 115.853031,67.9480482 C116.031466,68.2205783 116.172727,68.5392289 116.272565,68.8935181 C116.372404,69.2373253 116.470118,69.5958072 116.575267,69.975253 C116.615627,70.1419157 116.628373,70.3085783 116.620938,70.5056386 C116.610317,70.6880241 116.575267,70.8295301 116.517913,70.9353976 C116.413826,71.0769036 116.252385,71.1576145 116.031466,71.1785783 C115.806298,71.193253 115.573696,71.2079277 115.33472,71.2079277 L115.061758,71.2079277 C114.978913,71.2079277 114.902441,71.193253 114.820658,71.1785783 C114.72082,71.1576145 114.631602,71.1429398 114.559379,71.1429398 C114.490342,71.1429398 114.415994,71.1272169 114.336335,71.0873855 C114.292789,71.0611807 114.252429,71.0307831 114.214193,71.0108675 C114.17277,70.9804699 114.134534,70.9500723 114.087801,70.905 C113.969907,70.7226145 113.882814,70.5056386 113.835019,70.2477831 C113.786161,69.9846867 113.709689,69.7572289 113.611975,69.5601687 C113.265727,68.7666867 112.777155,68.1650241 112.154758,67.7656627 C111.691677,67.4480602 111.133006,67.2101205 110.490429,67.0486988 C110.367224,67.0078193 110.251453,66.9879036 110.124,66.9669398 C110.006106,66.957506 109.880776,66.9417831 109.762882,66.9019518 L109.519658,66.9019518 C109.361404,66.8558313 109.199963,66.8411566 109.035335,66.8411566 L108.554199,66.8411566 C107.501646,66.8411566 106.62328,67.0025783 105.916975,67.3212289 C105.517621,67.4784578 105.151193,67.6901928 104.825124,67.9637711 C104.503304,68.2258193 104.260081,68.5643855 104.10395,68.963747 C104.021106,69.1209759 103.962689,69.2876386 103.935075,69.4595422 C103.903211,69.6262048 103.868161,69.8127831 103.826739,70.0098434 C103.790627,70.1670723 103.772571,70.3494578 103.781068,70.5465181 C103.795938,70.7488193 103.813994,70.9154819 103.85754,71.056988 C104.000925,71.5160964 104.177236,71.8599036 104.39072,72.1030843 C104.603143,72.3410241 104.897348,72.5684819 105.287143,72.7906988 C105.726857,73.0632289 106.218615,73.276012 106.768789,73.4122771 C107.309404,73.5590241 107.873385,73.7047229 108.459671,73.8567108 C108.646602,73.9028313 108.826099,73.9321807 109.00772,73.9531446 C109.187217,73.9783012 109.370963,74.0139398 109.552584,74.0789277 C109.83723,74.1554458 110.129311,74.2204337 110.443696,74.2613133 C110.755957,74.3168675 111.053348,74.3923373 111.337994,74.494012 C111.417652,74.5139277 111.488814,74.5296506 111.550416,74.5390843 C111.606708,74.5443253 111.681056,74.559 111.760714,74.5799639 C111.94446,74.6197952 112.126081,74.6606747 112.300267,74.7162289 C112.487199,74.7613012 112.664571,74.8220964 112.853627,74.8828916 C113.252981,75.0139157 113.650211,75.1659036 114.034696,75.3273253 C114.415994,75.4897952 114.779236,75.6763735 115.120174,75.8985904 C115.563075,76.1763614 115.965615,76.500253 116.318236,76.8692169 C116.675106,77.2381807 116.956565,77.6679398 117.183857,78.1679277 C117.258205,78.3503133 117.319807,78.5274578 117.363354,78.7087952 C117.404776,78.8859398 117.443012,79.0683253 117.484435,79.2706265 C117.522671,79.371253 117.542851,79.4823614 117.542851,79.6186265 C117.542851,79.7454578 117.560907,79.8670482 117.604453,79.9928313 L117.604453,80.589253 C117.586398,80.6657711 117.571528,80.741241 117.571528,80.8219518 L117.571528,81.0693253 C117.530106,81.2213133 117.506739,81.3879759 117.496118,81.5651205 C117.484435,81.7265422 117.452571,81.8984458 117.394155,82.0451928 C117.294317,82.3533614 117.183857,82.6416145 117.058528,82.9193855 C116.936385,83.1929639 116.784503,83.4508193 116.610317,83.6981928 C116.26513,84.2139036 115.829665,84.6530964 115.307106,85.0073855 C114.779236,85.3711084 114.214193,85.689759 113.611975,85.9675301 C113.401677,86.043 113.212621,86.1142771 113.020379,86.1750723 C112.826012,86.2306265 112.617839,86.2966627 112.397981,86.3511687 C112.174938,86.4329277 111.94446,86.4926747 111.699112,86.5136386 C111.458012,86.5534699 111.212665,86.5943494 110.973689,86.6551446 C110.869602,86.6698193 110.766578,86.6803012 110.653994,86.6803012 C110.54672,86.6803012 110.438385,86.7002169 110.336422,86.7201325 C110.216404,86.7201325 110.096385,86.7201325 109.97318,86.7306145 C109.855286,86.7358554 109.732081,86.7410964 109.606752,86.7410964 C109.509037,86.761012 109.365652,86.771494 109.17341,86.771494 C108.976919,86.771494 108.835658,86.761012 108.733696,86.7410964 L108.394882,86.7410964 C108.200516,86.7106988 107.995528,86.6803012 107.795851,86.6803012 C107.590863,86.6803012 107.401807,86.6645783 107.217,86.624747 C107.140528,86.6048313 107.058745,86.5891084 106.979087,86.5744337 C106.89518,86.5639518 106.804901,86.5534699 106.702938,86.5283133 C106.479894,86.4926747 106.274907,86.4528434 106.085851,86.4172048 C105.891484,86.3826145 105.696056,86.3113373 105.494255,86.2306265 C104.503304,85.9172169 103.670609,85.5021325 102.99723,85.0073855 C102.323851,84.5168313 101.737565,83.8596145 101.251118,83.0661325 C101.089677,82.8030361 100.959037,82.530506 100.848578,82.2621687 C100.73387,81.9791566 100.62872,81.6867108 100.528882,81.3575783 C100.48746,81.2464699 100.461969,81.1206867 100.454534,81.0043373 C100.441789,80.887988 100.416298,80.7810723 100.374876,80.6804458 C100.333453,80.4980602 100.320708,80.2968072 100.320708,80.0641084 C100.320708,79.8366506 100.364255,79.669988 100.464093,79.5735542 C100.569242,79.4372892 100.73387,79.3513373 100.964348,79.3314217 C101.19695,79.3156988 101.427429,79.3104578 101.647286,79.3104578 L101.908565,79.3104578 C101.993534,79.3104578 102.073193,79.3156988 102.136919,79.3314217 C102.233571,79.3513373 102.31323,79.3513373 102.369522,79.3513373 C102.434311,79.3408554 102.505472,79.3513373 102.587255,79.3922169 C102.725329,79.4676867 102.817733,79.5536386 102.859155,79.6291084 C102.920758,79.7307831 102.953683,79.8366506 102.964304,79.947759 C102.973863,80.0588675 103.00254,80.1647349 103.040776,80.2915663 C103.079012,80.4225904 103.117248,80.5640964 103.145925,80.7108434 C103.178851,80.8418675 103.225584,80.9886145 103.284,81.1206867 C103.627062,81.9791566 104.142186,82.6615301 104.825124,83.1573253 C105.166062,83.4099398 105.539925,83.6269157 105.94459,83.7841446 C106.351379,83.9455663 106.786845,84.0923133 107.247801,84.2338193 C107.412429,84.2694578 107.575994,84.3040482 107.735311,84.325012 C107.895689,84.3449277 108.05713,84.3606506 108.216447,84.3805663 C108.256807,84.3805663 108.313099,84.3858072 108.372578,84.4004819 C108.42887,84.4109639 108.492596,84.4214458 108.554199,84.4214458 C108.633857,84.4361205 108.728385,84.4361205 108.838845,84.4214458 C108.948242,84.39 109.058702,84.4057229 109.15854,84.4413614 C109.240323,84.4612771 109.358217,84.4665181 109.504789,84.4665181 C109.660919,84.4665181 109.783062,84.4507952 109.880776,84.4214458 L110.096385,84.4214458 C110.198348,84.39 110.292876,84.3805663 110.395901,84.3805663 C110.497863,84.3805663 110.600888,84.3700843 110.69754,84.3449277 C110.761267,84.335494 110.815435,84.325012 110.869602,84.3396867 C110.91846,84.3449277 110.982186,84.335494 111.066093,84.2946145 C111.227534,84.2537349 111.394286,84.2139036 111.581217,84.183506 C111.760714,84.1531084 111.931714,84.1122289 112.093155,84.0524819 C112.617839,83.8344578 113.087292,83.5818434 113.501516,83.2883494 C113.913615,83.0000964 114.234373,82.6007349 114.457416,82.1112289 C114.515832,81.948759 114.564689,81.7978193 114.60505,81.6353494 C114.648596,81.4791687 114.690019,81.317747 114.728255,81.1510843 C114.766491,80.9938554 114.786671,80.8072771 114.786671,80.589253 C114.786671,80.3670361 114.766491,80.1898916 114.728255,80.0536265 C114.690019,79.947759 114.666652,79.8618072 114.666652,79.7905301 C114.666652,79.7255422 114.648596,79.6490241 114.60505,79.5735542 C114.485031,79.234988 114.326776,78.9467349 114.121789,78.7245181 C113.924236,78.4865783 113.673578,78.2748434 113.394242,78.0777831 C112.969398,77.7790482 112.495696,77.5369157 111.96995,77.3597711 C111.448453,77.1826265 110.900404,77.0264458 110.318366,76.8943735 C109.750137,76.7633494 109.15854,76.6365181 108.554199,76.5201687 C107.944547,76.4048675 107.360385,76.2633614 106.797466,76.1061325 C106.47246,76.005506 106.149578,75.9195542 105.824571,75.8535181 C105.501689,75.7832892 105.20005,75.6868554 104.920714,75.570506 C104.879292,75.5505904 104.84318,75.5401084 104.825124,75.5401084 C104.80813,75.5401084 104.779453,75.5254337 104.735907,75.5097108 C104.53623,75.429 104.325932,75.3482892 104.131565,75.2665301 C103.929764,75.1858193 103.737522,75.0799518 103.555901,74.9636024 C103.086447,74.6858313 102.669037,74.3881446 102.280304,74.059012 C101.904317,73.7309277 101.598429,73.3011687 101.373261,72.7906988 C101.276609,72.6135542 101.204385,72.411253 101.164025,72.204759 C101.122602,71.9919759 101.068435,71.7896747 101.012143,71.5569759 C101.012143,71.486747 101.007894,71.4102289 100.995149,71.3441928 C100.986652,71.2938795 100.981342,71.2341325 100.981342,71.1785783 C100.920801,70.9353976 100.915491,70.6324699 100.953727,70.263506 C100.991963,69.8893012 101.04613,69.6062892 101.109857,69.4134217 C101.164025,69.1912048 101.222441,68.9794699 101.263863,68.7824096 C101.32228,68.5801084 101.383882,68.3924819 101.467789,68.2111446 C101.747124,67.6199639 102.113553,67.1147349 102.55964,66.7101325 C103.00254,66.3002892 103.496422,65.9260843 104.042348,65.5822771 C104.085894,65.5476867 104.131565,65.5214819 104.193168,65.5068072 C104.252646,65.5015663 104.303627,65.4764096 104.343988,65.4355301 C104.784764,65.2237952 105.302012,65.0319759 105.888298,64.869506 C106.044429,64.8349157 106.198435,64.7940361 106.34182,64.7688795 C106.479894,64.733241 106.630714,64.7028434 106.797466,64.6525301 C106.953596,64.6221325 107.135217,64.5969759 107.322149,64.5969759 C107.519702,64.5969759 107.693888,64.5718193 107.855329,64.5309398 C107.913745,64.526747 108.006149,64.526747 108.126168,64.5309398 C108.252559,64.5560964 108.329031,64.5466627 108.372578,64.5110241" id="Fill-92"></path>
                    <path d="M138.659758,76.1312892 C138.697994,76.0306627 138.72136,75.858759 138.72136,75.6113855 C138.72136,75.3629639 138.697994,75.1858193 138.659758,75.0799518 L138.659758,74.852494 C138.659758,74.7518675 138.659758,74.6606747 138.647012,74.5799639 C138.636391,74.499253 138.631081,74.4133012 138.631081,74.3116265 C138.592845,74.211 138.576913,74.1198072 138.58541,74.0286145 C138.592845,73.9374217 138.582224,73.8462289 138.541863,73.7403614 C138.500441,73.5632169 138.467516,73.3871205 138.436714,73.2047349 C138.403789,73.0181566 138.369801,72.8556867 138.329441,72.6942651 C138.231727,72.416494 138.144634,72.1533976 138.07241,71.9060241 C138.001248,71.6534096 137.917342,71.4102289 137.812193,71.1785783 C137.473379,70.3588916 137.002863,69.6209639 136.405957,68.963747 C135.811174,68.3065301 135.108056,67.7960602 134.302975,67.4375783 C133.85795,67.2352771 133.333267,67.0790964 132.727863,66.957506 C132.44428,66.8820361 132.128832,66.8359157 131.778335,66.8254337 C131.419342,66.816 131.077342,66.810759 130.727907,66.810759 C130.593019,66.8306747 130.451758,66.8411566 130.318994,66.8463976 C130.193665,66.8610723 130.041783,66.8820361 129.883528,66.9019518 C129.580826,66.9826627 129.294056,67.0528916 129.023217,67.1294096 C128.746006,67.2006867 128.480478,67.2813976 128.221323,67.3820241 C127.12841,67.8369398 126.268099,68.4889157 125.645702,69.3484337 C125.020118,70.2079518 124.50818,71.2131687 124.132193,72.3714217 C124.052534,72.5883976 123.993056,72.8106145 123.963317,73.0485542 C123.929329,73.2707711 123.887907,73.5034699 123.822056,73.7403614 C123.804,73.8462289 123.796565,73.9374217 123.796565,74.0286145 C123.796565,74.1198072 123.785944,74.211 123.767888,74.3116265 C123.729652,74.3923373 123.711596,74.4730482 123.719031,74.564241 C123.734963,74.6606747 123.729652,74.7413855 123.704161,74.8220964 L123.704161,75.0799518 C123.686106,75.1858193 123.675484,75.3682048 123.675484,75.6208193 C123.675484,75.8839157 123.686106,76.065253 123.704161,76.1669277 C123.704161,76.2423976 123.711596,76.3231084 123.719031,76.3891446 C123.734963,76.4551807 123.737087,76.5306506 123.737087,76.6113614 C123.778509,76.7685904 123.798689,76.9457349 123.814621,77.1375542 C123.819932,77.3188916 123.852857,77.4960361 123.887907,77.6532651 C123.905963,77.7392169 123.911273,77.8094458 123.901714,77.8849157 C123.896404,77.9561928 123.905963,78.0222289 123.949509,78.1029398 C124.008988,78.3251566 124.057845,78.5473735 124.098205,78.7601566 C124.139627,78.9823735 124.208665,79.2098313 124.310627,79.4215663 C124.410466,79.6395904 124.495435,79.8618072 124.571907,80.0641084 C124.642006,80.2706024 124.733348,80.4781446 124.854429,80.6804458 C124.956391,80.8324337 125.05623,80.9886145 125.143323,81.1353614 C125.237851,81.2925904 125.332379,81.4435301 125.435404,81.6101928 C126.059925,82.4801928 126.871379,83.1678072 127.880385,83.6677952 C128.165031,83.8292169 128.449677,83.9455663 128.746006,84.0220843 C129.041273,84.1027952 129.355658,84.193988 129.704031,84.2946145 C129.842106,84.335494 129.972745,84.3449277 130.093826,84.3396867 C130.215969,84.325012 130.346609,84.3449277 130.489994,84.3805663 C130.607888,84.4214458 130.745963,84.4413614 130.897845,84.4308795 C131.050789,84.4214458 131.204795,84.4214458 131.36836,84.4214458 L131.673186,84.4214458 C131.776211,84.39 131.872863,84.3753253 131.972702,84.3648434 C132.077851,84.3554096 132.177689,84.3449277 132.275404,84.3449277 C132.558988,84.2946145 132.823453,84.2443012 133.081547,84.2086627 C133.330081,84.1583494 133.567994,84.0923133 133.791037,83.9958795 C134.820224,83.5766024 135.665665,83.030494 136.316739,82.3533614 C136.972062,81.670988 137.514801,80.8219518 137.937522,79.8167349 C138.034174,79.5536386 138.124453,79.2800602 138.193491,79.0022892 C138.264652,78.7245181 138.342186,78.446747 138.423969,78.1679277 C138.460081,78.0421446 138.487696,77.9205542 138.493006,77.7895301 C138.505752,77.6626988 138.533366,77.5316747 138.572665,77.3849277 L138.659758,76.4048675 L138.659758,76.1312892 L138.659758,76.1312892 Z M141.511528,75.1763855 C141.525335,75.277012 141.538081,75.4185181 141.538081,75.6113855 C141.538081,75.7979639 141.525335,75.9394699 141.511528,76.0400964 L141.511528,76.4048675 C141.463733,76.6019277 141.445677,76.8031807 141.445677,77.0159639 C141.445677,77.223506 141.427621,77.4153253 141.389385,77.5966627 C141.347963,77.7591325 141.320348,77.9058795 141.296981,78.0421446 C141.276801,78.1888916 141.251311,78.3356386 141.235379,78.4970602 C141.133416,78.8356265 141.043137,79.1595181 140.96454,79.4771205 C140.879571,79.801012 140.777609,80.1091807 140.656528,80.4079157 C140.052186,81.8638554 139.258789,83.0818554 138.282708,84.0524819 C137.304503,85.0325422 136.028907,85.7809518 134.459106,86.2966627 C134.226503,86.3511687 134.011957,86.4077711 133.791037,86.4476024 C133.567994,86.4884819 133.346012,86.5283133 133.120845,86.5943494 C133.02313,86.619506 132.930727,86.624747 132.843634,86.624747 C132.77141,86.624747 132.687503,86.629988 132.611031,86.6551446 L131.60946,86.7410964 C131.540422,86.761012 131.415093,86.771494 131.199484,86.761012 C130.987062,86.7463373 130.848988,86.7306145 130.789509,86.7201325 C130.692857,86.7002169 130.597267,86.6855422 130.502739,86.7002169 C130.413522,86.7106988 130.323242,86.7106988 130.24677,86.6803012 L129.914329,86.6803012 C129.770944,86.6394217 129.634994,86.619506 129.504354,86.6100723 C129.368404,86.5995904 129.237764,86.5744337 129.094379,86.5639518 C128.889391,86.5031566 128.700335,86.4633253 128.505969,86.4224458 C128.311602,86.3972892 128.121484,86.3511687 127.919683,86.2966627 C127.714696,86.2149036 127.509708,86.1394337 127.306845,86.0534819 C127.110354,85.983253 126.910677,85.8973012 126.700379,85.8113494 C125.47364,85.2799157 124.457199,84.536747 123.658491,83.5923253 C122.861907,82.6468554 122.201273,81.5399639 121.680839,80.2915663 C121.553385,80.0085542 121.468416,79.7203012 121.404689,79.4215663 C121.337776,79.1238795 121.265553,78.8052289 121.16359,78.4970602 C121.120043,78.4163494 121.105174,78.3503133 121.117919,78.2895181 C121.125354,78.2234819 121.114733,78.148012 121.069062,78.0421446 C121.030826,77.9058795 121.01277,77.7591325 121.01277,77.5966627 C121.01277,77.435241 120.99259,77.2790602 120.949043,77.1176386 C120.909745,77.0411205 120.892752,76.9604096 120.905497,76.8796988 C120.915056,76.8031807 120.909745,76.7277108 120.892752,76.6721566 L120.892752,76.0400964 C120.851329,75.9394699 120.827963,75.8084458 120.827963,75.6208193 C120.827963,75.4436747 120.851329,75.3074096 120.892752,75.2120241 L120.892752,74.8220964 L120.979845,73.7403614 C121.018081,73.6187711 121.040385,73.5034699 121.040385,73.3871205 C121.040385,73.2707711 121.061627,73.1544217 121.099863,73.0181566 C121.181646,72.704747 121.255994,72.3913373 121.31441,72.0831687 C121.373888,71.7844337 121.468416,71.486747 121.586311,71.2079277 C121.747752,70.8242892 121.898571,70.4605663 122.036646,70.0957952 C122.180031,69.7373133 122.366963,69.398747 122.582571,69.0853373 C123.150801,68.1912289 123.816745,67.4124217 124.582528,66.7447229 C125.350435,66.092747 126.259602,65.5518795 127.306845,65.1378434 C127.535199,65.0414096 127.767801,64.9554578 128.02377,64.8999036 C128.275491,64.8391084 128.533584,64.7688795 128.792739,64.6881687 C128.914882,64.6472892 129.041273,64.6273735 129.171913,64.6273735 C129.299366,64.6273735 129.430006,64.6074578 129.550025,64.5665783 C129.711466,64.5466627 129.867596,64.5309398 130.019478,64.5309398 C130.170298,64.5162651 130.323242,64.5005422 130.489994,64.4806265 C130.529292,64.4607108 130.580273,64.4607108 130.636565,64.4806265 C130.705602,64.5005422 130.751273,64.5005422 130.789509,64.4806265 C132.141578,64.444988 133.32477,64.5718193 134.331652,64.879988 C135.342783,65.1933976 136.229646,65.6126747 136.997553,66.1535422 C137.297068,66.3558434 137.596584,66.5581446 137.878043,66.7856024 C138.157379,67.0025783 138.413348,67.251 138.631081,67.5235301 C138.690559,67.6293976 138.759596,67.7101084 138.841379,67.7656627 C138.925286,67.8264578 138.990075,67.8977349 139.053801,68.0036024 C139.17382,68.1650241 139.293839,68.327494 139.422354,68.4993976 C139.540248,68.6660602 139.647522,68.8327229 139.750547,68.9899518 C139.794093,69.0905783 139.832329,69.1765301 139.868441,69.2425663 C139.908801,69.3180361 139.962969,69.398747 140.021385,69.4993735 C140.106354,69.6209639 140.175391,69.7373133 140.236994,69.8589036 C140.395248,70.2226265 140.556689,70.5915904 140.723441,70.9909518 C140.759553,71.1167349 140.799913,71.2288916 140.825404,71.334759 C140.854081,71.4458675 140.892317,71.5569759 140.930553,71.6838072 C140.995342,71.8850602 141.043137,72.0831687 141.09518,72.2896627 C141.146161,72.4972048 141.202453,72.709988 141.26618,72.9374458 C141.304416,73.0380723 141.325658,73.1386988 141.325658,73.2403735 C141.325658,73.3368072 141.335217,73.4321928 141.353273,73.5328193 C141.391509,73.6753735 141.414876,73.8168795 141.414876,73.9531446 C141.414876,74.0946506 141.435056,74.2413976 141.473292,74.4028193 L141.473292,74.5799639 C141.496658,74.6753494 141.496658,74.7717831 141.473292,74.8828916 C141.456298,74.9740843 141.463733,75.0747108 141.511528,75.1763855 L141.511528,75.1763855 Z" id="Fill-93"></path>
                    <path d="M152.96428,64.5110241 C154.121981,64.4701446 155.133112,64.5560964 156.022099,64.7741205 C156.915335,64.9910964 157.699174,65.3296627 158.385298,65.7646627 C158.503193,65.8453735 158.618963,65.9166506 158.733671,65.9722048 C158.846255,66.0319518 158.94928,66.1137108 159.051242,66.2143373 C159.089478,66.2604578 159.135149,66.2898072 159.171261,66.3202048 C159.212683,66.3411687 159.25623,66.386241 159.292342,66.4218795 C159.327391,66.4617108 159.381559,66.5078313 159.445286,66.5581446 C159.504764,66.6084578 159.553621,66.6545783 159.597168,66.7195663 C159.67364,66.8254337 159.755422,66.9218675 159.840391,67.0183012 C159.918988,67.1241687 160.001832,67.2153614 160.080429,67.3212289 C160.160087,67.4229036 160.223814,67.5235301 160.277981,67.6293976 C160.326839,67.745747 160.385255,67.8568554 160.441547,67.9480482 C160.626354,68.2205783 160.771863,68.5392289 160.869578,68.8935181 C160.969416,69.2373253 161.071379,69.5958072 161.169093,69.975253 C161.210516,70.1419157 161.220075,70.3085783 161.214764,70.5056386 C161.205205,70.6880241 161.169093,70.8295301 161.107491,70.9353976 C161.007652,71.0769036 160.849398,71.1576145 160.626354,71.1785783 C160.401186,71.193253 160.167522,71.2079277 159.927484,71.2079277 L159.655584,71.2079277 C159.579112,71.2079277 159.496267,71.193253 159.41236,71.1785783 C159.312522,71.1576145 159.223304,71.1429398 159.158516,71.1429398 C159.087354,71.1429398 159.007696,71.1272169 158.931224,71.0873855 C158.884491,71.0611807 158.849441,71.0307831 158.810143,71.0108675 C158.769783,70.9804699 158.726236,70.9500723 158.690124,70.905 C158.570106,70.7226145 158.479826,70.5056386 158.432031,70.2477831 C158.377863,69.9846867 158.301391,69.7572289 158.198366,69.5601687 C157.860615,68.7666867 157.374168,68.1650241 156.753894,67.7656627 C156.285503,67.4480602 155.730019,67.2101205 155.08213,67.0486988 C154.962112,67.0078193 154.838907,66.9879036 154.721012,66.9669398 C154.600994,66.957506 154.483099,66.9417831 154.35777,66.9019518 L154.121981,66.9019518 C153.95523,66.8558313 153.799099,66.8411566 153.635534,66.8411566 L153.145901,66.8411566 C152.100783,66.8411566 151.227727,67.0025783 150.516112,67.3212289 C150.111447,67.4784578 149.752453,67.6901928 149.430634,67.9637711 C149.100317,68.2258193 148.859217,68.5643855 148.695652,68.963747 C148.618118,69.1209759 148.561826,69.2876386 148.531025,69.4595422 C148.500224,69.6262048 148.467298,69.8127831 148.423752,70.0098434 C148.383391,70.1670723 148.37277,70.3494578 148.378081,70.5465181 C148.390826,70.7488193 148.416317,70.9154819 148.456677,71.056988 C148.592627,71.5160964 148.774248,71.8599036 148.989857,72.1030843 C149.200155,72.3410241 149.49436,72.5684819 149.878845,72.7906988 C150.321745,73.0632289 150.818814,73.276012 151.366863,73.4122771 C151.909602,73.5590241 152.474646,73.7047229 153.060932,73.8567108 C153.235118,73.9028313 153.419925,73.9321807 153.606857,73.9531446 C153.781043,73.9783012 153.967975,74.0139398 154.147472,74.0789277 C154.428932,74.1554458 154.726323,74.2204337 155.038584,74.2613133 C155.350845,74.3168675 155.653547,74.3923373 155.93182,74.494012 C156.013602,74.5139277 156.091137,74.5296506 156.139994,74.5390843 C156.205845,74.5443253 156.278068,74.559 156.359851,74.5799639 C156.539348,74.6197952 156.718845,74.6606747 156.90259,74.7162289 C157.084211,74.7613012 157.266894,74.8220964 157.445329,74.8828916 C157.845745,75.0139157 158.241913,75.1659036 158.628522,75.3273253 C159.007696,75.4897952 159.370938,75.6763735 159.719311,75.8985904 C160.160087,76.1763614 160.559441,76.500253 160.909938,76.8692169 C161.261497,77.2381807 161.550391,77.6679398 161.773435,78.1679277 C161.858404,78.3503133 161.911509,78.5274578 161.958242,78.7087952 C161.998602,78.8859398 162.040025,79.0683253 162.078261,79.2706265 C162.118621,79.371253 162.145174,79.4823614 162.145174,79.6186265 C162.145174,79.7454578 162.157919,79.8670482 162.19828,79.9928313 L162.19828,80.589253 C162.18341,80.6657711 162.167478,80.741241 162.167478,80.8219518 L162.167478,81.0693253 C162.127118,81.2213133 162.101627,81.3879759 162.091006,81.5651205 C162.080385,81.7265422 162.049584,81.8984458 161.983733,82.0451928 C161.889205,82.3533614 161.773435,82.6416145 161.65554,82.9193855 C161.532335,83.1929639 161.381516,83.4508193 161.199894,83.6981928 C160.851522,84.2139036 160.421366,84.6530964 159.898807,85.0073855 C159.370938,85.3711084 158.810143,85.689759 158.198366,85.9675301 C158.000814,86.043 157.806447,86.1142771 157.609957,86.1750723 C157.419839,86.2306265 157.214851,86.2966627 156.989683,86.3511687 C156.775137,86.4329277 156.539348,86.4926747 156.296124,86.5136386 C156.052901,86.5534699 155.813925,86.5943494 155.566453,86.6551446 C155.465553,86.6698193 155.361466,86.6803012 155.248882,86.6803012 C155.138422,86.6803012 155.033273,86.7002169 154.933435,86.7201325 C154.81554,86.7201325 154.692335,86.7201325 154.567006,86.7306145 C154.444863,86.7358554 154.329093,86.7410964 154.203764,86.7410964 C154.10605,86.761012 153.96054,86.771494 153.771484,86.771494 C153.579242,86.771494 153.434795,86.761012 153.332832,86.7410964 L153.000391,86.7410964 C152.800714,86.7106988 152.597851,86.6803012 152.392863,86.6803012 C152.187876,86.6803012 152.000944,86.6645783 151.817199,86.624747 C151.735416,86.6048313 151.655758,86.5891084 151.576099,86.5744337 C151.492193,86.5639518 151.399789,86.5534699 151.296764,86.5283133 C151.079031,86.4926747 150.875106,86.4528434 150.682863,86.4172048 C150.485311,86.3826145 150.287758,86.3113373 150.096578,86.2306265 C149.100317,85.9172169 148.272932,85.5021325 147.588932,85.0073855 C146.913429,84.5168313 146.334578,83.8596145 145.855565,83.0661325 C145.690938,82.8030361 145.55605,82.530506 145.44559,82.2621687 C145.330882,81.9791566 145.229981,81.6867108 145.130143,81.3575783 C145.086596,81.2464699 145.061106,81.1206867 145.051547,81.0043373 C145.038801,80.887988 145.008,80.7810723 144.974012,80.6804458 C144.930466,80.4980602 144.91241,80.2968072 144.91241,80.0641084 C144.91241,79.8366506 144.966578,79.669988 145.064292,79.5735542 C145.166255,79.4372892 145.330882,79.3513373 145.568795,79.3314217 C145.793963,79.3156988 146.024441,79.3104578 146.242174,79.3104578 L146.505578,79.3104578 C146.592671,79.3104578 146.672329,79.3156988 146.728621,79.3314217 C146.82846,79.3513373 146.910242,79.3513373 146.975031,79.3513373 C147.033447,79.3408554 147.104609,79.3513373 147.184267,79.3922169 C147.322342,79.4676867 147.414745,79.5536386 147.461478,79.6291084 C147.514584,79.7307831 147.556006,79.8366506 147.565565,79.947759 C147.576186,80.0588675 147.594242,80.1647349 147.643099,80.2915663 C147.678149,80.4225904 147.714261,80.5640964 147.745062,80.7108434 C147.775863,80.8418675 147.81941,80.9886145 147.878888,81.1206867 C148.224075,81.9791566 148.739199,82.6615301 149.430634,83.1573253 C149.765199,83.4099398 150.140124,83.6269157 150.546913,83.7841446 C150.948391,83.9455663 151.381733,84.0923133 151.848,84.2338193 C152.011565,84.2694578 152.167696,84.3040482 152.331261,84.325012 C152.492702,84.3449277 152.652019,84.3606506 152.815584,84.3805663 C152.857006,84.3805663 152.907988,84.3858072 152.96428,84.4004819 C153.028006,84.4109639 153.092795,84.4214458 153.145901,84.4214458 C153.23087,84.4361205 153.327522,84.4361205 153.440106,84.4214458 C153.545255,84.39 153.650404,84.4057229 153.750242,84.4413614 C153.832025,84.4612771 153.953106,84.4665181 154.098615,84.4665181 C154.249435,84.4665181 154.380075,84.4507952 154.483099,84.4214458 L154.692335,84.4214458 C154.787925,84.39 154.893075,84.3805663 154.992913,84.3805663 C155.092752,84.3805663 155.196839,84.3700843 155.296677,84.3449277 C155.356155,84.335494 155.412447,84.325012 155.458118,84.3396867 C155.51441,84.3449277 155.579199,84.335494 155.660981,84.2946145 C155.822422,84.2537349 155.991298,84.2139036 156.175043,84.183506 C156.359851,84.1531084 156.536161,84.1122289 156.688043,84.0524819 C157.214851,83.8344578 157.683242,83.5818434 158.098528,83.2883494 C158.508503,83.0000964 158.828199,82.6007349 159.051242,82.1112289 C159.11072,81.948759 159.158516,81.7978193 159.202062,81.6353494 C159.243484,81.4791687 159.279596,81.317747 159.325267,81.1510843 C159.363503,80.9938554 159.381559,80.8072771 159.381559,80.589253 C159.381559,80.3670361 159.363503,80.1898916 159.325267,80.0536265 C159.279596,79.947759 159.26154,79.8618072 159.26154,79.7905301 C159.26154,79.7255422 159.243484,79.6490241 159.202062,79.5735542 C159.087354,79.234988 158.915292,78.9467349 158.715615,78.7245181 C158.513814,78.4865783 158.274839,78.2748434 157.988068,78.0777831 C157.57172,77.7790482 157.094832,77.5369157 156.570149,77.3597711 C156.04228,77.1826265 155.497416,77.0264458 154.918565,76.8943735 C154.336528,76.7633494 153.750242,76.6365181 153.145901,76.5201687 C152.544745,76.4048675 151.960584,76.2633614 151.396602,76.1061325 C151.069472,76.005506 150.748714,75.9195542 150.426894,75.8535181 C150.098702,75.7832892 149.796,75.6868554 149.51454,75.570506 C149.476304,75.5505904 149.445503,75.5401084 149.430634,75.5401084 C149.399832,75.5401084 149.376466,75.5254337 149.33823,75.5097108 C149.133242,75.429 148.933565,75.3482892 148.728578,75.2665301 C148.528901,75.1858193 148.336658,75.0799518 148.155037,74.9636024 C147.68877,74.6858313 147.260739,74.3881446 146.879441,74.059012 C146.500267,73.7309277 146.195441,73.3011687 145.97346,72.7906988 C145.870435,72.6135542 145.799273,72.411253 145.763161,72.204759 C145.719615,71.9919759 145.670758,71.7896747 145.609155,71.5569759 C145.609155,71.486747 145.604907,71.4102289 145.591099,71.3441928 C145.583665,71.2938795 145.583665,71.2341325 145.583665,71.1785783 C145.519938,70.9353976 145.512503,70.6324699 145.547553,70.263506 C145.591099,69.8893012 145.637832,69.6062892 145.696248,69.4134217 C145.763161,69.1912048 145.821578,68.9794699 145.870435,68.7824096 C145.921416,68.5801084 145.988329,68.3924819 146.060553,68.2111446 C146.347323,67.6199639 146.708441,67.1147349 147.156652,66.7101325 C147.594242,66.3002892 148.095559,65.9260843 148.641484,65.5822771 C148.677596,65.5476867 148.728578,65.5214819 148.78487,65.5068072 C148.848596,65.5015663 148.897453,65.4764096 148.943124,65.4355301 C149.381776,65.2237952 149.893714,65.0319759 150.482124,64.869506 C150.648876,64.8349157 150.797571,64.7940361 150.940957,64.7688795 C151.079031,64.733241 151.233037,64.7028434 151.396602,64.6525301 C151.552733,64.6221325 151.73223,64.5969759 151.924472,64.5969759 C152.113528,64.5969759 152.290901,64.5718193 152.447031,64.5309398 C152.510758,64.526747 152.605286,64.526747 152.726366,64.5309398 C152.846385,64.5560964 152.926043,64.5466627 152.96428,64.5110241" id="Fill-94"></path>
                </g>
            </g>
        </g>
    </g>
</svg>