<?xml version="1.0" encoding="UTF-8"?>
<svg width="51px" height="53px" viewBox="0 0 51 53" version="1.1" xmlns="http://www.w3.org/2000/svg" xmlns:xlink="http://www.w3.org/1999/xlink">
    <!-- Generator: Sketch 3.8.1 (29687) - http://www.bohemiancoding.com/sketch -->
    <title>logo</title>
    <desc>Created with Sketch.</desc>
    <defs></defs>
    <g id="Home" stroke="none" stroke-width="1" fill="none" fill-rule="evenodd">
        <g id="Home_white" transform="translate(-694.000000, -2928.000000)">
            <g id="Group-8" transform="translate(0.000000, 2896.000000)">
                <g id="FRASE" transform="translate(0.000000, 0.600000)">
                    <g id="Group-4">
                        <g id="logo" transform="translate(694.000000, 31.400000)">
                            <path d="M16.130773,2.36801518 C32.1506,5.77670765 40.967409,15.084875 40.6573231,29.8918344 C40.6179623,30.1046971 40.7446848,30.077728 40.913648,29.9101348 C41.0826112,29.729057 42.7722436,26.3983821 43.6660208,23.8488458 C44.566518,21.2944936 45.0455672,18.7073933 45.0455672,15.6415927 C45.0455672,12.5767554 43.9780267,7.69921406 40.0870722,4.24428897 C36.1922775,0.79803249 30.6788918,-0.126619891 25.8730397,0.133438591 C21.6278383,0.365564866 17.0955915,1.89413083 16.0914122,2.24665455 C15.9915703,2.27940266 16.0126907,2.35838338 16.130773,2.36801518" id="Fill-82" fill="#D8117D"></path>
                            <path d="M0.430632051,30.9041361 C7.26116297,15.9719633 18.2437735,9.38574148 32.5787682,12.9437268 C32.7803721,13.0227075 32.7842122,12.896531 32.6526897,12.6923369 C32.516367,12.4929587 29.6507121,10.1148684 27.3639483,8.66528316 C25.0771845,7.2262929 22.6694583,6.18991169 19.6886012,5.51183327 C16.704864,4.84338666 11.7281286,4.82508624 7.52036794,7.8716232 C3.30492714,10.9181602 1.19672673,16.120293 0.397991425,20.8764737 C-0.310502155,25.0797893 0.178147211,29.8494545 0.302949603,30.9137679 C0.312549787,31.0245335 0.388391241,31.0062331 0.430632051,30.9041361" id="Fill-83" fill="#00A3DB"></path>
                            <path d="M34.1714388,48.6738359 C17.8578461,47.2300297 7.99269699,39.0690093 6.51522868,24.3227301 C6.52482886,24.1089043 6.4019465,24.150321 6.25410367,24.3323619 C6.10818087,24.5269242 4.83999657,28.0386769 4.25150529,30.6903102 C3.66589406,33.3284591 3.49501079,35.9569761 3.86557789,39.0044762 C4.23518497,42.0510132 5.87873648,46.7561454 10.1661787,49.7102171 C14.4430606,52.6642888 20.0284477,52.9243473 24.7661385,52.0738597 C28.9489387,51.3312483 33.2613413,49.2690808 34.2194397,48.7951965 C34.3173616,48.744148 34.2847209,48.6834677 34.1714388,48.6738359" id="Fill-84" fill="#000000"></path>
                            <path d="M47.0548857,15.9623315 C45.2932519,32.3065255 36.9535721,42.0375287 22.2316899,43.2212764 C22.0166458,43.19816 22.0560066,43.3281893 22.2460902,43.4726662 C22.4361738,43.6306277 25.9056803,44.9723368 28.5322907,45.6186303 C31.1531409,46.2591447 33.766311,46.4816392 36.8124494,46.1657163 C39.8518676,45.8594252 44.5780382,44.2990743 47.6078563,40.0630106 C50.6357543,35.8317627 50.9986413,30.2308736 50.253667,25.4650611 C49.5989345,21.248261 47.6260967,16.882168 47.174888,15.9160989 C47.1288071,15.8226705 47.0568057,15.8554186 47.0548857,15.9623315" id="Fill-85" fill="#FFF101"></path>
                        </g>
                    </g>
                </g>
            </g>
        </g>
    </g>
</svg>