<?xml version="1.0" encoding="UTF-8"?>
<svg width="194px" height="43px" viewBox="0 0 194 43" version="1.1" xmlns="http://www.w3.org/2000/svg" xmlns:xlink="http://www.w3.org/1999/xlink">
    <!-- Generator: Sketch 3.8.1 (29687) - http://www.bohemiancoding.com/sketch -->
    <title>Mnajarrez-logo</title>
    <desc>Created with Sketch.</desc>
    <defs>
        <polygon id="path-1" points="141.972003 31.5820431 141.972003 0.33338989 0.074177744 0.33338989 0.074177744 31.5820431"></polygon>
    </defs>
    <g id="Symbols" stroke="none" stroke-width="1" fill="none" fill-rule="evenodd">
        <g id="Footer" transform="translate(-1142.000000, -42.000000)">
            <g id="Mnajarrez-logo">
                <g transform="translate(1142.000000, 42.000000)">
                    <path d="M70.9133261,17.0345556 L70.9133261,42.1180741 L55.8249058,42.1180741 L55.8249058,17.0345556 C56.8300507,20.2413333 59.8363478,22.5895926 63.368413,22.5895926 C66.9053986,22.5895926 69.9081812,20.2448519 70.9133261,17.0345556 L70.9133261,17.0345556 Z M55.8249058,0.579851852 L70.9133261,0.579851852 L70.9133261,12.3211481 C69.9081812,9.10451852 66.9053986,6.76611111 63.368413,6.76611111 C59.8363478,6.76611111 56.8300507,9.10733333 55.8249058,12.3211481 L55.8249058,0.579851852 L55.8249058,0.579851852 Z" id="Fill-1" fill="#FFFFFF"></path>
                    <polyline id="Fill-2" fill="#FFFFFF" points="55.8417754 0.579851852 70.928087 0.579851852 42.9091449 42.1180741 27.8242391 42.1180741 55.8417754 0.579851852"></polyline>
                    <polygon id="Fill-3" fill="#FFFFFF" points="27.9479493 42.1187778 43.0412899 42.1187778 43.0412899 0.577037037 27.9479493 0.577037037"></polygon>
                    <g id="Group-7" transform="translate(52.014493, 25.333333)">
                        <mask id="mask-2" fill="white">
                            <use xlink:href="#path-1"></use>
                        </mask>
                        <g id="Clip-5"></g>
                        <path d="M141.027287,16.8674196 L129.220429,16.8674196 L129.220429,14.1947261 L137.38278,3.0469848 L129.615111,3.0469848 L129.615111,0.33338989 L140.912521,0.33338989 L140.912521,3.0469848 L132.755768,14.1538247 L141.027287,14.1538247 L141.027287,16.8674196 L141.027287,16.8674196 Z M126.111962,16.8674196 L115.931416,16.8674196 L115.931416,0.33338989 L126.071374,0.33338989 L126.071374,3.0469848 L118.768365,3.0469848 L118.768365,7.19635914 L125.700485,7.19635914 L125.700485,9.77314599 L118.768365,9.77314599 L118.768365,14.1538247 L126.111962,14.1538247 L126.111962,16.8674196 L126.111962,16.8674196 Z M109.269415,5.75493814 C109.269415,4.72112054 109.161648,4.00605161 108.929317,3.63934959 C108.645202,3.24443973 107.973404,3.0469848 106.927918,3.0469848 L102.932117,3.0469848 L102.932117,8.68573347 L107.004895,8.68573347 C107.879632,8.68573347 108.501046,8.46853305 108.855139,8.04682573 C109.130857,7.65191587 109.269415,6.89030399 109.269415,5.75493814 L109.269415,5.75493814 Z M112.124559,5.2443761 C112.124559,7.06660304 111.904824,8.27813008 111.469555,8.86908448 C111.067876,9.40644397 110.41987,9.75340049 109.503145,9.95085543 L109.503145,10.0115023 C110.366686,10.107409 111.027288,10.4191057 111.469555,10.9973666 C111.82085,11.6235808 111.999996,12.5629021 111.999996,13.7998162 L111.999996,16.8674196 L109.149051,16.8674196 L109.149051,14.3710251 C109.149051,13.1679604 108.996497,12.3724991 108.692788,11.9973347 C108.379282,11.6038353 107.771864,11.3993284 106.884531,11.3993284 L102.932117,11.3993284 L102.932117,16.8674196 L100.093768,16.8674196 L100.093768,0.33338989 L107.356189,0.33338989 C109.279212,0.33338989 110.569625,0.755097207 111.237225,1.58440792 C111.827848,2.33332626 112.124559,3.54344291 112.124559,5.2443761 L112.124559,5.2443761 Z M93.308604,5.75493814 C93.308604,4.72112054 93.2008363,4.00605161 92.9713052,3.63934959 C92.6843913,3.24443973 92.0125928,3.0469848 90.965707,3.0469848 L86.9671067,3.0469848 L86.9671067,8.68573347 L91.0440834,8.68573347 C91.9146222,8.68573347 92.538835,8.46853305 92.8999266,8.04682573 C93.1728447,7.65191587 93.308604,6.89030399 93.308604,5.75493814 L93.308604,5.75493814 Z M96.1637473,5.2443761 C96.1637473,7.06660304 95.9510112,8.27813008 95.5143422,8.86908448 C95.1168615,9.40644397 94.4590588,9.75340049 93.5409343,9.95085543 L93.5409343,10.0115023 C94.4114731,10.107409 95.0636774,10.4191057 95.5045451,10.9973666 C95.8628376,11.6235808 96.0419839,12.5629021 96.0419839,13.7998162 L96.0419839,16.8674196 L93.1896397,16.8674196 L93.1896397,14.3710251 C93.1896397,13.1679604 93.0412842,12.3724991 92.7347762,11.9973347 C92.4170715,11.6038353 91.8138525,11.3993284 90.9265187,11.3993284 L86.9671067,11.3993284 L86.9671067,16.8674196 L84.1371558,16.8674196 L84.1371558,0.33338989 L91.3911793,0.33338989 C93.3114032,0.33338989 94.6004164,0.755097207 95.2722148,1.58440792 C95.8628376,2.33332626 96.1637473,3.54344291 96.1637473,5.2443761 L96.1637473,5.2443761 Z M76.7837621,11.358427 L74.2351267,2.7338777 L74.2225305,2.7338777 L71.6780939,11.358427 L76.7837621,11.358427 L76.7837621,11.358427 Z M81.2820124,16.8674196 L78.3890804,16.8674196 L77.4485626,13.7532732 L71.0538812,13.7532732 L70.1049659,16.8674196 L67.1700465,16.8674196 L72.0923696,0.33338989 L76.240725,0.33338989 L81.2820124,16.8674196 L81.2820124,16.8674196 Z M64.3484931,11.876041 C64.3484931,12.7801025 64.2813132,13.6094132 64.1385561,14.3371757 C63.9971985,15.0790421 63.6864917,15.6629445 63.2176324,16.0987557 C62.9349172,16.344164 62.6032167,16.5543125 62.232328,16.6911205 C61.6626989,16.894217 60.7305786,17.0042276 59.4345674,17.0042276 C58.0181924,17.0042276 56.9545116,16.8194662 56.2393261,16.4527642 C55.8642387,16.2623613 55.5507327,15.9760516 55.2988083,15.6164016 C54.9405158,15.0790421 54.7375767,14.4189784 54.6703969,13.5953093 C54.6396061,13.1806539 54.6102149,12.5967515 54.59342,11.8210357 C54.620012,11.5149806 54.6340078,11.0382679 54.6340078,10.3993602 L57.3659881,10.3993602 C57.3659881,11.3443231 57.3491931,11.9902828 57.329599,12.3372393 C57.3659881,13.0932096 57.5115444,13.6094132 57.7676676,13.8957229 C57.9174226,14.057918 58.0993681,14.1735702 58.2813135,14.2144715 C58.4940496,14.2624249 58.8481434,14.2892223 59.3743855,14.2892223 C60.3666878,14.2892223 60.9839026,14.1270272 61.2036367,13.7998162 C61.4121741,13.5149169 61.5143434,12.8619053 61.5143434,11.8280877 L61.5143434,0.33338989 L64.3484931,0.33338989 L64.3484931,11.876041 L64.3484931,11.876041 Z M51.0594803,16.8674196 L46.3219017,16.8674196 L40.0615801,3.0469848 L39.9440153,3.0469848 L40.1091658,9.90995405 L40.1833435,16.8674196 L37.3295998,16.8674196 L37.3295998,0.33338989 L42.0293896,0.33338989 L48.370887,14.1538247 L48.4478639,14.1538247 L48.2155336,0.33338989 L51.0594803,0.33338989 L51.0594803,16.8674196 L51.0594803,16.8674196 Z M29.9118254,11.358427 L27.3743867,2.7338777 L27.3645896,2.7338777 L24.8131551,11.358427 L29.9118254,11.358427 L29.9118254,11.358427 Z M34.4198728,16.8674196 L31.5283403,16.8674196 L30.5794251,13.7532732 L24.1917416,13.7532732 L23.2400271,16.8674196 L20.3079069,16.8674196 L25.2316296,0.33338989 L29.3785853,0.33338989 L34.4198728,16.8674196 L34.4198728,16.8674196 Z" id="Fill-4" fill="#FFFFFF" mask="url(#mask-2)"></path>
                    </g>
                    <polyline id="Fill-8" fill="#FFFFFF" points="28.0161304 0.579851852 43.1038478 0.579851852 15.0898261 42.1180741 0 42.1180741 28.0161304 0.579851852 21.4050852 18.4128088"></polyline>
                </g>
            </g>
        </g>
    </g>
</svg>