<?xml version="1.0" encoding="UTF-8"?>
<svg width="58px" height="58px" viewBox="0 0 58 58" version="1.1" xmlns="http://www.w3.org/2000/svg" xmlns:xlink="http://www.w3.org/1999/xlink">
    <!-- Generator: Sketch 3.8.1 (29687) - http://www.bohemiancoding.com/sketch -->
    <title>product-1</title>
    <desc>Created with Sketch.</desc>
    <defs></defs>
    <g id="Symbols" stroke="none" stroke-width="1" fill="none" fill-rule="evenodd">
        <g id="header_full-destok" transform="translate(-127.000000, -191.000000)">
            <g id="Header">
                <g id="Nav" transform="translate(111.000000, 137.000000)">
                    <g id="Sublimacion" transform="translate(6.000000, 54.000000)">
                        <g id="product-1" transform="translate(10.000000, 0.000000)">
                            <path d="M29.0577342,57.8699106 C44.9390656,57.8699106 57.8134284,44.9152899 57.8134284,28.9349553 C57.8134284,12.9546208 44.9390656,0 29.0577342,0 C13.1764028,0 0.302040008,12.9546208 0.302040008,28.9349553 C0.302040008,44.9152899 13.1764028,57.8699106 29.0577342,57.8699106 Z" id="Oval-1" fill="#00A3DA"></path>
                            <g id="t-shirt" transform="translate(11.000000, 13.000000)" fill="#FFFFFF">
                                <g id="Layer_1">
                                    <g id="Group">
                                        <path d="M25.1329219,22.6872196 C24.7186406,22.6872196 24.3828984,23.021986 24.3828984,23.4349065 L24.3828984,26.2150234 C24.3828984,26.628014 24.7187109,26.9627103 25.1329219,26.9627103 C25.5471328,26.9627103 25.8829453,26.6279439 25.8829453,26.2150234 L25.8829453,23.4349065 C25.8829453,23.021986 25.5471328,22.6872196 25.1329219,22.6872196 L25.1329219,22.6872196 Z" id="Shape"></path>
                                        <path d="M25.1325,22.0345794 C25.5466406,22.0345794 25.8825234,21.6998131 25.8825234,21.2868925 L25.8825234,21.2690888 C25.8825234,20.8560981 25.5466406,20.5214019 25.1325,20.5214019 C24.7182891,20.5214019 24.3824766,20.8561682 24.3824766,21.2690888 L24.3824766,21.2868925 C24.3824766,21.6998832 24.7183594,22.0345794 25.1325,22.0345794 L25.1325,22.0345794 Z" id="Shape"></path>
                                        <path d="M35.9980313,9.38523364 C35.9705391,8.86184579 35.6684063,8.43665888 35.2446328,7.89336449 L32.2245703,4.02161215 L30.8303438,2.23352804 C29.6637188,0.732056075 29.1313125,0.046682243 26.8372266,0.046682243 L24.7936641,0.046682243 C24.5724609,0.046682243 24.3625078,0.144042056 24.2200547,0.312827103 C22.6807734,2.13504673 20.4136875,3.18014019 18.0000703,3.18014019 C15.5863125,3.18014019 13.3192266,2.13504673 11.7799453,0.312827103 C11.6374219,0.14411215 11.4273984,0.046682243 11.2061953,0.046682243 L9.16277344,0.046682243 C6.86854688,0.046682243 6.33607031,0.732056075 5.16951563,2.23366822 L0.755226563,7.89336449 C0.331453125,8.43672897 0.0293203125,8.8617757 0.00196875,9.38523364 C-0.0321328125,10.0370327 0.390164063,10.5373598 0.788625,10.9551168 L3.90867188,14.2270794 C4.51659375,14.866472 4.91814844,15.2888551 5.53373438,15.2888551 C6.10565625,15.2888551 6.54257813,14.8954206 7.01416406,14.4200467 L7.22953125,14.2030374 L7.106625,27.3178738 C7.09678125,28.3741121 7.09080469,29.0116822 7.5549375,29.4785047 C8.02666406,29.9532477 8.75179688,29.9532477 9.66965625,29.9532477 L26.3302734,29.9532477 C27.2482734,29.9532477 27.9733359,29.9532477 28.4449922,29.4785047 C28.909125,29.0116121 28.9031484,28.3740421 28.8933047,27.3178738 L28.7705391,14.2031075 L28.9858359,14.4201168 C29.4574922,14.8954206 29.8944141,15.2889252 30.4661953,15.2889252 C31.0817813,15.2889252 31.4833359,14.8666121 32.0911172,14.2274299 L35.2114453,10.955257 C35.6098359,10.5373598 36.0322031,10.0369626 35.9980313,9.38523364 L35.9980313,9.38523364 Z M34.1242031,9.92474299 L31.0023281,13.1985981 C30.8074922,13.4035514 30.5924063,13.629743 30.4576172,13.744486 C30.3811875,13.6848364 30.2560313,13.5739486 30.0522656,13.3684346 L28.5365391,11.8406776 C28.321875,11.624229 27.9969609,11.5591121 27.7148672,11.6760981 C27.4329141,11.7930841 27.2503828,12.0689019 27.2531953,12.3733178 L27.3933281,27.3317523 C27.3969844,27.7292523 27.4014844,28.212757 27.3620391,28.4112617 C27.1511719,28.4578037 26.6267109,28.4578037 26.3302031,28.4578037 L9.66958594,28.4578037 C9.37307813,28.4578037 8.8486875,28.4578037 8.63782031,28.4112617 C8.59844531,28.212757 8.602875,27.7291822 8.60660156,27.3317523 L8.74666406,12.3732477 C8.74954688,12.0687617 8.56694531,11.793014 8.28492188,11.676028 C8.00282813,11.558972 7.67798438,11.6240888 7.46325,11.8406075 L5.94759375,13.3682944 C5.74375781,13.5736682 5.61860156,13.6846262 5.54217188,13.7443458 C5.40745313,13.6295327 5.19236719,13.403271 4.99732031,13.1982477 L1.87572656,9.92453271 C1.58885156,9.62376168 1.51945313,9.4960514 1.50278906,9.45483645 C1.54314844,9.3192757 1.82917969,8.95240654 1.93935938,8.81116822 L6.18292969,3.3707243 L6.35526563,3.14922897 C7.43765625,1.75619159 7.60394531,1.54205607 9.16263281,1.54205607 L10.8656719,1.54205607 C12.682125,3.53775701 15.2621016,4.67544393 17.9999297,4.67544393 C20.7376172,4.67544393 23.3175938,3.5378271 25.1339766,1.54205607 L26.8370859,1.54205607 C28.3956328,1.54205607 28.5619219,1.7561215 29.6442422,3.14915888 L34.0602188,8.81123832 C34.1704688,8.95254673 34.4566406,9.31934579 34.4969297,9.45490654 C34.4804766,9.49626168 34.4111484,9.62397196 34.1242031,9.92474299 L34.1242031,9.92474299 Z" id="Shape"></path>
                                        <path d="M9.89107031,3.04457944 L9.8870625,3.04457944 C8.40621094,3.05228972 8.02413281,3.45553738 6.92760938,4.85306075 C6.67244531,5.17836449 6.72996094,5.64827103 7.05621094,5.90271028 C7.19346094,6.0096028 7.35623438,6.06154206 7.5178125,6.06154206 C7.74063281,6.06154206 7.96127344,5.96299065 8.10921094,5.77450935 C9.07432031,4.54429907 9.08964844,4.54422897 9.8949375,4.54009346 C10.3091484,4.53792056 10.6432734,4.20147196 10.6410938,3.78848131 C10.6389141,3.37675234 10.3035938,3.04457944 9.89107031,3.04457944 L9.89107031,3.04457944 Z" id="Shape"></path>
                                        <path d="M6.66260156,6.42315421 C6.33839063,6.1661215 5.86652344,6.21988318 5.6086875,6.54308411 L5.58682031,6.5711215 C5.33214844,6.89684579 5.39057813,7.36668224 5.71732031,7.62049065 C5.85428906,7.72696262 6.01657031,7.77848131 6.1779375,7.77848131 C6.40125,7.77841121 6.62210156,7.67950935 6.77003906,7.4903972 L6.78346875,7.4732243 C7.04074219,7.15002336 6.98674219,6.67997664 6.66260156,6.42315421 L6.66260156,6.42315421 Z" id="Shape"></path>
                                        <path d="M22.7188828,10.5294393 L20.1250547,9.7853271 L18.6219141,7.56245327 C18.482625,7.3564486 18.24975,7.23287383 18.0004922,7.23273364 L18.0000703,7.23273364 C17.7510234,7.23273364 17.5180781,7.35595794 17.3786484,7.56175234 L15.8670703,9.79086449 L13.2820312,10.5290888 C13.0424766,10.5975701 12.8525625,10.7800935 12.7753594,11.0163785 C12.6982266,11.2526636 12.7438594,11.5116589 12.8970703,11.7076402 L14.5565859,13.8295794 L14.4621562,16.5086215 C14.4533672,16.7569626 14.5689609,16.9933879 14.7704062,17.1395327 C14.9004141,17.2338084 15.0552422,17.2826636 15.2117578,17.2826636 C15.2978203,17.2826636 15.384375,17.2679439 15.4675547,17.2378037 L18.0046406,16.32 L20.5314609,17.2374533 C20.7656016,17.3224766 21.0268828,17.2858879 21.2286094,17.1400935 C21.4302656,16.9941589 21.5462109,16.7578738 21.5377031,16.5095327 L21.4461562,13.8204673 L23.1021562,11.7084112 C23.2557187,11.5126402 23.3015625,11.2536449 23.2247109,11.0172897 C23.148,10.7810047 22.9583672,10.5981308 22.7188828,10.5294393 L22.7188828,10.5294393 Z M20.0965078,13.113715 C19.9879453,13.2521495 19.9319062,13.4240888 19.9378125,13.5996028 L20.0009531,15.4532944 L18.2619141,14.8218224 C18.0963281,14.7616121 17.9149219,14.7615421 17.7494062,14.8215421 L16.0004531,15.4542757 L16.0654219,13.6104673 C16.0716797,13.4349533 16.0157109,13.2629439 15.9073594,13.1244393 L14.7633047,11.6616589 L16.5423516,11.1534813 C16.7117344,11.1051168 16.8585469,10.9989252 16.9571953,10.8534112 L17.9992266,9.31675234 L19.0337344,10.8465421 C19.1322422,10.9921262 19.2789844,11.0985981 19.4481562,11.1471028 L21.2362734,11.6601168 L20.0965078,13.113715 L20.0965078,13.113715 Z" id="Shape"></path>
                                    </g>
                                </g>
                            </g>
                        </g>
                    </g>
                </g>
            </g>
        </g>
    </g>
</svg>