<?xml version="1.0" encoding="UTF-8"?>
<svg width="108px" height="101px" viewBox="0 0 108 101" version="1.1" xmlns="http://www.w3.org/2000/svg" xmlns:xlink="http://www.w3.org/1999/xlink">
    <!-- Generator: Sketch 3.8.1 (29687) - http://www.bohemiancoding.com/sketch -->
    <title>Coporativa </title>
    <desc>Created with Sketch.</desc>
    <defs></defs>
    <g id="Home" stroke="none" stroke-width="1" fill="none" fill-rule="evenodd">
        <g id="Home_white" transform="translate(-255.000000, -1261.000000)" fill="#FFFFFF">
            <g id="Servicios" transform="translate(105.000000, 1204.000000)">
                <g id="Asesoria-corporativa">
                    <g id="Coporativa-" transform="translate(150.000000, 57.000000)">
                        <polygon id="Fill-1" points="3.88640997 92.7521842 3.88640997 100.454794 6.84816121 100.454794 6.84816121 95.6894459 104.215733 95.6894459 104.215733 100.821585 107.177484 100.821585 107.177484 92.7521842"></polygon>
                        <path d="M13.0494759,92.7504236 L32.300859,92.7504236 L32.300859,51.6698399 L13.0494759,51.6698399 L13.0494759,92.7504236 Z M10.0877247,95.684751 L35.2626102,95.684751 L35.2626102,48.7355124 L10.0877247,48.7355124 L10.0877247,95.684751 Z" id="Fill-2"></path>
                        <path d="M35.2626102,92.7504236 L68.5823116,92.7504236 L68.5823116,23.4269385 L35.2626102,23.4269385 L35.2626102,92.7504236 Z M32.300859,95.684751 L71.5440629,95.684751 L71.5440629,20.4926111 L32.300859,20.4926111 L32.300859,95.684751 Z" id="Fill-3"></path>
                        <path d="M71.351549,92.9411549 L99.1357374,92.9411549 L99.1357374,30.2023005 L71.351549,30.2023005 L71.351549,92.9411549 Z M68.7777872,95.4940197 L101.709499,95.4940197 L101.709499,27.6553043 L68.7777872,27.6553043 L68.7777872,95.4940197 Z" id="Fill-4"></path>
                        <path d="M79.2031515,27.2562358 L91.7905943,27.2562358 L91.7905943,23.5883265 L79.2031515,23.5883265 L79.2031515,27.2562358 Z M76.2414003,30.1905632 L94.7523455,30.1905632 L94.7523455,20.6539991 L76.2414003,20.6539991 L76.2414003,30.1905632 Z" id="Fill-5"></path>
                        <path d="M40.2620463,19.3922384 L63.7694659,19.3922384 L63.7694659,15.7243291 L40.2620463,15.7243291 L40.2620463,19.3922384 Z M37.2973333,22.3265658 L66.7312171,22.3265658 L66.7312171,12.7900017 L37.2973333,12.7900017 L37.2973333,22.3265658 Z" id="Fill-6"></path>
                        <path d="M45.7294391,11.0382082 L58.4857017,11.0382082 L58.4857017,7.93662415 L45.7294391,7.93662415 L45.7294391,11.0382082 Z M42.9365077,13.8082133 L61.2786331,13.8082133 L61.2786331,5.17248773 L42.9365077,5.17248773 L42.9365077,13.8082133 Z" id="Fill-7"></path>
                        <polygon id="Fill-8" points="7.68278271 16.09112 19.9000066 16.09112 19.9000066 13.1538583 7.68278271 13.1538583"></polygon>
                        <polygon id="Fill-9" points="68.6770877 4.91720124 78.2080031 4.91720124 78.2080031 2.32619014 68.6770877 2.32619014"></polygon>
                        <polygon id="Fill-10" points="24.2478574 16.09112 29.2443317 16.09112 29.2443317 13.1538583 24.2478574 13.1538583"></polygon>
                        <polygon id="Fill-11" points="0 30.1465483 9.7175058 30.1465483 9.7175058 27.5261939 0 27.5261939"></polygon>
                        <polygon id="Fill-12" points="76.5168432 86.1481869 79.1587253 86.1481869 79.1587253 36.8162745 76.5168432 36.8162745"></polygon>
                        <polygon id="Fill-13" points="83.9212213 86.1481869 86.5660651 86.1481869 86.5660651 36.8162745 83.9212213 36.8162745"></polygon>
                        <polygon id="Fill-14" points="90.9553805 86.1481869 93.6002243 86.1481869 93.6002243 36.8162745 90.9553805 36.8162745"></polygon>
                        <polygon id="Fill-15" points="16.9382553 59.4956911 20.453854 59.4956911 20.453854 56.1945727 16.9382553 56.1945727"></polygon>
                        <polygon id="Fill-16" points="24.0346113 59.4956911 27.55021 59.4956911 27.55021 56.1945727 24.0346113 56.1945727"></polygon>
                        <polygon id="Fill-17" points="16.9382553 66.6495813 20.453854 66.6495813 20.453854 63.3484629 16.9382553 63.3484629"></polygon>
                        <polygon id="Fill-18" points="24.0346113 66.6495813 27.55021 66.6495813 27.55021 63.3484629 24.0346113 63.3484629"></polygon>
                        <polygon id="Fill-19" points="16.9382553 73.8005372 20.453854 73.8005372 20.453854 70.4994188 16.9382553 70.4994188"></polygon>
                        <polygon id="Fill-20" points="24.0346113 73.8005372 27.55021 73.8005372 27.55021 70.4994188 24.0346113 70.4994188"></polygon>
                        <polygon id="Fill-21" points="16.9382553 80.9544274 20.453854 80.9544274 20.453854 77.6533091 16.9382553 77.6533091"></polygon>
                        <polygon id="Fill-22" points="24.0346113 80.9544274 27.55021 80.9544274 27.55021 77.6533091 24.0346113 77.6533091"></polygon>
                        <polygon id="Fill-23" points="16.9382553 88.2902459 20.453854 88.2902459 20.453854 84.9891276 16.9382553 84.9891276"></polygon>
                        <polygon id="Fill-24" points="24.0346113 88.2902459 27.55021 88.2902459 27.55021 84.9891276 24.0346113 84.9891276"></polygon>
                        <polygon id="Fill-25" points="39.4623735 59.4956911 42.9779722 59.4956911 42.9779722 56.1945727 39.4623735 56.1945727"></polygon>
                        <polygon id="Fill-26" points="46.5557677 59.4956911 50.0713664 59.4956911 50.0713664 56.1945727 46.5557677 56.1945727"></polygon>
                        <polygon id="Fill-27" points="39.4623735 66.6495813 42.9779722 66.6495813 42.9779722 63.3484629 39.4623735 63.3484629"></polygon>
                        <polygon id="Fill-28" points="46.5557677 66.6495813 50.0713664 66.6495813 50.0713664 63.3484629 46.5557677 63.3484629"></polygon>
                        <polygon id="Fill-29" points="39.4623735 73.8005372 42.9779722 73.8005372 42.9779722 70.4994188 39.4623735 70.4994188"></polygon>
                        <polygon id="Fill-30" points="46.5557677 73.8005372 50.0713664 73.8005372 50.0713664 70.4994188 46.5557677 70.4994188"></polygon>
                        <polygon id="Fill-31" points="39.4623735 80.9544274 42.9779722 80.9544274 42.9779722 77.6533091 39.4623735 77.6533091"></polygon>
                        <polygon id="Fill-32" points="46.5557677 80.9544274 50.0713664 80.9544274 50.0713664 77.6533091 46.5557677 77.6533091"></polygon>
                        <polygon id="Fill-33" points="39.4623735 88.2902459 42.9779722 88.2902459 42.9779722 84.9891276 39.4623735 84.9891276"></polygon>
                        <polygon id="Fill-34" points="46.5557677 88.2902459 50.0713664 88.2902459 50.0713664 84.9891276 46.5557677 84.9891276"></polygon>
                        <polygon id="Fill-35" points="53.7765172 59.4956911 57.2921159 59.4956911 57.2921159 56.1945727 53.7765172 56.1945727"></polygon>
                        <polygon id="Fill-36" points="60.8699114 59.4956911 64.3855101 59.4956911 64.3855101 56.1945727 60.8699114 56.1945727"></polygon>
                        <polygon id="Fill-37" points="39.4623735 52.3447352 42.9779722 52.3447352 42.9779722 49.0436168 39.4623735 49.0436168"></polygon>
                        <polygon id="Fill-38" points="46.5557677 52.3447352 50.0713664 52.3447352 50.0713664 49.0436168 46.5557677 49.0436168"></polygon>
                        <polygon id="Fill-39" points="53.7765172 52.3447352 57.2921159 52.3447352 57.2921159 49.0436168 53.7765172 49.0436168"></polygon>
                        <polygon id="Fill-40" points="60.8699114 52.3447352 64.3855101 52.3447352 64.3855101 49.0436168 60.8699114 49.0436168"></polygon>
                        <polygon id="Fill-41" points="53.7765172 66.6495813 57.2921159 66.6495813 57.2921159 63.3484629 53.7765172 63.3484629"></polygon>
                        <polygon id="Fill-42" points="60.8699114 66.6495813 64.3855101 66.6495813 64.3855101 63.3484629 60.8699114 63.3484629"></polygon>
                        <polygon id="Fill-43" points="39.4623735 38.039889 42.9779722 38.039889 42.9779722 34.7387707 39.4623735 34.7387707"></polygon>
                        <polygon id="Fill-44" points="46.5557677 38.039889 50.0713664 38.039889 50.0713664 34.7387707 46.5557677 34.7387707"></polygon>
                        <polygon id="Fill-45" points="39.4623735 45.1908449 42.9779722 45.1908449 42.9779722 41.8897266 39.4623735 41.8897266"></polygon>
                        <polygon id="Fill-46" points="46.5557677 45.1908449 50.0713664 45.1908449 50.0713664 41.8897266 46.5557677 41.8897266"></polygon>
                        <polygon id="Fill-47" points="53.7765172 38.039889 57.2921159 38.039889 57.2921159 34.7387707 53.7765172 34.7387707"></polygon>
                        <polygon id="Fill-48" points="60.8699114 38.039889 64.3855101 38.039889 64.3855101 34.7387707 60.8699114 34.7387707"></polygon>
                        <polygon id="Fill-49" points="39.4623735 30.8859988 42.9779722 30.8859988 42.9779722 27.5848805 39.4623735 27.5848805"></polygon>
                        <polygon id="Fill-50" points="46.5557677 30.8859988 50.0713664 30.8859988 50.0713664 27.5848805 46.5557677 27.5848805"></polygon>
                        <polygon id="Fill-51" points="53.7765172 30.8859988 57.2921159 30.8859988 57.2921159 27.5848805 53.7765172 27.5848805"></polygon>
                        <polygon id="Fill-52" points="60.8699114 30.8859988 64.3855101 30.8859988 64.3855101 27.5848805 60.8699114 27.5848805"></polygon>
                        <polygon id="Fill-53" points="53.7765172 45.1908449 57.2921159 45.1908449 57.2921159 41.8897266 53.7765172 41.8897266"></polygon>
                        <polygon id="Fill-54" points="60.8699114 45.1908449 64.3855101 45.1908449 64.3855101 41.8897266 60.8699114 41.8897266"></polygon>
                        <polygon id="Fill-55" points="53.7765172 73.8005372 57.2921159 73.8005372 57.2921159 70.4994188 53.7765172 70.4994188"></polygon>
                        <polygon id="Fill-56" points="60.8699114 73.8005372 64.3855101 73.8005372 64.3855101 70.4994188 60.8699114 70.4994188"></polygon>
                        <polygon id="Fill-57" points="53.7765172 80.9544274 57.2921159 80.9544274 57.2921159 77.6533091 53.7765172 77.6533091"></polygon>
                        <polygon id="Fill-58" points="60.8699114 80.9544274 64.3855101 80.9544274 64.3855101 77.6533091 60.8699114 77.6533091"></polygon>
                        <polygon id="Fill-59" points="53.7765172 88.2902459 57.2921159 88.2902459 57.2921159 84.9891276 53.7765172 84.9891276"></polygon>
                        <polygon id="Fill-60" points="60.8699114 88.2902459 64.3855101 88.2902459 64.3855101 84.9891276 60.8699114 84.9891276"></polygon>
                        <polygon id="Fill-61" points="50.349771 6.64552009 53.3115222 6.64552009 53.3115222 0.0432834183 50.349771 0.0432834183"></polygon>
                    </g>
                </g>
            </g>
        </g>
    </g>
</svg>