<?xml version="1.0" encoding="UTF-8"?>
<svg width="107px" height="95px" viewBox="0 0 107 95" version="1.1" xmlns="http://www.w3.org/2000/svg" xmlns:xlink="http://www.w3.org/1999/xlink">
    <!-- Generator: Sketch 3.8.1 (29687) - http://www.bohemiancoding.com/sketch -->
    <title>scotiza</title>
    <desc>Created with Sketch.</desc>
    <defs></defs>
    <g id="Home" stroke="none" stroke-width="1" fill="none" fill-rule="evenodd">
        <g id="Home_white" transform="translate(-1091.000000, -1262.000000)" fill="#FFFFFF">
            <g id="Servicios" transform="translate(105.000000, 1204.000000)">
                <g id="Cotizados" transform="translate(822.000000, 0.000000)">
                    <g id="scotiza" transform="translate(164.000000, 58.000000)">
                        <g id="Group-3" transform="translate(0.000000, 0.026272)">
                            <path d="M58.7635265,75.820452 L5.69452908,75.820452 C5.69452908,78.0595679 5.69534796,80.1944178 5.69425612,82.3295415 C5.69152653,86.5975995 8.30702143,89.2723878 12.5354321,89.2745771 C28.1358684,89.2825134 43.7363046,89.2784084 59.3370138,89.2732088 C59.7085112,89.2732088 60.0800087,89.2088978 60.6218327,89.1588174 C57.9162612,84.926883 59.2343811,80.3192085 58.7635265,75.820452 L58.7635265,75.820452 Z M80.1015648,48.2504832 C91.7312638,48.2578721 101.234611,38.7828162 101.245256,27.1696263 C101.255902,15.3966169 91.8120597,5.99052425 79.9615367,5.97082047 C68.5229092,5.95166402 58.9818939,15.4546336 58.9483199,26.9003413 C58.9133811,38.7253468 68.343575,48.2430942 80.1015648,48.2504832 L80.1015648,48.2504832 Z M61.8127536,46.7713312 C60.8224577,45.6610779 59.9661847,44.8860625 59.3462944,43.9528695 C58.7523352,43.0588104 58.038001,42.8957069 57.061899,42.8998118 C49.4214985,42.9307358 41.781098,42.9197893 34.1406974,42.9148633 C32.030177,42.913495 30.6913122,41.8065256 30.6683837,40.0736875 C30.646001,38.3520696 32.0053378,37.2303224 34.1065776,37.2314171 C38.8817255,37.23388 43.6568735,37.234701 48.4322944,37.2357957 C50.6547281,37.236343 52.8771617,37.2357957 55.1241617,37.2357957 C54.500177,34.7599608 53.9048531,32.3968753 53.3054347,30.0173701 L24.1244602,30.0173701 L24.1244602,70.0603799 L25.4267485,70.0603799 C37.0692765,70.0576433 48.7120776,70.0592853 60.3543327,70.049707 C63.7384806,70.0466967 64.4459908,70.7407077 64.4664628,74.0906242 C64.4861158,77.3258757 64.3561872,80.5759049 64.6245061,83.7917263 C64.9152077,87.2795692 67.9417791,89.499255 71.5563046,89.2499474 C74.6636719,89.0359424 77.1937306,86.2623615 77.2491413,82.9967334 C77.2652459,82.039458 77.251598,81.081909 77.251598,80.1243599 C77.2521439,71.7798085 77.2614245,63.4358044 77.2308531,55.0918003 C77.2292153,54.635603 76.983552,53.8466308 76.7100469,53.7782149 C74.5624041,53.2390975 72.3975648,52.6356692 70.2043378,52.4468413 C67.6311515,52.2251737 65.0243913,52.4027814 62.431825,52.4036024 C53.0182816,52.4063391 43.6047383,52.4159173 34.1909219,52.4036024 C32.0056107,52.4008658 30.7120571,51.3382299 30.6842153,49.6229063 C30.6550087,47.8399877 31.943649,46.7784465 34.2168531,46.7710576 C38.3096031,46.7573744 42.402899,46.7705102 46.4959219,46.7710576 C51.4864347,46.7718786 56.4764015,46.7713312 61.8127536,46.7713312 L61.8127536,46.7713312 Z M53.3676694,24.2997158 C54.9964168,10.1669049 67.2225316,-0.442760389 81.7245801,0.282448234 C94.0833531,0.900380713 104.753601,10.6113347 106.602626,23.3410721 C107.688185,30.8181099 105.818414,37.6531327 101.16446,43.6148949 C96.5519959,49.5232927 90.4071388,52.8409169 82.9335163,53.827748 C82.9335163,58.7632716 82.9337893,63.591519 82.9332434,68.4200401 C82.9332434,73.20888 82.9477102,77.9977199 82.9277842,82.7865598 C82.8999423,89.6018788 77.6026235,94.9435192 70.8195878,94.9489925 C51.304098,94.965686 31.7886082,94.9643177 12.2731184,94.9509082 C5.48735306,94.9462559 0.2247,89.8265567 0.0489142857,83.030394 C-0.0357030612,79.7486198 0.00851632653,76.4630142 0.0415443878,73.179598 C0.0622892857,71.1539398 1.18415153,70.0685898 3.18985561,70.0644849 C8.19101378,70.053812 13.1921719,70.0609272 18.4168837,70.0609272 L18.4168837,68.5555036 C18.421524,55.1016522 18.4253454,41.6478007 18.4310776,28.1939493 C18.4327153,25.1097602 19.2313939,24.3084731 22.2989092,24.3073784 C32.3066847,24.3038208 42.3144602,24.3021788 52.3222357,24.2997158 L53.3676694,24.2997158 Z" id="Fill-1"></path>
                        </g>
                        <path d="M44.5597952,61.896036 C41.0146013,61.896036 37.4688615,61.9045195 33.9236676,61.8924783 C31.9559048,61.8859104 30.730864,60.839968 30.6833691,59.1697989 C30.6350554,57.476642 31.9234227,56.271701 33.9242135,56.2656804 C41.0151472,56.244061 48.1058079,56.2446083 55.1964686,56.2670487 C56.9360375,56.272522 58.0248717,57.1244369 58.323762,58.5521401 C58.5759763,59.7568074 57.9495349,61.0928332 56.7749916,61.5969216 C56.2558232,61.8199575 55.6348411,61.8793425 55.0594431,61.8837211 C51.5595605,61.9086245 48.0594048,61.896036 44.5597952,61.896036" id="Fill-4"></path>
                        <path d="M77.2354661,39.7481099 C74.9008462,38.4016848 72.8282671,37.3787302 70.9533105,36.0711654 C69.3870707,34.9787001 69.2830732,33.1829194 70.4000222,31.9018999 C71.4763003,30.667677 73.0785707,30.607471 74.5288028,31.7522059 C76.3704584,33.2061808 78.4239304,34.0827254 80.8044074,33.9634081 C81.3773487,33.9346734 82.0179839,33.820282 82.4844712,33.520894 C82.9255732,33.2379258 83.4237237,32.6706211 83.4428309,32.2092242 C83.4616651,31.7708151 82.9891727,31.0784461 82.5639023,30.8978281 C81.2788105,30.3524165 79.8992747,30.0377033 78.580336,29.5656335 C77.0959839,29.0341787 75.5068156,28.6379138 74.1974304,27.8106287 C71.8704533,26.341055 70.7573258,24.0181981 71.0537594,21.2695205 C71.3733946,18.3043751 73.0373538,16.20948 75.9105222,15.274645 C76.8650605,14.9640368 77.302887,14.6093688 77.2690401,13.5171772 C77.2174508,11.852755 78.3813487,10.7184192 79.9293003,10.6658758 C81.5381217,10.6116904 82.8922722,11.7200281 82.846961,13.4077117 C82.8120222,14.7193815 83.348114,15.1722948 84.4372212,15.6024941 C85.6041217,16.0633436 86.7156115,16.7343668 87.741938,17.4675117 C89.1452212,18.4693943 89.4039865,20.1543412 88.5002186,21.4296138 C87.5448615,22.7776808 85.8833589,23.0341036 84.4301242,21.9884349 C82.5426115,20.630516 80.5213487,19.7709385 78.199012,20.5202295 C77.5974099,20.714257 76.761336,21.4755893 76.7760758,21.9536796 C76.7932722,22.5100378 77.5261676,23.2814956 78.1266778,23.5332661 C79.3700069,24.0545953 80.7416268,24.2595694 82.0403666,24.6607603 C83.0331191,24.9675372 84.023961,25.3131744 84.9653972,25.7507625 C87.6775196,27.0109835 89.2762416,29.0839855 89.1801599,32.171185 C89.0827135,35.2923187 87.5309406,37.5702947 84.6632314,38.7311759 C83.4171727,39.2355379 82.8087467,39.7117126 82.8016497,41.1812863 C82.7942798,42.716813 81.3961829,43.6770987 79.8785298,43.5974625 C78.3843513,43.5194684 77.316262,42.4081204 77.2395605,40.8307232 C77.2149941,40.3351184 77.2354661,39.8375979 77.2354661,39.7481099" id="Fill-6"></path>
                    </g>
                </g>
            </g>
        </g>
    </g>
</svg>