<?xml version="1.0" encoding="UTF-8"?>
<svg width="105px" height="93px" viewBox="0 0 105 93" version="1.1" xmlns="http://www.w3.org/2000/svg" xmlns:xlink="http://www.w3.org/1999/xlink">
    <!-- Generator: Sketch 3.8.1 (29687) - http://www.bohemiancoding.com/sketch -->
    <title>scotiza</title>
    <desc>Created with Sketch.</desc>
    <defs></defs>
    <g id="Home" stroke="none" stroke-width="1" fill="none" fill-rule="evenodd">
        <g id="Home_white" transform="translate(-991.000000, -1208.000000)" stroke="#FFFFFF" stroke-width="3">
            <g id="scotiza" transform="translate(993.000000, 1210.000000)">
                <path d="M77.266134,48.7858047 L77.266134,81.8269275 C77.266134,81.8269275 77.525899,88.6067771 68.2463564,88.6067771 C58.9668139,88.6067771 58.9668142,80.8707999 58.9668142,80.8707999 L58.9668142,68.9907135 L0.47583563,68.9907135 L0.47583563,81.6683478 C0.47583563,81.6683478 -0.638481159,88.6067771 12.9327457,88.6067771 L69.1007364,88.6067771" id="Path-369" stroke-linejoin="round"></path>
                <circle id="Oval-8" cx="77" cy="24" r="24"></circle>
                <path d="M30.5,35.5 L55.7722893,35.5" id="Line" stroke-linecap="round"></path>
                <path d="M30.5,46.5 L67.5,46.5" id="Line-Copy-2" stroke-linecap="round"></path>
                <path d="M30.5,55.5 L53.5217285,55.5" id="Line-Copy-3" stroke-linecap="round"></path>
                <polyline id="Path-373" points="18.9907721 68.2841763 18.9907721 23.1691684 52.8663156 23.1691684"></polyline>
                <path d="M83.6273683,15.9748329 C80.4766897,13.3996075 70.8986321,11.1705907 70.8986321,17.7370443 C70.8986321,24.3034979 83.6273686,22.0312406 83.6273684,28.7130098 C83.6273683,35.394779 72.9914666,32.4091501 69.5513433,29.2613522" id="Path-374" stroke-linecap="round"></path>
                <path d="M77.5,7.5 L77.5,13.5" id="Line" stroke-linecap="round"></path>
                <path d="M77.5,34.5 L77.5,38.5" id="Line-Copy-4" stroke-linecap="round"></path>
            </g>
        </g>
    </g>
</svg>