<?xml version="1.0" encoding="UTF-8"?>
<svg width="73px" height="97px" viewBox="0 0 73 97" version="1.1" xmlns="http://www.w3.org/2000/svg" xmlns:xlink="http://www.w3.org/1999/xlink">
    <!-- Generator: Sketch 3.8.1 (29687) - http://www.bohemiancoding.com/sketch -->
    <title>sproyectos</title>
    <desc>Created with Sketch.</desc>
    <defs></defs>
    <g id="Home" stroke="none" stroke-width="1" fill="none" fill-rule="evenodd">
        <g id="Home_white" transform="translate(-695.000000, -1257.000000)" fill="#FFFFFF">
            <g id="Servicios" transform="translate(105.000000, 1204.000000)">
                <g id="Nuevos-proyectos" transform="translate(411.000000, 1.000000)">
                    <g id="sproyectos" transform="translate(179.000000, 52.000000)">
                        <g id="Capa_1">
                            <path d="M25.0133585,35.0219492 C29.1661855,35.0219492 33.0658049,33.3654566 35.9941288,30.3577479 C38.5195416,27.7634481 41.4658565,22.967378 41.1591199,14.8515095 C40.8068503,5.554316 33.4880397,0.780004253 26.3880094,0.0437365022 C25.9544468,-0.00131868851 24.2619538,-0.0136264479 23.9236774,0.0162638249 C16.7354685,0.652970593 9.22386476,5.42991972 8.86781931,14.8517293 C8.56108272,22.967378 11.5073976,27.7634481 14.0328104,30.3577479 C16.9609122,33.3654566 20.8605315,35.0219492 25.0133585,35.0219492 L25.0133585,35.0219492 Z M32.7946062,27.3082808 C30.7114183,29.4480727 27.9481236,30.6265406 25.0133585,30.6265406 C22.0785934,30.6265406 19.3152988,29.4480727 17.2321109,27.3082808 C15.1284886,25.1471701 13.8420163,22.1675934 13.4328861,18.5750463 C21.4651203,18.1508682 29.7836567,16.2332753 36.5260869,13.2589734 C36.6291468,13.8176578 36.6966688,14.4020565 36.7197685,15.0161258 C36.9165597,20.2179124 35.5592336,24.4684851 32.7946062,27.3082808 L32.7946062,27.3082808 Z M25.0133585,4.34969405 C28.79015,4.50024432 32.6284665,6.0628902 34.8389246,9.19257759 C28.6111278,11.9662191 20.8743025,13.7629322 13.3695842,14.1774399 C14.0465814,7.68553641 19.5942714,4.56573918 25.0133585,4.34969405 L25.0133585,4.34969405 Z M52.3864344,57.4805332 C41.5269373,57.4805332 32.6924347,66.2227787 32.6924347,76.9685515 C32.6924347,87.7141046 41.5269373,96.4561303 52.3864344,96.4561303 C63.2463757,96.4561303 72.0815445,87.7141046 72.0815445,76.9685515 C72.0815445,66.2227787 63.2463757,57.4805332 52.3864344,57.4805332 L52.3864344,57.4805332 Z M52.3864344,92.060502 C43.9766099,92.060502 37.1346736,85.2903551 37.1346736,76.9685515 C37.1346736,68.6465281 43.9766099,61.8761615 52.3864344,61.8761615 C60.7969252,61.8761615 67.6393057,68.6465281 67.6393057,76.9685515 C67.6393057,85.2903551 60.7971473,92.060502 52.3864344,92.060502 L52.3864344,92.060502 Z M54.6075538,76.8623971 L54.6082201,84.8002426 C54.6082201,86.0140954 53.613825,86.9980568 52.3873228,86.9982765 C51.1605986,86.9982765 50.1659813,86.0143151 50.1659813,84.8006821 L50.1653149,76.8628367 C50.1653149,75.6489839 51.1597101,74.6650225 52.3862123,74.6648027 C53.6131586,74.6645829 54.6075538,75.6485443 54.6075538,76.8623971 L54.6075538,76.8623971 Z M54.6082201,69.1377396 C54.6082201,70.3515924 53.6136028,71.3348944 52.3871007,71.3348944 C51.1605986,71.3348944 50.1653149,70.3513726 50.1653149,69.1375198 C50.1653149,67.9236671 51.159488,66.9405848 52.3859901,66.9405848 L52.3871007,66.9405848 C53.613825,66.9405848 54.6082201,67.9238868 54.6082201,69.1377396 L54.6082201,69.1377396 Z M25.4813484,82.1055026 C25.4813484,83.3193554 24.4869532,84.3033168 23.260229,84.3033168 L2.29774805,84.3033168 C1.63763135,84.3033168 1.01194201,84.0338648 0.590151432,83.5316642 C0.168138741,83.0296835 -0.00644124634,82.3888009 0.113943427,81.7465996 L5.35378627,53.7829306 C7.19065203,43.9690309 16.5608886,39.5756004 25.0324602,39.5756004 C34.0884083,39.5756004 41.5584772,44.1962849 44.0634556,51.3481921 C44.4652562,52.4950115 43.8513387,53.7457875 42.6921365,54.1431524 C41.5331564,54.5407369 40.2677847,53.9304039 39.8662063,52.7835845 C37.5866714,46.2758567 30.4506589,43.9613386 25.0324602,43.9613386 C18.4001976,43.9613386 11.0936031,47.2321257 9.72161762,54.5631546 L4.96842205,79.9076884 L23.260229,79.9076884 C24.4867311,79.9076884 25.4813484,80.8918696 25.4813484,82.1055026 L25.4813484,82.1055026 Z" id="Shape"></path>
                        </g>
                    </g>
                </g>
            </g>
        </g>
    </g>
</svg>